<svg xmlns="http://www.w3.org/2000/svg"  viewBox="0 0 30 30" width="100px" height="100px"><path d="M27.418,6.5H8.945c-0.428,0-0.874,0.283-0.998,0.631L2.031,22.868C1.91,23.217,2.155,23.5,2.58,23.5h19.235	c0.426,0,0.872-0.283,0.996-0.632l5.157-15.737C28.091,6.783,27.844,6.5,27.418,6.5z M19.356,17.35l2.361,5.04H17.42l-1.232-3.153	l-1.368,0.944l-0.702,2.21h-3.234l1.961-6.153H5.716c1.067-3.166,3.369-4.124,5.465-4.55l2.587-0.523	c0.44-0.083,0.731-0.296,0.841-0.641c0.152-0.472-0.366-0.662-1.134-0.662c-0.896,0-1.83,0.082-2.268,1.149H7.665	c1.15-2.832,3.975-3.21,6.066-3.21c2.692,0,5.067,0.474,4.336,2.773c-0.499,1.562-2.305,2.192-3.556,2.415l-3.143,0.558	c-0.751,0.13-1.186,0.318-1.486,0.629h6.86l-0.929,2.898l3.929-2.898h4.286L19.356,17.35z"/></svg>