<svg xmlns="http://www.w3.org/2000/svg"  viewBox="0 0 30 30" width="100px" height="100px"><path d="M 13.019531 3.0136719 C 12.829531 3.0136719 12.650937 3.0134375 12.460938 3.0234375 C 5.8409375 3.3334375 0.71953125 8.9444531 1.0195312 15.564453 C 1.3195313 22.004453 6.63 27.013672 13 27.013672 C 13.19 27.013672 13.380547 27.013906 13.560547 27.003906 C 14.010547 26.983906 14.450859 26.933047 14.880859 26.873047 C 14.730859 26.563047 14.6 26.244063 14.5 25.914062 C 14.39 25.614062 14.300469 25.304375 14.230469 24.984375 C 14.340469 24.974375 14.449063 24.944531 14.539062 24.894531 C 14.439063 24.914531 14.330703 24.933359 14.220703 24.943359 L 13.980469 24.974609 L 13.970703 24.974609 C 13.600703 24.904609 13.309062 24.594609 13.289062 24.224609 L 12.919922 18.974609 C 12.909922 18.764609 12.729766 18.603516 12.509766 18.603516 C 12.289766 18.603516 12.109844 18.764609 12.089844 18.974609 L 11.730469 24.224609 C 11.710469 24.494609 11.550313 24.733047 11.320312 24.873047 C 11.190312 24.943047 11.029141 24.994141 10.869141 24.994141 C 10.569141 24.994141 10.290391 24.833516 10.150391 24.603516 C 10.060391 24.473516 10.009766 24.324063 10.009766 24.164062 L 10.009766 13.974609 C 10.009766 13.554609 9.8392969 13.14375 9.5292969 12.84375 L 5.4804688 8.953125 L 5.3203125 8.8242188 C 5.2903125 8.8042188 5.2604688 8.774375 5.2304688 8.734375 C 5.0904688 8.604375 5.0097656 8.4033594 5.0097656 8.1933594 C 5.0097656 7.7533594 5.3896094 7.4042969 5.8496094 7.4042969 C 6.0296094 7.4042969 6.2098437 7.4644531 6.3398438 7.5644531 C 6.3498437 7.5744531 6.3708594 7.58375 6.3808594 7.59375 L 10.679688 11.033203 C 10.979688 11.273203 11.36 11.404297 11.75 11.404297 L 13.269531 11.404297 C 13.659531 11.404297 14.030078 11.273203 14.330078 11.033203 L 18.630859 7.59375 C 18.770859 7.47375 18.960391 7.4042969 19.150391 7.4042969 C 19.360391 7.3942969 19.549219 7.4542187 19.699219 7.5742188 C 19.749219 7.6142188 19.790078 7.653125 19.830078 7.703125 C 20.120078 8.043125 20.059219 8.5542187 19.699219 8.8242188 L 19.529297 8.953125 L 15.490234 12.84375 C 15.180234 13.14375 15 13.554609 15 13.974609 L 15 18.923828 C 16.48 16.023828 19.480938 14.033672 22.960938 14.013672 L 23.009766 14.013672 C 23.329766 14.013672 23.650703 14.034453 23.970703 14.064453 C 24.310703 14.104453 24.650469 14.154375 24.980469 14.234375 C 24.570469 7.904375 19.309531 3.0136719 13.019531 3.0136719 z M 12.550781 5.0234375 L 12.640625 5.0234375 L 12.769531 5.0234375 C 14.019531 5.1434375 15 6.1640625 15 7.4140625 C 15 8.7340625 13.889766 9.8144531 12.509766 9.8144531 C 11.129766 9.8144531 10.009766 8.7340625 10.009766 7.4140625 C 10.009766 6.2640625 10.850703 5.3042187 11.970703 5.0742188 C 11.980703 5.0642188 11.989766 5.0644531 12.009766 5.0644531 C 12.189766 5.0444531 12.370781 5.0334375 12.550781 5.0234375 z M 22.679688 15.984375 C 22.549688 15.984375 22.449687 16.073125 22.429688 16.203125 L 22.400391 16.464844 C 22.370391 16.784844 22.120781 17.043281 21.800781 17.113281 C 21.590781 17.153281 21.379687 17.213438 21.179688 17.273438 C 20.869688 17.373438 20.530078 17.273672 20.330078 17.013672 L 20.179688 16.804688 C 20.109687 16.704687 19.969375 16.674375 19.859375 16.734375 L 19.230469 17.103516 C 19.120469 17.163516 19.070859 17.304063 19.130859 17.414062 L 19.230469 17.654297 C 19.360469 17.954297 19.279297 18.303438 19.029297 18.523438 C 18.879297 18.663438 18.729844 18.814609 18.589844 18.974609 C 18.369844 19.214609 18.020703 19.303828 17.720703 19.173828 L 17.480469 19.064453 C 17.360469 19.014453 17.220156 19.054063 17.160156 19.164062 L 16.800781 19.794922 C 16.740781 19.904922 16.769141 20.043047 16.869141 20.123047 L 17.070312 20.273438 C 17.340312 20.463438 17.439844 20.813047 17.339844 21.123047 C 17.269844 21.323047 17.219922 21.524375 17.169922 21.734375 C 17.109922 22.064375 16.849531 22.30375 16.519531 22.34375 L 16.310547 22.363281 C 16.140547 22.383281 16.039063 22.493047 16.039062 22.623047 L 16.039062 23.34375 C 16.039062 23.47375 16.139531 23.57375 16.269531 23.59375 L 16.519531 23.623047 C 16.809531 23.653047 17.050391 23.853281 17.150391 24.113281 C 17.160391 24.153281 17.169687 24.184609 17.179688 24.224609 C 17.219687 24.434609 17.269844 24.64375 17.339844 24.84375 C 17.369844 24.93375 17.380859 25.023281 17.380859 25.113281 C 17.370859 25.343281 17.260078 25.553359 17.080078 25.693359 L 16.869141 25.84375 C 16.769141 25.91375 16.740781 26.054062 16.800781 26.164062 L 16.910156 26.363281 L 17.160156 26.794922 C 17.220156 26.904922 17.360469 26.954531 17.480469 26.894531 L 17.720703 26.794922 C 18.020703 26.664922 18.369844 26.744375 18.589844 26.984375 C 18.729844 27.144375 18.879297 27.293594 19.029297 27.433594 C 19.279297 27.653594 19.360469 28.004687 19.230469 28.304688 L 19.130859 28.544922 C 19.070859 28.664922 19.120469 28.793281 19.230469 28.863281 L 19.859375 29.224609 C 19.969375 29.284609 20.109688 29.254297 20.179688 29.154297 L 20.330078 28.953125 C 20.530078 28.683125 20.869688 28.583594 21.179688 28.683594 C 21.379687 28.753594 21.590781 28.803516 21.800781 28.853516 C 22.120781 28.913516 22.370391 29.173906 22.400391 29.503906 L 22.429688 29.763672 C 22.449687 29.883672 22.549688 29.984375 22.679688 29.984375 L 23.400391 29.984375 C 23.530391 29.984375 23.640391 29.883906 23.650391 29.753906 L 23.679688 29.503906 C 23.719687 29.173906 23.959297 28.91375 24.279297 28.84375 C 24.489297 28.80375 24.700391 28.753594 24.900391 28.683594 C 25.210391 28.583594 25.56 28.683359 25.75 28.943359 L 25.900391 29.154297 C 25.980391 29.254297 26.120469 29.284609 26.230469 29.224609 L 26.849609 28.863281 C 26.959609 28.793281 27.010938 28.664922 26.960938 28.544922 L 26.849609 28.304688 C 26.719609 28.004687 26.800781 27.653594 27.050781 27.433594 C 27.210781 27.293594 27.36 27.144375 27.5 26.984375 C 27.72 26.744375 28.059141 26.664922 28.369141 26.794922 L 28.609375 26.894531 C 28.719375 26.944531 28.859922 26.904922 28.919922 26.794922 L 29.279297 26.164062 C 29.349297 26.054063 29.320938 25.91375 29.210938 25.84375 L 29.009766 25.693359 C 28.739766 25.493359 28.640234 25.15375 28.740234 24.84375 C 28.810234 24.63375 28.860156 24.434609 28.910156 24.224609 C 28.980156 23.904609 29.240547 23.653281 29.560547 23.613281 C 29.660547 23.603281 29.740312 23.59375 29.820312 23.59375 C 29.950312 23.57375 30.039063 23.47375 30.039062 23.34375 L 30.039062 22.623047 C 30.039063 22.493047 29.950312 22.383047 29.820312 22.373047 L 29.560547 22.34375 C 29.240547 22.30375 28.980156 22.064141 28.910156 21.744141 C 28.870156 21.534141 28.81 21.323047 28.75 21.123047 C 28.64 20.813047 28.739766 20.463438 29.009766 20.273438 L 29.220703 20.123047 C 29.320703 20.043047 29.349297 19.904922 29.279297 19.794922 L 28.919922 19.173828 C 28.859922 19.063828 28.719375 19.014453 28.609375 19.064453 L 28.369141 19.173828 C 28.059141 19.303828 27.72 19.224609 27.5 18.974609 C 27.36 18.814609 27.210781 18.663438 27.050781 18.523438 C 26.800781 18.303438 26.719609 17.964297 26.849609 17.654297 L 26.960938 17.414062 C 27.010938 17.304063 26.959609 17.163516 26.849609 17.103516 L 26.230469 16.744141 C 26.120469 16.674141 25.980391 16.704688 25.900391 16.804688 L 25.75 17.013672 C 25.56 17.273672 25.210391 17.373438 24.900391 17.273438 C 24.870391 17.263437 24.830781 17.254141 24.800781 17.244141 C 24.630781 17.194141 24.469063 17.143281 24.289062 17.113281 C 24.109063 17.073281 23.949609 16.97375 23.849609 16.84375 C 23.759609 16.73375 23.699688 16.604844 23.679688 16.464844 L 23.650391 16.203125 C 23.640391 16.073125 23.530391 15.984375 23.400391 15.984375 L 22.960938 15.984375 L 22.679688 15.984375 z M 23.039062 18.984375 C 23.119062 18.984375 23.199297 18.984141 23.279297 18.994141 C 23.619297 19.014141 23.949766 19.073828 24.259766 19.173828 C 25.869766 19.683828 27.039062 21.204375 27.039062 22.984375 C 27.039062 25.194375 25.249063 26.984375 23.039062 26.984375 C 21.579062 26.984375 20.299609 26.203203 19.599609 25.033203 C 19.429609 24.753203 19.299219 24.443281 19.199219 24.113281 C 19.099219 23.753281 19.039062 23.374375 19.039062 22.984375 C 19.039062 21.084375 20.360625 19.493984 22.140625 19.083984 C 22.430625 19.023984 22.729062 18.984375 23.039062 18.984375 z M 23.039062 21.984375 C 22.939062 21.984375 22.830234 22.003203 22.740234 22.033203 C 22.360234 22.153203 22.080781 22.484531 22.050781 22.894531 C 22.040781 22.924531 22.039062 22.954375 22.039062 22.984375 C 22.039062 23.534375 22.489063 23.984375 23.039062 23.984375 C 23.589063 23.984375 24.039062 23.534375 24.039062 22.984375 C 24.039062 22.434375 23.589063 21.984375 23.039062 21.984375 z"/></svg>