<svg xmlns="http://www.w3.org/2000/svg"  viewBox="0 0 30 30" width="100px" height="100px"><path d="M 4 2 L 4 7 L 3 7 A 1.0001 1.0001 0 1 0 3 9 L 4 9 C 4.552 9 5 9.447 5 10 C 5 10.553 4.552 11 4 11 L 3 11 A 1.0001 1.0001 0 1 0 3 13 L 4 13 C 4.552 13 5 13.447 5 14 C 5 14.553 4.552 15 4 15 L 3 15 A 1.0001 1.0001 0 1 0 3 17 L 4 17 C 4.552 17 5 17.447 5 18 C 5 18.553 4.552 19 4 19 L 3 19 A 1.0001 1.0001 0 1 0 3 21 L 4 21 C 4.552 21 5 21.447 5 22 C 5 22.553 4.552 23 4 23 L 4 28 L 24 28 C 25.105 28 26 27.105 26 26 L 26 4 C 26 2.895 25.105 2 24 2 L 4 2 z M 15.160156 8 C 19.219156 8 22 10.558875 22 14.296875 C 22 16.991875 20.720922 18.677734 18.669922 18.677734 C 17.610922 18.677734 16.839344 18.169469 16.652344 17.355469 L 16.5 17.355469 C 16.144 18.211469 15.449797 18.652344 14.466797 18.652344 C 12.703797 18.652344 11.533203 17.228172 11.533203 15.076172 C 11.533203 13.017172 12.686859 11.619141 14.380859 11.619141 C 15.287859 11.619141 16.024281 12.060453 16.363281 12.814453 L 16.517578 12.814453 L 16.517578 11.804688 L 18.228516 11.804688 L 18.228516 16.296875 C 18.228516 16.898875 18.525969 17.246094 19.042969 17.246094 C 19.898969 17.246094 20.449219 16.161406 20.449219 14.441406 C 20.449219 11.373406 18.331328 9.3730469 15.111328 9.3730469 C 11.831328 9.3730469 9.5527344 11.728375 9.5527344 15.109375 C 9.5527344 18.550375 11.832594 20.720703 15.433594 20.720703 C 16.340594 20.720703 17.263281 20.609453 17.738281 20.439453 L 17.738281 21.820312 C 17.077281 22.015313 16.204641 22.126953 15.306641 22.126953 C 10.890641 22.127953 8 19.322359 8 15.068359 C 8 10.881359 10.923156 8 15.160156 8 z M 14.890625 13.195312 C 13.992625 13.195312 13.457031 13.914953 13.457031 15.126953 C 13.457031 16.329953 13.992812 17.058594 14.882812 17.058594 C 15.789813 17.058594 16.357422 16.321953 16.357422 15.126953 C 16.357422 13.931953 15.788625 13.195313 14.890625 13.195312 z"/></svg>