<?xml version="1.0"?><svg xmlns="http://www.w3.org/2000/svg"  viewBox="0 0 30 30" width="100px" height="100px">    <path d="M 6.984375 2.9863281 A 1.0001 1.0001 0 0 0 6 4 L 6 13.271484 A 2 2 0 0 0 5 15 A 2 2 0 0 0 7 17 A 2 2 0 0 0 9 15 A 2 2 0 0 0 8 13.269531 L 8 4 A 1.0001 1.0001 0 0 0 6.984375 2.9863281 z M 14.984375 2.9863281 A 1.0001 1.0001 0 0 0 14 4 L 14 7.2695312 A 2 2 0 0 0 13 9 A 2 2 0 0 0 15 11 A 2 2 0 0 0 17 9 A 2 2 0 0 0 16 7.2714844 L 16 4 A 1.0001 1.0001 0 0 0 14.984375 2.9863281 z M 22.984375 2.9863281 A 1.0001 1.0001 0 0 0 22 4 L 22 17.271484 A 2 2 0 0 0 21 19 A 2 2 0 0 0 23 21 A 2 2 0 0 0 25 19 A 2 2 0 0 0 24 17.269531 L 24 4 A 1.0001 1.0001 0 0 0 22.984375 2.9863281 z M 14 12.859375 L 14 26 A 1 1 0 0 0 15 27 A 1 1 0 0 0 16 26 L 16 12.859375 C 15.679 12.942375 15.347 13 15 13 C 14.653 13 14.321 12.942375 14 12.859375 z M 6 18.859375 L 6 26 A 1 1 0 0 0 7 27 A 1 1 0 0 0 8 26 L 8 18.859375 C 7.679 18.942375 7.347 19 7 19 C 6.653 19 6.321 18.942375 6 18.859375 z M 22 22.859375 L 22 26 A 1 1 0 0 0 23 27 A 1 1 0 0 0 24 26 L 24 22.859375 C 23.679 22.942375 23.347 23 23 23 C 22.653 23 22.321 22.942375 22 22.859375 z"/></svg>