<?xml version="1.0"?><svg xmlns="http://www.w3.org/2000/svg"  viewBox="0 0 30 30" width="100px" height="100px">    <path d="M 15 2 C 14.548125 2 14.096953 2.1730781 13.751953 2.5175781 L 2.5175781 13.751953 C 1.8285781 14.440953 1.8285781 15.558047 2.5175781 16.248047 L 13.751953 27.484375 C 14.440953 28.173375 15.558047 28.173375 16.248047 27.484375 L 27.484375 16.248047 C 28.172375 15.558047 28.171422 14.440953 27.482422 13.751953 L 16.248047 2.5175781 C 15.903547 2.1730781 15.451875 2 15 2 z M 13 12 L 15.517578 12 C 17.304578 12 18.322266 13.067406 18.322266 14.941406 C 18.322266 16.910406 17.320578 18 15.517578 18 L 13 18 L 13 12 z M 8.0644531 12.003906 L 9.9316406 12.003906 L 11.945312 18 L 10.283203 18 L 9.9101562 16.683594 L 7.953125 16.683594 L 7.5664062 18 L 6.0546875 18 L 8.0644531 12.003906 z M 19 12.003906 L 21.638672 12.003906 C 23.038672 12.003906 23.878906 12.744422 23.878906 13.982422 C 23.878906 14.717422 23.511469 15.391734 22.855469 15.677734 L 24.052734 18 L 22.341797 18 L 21.314453 15.902344 L 20.525391 15.902344 L 20.525391 18 L 19 18 L 19 12.003906 z M 20.523438 13.154297 L 20.523438 14.824219 L 21.425781 14.824219 C 21.986781 14.824219 22.318359 14.513141 22.318359 13.994141 C 22.319359 13.483141 21.966875 13.154297 21.421875 13.154297 L 20.523438 13.154297 z M 14.525391 13.226562 L 14.525391 16.773438 L 15.244141 16.773438 C 16.233141 16.773438 16.769531 16.158703 16.769531 14.970703 C 16.769531 13.852703 16.204141 13.226562 15.244141 13.226562 L 14.525391 13.226562 z M 8.9003906 13.355469 L 8.2441406 15.585938 L 9.6230469 15.585938 L 8.9785156 13.355469 L 8.9003906 13.355469 z"/></svg>