<svg xmlns="http://www.w3.org/2000/svg"  viewBox="0 0 30 30" width="100px" height="100px"><path d="M 21.990234 7.9902344 A 1.0001 1.0001 0 0 0 21.292969 9.7070312 L 25.585938 14 L 14 14 A 1.0001 1.0001 0 1 0 14 16 L 25.585938 16 L 21.292969 20.292969 A 1.0001 1.0001 0 1 0 22.707031 21.707031 L 28.619141 15.794922 A 1.0001 1.0001 0 0 0 28.617188 14.203125 L 22.707031 8.2929688 A 1.0001 1.0001 0 0 0 21.990234 7.9902344 z M 2 14 A 1 1 0 0 0 1 15 A 1 1 0 0 0 2 16 A 1 1 0 0 0 3 15 A 1 1 0 0 0 2 14 z M 6 14 A 1 1 0 0 0 5 15 A 1 1 0 0 0 6 16 A 1 1 0 0 0 7 15 A 1 1 0 0 0 6 14 z M 10 14 A 1 1 0 0 0 9 15 A 1 1 0 0 0 10 16 A 1 1 0 0 0 11 15 A 1 1 0 0 0 10 14 z"/></svg>