<?xml version="1.0"?><svg xmlns="http://www.w3.org/2000/svg"  viewBox="0 0 30 30" width="100px" height="100px">    <path d="M 5 4 C 3.895 4 3 4.895 3 6 L 3 9 L 3 22.757812 L 5 20.757812 L 5 9 L 25 9 L 25 25 L 9.2421875 25 L 7.2421875 27 L 27 27 L 27 9 L 27 8 L 27 6 C 27 4.895 26.105 4 25 4 L 5 4 z M 10.207031 15 C 9.7620312 15 9.5385156 15.538516 9.8535156 15.853516 L 11.292969 17.292969 L 3.7070312 24.878906 C 3.3160312 25.269906 3.3160312 25.902969 3.7070312 26.292969 C 4.0980313 26.683969 4.7310938 26.683969 5.1210938 26.292969 L 12.707031 18.707031 L 14.146484 20.146484 C 14.461484 20.460484 15 20.237969 15 19.792969 L 15 15.5 C 15 15.224 14.776 15 14.5 15 L 10.207031 15 z"/></svg>