<?xml version="1.0"?><svg xmlns="http://www.w3.org/2000/svg"  viewBox="0 0 30 30" width="100px" height="100px">    <path d="M 5 5 C 3.897 5 3 5.897 3 7 L 3 18 C 3 19.103 3.897 20 5 20 L 9.140625 20 L 10.853516 18 L 5 18 L 5 7 L 25 7 L 25.001953 18 L 19.146484 18 L 20.857422 20 L 25 20 C 26.103 20 27 19.103 27 18 L 27 7 C 27 5.897 26.103 5 25 5 L 5 5 z M 15 16 A 1 1 0 0 0 14.21875 16.375 L 8.3105469 23.277344 A 1 1 0 0 0 8 24 A 1 1 0 0 0 8.8984375 24.994141 L 8.9003906 25 L 21.099609 25 L 21.101562 24.994141 A 1 1 0 0 0 22 24 A 1 1 0 0 0 21.689453 23.277344 L 21.6875 23.275391 L 15.783203 16.378906 A 1 1 0 0 0 15 16 z"/></svg>