<?xml version="1.0"?><svg xmlns="http://www.w3.org/2000/svg"  viewBox="0 0 30 30" width="100px" height="100px">    <path d="M 4.9492188 3 L 11.330078 8.7421875 C 11.711078 9.0861875 12.287922 9.0861875 12.669922 8.7421875 L 19.050781 3 L 4.9492188 3 z M 3 3.9355469 L 3 13.585938 L 8.078125 8.5078125 L 3 3.9355469 z M 21 3.9355469 L 15.921875 8.5078125 L 18.490234 11.076172 C 19.142234 10.401172 20.045 10 21 10 L 21 3.9355469 z M 9.5683594 9.8457031 L 4.4140625 15 L 15.941406 15 L 17.34375 12.757812 L 14.431641 9.8457031 L 14.005859 10.228516 C 13.433859 10.743516 12.715047 11.001953 11.998047 11.001953 C 11.281047 11.001953 10.564187 10.742516 9.9921875 10.228516 L 9.5683594 9.8457031 z M 21 12 C 20.443 12 19.962125 12.307812 19.703125 12.757812 L 12.248047 24.673828 C 12.091047 24.910828 12 25.195 12 25.5 C 12 26.328 12.672 27 13.5 27 L 21 27 L 28.5 27 C 29.328 27 30 26.328 30 25.5 C 30 25.195 29.908953 24.911781 29.751953 24.675781 L 22.296875 12.757812 C 22.037875 12.306812 21.557 12 21 12 z M 20 17 L 22 17 L 21.835938 22 L 20.166016 22 L 20 17 z M 21.003906 23.099609 C 21.626906 23.099609 22 23.433859 22 24.005859 C 22 24.567859 21.625906 24.900391 21.003906 24.900391 C 20.375906 24.900391 20 24.567859 20 24.005859 C 20 23.433859 20.375906 23.099609 21.003906 23.099609 z"/></svg>