<svg xmlns="http://www.w3.org/2000/svg"  viewBox="0 0 30 30" width="100px" height="100px"><path d="M 7 4 C 5.343 4 4 5.343 4 7 L 4 23 C 4 24.657 5.343 26 7 26 L 23 26 C 24.657 26 26 24.657 26 23 L 26 7 C 26 5.343 24.657 4 23 4 L 7 4 z M 9.8867188 6.0136719 L 12.755859 6.0136719 C 12.656859 6.3416719 12.554594 6.6829375 12.433594 7.0859375 C 12.817594 6.9379375 13.094094 6.8306094 13.371094 6.7246094 C 13.801094 6.5606094 14.224062 6.3722344 14.664062 6.2402344 C 15.216062 6.0752344 15.765203 5.9472031 16.283203 6.4082031 C 16.498203 6.5992031 16.831469 6.6562031 17.105469 6.7832031 C 17.340469 6.8922031 17.582875 6.9947187 17.796875 7.1367188 C 18.213875 7.4137188 18.347766 7.7707031 18.134766 8.2207031 C 17.931766 8.6497031 18.123562 8.7734375 18.476562 8.8984375 C 18.632562 8.9534375 18.858234 9.1094687 18.865234 9.2304688 C 18.901234 9.8294688 18.887234 10.432203 18.865234 11.033203 C 18.857234 11.268203 18.716125 11.348891 18.453125 11.337891 C 17.908125 11.315891 17.355406 11.306953 16.816406 11.376953 C 14.537406 11.671953 13.588188 12.928547 13.867188 15.185547 C 13.939187 15.768547 13.937078 16.362172 13.955078 16.951172 C 13.965078 17.275172 13.795891 17.447375 13.462891 17.484375 C 13.277891 17.505375 13.100953 17.587297 12.876953 17.654297 C 13.152953 18.124297 13.492875 17.999297 13.796875 17.904297 C 13.912875 17.868297 14.025719 17.837266 14.136719 17.822266 C 14.712719 17.746266 15.093922 17.186422 15.044922 16.607422 C 14.955922 15.562422 14.611359 14.529203 14.693359 13.408203 C 14.965359 13.595203 15.188656 13.701188 15.347656 13.867188 C 15.751656 14.288187 16.203719 14.261766 16.511719 13.759766 C 16.601719 13.613766 16.647328 13.440922 16.736328 13.294922 C 16.818328 13.158922 16.93125 13.042969 17.03125 12.917969 C 17.16125 13.074969 17.382344 13.220625 17.402344 13.390625 C 17.440344 13.706625 17.361125 14.034437 17.328125 14.398438 C 17.441125 14.378438 17.611078 14.398266 17.705078 14.322266 C 17.957078 14.118266 18.246047 13.905906 18.373047 13.628906 C 18.418047 13.531906 18.05275 13.217062 17.84375 13.039062 C 17.64875 12.872063 17.405266 12.764328 17.197266 12.611328 C 17.009266 12.473328 17.025516 12.243703 17.228516 12.220703 C 17.581516 12.180703 17.962688 12.198969 18.304688 12.292969 C 18.610688 12.377969 18.615172 12.684516 18.576172 12.978516 C 18.549172 13.174516 18.600609 13.379078 18.599609 13.580078 C 18.597609 14.024078 18.646453 14.481109 18.564453 14.912109 C 18.129453 17.199109 17.229453 19.301531 15.814453 21.144531 C 15.213453 21.926531 14.436391 22.603219 13.650391 23.199219 C 13.554391 23.272219 13.442125 23.333047 13.328125 23.373047 C 10.921125 24.228047 9.5589062 23.340328 8.3789062 22.111328 C 8.0799063 21.799328 7.8356094 21.385359 7.4746094 21.193359 C 7.1476094 21.019359 6.8483125 20.819703 6.5703125 20.595703 C 6.3203125 20.394703 6.1894531 20.078812 6.1894531 19.757812 L 6.1894531 9.4960938 C 6.3404531 9.5220937 6.4521406 9.4498906 6.4941406 9.2128906 C 6.5801406 8.7328906 6.7461875 8.2524375 6.7421875 7.7734375 C 6.7351875 7.1454375 7.0899375 6.9156719 7.5859375 6.7636719 C 7.8049375 6.6966719 8.029 6.6487969 8.25 6.5917969 C 8.695 6.4787969 9.1380781 6.3709531 9.5800781 6.2519531 C 9.7360781 6.2099531 9.8407188 6.1296719 9.8867188 6.0136719 z M 9.6035156 10.6875 C 8.5015156 10.6375 7.3626719 11.045281 7.2636719 11.738281 C 7.3256719 11.716281 7.3778281 11.705687 7.4238281 11.679688 C 8.3188281 11.165688 9.2056094 11.249219 10.099609 11.699219 C 10.450609 11.875219 10.700578 12.070906 10.767578 12.503906 C 10.842578 12.989906 11.049813 13.104875 11.632812 13.046875 C 11.430813 12.700875 11.255828 12.400875 11.048828 12.046875 C 11.505828 12.075875 11.872391 12.098047 12.275391 12.123047 C 12.040391 11.277047 10.969516 10.7495 9.6035156 10.6875 z M 20.560547 11.277344 C 20.633547 11.269344 20.782313 11.536313 20.820312 11.695312 C 21.013312 12.516312 20.548516 13.358734 19.603516 13.802734 C 19.698516 13.158734 19.772094 12.589391 19.871094 12.025391 C 19.900094 11.860391 19.964219 11.674641 20.074219 11.556641 C 20.199219 11.421641 20.387547 11.295344 20.560547 11.277344 z M 9.8769531 11.904297 C 8.8899531 12.188297 7.8811875 12.340594 7.1171875 13.058594 C 7.1221875 13.103594 7.1278125 13.147359 7.1328125 13.193359 C 7.2648125 13.212359 7.4103437 13.277188 7.5273438 13.242188 C 7.8183438 13.156187 8.0735469 13.173391 8.3105469 13.275391 C 9.8075469 13.916391 10.527719 13.424734 9.8867188 11.927734 C 9.8837187 11.919734 9.8799531 11.912297 9.8769531 11.904297 z M 10.689453 13.900391 C 10.301453 13.925391 9.9704375 14.244656 9.8984375 14.722656 C 10.320438 14.678656 10.716828 14.681531 10.923828 14.269531 C 11.038828 14.041531 10.999453 13.879391 10.689453 13.900391 z M 11.746094 16.042969 C 11.581594 16.064094 11.444062 16.138156 11.351562 16.285156 C 11.126563 16.643156 10.970203 17.073234 10.908203 17.490234 C 10.886203 17.638234 11.227875 17.839156 11.421875 18.035156 C 11.743875 17.335156 12.014781 16.747047 12.300781 16.123047 C 12.101281 16.053547 11.910594 16.021844 11.746094 16.042969 z M 12.027344 19.671875 C 11.239469 19.65975 10.453703 19.797047 9.6582031 20.185547 C 10.014203 20.477547 10.195609 20.551781 10.599609 20.425781 C 11.225609 20.229781 11.816266 20.232641 12.447266 20.431641 C 12.832266 20.552641 13.271594 20.540438 13.683594 20.523438 C 13.958594 20.511437 14.270203 20.447594 14.408203 20.058594 C 13.604203 19.845594 12.815219 19.684 12.027344 19.671875 z M 12.289062 20.765625 C 11.83957 20.719648 11.391094 20.913359 11.214844 21.318359 C 11.841844 21.359359 12.465063 21.614281 13.039062 21.113281 C 12.829062 20.907031 12.558758 20.793211 12.289062 20.765625 z M 7.2167969 22.361328 C 7.3905625 22.374 7.5653594 22.435234 7.7246094 22.552734 C 8.0026094 22.758734 8.2852187 22.957484 8.5742188 23.146484 C 9.0642188 23.466484 9.5861406 23.744047 10.119141 23.998047 L 7 23.998047 C 6.702 23.998047 6.4427656 23.861297 6.2597656 23.654297 C 6.2177656 23.548297 6.1894531 23.4345 6.1894531 23.3125 C 6.1894531 22.71925 6.6955 22.323313 7.2167969 22.361328 z M 14.847656 23.396484 C 15.028656 23.352484 15.383734 23.436781 15.427734 23.550781 C 15.475734 23.674781 15.444625 23.844 15.390625 24 L 13.826172 24 C 14.109172 23.714 14.442656 23.496484 14.847656 23.396484 z"/></svg>