<svg xmlns="http://www.w3.org/2000/svg"  viewBox="0 0 30 30" width="100px" height="100px"><path d="M 15 3 C 8.373 3 3 8.373 3 15 C 3 21.29 7.842 26.439219 14 26.949219 L 14 23.802734 C 14 23.328734 13.684656 22.899922 13.222656 22.794922 C 9.5256562 21.955922 6.7997187 18.562453 7.0117188 14.564453 C 7.2287187 10.473453 10.675531 7.1189063 14.769531 7.0039062 C 19.293531 6.8759063 23 10.505 23 15 C 23 15.383 22.964109 15.757953 22.912109 16.126953 C 22.897109 16.232953 22.881281 16.336406 22.863281 16.441406 C 22.821281 16.671406 22.768031 16.898094 22.707031 17.121094 C 21.292031 22.619094 14.875078 26.491125 14.080078 26.953125 C 14.384078 26.976125 14.69 27 15 27 C 21.627 27 27 21.627 27 15 C 27 8.373 21.627 3 15 3 z"/></svg>