<svg xmlns="http://www.w3.org/2000/svg"  viewBox="0 0 30 30" width="100px" height="100px"><path d="M 14.955078 3.9882812 A 1.0001 1.0001 0 0 0 14.105469 4.5527344 L 9.1054688 14.552734 A 1.0001 1.0001 0 0 0 9.1054688 15.447266 L 14.105469 25.447266 A 1.0001163 1.0001163 0 1 0 15.894531 24.552734 L 11.117188 15 L 15.894531 5.4472656 A 1.0001 1.0001 0 0 0 14.955078 3.9882812 z M 10 4 A 1.0001 1.0001 0 1 0 10 6 A 1.0001 1.0001 0 1 0 10 4 z M 20 4 C 19.63775 4 19.275469 4.1702656 19.105469 4.5097656 L 14.105469 14.529297 C 13.964469 14.811297 13.964469 15.144781 14.105469 15.425781 L 19.105469 25.445312 C 19.274469 25.785313 19.621 26 20 26 C 20.379 26 20.724531 25.785313 20.894531 25.445312 L 25.894531 15.425781 C 26.034531 15.143781 26.034531 14.810297 25.894531 14.529297 L 20.894531 4.5097656 C 20.724531 4.1702656 20.36225 4 20 4 z M 8.3339844 7.3339844 L 7.5332031 7.734375 L 7.375 8.6171875 L 7.9863281 9.2714844 L 8.3339844 9.3339844 L 9.1347656 8.9316406 L 9.2929688 8.0507812 L 8.6796875 7.3964844 L 8.3339844 7.3339844 z M 6.6679688 10.667969 L 5.8652344 11.068359 L 5.7089844 11.951172 L 6.3203125 12.605469 L 6.6679688 12.667969 L 7.46875 12.265625 L 7.6269531 11.382812 L 7.0136719 10.728516 L 6.6679688 10.667969 z M 5 14 A 1.0001 1.0001 0 1 0 5 16 A 1.0001 1.0001 0 1 0 5 14 z M 6.6660156 17.333984 L 5.8652344 17.734375 L 5.7070312 18.617188 L 6.3203125 19.271484 L 6.6660156 19.333984 L 7.4667969 18.931641 L 7.625 18.050781 L 7.0136719 17.396484 L 6.6660156 17.333984 z M 8.3320312 20.667969 L 7.53125 21.068359 L 7.3730469 21.951172 L 7.9863281 22.605469 L 8.3320312 22.667969 L 9.1347656 22.265625 L 9.2910156 21.382812 L 8.6796875 20.728516 L 8.3320312 20.667969 z M 10 24 A 1.0001 1.0001 0 1 0 10 26 A 1.0001 1.0001 0 1 0 10 24 z"/></svg>