<?xml version="1.0"?><svg xmlns="http://www.w3.org/2000/svg"  viewBox="0 0 30 30" width="100px" height="100px">    <path d="M 6 4 C 4.895 4 4 4.895 4 6 L 4 24 C 4 25.105 4.895 26 6 26 L 7.5566406 26 C 7.2126406 25.409 7 24.732 7 24 L 7 6 C 7 5.268 7.2126406 4.591 7.5566406 4 L 6 4 z M 11 4 C 9.895 4 9 4.895 9 6 L 9 24 C 9 25.105 9.895 26 11 26 L 24 26 C 25.105 26 26 25.105 26 24 L 26 6 C 26 4.895 25.105 4 24 4 L 11 4 z M 16.287109 8 L 18.712891 8 L 18.511719 17 L 16.488281 17 L 16.287109 8 z M 17.503906 19.648438 C 18.437906 19.648438 19 20.149813 19 21.007812 C 19 21.850812 18.437906 22.351563 17.503906 22.351562 C 16.561906 22.351562 16 21.850812 16 21.007812 C 16 20.149812 16.561906 19.648438 17.503906 19.648438 z"/></svg>