<svg xmlns="http://www.w3.org/2000/svg"  viewBox="0 0 30 30" width="100px" height="100px"><path d="M11 6H6C4.897 6 4 6.897 4 8v5c0 1.103.897 2 2 2h5c1.103 0 2-.897 2-2V8C13 6.897 12.103 6 11 6zM25.449 8.086L21.914 4.55c-.779-.78-2.049-.78-2.828 0l-3.535 3.536c-.78.78-.78 2.048 0 2.828l3.535 3.536c.39.39.902.585 1.414.585s1.024-.195 1.414-.585l3.535-3.536C26.229 10.134 26.229 8.866 25.449 8.086zM11 17H6c-1.103 0-2 .897-2 2v5c0 1.103.897 2 2 2h5c1.103 0 2-.897 2-2v-5C13 17.897 12.103 17 11 17zM22 17h-5c-1.103 0-2 .897-2 2v5c0 1.103.897 2 2 2h5c1.103 0 2-.897 2-2v-5C24 17.897 23.103 17 22 17z"/></svg>