<svg xmlns="http://www.w3.org/2000/svg"  viewBox="0 0 30 30" width="100px" height="100px"><path d="M 18.5 3 A 2.5 2.5 0 0 0 16 5.5 A 2.5 2.5 0 0 0 18.5 8 A 2.5 2.5 0 0 0 21 5.5 A 2.5 2.5 0 0 0 18.5 3 z M 16.490234 8.9980469 A 1.0001 1.0001 0 0 0 16.390625 9.0039062 A 2.5 2.5 0 0 0 15.746094 9.1191406 L 10.820312 10.015625 A 1.0001 1.0001 0 0 0 10.400391 10.199219 L 6.4003906 13.199219 A 1.0003907 1.0003907 0 0 0 7.5566406 14.830078 L 7.5664062 14.824219 A 1.0003907 1.0003907 0 0 0 7.5703125 14.820312 L 11.408203 12.394531 L 13.558594 12.404297 L 12.671875 15.041016 C 12.450856 15.016098 12.227432 15 12 15 C 8.6981361 15 6 17.698136 6 21 C 6 24.301864 8.6981361 27 12 27 C 15.301864 27 18 24.301864 18 21 C 18 20.8398 17.989026 20.682509 17.976562 20.525391 L 19.445312 21.164062 L 20 26 A 1.0001 1.0001 0 1 0 22 26 L 22 19 A 1.0001 1.0001 0 0 0 21.371094 18.072266 L 17.451172 16.503906 L 17.791016 15.496094 A 2.5 2.5 0 0 0 17.917969 15.119141 L 18.878906 12.273438 L 18.876953 12.269531 A 2.5 2.5 0 0 0 19 11.5 A 2.5 2.5 0 0 0 16.638672 9.0058594 A 1.0001 1.0001 0 0 0 16.490234 8.9980469 z M 12 17 C 14.220984 17 16 18.779016 16 21 C 16 23.220984 14.220984 25 12 25 C 9.7790164 25 8 23.220984 8 21 C 8 18.779016 9.7790164 17 12 17 z"/></svg>