<svg xmlns="http://www.w3.org/2000/svg"  viewBox="0 0 30 30" width="100px" height="100px"><path d="M 10 4 C 6.6983746 4 4 6.6983746 4 10 A 1.0001 1.0001 0 1 0 6 10 C 6 7.7796254 7.7796254 6 10 6 L 20 6 C 22.220375 6 24 7.7796254 24 10 L 24 12 L 21 12 L 25 16 L 29 12 L 26 12 L 26 10 C 26 6.6983746 23.301625 4 20 4 L 10 4 z M 5 14 L 1 18 L 4 18 L 4 20 C 4 23.301625 6.6983746 26 10 26 L 20 26 C 23.301625 26 26 23.301625 26 20 A 1.0001 1.0001 0 1 0 24 20 C 24 22.220375 22.220375 24 20 24 L 10 24 C 7.7796254 24 6 22.220375 6 20 L 6 18 L 9 18 L 5 14 z"/></svg>