<svg xmlns="http://www.w3.org/2000/svg"  viewBox="0 0 30 30" width="100px" height="100px"><path d="M 22 3 C 18.874 3 18.214047 7.4140625 14.873047 7.4140625 C 12.890047 7.4140625 11.814094 5 10.246094 5 C 9.3550937 5 8 5.8340312 8 7.3320312 C 8 8.8290312 9 9.581 9 12 C 9 16.358 3 16.169 3 20 C 3 21.255 4.003 23 6 23 C 8.552 23 7.799 22 12 22 C 18.121 22 18.341 27.001953 22.5 27.001953 C 24.396 27.001953 27 25.556359 27 22.318359 C 27 18.302359 22 18.303 22 14 C 22 10.365 26 10.521859 26 6.5058594 C 26 3.8758594 23.423 3 22 3 z M 17.898438 10.572266 C 18.368437 10.572266 18.748047 10.954828 18.748047 11.423828 L 18.748047 17.644531 C 18.748047 18.113531 18.368438 18.494141 17.898438 18.494141 C 17.494438 18.494141 17.173891 18.207078 17.087891 17.830078 C 16.479891 18.299078 15.737688 18.582031 14.929688 18.582031 C 12.887688 18.582031 11.230469 16.816672 11.230469 14.638672 C 11.230469 12.460672 12.887687 10.695313 14.929688 10.695312 C 15.720688 10.695312 16.448781 10.965016 17.050781 11.416016 C 17.054781 10.950016 17.431438 10.572266 17.898438 10.572266 z M 14.929688 12.294922 A 2.098 2.344 0 1 0 14.929688 16.982422 A 2.098 2.344 0 1 0 14.929688 12.294922 z"/></svg>