<svg xmlns="http://www.w3.org/2000/svg"  viewBox="0 0 32 32" width="100px" height="100px"><path d="M5,9.5C5,7.015,7.015,5,9.5,5h13C24.985,5,27,7.015,27,9.5v13c0,2.485-2.015,4.5-4.5,4.5h-13C7.015,27,5,24.985,5,22.5V9.5 z M8.408,10.591c-0.354,0.117-0.354,0.618,0,0.734c0.816,0.268,1.456,0.909,1.725,1.725c0.117,0.354,0.618,0.354,0.734,0 c0.268-0.816,0.909-1.456,1.725-1.725c0.354-0.117,0.354-0.618,0-0.734c-0.816-0.268-1.456-0.909-1.725-1.725 c-0.117-0.354-0.618-0.354-0.734,0C9.864,9.683,9.224,10.323,8.408,10.591z M19.644,9.991c-0.138-0.42-0.733-0.42-0.871,0 l-0.646,1.966c-0.318,0.968-1.078,1.727-2.045,2.045l-1.966,0.646c-0.42,0.138-0.42,0.733,0,0.871l1.966,0.646 c0.968,0.318,1.727,1.078,2.045,2.045l0.646,1.966c0.138,0.42,0.733,0.42,0.871,0l0.647-1.966c0.318-0.968,1.077-1.727,2.045-2.045 l1.966-0.646c0.42-0.138,0.42-0.733,0-0.871l-1.966-0.647c-0.968-0.318-1.727-1.077-2.045-2.045L19.644,9.991z M12.769,18.241 c-0.138-0.42-0.733-0.42-0.871,0l-0.079,0.241c-0.318,0.968-1.077,1.727-2.045,2.045l-0.241,0.079c-0.42,0.138-0.42,0.733,0,0.871 l0.241,0.079c0.968,0.318,1.727,1.077,2.045,2.045l0.079,0.241c0.138,0.42,0.733,0.42,0.871,0l0.079-0.241 c0.318-0.968,1.078-1.727,2.045-2.045l0.241-0.079c0.42-0.138,0.42-0.733,0-0.871l-0.241-0.079 c-0.968-0.318-1.727-1.078-2.045-2.045L12.769,18.241z"/></svg>