<?xml version="1.0"?><svg xmlns="http://www.w3.org/2000/svg"  viewBox="0 0 30 30" width="100px" height="100px">    <path d="M 13 3 C 12.734 3 12.479969 3.1049687 12.292969 3.2929688 L 11.585938 4 L 7.734375 4 C 6.251375 4 4.9736719 5.1071719 4.7636719 6.5761719 L 4.4179688 9 L 6.4394531 9 L 6.7441406 6.8574219 C 6.8131406 6.3684219 7.240375 6 7.734375 6 L 12 6 C 12.266 6 12.520031 5.8950312 12.707031 5.7070312 L 13.414062 5 L 16.585938 5 L 17.292969 5.7070312 C 17.479969 5.8950312 17.734 6 18 6 L 22.265625 6 C 22.759625 6 23.186859 6.369375 23.255859 6.859375 L 23.560547 9 L 25.582031 9 L 25.236328 6.5761719 C 25.025328 5.1071719 23.748625 4 22.265625 4 L 18.414062 4 L 17.707031 3.2929688 C 17.520031 3.1049687 17.266 3 17 3 L 13 3 z M 3 11 C 2.448 11 2 11.448 2 12 L 2 14 C 2 14.552 2.448 15 3 15 L 3.1660156 15 L 4.7207031 24.328125 C 4.8817031 25.292125 5.7163594 26 6.6933594 26 L 23.304688 26 C 24.282688 26 25.116344 25.292125 25.277344 24.328125 L 26.833984 15 L 27 15 C 27.552 15 28 14.552 28 14 L 28 12 C 28 11.448 27.552 11 27 11 L 3 11 z M 10 16 C 10.552 16 11 16.448 11 17 L 11 22 C 11 22.552 10.552 23 10 23 C 9.448 23 9 22.552 9 22 L 9 17 C 9 16.448 9.448 16 10 16 z M 15 16 C 15.552 16 16 16.448 16 17 L 16 22 C 16 22.552 15.552 23 15 23 C 14.448 23 14 22.552 14 22 L 14 17 C 14 16.448 14.448 16 15 16 z M 20 16 C 20.552 16 21 16.448 21 17 L 21 22 C 21 22.552 20.552 23 20 23 C 19.448 23 19 22.552 19 22 L 19 17 C 19 16.448 19.448 16 20 16 z"/></svg>