<?xml version="1.0"?><svg xmlns="http://www.w3.org/2000/svg"  viewBox="0 0 30 30" width="100px" height="100px">    <path d="M 22.365234 1.9980469 C 22.008234 2.0740469 21.672844 2.1446562 21.339844 2.2226562 C 21.301844 2.2316562 21.247094 2.2824063 21.246094 2.3164062 C 21.239094 2.6474062 21.242188 2.9808906 21.242188 3.3378906 C 21.613187 3.2658906 21.954922 3.1979531 22.294922 3.1269531 C 22.321922 3.1209531 22.361328 3.0825938 22.361328 3.0585938 C 22.366328 2.7085937 22.365234 2.3570469 22.365234 1.9980469 z M 20.960938 2.3027344 C 20.708938 2.3507344 20.467562 2.3963594 20.226562 2.4433594 C 19.842562 2.5193594 19.841797 2.5204844 19.841797 2.8964844 L 19.841797 3.5898438 C 20.232797 3.5198438 20.596891 3.455625 20.962891 3.390625 C 20.961891 3.013625 20.960937 2.6627344 20.960938 2.3027344 z M 19.572266 2.5683594 C 19.202266 2.6293594 18.855813 2.6860469 18.507812 2.7480469 C 18.484813 2.7520469 18.453125 2.7991719 18.453125 2.8261719 C 18.449125 3.1471719 18.449219 3.4695938 18.449219 3.8085938 C 18.807219 3.7535937 19.136844 3.7044375 19.464844 3.6484375 C 19.504844 3.6444375 19.567359 3.5974062 19.568359 3.5664062 C 19.575359 3.2404062 19.572266 2.9123594 19.572266 2.5683594 z M 16.751953 3.0097656 C 16.371953 3.0567656 16.002672 3.1034375 15.638672 3.1484375 L 15.638672 4.1640625 C 16.017672 4.1210625 16.384953 4.0810625 16.751953 4.0390625 L 16.751953 3.0097656 z M 23.746094 3.0703125 C 23.399094 3.1443125 23.05775 3.2169687 22.71875 3.2929688 C 22.69175 3.2999688 22.652344 3.336375 22.652344 3.359375 C 22.647344 3.669375 22.647438 3.9797813 22.648438 4.3007812 C 23.026437 4.2257813 23.383094 4.1520781 23.746094 4.0800781 C 23.745094 3.7470781 23.746094 3.4213125 23.746094 3.0703125 z M 15.353516 3.1796875 C 14.958516 3.2196875 14.58875 3.258875 14.21875 3.296875 L 14.21875 4.3007812 C 14.57975 4.2687812 14.93025 4.2371719 15.28125 4.2011719 C 15.30725 4.1981719 15.351562 4.1597187 15.351562 4.1367188 C 15.356563 3.8227187 15.353516 3.5066875 15.353516 3.1796875 z M 13.923828 3.3203125 C 13.538828 3.3513125 13.170734 3.3821094 12.802734 3.4121094 L 12.802734 4.4042969 C 13.180734 4.3772969 13.548828 4.3512188 13.923828 4.3242188 L 13.923828 3.3203125 z M 12.505859 3.4335938 C 12.129859 3.4535938 11.764766 3.4721875 11.384766 3.4921875 L 11.384766 4.4863281 C 11.768766 4.4653281 12.137859 4.4457812 12.505859 4.4257812 L 12.505859 3.4335938 z M 7.1152344 3.5625 L 7.1152344 4.5332031 L 8.2363281 4.5332031 L 8.2363281 3.5625 L 7.1152344 3.5625 z M 8.5488281 3.5664062 L 8.5488281 4.5332031 L 9.6640625 4.5332031 L 9.6640625 3.5664062 L 8.5488281 3.5664062 z M 20.960938 3.6367188 C 20.614937 3.6967188 20.2745 3.7534062 19.9375 3.8164062 C 19.9025 3.8234063 19.845703 3.863625 19.845703 3.890625 C 19.839703 4.180625 19.841797 4.4703438 19.841797 4.7773438 C 20.228797 4.7163438 20.591938 4.6576094 20.960938 4.5996094 L 20.960938 3.6367188 z M 19.564453 3.8925781 C 18.250453 4.0665781 16.942047 4.2390625 15.623047 4.4140625 L 15.623047 6.6640625 C 14.798047 6.6990625 13.98125 6.7345312 13.15625 6.7695312 L 13.15625 5.8710938 C 13.51125 5.8520937 13.858172 5.8344063 14.201172 5.8164062 L 14.201172 4.5488281 C 12.779172 4.6228281 11.374172 4.6955312 9.9511719 4.7695312 L 9.9511719 6.9335938 L 7.1171875 6.9335938 L 7.1171875 8.0410156 L 8.21875 8.0410156 L 8.21875 8.8964844 L 7.1191406 8.8964844 L 7.1191406 9.9882812 L 8.5371094 9.9882812 L 8.5371094 13.490234 L 9.6210938 13.490234 L 9.6210938 14.339844 L 8.5410156 14.339844 L 8.5410156 15.671875 L 9.6269531 15.671875 L 9.6269531 16.519531 L 8.5273438 16.519531 L 8.5273438 20.017578 L 7.1210938 20.017578 L 7.1210938 22.220703 L 8.2148438 22.220703 L 8.2148438 23.066406 L 9.9648438 23.066406 L 9.9648438 25.240234 C 10.924844 25.280234 11.864125 25.319375 12.828125 25.359375 L 12.828125 24.523438 C 13.204125 24.554437 13.556734 24.583281 13.927734 24.613281 L 13.927734 23.220703 C 14.504734 23.262703 15.060812 23.303703 15.632812 23.345703 L 15.632812 25.585938 C 16.952812 25.759937 18.256219 25.930469 19.574219 26.105469 L 19.574219 23.757812 C 19.810219 23.773812 20.021469 23.788734 20.230469 23.802734 C 20.953469 23.850734 21.671859 23.840156 22.380859 23.660156 C 23.687859 23.329156 24.574641 22.592125 24.931641 21.328125 C 25.152641 20.548125 25.184609 19.754078 25.099609 18.955078 C 25.029609 18.297078 24.845141 17.674703 24.494141 17.095703 C 24.384141 16.915703 24.26925 16.809078 24.03125 16.830078 C 23.83425 16.848078 23.635547 16.817594 23.435547 16.808594 C 23.179547 16.797594 22.92125 16.787391 22.65625 16.775391 C 22.65625 16.410391 22.650156 16.062844 22.660156 15.714844 C 22.663156 15.606844 22.625391 15.555344 22.525391 15.527344 C 22.082391 15.403344 21.640359 15.267297 21.193359 15.154297 C 20.936359 15.089297 20.669391 15.059672 20.400391 15.013672 L 20.400391 14.666016 C 20.400391 14.264016 20.401641 14.266813 20.806641 14.132812 C 21.510641 13.900813 22.205734 13.654891 22.802734 13.212891 C 23.470734 12.717891 23.949422 12.093891 24.232422 11.337891 C 24.488422 10.655891 24.511031 9.9444687 24.457031 9.2304688 C 24.415031 8.6824687 24.283719 8.1511094 24.011719 7.6621094 C 23.797719 7.2781094 23.493516 6.9691406 23.103516 6.7441406 C 22.276516 6.2681406 21.364063 6.1414062 20.414062 6.1914062 C 20.136063 6.2064062 19.860125 6.2222812 19.578125 6.2382812 C 19.572125 6.1492812 19.5675 6.0760469 19.5625 5.9980469 C 19.1925 6.0420469 18.838516 6.0849531 18.478516 6.1269531 L 18.478516 5.2207031 C 18.844516 5.1697031 19.204453 5.1193594 19.564453 5.0683594 L 19.564453 3.8925781 z M 23.746094 4.3398438 C 23.376094 4.4118438 23.01525 4.4817344 22.65625 4.5527344 L 22.65625 5.5429688 C 23.02825 5.4769688 23.391094 5.4126094 23.746094 5.3496094 L 23.746094 4.3398438 z M 22.361328 4.6035156 C 21.978328 4.6705156 21.612859 4.7358281 21.255859 4.7988281 L 21.255859 5.765625 C 21.633859 5.705625 21.996328 5.6478438 22.361328 5.5898438 L 22.361328 4.6035156 z M 8.5429688 4.7753906 L 8.5429688 5.6171875 L 9.6601562 5.6171875 L 9.6601562 4.7753906 L 8.5429688 4.7753906 z M 20.957031 4.8457031 C 20.579031 4.9047031 20.216656 4.9605781 19.847656 5.0175781 L 19.847656 5.9667969 C 20.230656 5.9127969 20.595031 5.8615469 20.957031 5.8105469 L 20.957031 5.8085938 L 20.957031 4.8457031 z M 7.1171875 5.8554688 L 7.1171875 6.7148438 L 8.2382812 6.7148438 L 8.2382812 5.8554688 L 7.1171875 5.8554688 z M 8.546875 5.859375 L 8.546875 6.7109375 L 9.6679688 6.7109375 L 9.6679688 5.859375 L 8.546875 5.859375 z M 2.8652344 6.7773438 L 2.8652344 7.6601562 C 3.2422344 7.6791563 3.6094219 7.6977969 3.9824219 7.7167969 L 3.9824219 6.8359375 C 3.6064219 6.8169375 3.2402344 6.7963438 2.8652344 6.7773438 z M 4.2792969 6.8769531 L 4.2792969 7.7421875 L 5.3867188 7.7421875 L 5.3867188 6.8769531 L 4.2792969 6.8769531 z M 5.6953125 6.9257812 L 5.6953125 7.7851562 L 6.8164062 7.7851562 L 6.8164062 6.9257812 L 5.6953125 6.9257812 z M 12.507812 7.8945312 L 12.507812 8.7636719 C 12.136812 8.7796719 11.772438 8.7955469 11.398438 8.8105469 L 11.398438 7.9453125 C 11.772438 7.9273125 12.135812 7.9115313 12.507812 7.8945312 z M 23.746094 7.9667969 L 23.746094 8.9882812 C 23.393094 9.0292813 23.037922 9.0712813 22.669922 9.1132812 L 22.669922 8.1171875 C 23.017922 8.0691875 23.372094 8.0197969 23.746094 7.9667969 z M 4.2773438 7.9765625 L 4.2773438 8.8378906 L 5.3886719 8.8378906 L 5.3886719 7.9765625 L 4.2773438 7.9765625 z M 9.9882812 7.9863281 L 11.082031 7.9863281 L 11.082031 8.828125 L 9.9882812 8.828125 L 9.9882812 7.9863281 z M 2.8574219 9.0253906 C 2.8574219 9.2803906 2.8543281 9.5513125 2.8613281 9.8203125 C 2.8623281 9.8433125 2.9153594 9.8857187 2.9433594 9.8867188 C 3.2863594 9.8917188 3.6284688 9.8886719 3.9804688 9.8886719 L 3.9804688 9.0253906 L 2.8574219 9.0253906 z M 5.6953125 9.109375 L 5.6953125 9.96875 L 6.8164062 9.96875 L 6.8164062 9.109375 L 5.6953125 9.109375 z M 16.908203 9.3203125 C 19.233203 9.2643125 19.1705 10.212344 19.1875 10.902344 C 19.2185 12.169344 18.662188 13.308672 15.867188 13.513672 C 15.772187 13.520672 13.506609 13.611328 13.474609 13.611328 C 13.472609 12.228328 13.472656 10.858562 13.472656 9.4765625 C 13.566656 9.4705625 16.548203 9.3283125 16.908203 9.3203125 z M 2.8671875 10.132812 L 2.8671875 11.007812 L 3.9824219 11.007812 L 3.9824219 10.132812 L 2.8671875 10.132812 z M 5.6992188 10.199219 L 5.6992188 11.060547 L 6.8125 11.060547 L 6.8125 10.199219 L 5.6992188 10.199219 z M 7.1191406 10.212891 L 7.1191406 11.068359 L 8.2402344 11.068359 L 8.2402344 10.212891 L 7.1191406 10.212891 z M 9.3847656 10.220703 L 10.488281 10.220703 L 10.488281 11.060547 L 9.3847656 11.060547 L 9.3847656 10.220703 z M 23.740234 10.574219 L 23.740234 11.597656 C 23.387234 11.619656 23.030062 11.641062 22.664062 11.664062 L 22.664062 10.669922 C 23.022063 10.637922 23.375234 10.607219 23.740234 10.574219 z M 4.2832031 11.267578 L 4.2832031 12.134766 L 5.3867188 12.134766 L 5.3867188 11.267578 L 4.2832031 11.267578 z M 7.1191406 11.304688 L 7.1191406 12.158203 L 8.2363281 12.158203 L 8.2363281 11.304688 L 7.1191406 11.304688 z M 10.974609 11.3125 L 12.072266 11.3125 L 12.072266 12.144531 L 10.974609 12.144531 L 10.974609 11.3125 z M 2.8671875 12.34375 L 2.8671875 13.220703 L 3.9863281 13.220703 L 3.9863281 12.34375 L 2.8671875 12.34375 z M 4.28125 12.369141 L 4.28125 13.230469 L 5.3925781 13.230469 L 5.3925781 12.369141 L 4.28125 12.369141 z M 5.6933594 12.384766 L 5.6933594 13.240234 L 6.8144531 13.240234 L 6.8144531 12.384766 L 5.6933594 12.384766 z M 5.6953125 13.474609 L 5.6953125 14.335938 L 6.8183594 14.335938 L 6.8183594 13.474609 L 5.6953125 13.474609 z M 7.1230469 13.482422 L 7.1230469 14.335938 L 8.2382812 14.335938 L 8.2382812 13.482422 L 7.1230469 13.482422 z M 4.2832031 14.572266 L 4.2832031 15.435547 L 5.3925781 15.435547 L 5.3925781 14.572266 L 4.2832031 14.572266 z M 7.1191406 14.572266 L 7.1191406 15.423828 L 8.2402344 15.423828 L 8.2402344 14.572266 L 7.1191406 14.572266 z M 10.839844 14.576172 L 11.935547 14.576172 L 11.935547 15.423828 L 10.839844 15.423828 L 10.839844 14.576172 z M 7.1230469 15.664062 L 7.1230469 16.517578 L 8.2441406 16.517578 L 8.2441406 15.664062 L 7.1230469 15.664062 z M 5.6914062 15.667969 L 5.6914062 16.525391 L 6.8144531 16.525391 L 6.8144531 15.667969 L 5.6914062 15.667969 z M 13.472656 16.423828 C 13.542656 16.423828 15.534234 16.463469 15.865234 16.480469 C 19.363234 16.656469 19.446734 17.296281 19.802734 18.488281 C 19.903734 18.829281 19.834281 19.193063 19.738281 19.539062 C 19.671281 19.780062 19.480328 20.685594 17.236328 20.683594 C 16.686328 20.682594 13.552656 20.560547 13.472656 20.560547 L 13.472656 16.423828 z M 5.6933594 16.759766 L 5.6933594 17.609375 L 6.8183594 17.609375 L 6.8183594 16.759766 L 5.6933594 16.759766 z M 4.28125 16.773438 L 4.28125 17.626953 L 5.3945312 17.626953 L 5.3945312 16.773438 L 4.28125 16.773438 z M 2.8691406 16.789062 L 2.8691406 17.646484 L 3.9863281 17.646484 L 3.9863281 16.789062 L 2.8691406 16.789062 z M 7.1171875 17.841797 L 7.1171875 18.695312 L 8.2402344 18.695312 L 8.2402344 17.841797 L 7.1171875 17.841797 z M 9.6972656 17.851562 L 10.804688 17.851562 L 10.804688 18.685547 L 9.6972656 18.685547 L 9.6972656 17.851562 z M 4.2792969 17.873047 L 4.2792969 18.724609 L 5.3925781 18.724609 L 5.3925781 17.873047 L 4.2792969 17.873047 z M 2.8652344 17.892578 L 2.8652344 18.755859 L 3.9824219 18.755859 L 3.9824219 17.892578 L 2.8652344 17.892578 z M 7.1191406 18.933594 L 7.1191406 19.783203 L 8.2382812 19.783203 L 8.2382812 18.933594 L 7.1191406 18.933594 z M 9.6953125 18.943359 L 10.802734 18.943359 L 10.802734 19.779297 L 9.6953125 19.779297 L 9.6953125 18.943359 z M 5.6933594 18.945312 L 5.6933594 19.796875 L 6.8144531 19.796875 L 6.8144531 18.945312 L 5.6933594 18.945312 z M 4.2851562 18.962891 L 4.2851562 19.826172 L 5.390625 19.826172 L 5.390625 18.962891 L 4.2851562 18.962891 z M 22.671875 19.607422 C 23.024875 19.639422 23.378141 19.672078 23.744141 19.705078 L 23.744141 20.726562 C 23.384141 20.686563 23.034875 20.647422 22.671875 20.607422 L 22.671875 19.607422 z M 4.28125 20.064453 L 4.28125 20.919922 L 5.3925781 20.919922 L 5.3925781 20.064453 L 4.28125 20.064453 z M 5.6992188 21.130859 L 5.6992188 21.978516 L 6.8183594 21.978516 L 6.8183594 21.130859 L 5.6992188 21.130859 z M 8.5644531 21.134766 L 9.6640625 21.134766 L 9.6640625 21.976562 L 8.5644531 21.976562 L 8.5644531 21.134766 z M 4.2792969 21.169922 L 4.2792969 22.025391 L 5.3925781 22.025391 L 5.3925781 21.169922 L 4.2792969 21.169922 z M 14.28125 21.21875 L 15.378906 21.21875 L 15.378906 22.103516 C 15.194906 22.095516 14.46725 22.062687 14.28125 22.054688 L 14.28125 21.21875 z M 17.111328 21.328125 C 17.390328 21.347125 17.660594 21.364812 17.933594 21.382812 C 18.024594 21.388813 18.115031 21.394391 18.207031 21.400391 L 18.207031 22.294922 C 17.936031 22.274922 17.205328 22.219891 17.111328 22.212891 L 17.111328 21.328125 z M 5.6933594 22.220703 L 5.6933594 23.072266 L 6.8144531 23.072266 L 6.8144531 22.220703 L 5.6933594 22.220703 z M 3.9863281 22.283203 C 3.6023281 22.303203 3.2342344 22.322797 2.8652344 22.341797 L 2.8652344 23.226562 C 3.2432344 23.204563 3.6113281 23.183109 3.9863281 23.162109 L 3.9863281 22.283203 z M 8.5429688 23.287109 L 8.5429688 24.142578 L 9.6621094 24.142578 L 9.6621094 23.287109 L 8.5429688 23.287109 z M 7.1210938 23.289062 L 7.1210938 24.142578 L 8.2402344 24.142578 L 8.2402344 23.289062 L 7.1210938 23.289062 z M 11.400391 23.302734 L 12.511719 23.302734 L 12.511719 24.136719 L 11.400391 24.136719 L 11.400391 23.302734 z M 5.6933594 23.314453 L 5.6933594 24.162109 L 6.8144531 24.162109 L 6.8144531 23.314453 L 5.6933594 23.314453 z M 5.3925781 23.326172 C 5.0165781 23.342172 4.6472969 23.358047 4.2792969 23.373047 L 4.2792969 24.25 C 4.6552969 24.233 5.0245781 24.218172 5.3925781 24.201172 L 5.3925781 23.326172 z M 3.984375 23.386719 C 3.606375 23.408719 3.2412344 23.431125 2.8652344 23.453125 L 2.8652344 24.339844 C 3.2462344 24.314844 3.611375 24.289625 3.984375 24.265625 L 3.984375 23.386719 z M 14.214844 23.474609 L 14.214844 24.359375 C 14.599844 24.390375 14.969938 24.418266 15.335938 24.447266 C 15.345937 24.419266 15.353516 24.409391 15.353516 24.400391 C 15.354516 24.226391 15.355469 24.054859 15.355469 23.880859 C 15.355469 23.562859 15.354297 23.562203 15.029297 23.533203 C 14.997297 23.530203 14.965594 23.524484 14.933594 23.521484 C 14.695594 23.505484 14.458844 23.490609 14.214844 23.474609 z M 19.851562 24.033203 L 19.851562 24.035156 L 19.851562 24.982422 C 20.221563 25.039422 20.581031 25.094344 20.957031 25.152344 L 20.957031 24.189453 C 20.584031 24.137453 20.222563 24.085203 19.851562 24.033203 z M 21.244141 24.232422 C 21.244141 24.328422 21.242187 24.417953 21.242188 24.501953 C 21.242188 24.585953 21.243141 24.667047 21.244141 24.748047 C 21.245141 24.860047 21.219281 24.991797 21.238281 25.091797 C 21.245281 25.124797 21.256391 25.154734 21.275391 25.177734 C 21.344391 25.263734 21.549266 25.252297 21.697266 25.279297 C 21.915266 25.319297 22.133469 25.355578 22.355469 25.392578 L 22.355469 24.408203 C 21.985469 24.350203 21.628141 24.292422 21.244141 24.232422 z M 8.546875 24.378906 L 8.546875 25.232422 L 9.6621094 25.232422 L 9.6621094 24.378906 L 8.546875 24.378906 z M 5.6992188 24.404297 L 5.6992188 25.259766 L 6.8203125 25.259766 L 6.8203125 24.404297 L 5.6992188 24.404297 z M 22.654297 24.458984 L 22.654297 25.449219 C 23.018297 25.520219 23.379047 25.590109 23.748047 25.662109 L 23.748047 25.660156 L 23.748047 24.650391 C 23.379047 24.585391 23.021297 24.521984 22.654297 24.458984 z M 14.21875 24.585938 L 14.21875 25.472656 C 14.59475 25.506656 14.96175 25.539219 15.34375 25.574219 L 15.34375 24.677734 C 14.96175 24.647734 14.59175 24.615938 14.21875 24.585938 z M 19.849609 25.224609 L 19.849609 26.171875 C 20.219609 26.235875 20.584938 26.298281 20.960938 26.363281 L 20.960938 25.400391 C 20.589938 25.341391 20.224609 25.284609 19.849609 25.224609 z M 8.5449219 25.464844 L 8.5449219 26.435547 L 9.6640625 26.435547 L 9.6640625 25.464844 L 8.5449219 25.464844 z M 9.9648438 25.498047 L 9.9648438 26.470703 L 11.082031 26.470703 L 11.082031 25.498047 L 9.9648438 25.498047 z M 11.371094 25.517578 C 11.369094 25.835578 11.367 26.129828 11.375 26.423828 C 11.376 26.455828 11.443375 26.507719 11.484375 26.511719 C 11.649375 26.529719 11.817375 26.533016 11.984375 26.541016 C 12.159375 26.549016 12.332766 26.557453 12.509766 26.564453 L 12.509766 25.572266 C 12.123766 25.553266 11.755094 25.536578 11.371094 25.517578 z M 12.802734 25.59375 L 12.802734 26.589844 C 13.177734 26.619844 13.545641 26.646734 13.931641 26.677734 L 13.931641 26.021484 C 13.931641 25.685484 13.931125 25.684344 13.578125 25.652344 C 13.323125 25.629344 13.066734 25.61275 12.802734 25.59375 z M 15.634766 25.833984 L 15.634766 26.851562 C 16.010766 26.897562 16.376953 26.942281 16.751953 26.988281 L 16.751953 25.958984 C 16.377953 25.915984 16.010766 25.875984 15.634766 25.833984 z M 17.060547 26 L 17.060547 27.033203 C 17.436547 27.089203 17.800828 27.142266 18.173828 27.197266 L 18.173828 26.150391 C 17.796828 26.097391 17.431547 26.049 17.060547 26 z M 19.841797 26.408203 C 19.842797 26.765203 19.83975 27.087203 19.84375 27.408203 C 19.84475 27.438203 19.880203 27.487188 19.908203 27.492188 C 20.254203 27.563188 20.603937 27.628313 20.960938 27.695312 L 20.960938 26.605469 C 20.590937 26.540469 20.228797 26.476203 19.841797 26.408203 z M 21.242188 26.666016 C 21.242188 27.017016 21.240094 27.344875 21.246094 27.671875 C 21.247094 27.705875 21.2825 27.763531 21.3125 27.769531 C 21.6565 27.848531 22.003188 27.920047 22.367188 27.998047 C 22.367188 27.640047 22.369328 27.295219 22.361328 26.949219 C 22.360328 26.920219 22.298813 26.875234 22.257812 26.865234 C 22.042813 26.817234 21.826328 26.776375 21.611328 26.734375 C 21.493328 26.712375 21.374187 26.690016 21.242188 26.666016 z"/></svg>