<?xml version="1.0"?><svg xmlns="http://www.w3.org/2000/svg"  viewBox="0 0 30 30" width="100px" height="100px">    <path d="M 14.802734 8.5371094 C 14.358775 8.5414941 14.105469 8.5507812 14.105469 8.5507812 C 14.105469 8.5507812 13.980469 8.5507812 13.980469 8.6757812 C 13.980469 8.8007812 13.980469 8.8007812 14.105469 8.8007812 C 18.609469 8.8007812 25.990234 10.552641 25.740234 14.431641 C 25.490234 17.559641 19.860609 21.3125 6.5996094 21.3125 C 6.5996094 21.3115 6.4746094 21.3115 6.5996094 21.4375 C 6.5996094 21.4375 29.492187 22.313641 29.992188 14.431641 C 30.320312 8.7397656 17.910447 8.506416 14.802734 8.5371094 z M 3.0957031 9.5527344 C 1.7197031 11.554734 0.96875 12.805641 0.09375 14.306641 L 0.09375 14.431641 C -0.03125 14.681641 -0.03125 14.805641 0.09375 15.056641 C 0.59375 15.807641 3.3465625 16.683594 9.4765625 16.683594 C 14.105562 16.683594 18.984375 15.932641 18.984375 14.556641 C 18.984375 13.180641 14.230563 12.429688 9.4765625 12.429688 C 7.9755625 12.429688 6.3496094 12.679688 5.9746094 12.679688 C 6.3496094 12.054687 8.0996094 9.6777344 8.0996094 9.6777344 L 3.0957031 9.6777344 L 3.0957031 9.5996094 C 3.0957031 9.5839844 3.0957031 9.5527344 3.0957031 9.5527344 z M 9.4765625 13.929688 C 12.228562 13.929688 13.980469 14.305641 13.980469 14.556641 C 13.980469 14.807641 12.229563 15.181641 9.4765625 15.181641 C 6.5985625 15.305641 4.9726563 14.806641 4.9726562 14.556641 C 4.9726562 14.306641 6.5985625 13.929688 9.4765625 13.929688 z"/></svg>