<?xml version="1.0"?><svg xmlns="http://www.w3.org/2000/svg"  viewBox="0 0 30 30" width="100px" height="100px">    <path d="M 6 4 C 4.895 4 4 4.895 4 6 L 4 24 C 4 25.105 4.895 26 6 26 L 24 26 C 25.105 26 26 25.105 26 24 L 26 6 C 26 4.895 25.105 4 24 4 L 6 4 z M 7 10 L 10.220703 10 C 12.243703 10 13.638672 10.812781 13.638672 12.300781 C 13.638672 13.538781 12.672641 14.354656 11.681641 14.597656 C 13.126641 14.905656 14.060406 15.780109 14.066406 17.162109 C 14.074406 18.916109 12.593328 19.974469 11.361328 19.980469 C 10.794328 19.982469 7.0097656 20 7.0097656 20 L 7 10 z M 16 10 L 19.220703 10 C 21.243703 10 22.638672 10.812781 22.638672 12.300781 C 22.638672 13.538781 21.672641 14.354656 20.681641 14.597656 C 22.126641 14.905656 23.060406 15.780109 23.066406 17.162109 C 23.074406 18.916109 21.593328 19.974469 20.361328 19.980469 C 19.794328 19.982469 16.009766 20 16.009766 20 L 16 10 z M 8.9355469 11.558594 L 8.9355469 14.111328 L 10.308594 14.111328 C 10.900594 14.110328 11.666016 13.6235 11.666016 12.8125 C 11.666016 12.0015 11.177156 11.558594 10.035156 11.558594 L 8.9355469 11.558594 z M 17.935547 11.558594 L 17.935547 14.111328 L 19.308594 14.111328 C 19.900594 14.110328 20.666016 13.6235 20.666016 12.8125 C 20.666016 12.0015 20.177156 11.558594 19.035156 11.558594 L 17.935547 11.558594 z M 8.9375 15.619141 L 8.9375 18.462891 L 10.511719 18.462891 C 11.189719 18.462891 12.068359 18.006578 12.068359 17.017578 C 12.069359 16.180578 11.508219 15.619141 10.199219 15.619141 L 8.9375 15.619141 z M 17.9375 15.619141 L 17.9375 18.462891 L 19.511719 18.462891 C 20.189719 18.462891 21.068359 18.006578 21.068359 17.017578 C 21.069359 16.180578 20.508219 15.619141 19.199219 15.619141 L 17.9375 15.619141 z"/></svg>