<svg xmlns="http://www.w3.org/2000/svg"  viewBox="0 0 30 30" width="100px" height="100px"><path d="M 11.576172 3 C 11.311172 3 11.056141 3.1049687 10.869141 3.2929688 L 8.9355469 5.2285156 L 8.8867188 5.203125 C 7.7477187 4.634125 6.3756094 4.8568125 5.4746094 5.7578125 C 5.4406094 5.7908125 5.4088594 5.8252813 5.3808594 5.8632812 L 3.9335938 7.8007812 C 3.6795937 8.1397813 3.6663906 8.6020781 3.9003906 8.9550781 L 4.5566406 9.9394531 L 3.8398438 11.376953 C 3.7218438 11.612953 3.7002031 11.885719 3.7832031 12.136719 L 6.609375 20.697266 C 7.078375 22.036266 8.0140937 23.160281 9.2460938 23.863281 L 14.505859 26.869141 C 14.658859 26.956141 14.829 27 15 27 C 15.171 27 15.342094 26.955188 15.496094 26.867188 L 20.753906 23.863281 C 21.984906 23.160281 22.921484 22.034734 23.396484 20.677734 L 26.216797 12.134766 C 26.299797 11.883766 26.278156 11.610047 26.160156 11.373047 L 25.443359 9.9375 L 26.099609 8.953125 C 26.334609 8.600125 26.321359 8.1397812 26.068359 7.8007812 L 24.619141 5.8652344 C 24.591141 5.8262344 24.559391 5.7908125 24.525391 5.7578125 C 23.624391 4.8558125 22.254234 4.633125 21.115234 5.203125 L 21.064453 5.2285156 L 19.128906 3.2929688 C 18.941906 3.1049687 18.687875 3 18.421875 3 L 11.576172 3 z M 15 7 C 16.718 7 17.039672 8.7231563 19.888672 7.9101562 L 21.708984 10.947266 C 22.080984 11.468266 22.073453 12.170641 21.689453 12.681641 L 19.324219 15.822266 C 19.733219 16.150266 20 16.647891 20 17.212891 C 20 18.034666 19.441806 18.71706 18.685547 18.925781 C 17.684733 18.856736 17.02647 18.368007 16 17.667969 L 16 16.650391 L 17.730469 15.884766 A 1.0001 1.0001 0 0 0 18.302734 14.755859 L 17.748047 12.220703 C 18.053667 12.117236 18.156232 12 19 12 A 1.0001 1.0001 0 1 0 19 10 C 17.26087 10 16.101563 10.572266 16.101562 10.572266 A 1.0001 1.0001 0 0 0 15.582031 11.675781 L 16.173828 14.386719 L 15 14.90625 L 13.826172 14.386719 L 14.417969 11.675781 A 1.0001 1.0001 0 0 0 13.898438 10.572266 C 13.898438 10.572266 12.73913 10 11 10 A 1.0001 1.0001 0 1 0 11 12 C 11.843768 12 11.946333 12.117236 12.251953 12.220703 L 11.697266 14.755859 A 1.0001 1.0001 0 0 0 12.269531 15.884766 L 14 16.650391 L 14 17.667969 C 12.973643 18.368063 12.31598 18.856746 11.314453 18.925781 C 10.558194 18.71706 10 18.034666 10 17.212891 C 10 16.647891 10.266781 16.150266 10.675781 15.822266 L 8.3105469 12.681641 C 7.9265469 12.170641 7.9190156 11.468266 8.2910156 10.947266 L 10.111328 7.9101562 C 12.960328 8.7231562 13.282 7 15 7 z M 15 19.388672 C 15.596647 19.798071 16.195184 20.212399 16.886719 20.511719 L 15.412109 21.833984 C 15.294109 21.938984 15.148 21.991187 15 21.992188 C 14.852 21.992188 14.704891 21.939984 14.587891 21.833984 L 13.113281 20.511719 C 13.804775 20.212391 14.403477 19.798043 15 19.388672 z"/></svg>