<?xml version="1.0"?><svg xmlns="http://www.w3.org/2000/svg"  viewBox="0 0 30 30" width="100px" height="100px">    <path d="M 6 4 C 4.895 4 4 4.895 4 6 L 4 24 C 4 25.105 4.895 26 6 26 L 24 26 C 25.105 26 26 25.105 26 24 L 26 6 C 26 4.895 25.105 4 24 4 L 6 4 z M 15 6.5859375 L 17.414062 9 L 21 9 L 21 12.585938 L 23.414062 15 L 21 17.414062 L 21 21 L 17.414062 21 L 15 23.414062 L 12.585938 21 L 9 21 L 9 17.414062 L 6.5625 14.976562 L 9.1289062 12.578125 L 8.9492188 9 L 12.585938 9 L 15 6.5859375 z M 15 9.4140625 L 13.414062 11 L 11.050781 11 L 11.171875 13.404297 L 9.4375 15.023438 L 11 16.585938 L 11 19 L 13.414062 19 L 15 20.585938 L 15 9.4140625 z"/></svg>