<svg xmlns="http://www.w3.org/2000/svg"  viewBox="0 0 30 30" width="100px" height="100px"><path d="M 17.957031 2.9960938 A 1.0001 1.0001 0 0 0 17.693359 3.0488281 L 3.6933594 7.5664062 A 1.0001 1.0001 0 0 0 3 8.5195312 L 3 20 A 1.0001 1.0001 0 1 0 5 20 L 5 9.2460938 L 18.306641 4.9511719 A 1.0001 1.0001 0 0 0 18.056641 2.9960938 A 1.0001 1.0001 0 0 0 17.957031 2.9960938 z M 21.957031 5.9960938 A 1.0001 1.0001 0 0 0 21.693359 6.0488281 L 7.6933594 10.566406 A 1.0001 1.0001 0 0 0 7 11.519531 L 7 23 A 1.0001 1.0001 0 1 0 9 23 L 9 12.246094 L 22.306641 7.9511719 A 1.0001 1.0001 0 0 0 22.056641 5.9960938 A 1.0001 1.0001 0 0 0 21.957031 5.9960938 z M 25.923828 9.0019531 C 25.845687 9.007875 25.767656 9.0240781 25.691406 9.0488281 L 11.691406 13.566406 C 11.279406 13.700406 11 14.085531 11 14.519531 L 11 26 C 11 26.325 11.157828 26.629406 11.423828 26.816406 C 11.594828 26.937406 11.796 27 12 27 C 12.113 27 12.226937 26.980406 12.335938 26.941406 L 26.335938 21.941406 C 26.733938 21.800406 27 21.423 27 21 L 27 10 C 27 9.681 26.846891 9.3804063 26.587891 9.1914062 C 26.394391 9.0504062 26.15825 8.9841875 25.923828 9.0019531 z"/></svg>