<svg xmlns="http://www.w3.org/2000/svg"  viewBox="0 0 30 30" width="100px" height="100px"><path d="M 23.984375 1.9863281 A 1.0001 1.0001 0 0 0 23 3 L 23 4 L 22 4 C 21.448 4 21 4.448 21 5 L 21 10 C 21 10.552 21.448 11 22 11 L 23 11 L 23 12 A 1.0001 1.0001 0 1 0 25 12 L 25 11 L 26 11 C 26.552 11 27 10.552 27 10 L 27 5 C 27 4.448 26.552 4 26 4 L 25 4 L 25 3 A 1.0001 1.0001 0 0 0 23.984375 1.9863281 z M 10.984375 5.9863281 A 1.0001 1.0001 0 0 0 10 7 L 10 8 L 9 8 C 8.448 8 8 8.448 8 9 L 8 14 C 8 14.552 8.448 15 9 15 L 10 15 L 10 16 A 1.0001 1.0001 0 1 0 12 16 L 12 15 L 13 15 C 13.552 15 14 14.552 14 14 L 14 9 C 14 8.448 13.552 8 13 8 L 12 8 L 12 7 A 1.0001 1.0001 0 0 0 10.984375 5.9863281 z M 18.984375 13.986328 A 1.0001 1.0001 0 0 0 18 15 L 18 16 L 17 16 C 16.448 16 16 16.448 16 17 L 16 22 C 16 22.552 16.448 23 17 23 L 18 23 L 18 24 A 1.0001 1.0001 0 1 0 20 24 L 20 23 L 21 23 C 21.552 23 22 22.552 22 22 L 22 17 C 22 16.448 21.552 16 21 16 L 20 16 L 20 15 A 1.0001 1.0001 0 0 0 18.984375 13.986328 z M 5.984375 16.986328 A 1.0001 1.0001 0 0 0 5 18 L 5 19 L 4 19 A 1.0001 1.0001 0 0 0 3 20 L 3 25 A 1.0001 1.0001 0 0 0 4 26 L 5 26 L 5 27 A 1.0001 1.0001 0 1 0 7 27 L 7 26 L 8 26 A 1.0001 1.0001 0 0 0 9 25 L 9 20 A 1.0001 1.0001 0 0 0 8 19 L 7 19 L 7 18 A 1.0001 1.0001 0 0 0 5.984375 16.986328 z M 5 21 L 5.8320312 21 A 1.0001 1.0001 0 0 0 6.1582031 21 L 7 21 L 7 24 L 6.1542969 24 A 1.0001 1.0001 0 0 0 5.984375 23.986328 A 1.0001 1.0001 0 0 0 5.8398438 24 L 5 24 L 5 21 z"/></svg>