<svg xmlns="http://www.w3.org/2000/svg"  viewBox="0 0 30 30" width="100px" height="100px"><path d="M 10 5 C 4.4886661 5 0 9.4886661 0 15 C 0 20.511334 4.4886661 25 10 25 C 15.511334 25 20 20.511334 20 15 C 20 9.4886661 15.511334 5 10 5 z M 10 7 C 14.430666 7 18 10.569334 18 15 C 18 19.430666 14.430666 23 10 23 C 5.5693339 23 2 19.430666 2 15 C 2 10.569334 5.5693339 7 10 7 z M 10 9 C 6.686 9 4 11.686 4 15 C 4 18.314 6.686 21 10 21 C 13.314 21 16 18.314 16 15 C 16 14.081 15.786969 13.213547 15.417969 12.435547 L 10.146484 17.707031 C 9.9584844 17.895031 9.7044531 18 9.4394531 18 C 9.1744531 18 8.9194219 17.895031 8.7324219 17.707031 L 6.2792969 15.253906 C 5.8882969 14.862906 5.8882969 14.230844 6.2792969 13.839844 C 6.6702969 13.448844 7.3023594 13.448844 7.6933594 13.839844 L 9.4394531 15.585938 L 14.255859 10.771484 C 13.168859 9.6774844 11.664 9 10 9 z M 23 14 A 1.0001 1.0001 0 1 0 23 16 L 29 16 A 1.0001 1.0001 0 1 0 29 14 L 23 14 z"/></svg>