<?xml version="1.0"?><svg xmlns="http://www.w3.org/2000/svg"  viewBox="0 0 30 30" width="100px" height="100px">    <path d="M 15 7.0019531 C 14.924 7.0019531 14.849391 7.0093906 14.775391 7.0253906 L 1.7753906 10.025391 C 1.3213906 10.130391 1 10.535953 1 11.001953 L 1 15.267578 L 14.771484 12.027344 C 14.846484 12.010344 14.923 12.001953 15 12.001953 C 15.077 12.001953 15.153516 12.010344 15.228516 12.027344 L 29 15.267578 L 29 11.001953 C 29 10.535953 28.678609 10.130391 28.224609 10.025391 L 15.224609 7.0253906 C 15.150609 7.0093906 15.076 7.0019531 15 7.0019531 z M 15 15.027344 L 1 18.322266 L 1 22.001953 C 1 22.306953 1.1389531 22.594203 1.3769531 22.783203 C 1.6159531 22.973203 1.9256094 23.040609 2.2246094 22.974609 L 15 20.027344 L 27.775391 22.976562 C 28.071391 23.040563 28.384047 22.974203 28.623047 22.783203 C 28.861047 22.594203 29 22.306953 29 22.001953 L 29 18.322266 L 15 15.027344 z"/></svg>