<svg xmlns="http://www.w3.org/2000/svg"  viewBox="0 0 30 30" width="100px" height="100px"><path d="M24,12.5c-1.329,0-2.154,0.196-3,0.997c0-1.466,0-4.534,0-5.497c0-2.032-4-3-4-3v9.216c0.388,0.594,0.958,1.303,1.209,2.056	c-2.384,1.827-3.725,3.17-6.435,3.17c-2.709,0-4.05-1.343-6.435-3.17c0.677-2.032,2.346-3.743,2.346-3.743s-0.569-1.139-0.118-2.633	c0.063-0.209,0.3-0.32,0.49-0.213c1.168,0.657,1.969,1.338,1.969,1.338s1.07-0.161,1.747-0.161c0.647,0,1.73,0.159,1.73,0.159	c1.283-1.283,1.978-4.264,1.245-6.783c-0.074-0.253-0.404-0.319-0.578-0.121C13.699,4.657,13.127,6,11,6c-3.801,0-9,2.5-9,9	c0,6.774,6.264,9,9.5,9c1.516,0,3.005,0,5.5-1.429v1.42h4V18c0-1,0.879-2,2-2s2,1,2,2v5.991h4V18C29,14.601,26.589,12.5,24,12.5z"/></svg>