<svg xmlns="http://www.w3.org/2000/svg"  viewBox="0 0 30 30" width="100px" height="100px"><path d="M 8.0292969 3.2773438 C 7.6492969 3.2403438 7.3452969 3.4403281 7.1542969 3.7363281 C 6.9632969 4.0323281 6.9426094 4.4076562 7.0996094 4.7226562 L 7.5410156 5.6132812 C 4.7750337 7.8108073 3 11.199437 3 15 C 3 16.020855 3.1418008 17.000129 3.375 17.929688 A 1.0001 1.0001 0 1 0 5.3144531 17.443359 C 5.1156523 16.650917 5 15.837145 5 15 C 5 11.97693 6.3433602 9.2837096 8.4570312 7.4550781 L 8.7285156 8.0019531 C 8.8825156 8.3119531 9.1852969 8.5216875 9.5292969 8.5546875 C 9.5612969 8.5576875 9.5920469 8.5585938 9.6230469 8.5585938 C 9.9350469 8.5585937 10.229922 8.4111563 10.419922 8.1601562 L 12.720703 5.125 A 1.0001 1.0001 0 0 0 12.041016 3.4238281 A 1.0001 1.0001 0 0 0 12.035156 3.421875 L 8.0292969 3.2773438 z M 17.976562 3.421875 A 1.0001 1.0001 0 0 0 17.726562 5.3867188 C 21.326785 6.4063266 24.100024 9.3825263 24.814453 13.105469 L 24.195312 13.066406 C 23.833312 13.045406 23.518359 13.205328 23.318359 13.486328 C 23.118359 13.769328 23.078891 14.134125 23.212891 14.453125 L 24.667969 17.908203 A 1.0001 1.0001 0 0 0 26.505859 18.226562 A 1.0001 1.0001 0 0 0 26.509766 18.220703 L 26.519531 18.203125 L 28.634766 14.824219 C 28.821766 14.525219 28.838734 14.150891 28.677734 13.837891 C 28.516734 13.524891 28.201609 13.318875 27.849609 13.296875 L 26.863281 13.234375 C 26.168521 8.5441734 22.758254 4.7330219 18.273438 3.4628906 A 1.0001 1.0001 0 0 0 17.976562 3.421875 z M 7.3164062 21.876953 A 1.0001 1.0001 0 0 0 6.4511719 23.347656 C 6.4528119 23.35083 6.4534016 23.35426 6.4550781 23.357422 L 8.3320312 26.896484 C 8.4980313 27.207484 8.8149688 27.409734 9.1679688 27.427734 C 9.1839687 27.428734 9.1997969 27.427734 9.2167969 27.427734 C 9.5507969 27.427734 9.8647813 27.261422 10.050781 26.982422 L 10.599609 26.154297 C 11.963453 26.69468 13.446293 27 15 27 C 18.246219 27 21.196776 25.700095 23.355469 23.603516 A 1.0001 1.0001 0 1 0 21.962891 22.167969 C 20.159583 23.919389 17.713781 25 15 25 C 13.85325 25 12.759118 24.798349 11.736328 24.443359 L 12.076172 23.931641 C 12.267172 23.642641 12.297344 23.275938 12.152344 22.960938 C 12.008344 22.646938 11.711187 22.429719 11.367188 22.386719 L 7.6113281 21.916016 A 1.0001 1.0001 0 0 0 7.6035156 21.914062 A 1.0001 1.0001 0 0 0 7.3164062 21.876953 z"/></svg>