<?xml version="1.0"?><svg xmlns="http://www.w3.org/2000/svg"  viewBox="0 0 30 30" width="100px" height="100px">    <path d="M 20.152344 3.2929688 C 16.186344 3.2929688 12.416641 5.3982031 10.306641 8.5332031 L 13.121094 8.5332031 C 15.043094 6.5462031 17.533344 5.4668437 20.152344 5.4648438 C 22.727344 5.4648438 25.258641 6.5462031 27.181641 8.5332031 L 30 8.5332031 C 27.959 5.4592031 24.182344 3.2919688 20.152344 3.2929688 z M 21.025391 6.7539062 L 18.619141 8.0429688 L 18.619141 10.488281 L 16.548828 10.488281 L 16.548828 12.746094 L 18.619141 12.746094 L 18.619141 19.521484 C 18.619141 21.366484 19.710891 22.628156 21.337891 22.660156 C 22.440891 22.679156 23.109766 22.353375 23.509766 22.109375 L 23.533203 22.091797 L 24.125 19.779297 L 23.984375 19.867188 C 23.329375 20.264187 22.718922 20.46875 22.169922 20.46875 C 21.376922 20.46875 21.025391 20.050281 21.025391 19.113281 L 21.025391 12.746094 L 23.515625 12.746094 L 23.515625 10.488281 L 21.025391 10.488281 L 21.025391 6.7539062 z M 6.2578125 10.283203 C 4.5498125 10.283203 2.9912812 10.856484 1.8632812 11.896484 C 0.64328125 13.027484 0 14.612141 0 16.494141 C 0 18.372141 0.64228125 19.963797 1.8632812 21.091797 C 2.9912813 22.134797 4.5517656 22.707031 6.2597656 22.707031 C 7.9587656 22.707031 9.3450469 22.039781 10.498047 20.675781 L 10.533203 20.628906 L 9.1425781 18.947266 L 9.0898438 19 C 8.2268438 19.886 7.2234063 20.355469 6.1914062 20.355469 C 4.0344062 20.355469 2.4707031 18.732141 2.4707031 16.494141 C 2.4707031 14.258141 4.0344062 12.632812 6.1914062 12.632812 C 7.2244062 12.632812 8.2268438 13.101234 9.0898438 13.990234 L 9.1425781 14.044922 L 10.533203 12.361328 L 10.496094 12.318359 C 9.3430937 10.947359 7.9568125 10.283203 6.2578125 10.283203 z M 11.933594 10.486328 L 11.933594 22.476562 L 14.384766 22.476562 L 14.384766 21.230469 L 14.384766 10.486328 L 11.933594 10.486328 z M 26.009766 10.486328 L 26.009766 22.476562 L 28.458984 22.476562 L 28.458984 20.466797 L 28.458984 10.486328 L 26.009766 10.486328 z"/></svg>