<svg xmlns="http://www.w3.org/2000/svg"  viewBox="0 0 30 30" width="100px" height="100px"><path d="M 13 3 C 7.4889941 3 3 7.4889982 3 13 C 3 18.511002 7.4889941 23 13 23 C 15.396509 23 17.597385 22.148986 19.322266 20.736328 L 25.292969 26.707031 A 1.0001 1.0001 0 1 0 26.707031 25.292969 L 20.736328 19.322266 C 22.148985 17.597385 23 15.396507 23 13 C 23 7.4889982 18.511006 3 13 3 z M 13 5 C 17.430126 5 21 8.5698765 21 13 C 21 17.430123 17.430126 21 13 21 C 8.5698737 21 5 17.430123 5 13 C 5 8.5698765 8.5698737 5 13 5 z M 15.990234 8.9863281 A 1.0001 1.0001 0 0 0 15.292969 9.2929688 L 13 11.585938 L 10.707031 9.2929688 A 1.0001 1.0001 0 0 0 9.9902344 8.9902344 A 1.0001 1.0001 0 0 0 9.2929688 10.707031 L 11.585938 13 L 9.2929688 15.292969 A 1.0001 1.0001 0 1 0 10.707031 16.707031 L 13 14.414062 L 15.292969 16.707031 A 1.0001 1.0001 0 1 0 16.707031 15.292969 L 14.414062 13 L 16.707031 10.707031 A 1.0001 1.0001 0 0 0 15.990234 8.9863281 z"/></svg>