<svg xmlns="http://www.w3.org/2000/svg"  viewBox="0 0 30 30" width="100px" height="100px"><path d="M 5 4 C 3.895 4 3 4.895 3 6 L 3 24 C 3 25.105 3.895 26 5 26 L 25 26 C 26.105 26 27 25.105 27 24 L 27 6 C 27 4.895 26.105 4 25 4 L 5 4 z M 5 6 L 17 6 L 17 24 L 5 24 L 5 6 z M 11.679688 12.003906 C 11.606641 12.010859 11.533141 12.027641 11.462891 12.056641 C 11.182891 12.172641 11 12.447 11 12.75 L 11 14 L 8 14 A 1.0001 1.0001 0 1 0 8 16 L 11 16 L 11 17.25 C 11 17.553 11.182891 17.827359 11.462891 17.943359 C 11.742891 18.059359 12.064297 17.994297 12.279297 17.779297 L 14.529297 15.529297 C 14.676297 15.383297 14.75 15.192 14.75 15 C 14.75 14.808 14.676297 14.616703 14.529297 14.470703 L 12.279297 12.220703 C 12.118797 12.059453 11.898828 11.983047 11.679688 12.003906 z"/></svg>