<svg xmlns="http://www.w3.org/2000/svg"  viewBox="0 0 30 30" width="100px" height="100px"><path d="M 7 3 C 5.3549904 3 4 4.3549904 4 6 C 4 7.5161877 5.1547448 8.7733088 6.6230469 8.9628906 L 5.2929688 10.292969 A 1.0001 1.0001 0 1 0 6.7070312 11.707031 L 8.5117188 9.9023438 L 8.7675781 10.158203 C 7.8217396 11.442539 7.2539062 13.021318 7.2539062 14.732422 C 7.2539062 16.007069 7.5696776 17.209056 8.1191406 18.271484 L 6.4765625 19.916016 C 5.9135625 20.479016 4.9493594 20.169766 4.8183594 19.384766 L 4.6503906 18.380859 L 5.6523438 18.652344 L 5.1308594 15 L 2 17.087891 L 3.0429688 17.609375 L 3.0429688 18.912109 C 3.0429688 19.759109 3.3171719 20.584719 3.8261719 21.261719 C 4.3341719 21.938719 4.609375 22.762375 4.609375 23.609375 L 4.609375 24.392578 L 5.3925781 24.392578 C 6.2395781 24.392578 7.0632344 24.666781 7.7402344 25.175781 C 8.4172344 25.683781 9.2408906 25.957031 10.087891 25.957031 L 11.392578 25.957031 L 11.912109 27 L 14 23.869141 L 10.347656 23.347656 L 10.619141 24.349609 L 9.6152344 24.183594 C 8.8302344 24.052594 8.5209844 23.088391 9.0839844 22.525391 L 10.550781 21.058594 C 11.811947 21.948929 13.344824 22.478516 15 22.478516 C 16.655735 22.478516 18.189767 21.949477 19.451172 21.058594 L 20.916016 22.523438 C 21.479016 23.086437 21.169766 24.050641 20.384766 24.181641 L 19.380859 24.349609 L 19.652344 23.347656 L 16 23.869141 L 18.087891 27 L 18.609375 25.957031 L 19.912109 25.957031 C 20.759109 25.957031 21.584719 25.682828 22.261719 25.173828 C 22.938719 24.665828 23.762375 24.390625 24.609375 24.390625 L 25.392578 24.390625 L 25.392578 23.607422 C 25.392578 22.760422 25.666781 21.936766 26.175781 21.259766 C 26.683781 20.582766 26.957031 19.759109 26.957031 18.912109 L 26.957031 17.607422 L 28 17.087891 L 24.869141 15 L 24.347656 18.652344 L 25.349609 18.380859 L 25.183594 19.384766 C 25.052594 20.169766 24.088391 20.479016 23.525391 19.916016 L 21.880859 18.271484 C 22.430322 17.209056 22.746094 16.007069 22.746094 14.732422 C 22.746094 13.021318 22.17826 11.442539 21.232422 10.158203 L 21.488281 9.9023438 L 23.292969 11.707031 A 1.0001 1.0001 0 1 0 24.707031 10.292969 L 23.376953 8.9628906 C 24.845255 8.7733088 26 7.5161877 26 6 C 26 4.3549904 24.64501 3 23 3 C 21.483812 3 20.226691 4.1547448 20.037109 5.6230469 L 18.707031 4.2929688 A 1.0001 1.0001 0 0 0 17.990234 3.9902344 A 1.0001 1.0001 0 0 0 17.292969 5.7070312 L 19.097656 7.5117188 L 18.6875 7.9238281 C 18.686986 7.9235485 18.686061 7.9241076 18.685547 7.9238281 C 17.588502 7.3268789 16.332549 6.9863281 15 6.9863281 C 13.667451 6.9863281 12.411498 7.3268789 11.314453 7.9238281 L 11.3125 7.9238281 L 10.902344 7.5117188 L 12.707031 5.7070312 A 1.0001 1.0001 0 0 0 11.980469 3.9902344 A 1.0001 1.0001 0 0 0 11.292969 4.2929688 L 9.9628906 5.6230469 C 9.7733088 4.1547448 8.5161877 3 7 3 z M 7 5 C 7.5641294 5 8 5.4358706 8 6 C 8 6.5641294 7.5641294 7 7 7 C 6.4358706 7 6 6.5641294 6 6 C 6 5.4358706 6.4358706 5 7 5 z M 23 5 C 23.564129 5 24 5.4358706 24 6 C 24 6.5641294 23.564129 7 23 7 C 22.435871 7 22 6.5641294 22 6 C 22 5.4358706 22.435871 5 23 5 z M 15 8.9863281 C 18.185273 8.986328 20.746094 11.547149 20.746094 14.732422 C 20.746094 17.917695 18.185273 20.478516 15 20.478516 C 11.814727 20.478516 9.2539062 17.917695 9.2539062 14.732422 C 9.2539062 11.547149 11.814727 8.9863281 15 8.9863281 z M 11.5 12 L 12.199219 14.099609 L 12.199219 16.589844 C 12.199219 17.568844 12.924531 18.395437 13.894531 18.523438 C 14.161531 18.558438 14.418437 18.648109 14.648438 18.787109 L 15 19 L 15.351562 18.787109 C 15.581563 18.648109 15.836516 18.558438 16.103516 18.523438 C 17.073516 18.395437 17.798828 17.568844 17.798828 16.589844 L 17.798828 14.099609 L 17.800781 14.099609 L 18.5 12 L 11.5 12 z M 13.599609 14.099609 L 16.400391 14.099609 L 16.400391 16.589844 C 16.400391 16.864844 16.194875 17.100719 15.921875 17.136719 C 15.600875 17.178719 15.292 17.264531 15 17.394531 C 14.708 17.264531 14.398125 17.178719 14.078125 17.136719 C 13.805125 17.100719 13.599609 16.864844 13.599609 16.589844 L 13.599609 14.099609 z"/></svg>