<svg xmlns="http://www.w3.org/2000/svg"  viewBox="0 0 30 30" width="100px" height="100px"><path d="M18.644,11.242c0.46-0.275,0.981-0.427,1.502-0.549c1.164-0.214,2.575-0.062,3.494,0.764	c0.337,0.306,0.736,0.671,1.318,0.671c0.551,0,0.98-0.488,0.98-1.069c0-1.008,0.031-3.331,0.062-4.431V5.833	c-0.005-1.012-0.826-1.831-1.839-1.833V4H6.839C5.826,4.002,5.004,4.821,5,5.834v18.333C5.005,25.179,5.826,25.998,6.839,26h17.323	c1.013-0.002,1.834-0.821,1.839-1.833v-0.856c-0.031-1.1-0.062-3.391-0.062-4.43c0-0.58-0.429-1.069-0.981-1.069	c-0.613,0-1.011,0.367-1.318,0.672c-0.919,0.825-2.298,0.978-3.493,0.764c-0.552-0.122-1.073-0.275-1.502-0.549	c-1.318-0.764-2.176-2.2-2.176-3.728S17.327,12.036,18.644,11.242z"/></svg>