<svg xmlns="http://www.w3.org/2000/svg"  viewBox="0 0 30 30" width="100px" height="100px"><path d="M 5.984375 2.9863281 A 1.0001 1.0001 0 0 0 5.4765625 3.1367188 L 2.6074219 4.3574219 A 1.0001 1.0001 0 0 0 2 5.2773438 L 2 11.945312 A 1.0001 1.0001 0 0 0 2.4609375 12.787109 L 2.8457031 13.033203 A 1.0001 1.0001 0 0 0 2.6035156 13.099609 A 1.0001 1.0001 0 0 0 2.5136719 13.142578 A 1.0001 1.0001 0 0 0 2.4277344 13.193359 A 1.0001 1.0001 0 0 0 2.3476562 13.253906 A 1.0001 1.0001 0 0 0 2.2753906 13.322266 A 1.0001 1.0001 0 0 0 2.1757812 13.443359 A 1.0001 1.0001 0 0 0 2.125 13.519531 A 1.0001 1.0001 0 0 0 2.1191406 13.53125 A 1.0001 1.0001 0 0 0 2.0761719 13.617188 A 1.0001 1.0001 0 0 0 2.0507812 13.681641 A 1.0001 1.0001 0 0 0 2.0292969 13.746094 A 1.0001 1.0001 0 0 0 2.0253906 13.755859 A 1.0001 1.0001 0 0 0 2.0058594 13.839844 A 1.0001 1.0001 0 0 0 2.0039062 13.855469 A 1.0001 1.0001 0 0 0 2 14.175781 L 2 23 A 1.0001 1.0001 0 0 0 2.2929688 23.707031 L 5.2050781 26.619141 A 1.0001 1.0001 0 0 0 6.3007812 26.966797 L 15.136719 25.740234 A 1.0001 1.0001 0 0 0 16 24.751953 L 16.806641 25.226562 L 17.296875 25.517578 A 1.0001 1.0001 0 0 0 18.234375 25.683594 A 1.0001 1.0001 0 0 0 18.242188 25.681641 L 26.15625 24.431641 A 1.0001 1.0001 0 0 0 27 23.443359 L 27 14.927734 A 1.0001 1.0001 0 0 0 26.238281 13.751953 L 25.822266 13.601562 L 26.083984 13.580078 A 1.0001 1.0001 0 0 0 27 12.582031 L 27 4 A 1.0001 1.0001 0 0 0 26 3 L 18.167969 3 A 1.0001 1.0001 0 0 0 17.537109 3.1015625 L 15.935547 3.6464844 A 1.0001 1.0001 0 0 0 15 3 L 6.1679688 3 A 1.0001 1.0001 0 0 0 5.984375 2.9863281 z M 7 5 L 14 5 L 14 5.0214844 L 14 12.388672 A 1.0001 1.0001 0 0 0 13.912109 12.40625 L 12.082031 12.511719 A 1.0001 1.0001 0 0 0 11.664062 12.535156 L 7 12.800781 L 7 5 z M 19 5 L 25 5 L 25 11.664062 L 21.130859 11.994141 L 21.099609 11.996094 L 19 12.115234 L 19 5 z M 25 15.832031 L 25 22.589844 L 18.919922 23.550781 L 18.919922 16.427734 L 25 15.832031 z M 14 16.837891 L 14 22.841797 A 1.0001 1.0001 0 0 0 14 23.140625 L 14 23.878906 L 7 24.851562 L 7 17.427734 L 14 16.837891 z"/></svg>