<svg xmlns="http://www.w3.org/2000/svg"  viewBox="0 0 30 30" width="100px" height="100px"><path d="M 14.984375 0.98632812 A 1.0001 1.0001 0 0 0 14 2 L 14 6 L 11 6 L 15 10 L 19 6 L 16 6 L 16 2 A 1.0001 1.0001 0 0 0 14.984375 0.98632812 z M 6 11 L 6 14 L 2 14 A 1.0001 1.0001 0 1 0 2 16 L 6 16 L 6 19 L 10 15 L 6 11 z M 24 11 L 20 15 L 24 19 L 24 16 L 28 16 A 1.0001 1.0001 0 1 0 28 14 L 24 14 L 24 11 z M 15 12 A 3 3 0 0 0 15 18 A 3 3 0 0 0 15 12 z M 15 20 L 11 24 L 14 24 L 14 28 A 1.0001 1.0001 0 1 0 16 28 L 16 24 L 19 24 L 15 20 z"/></svg>