<svg xmlns="http://www.w3.org/2000/svg"  viewBox="0 0 30 30" width="100px" height="100px"><path d="M 24.980469 3.9902344 A 1.0001 1.0001 0 0 0 24.292969 4.2929688 L 18 10.585938 L 18 6 A 1.0001 1.0001 0 0 0 16.984375 4.9863281 A 1.0001 1.0001 0 0 0 16 6 L 16 12.847656 A 1.0001 1.0001 0 0 0 17.152344 14 L 24 14 A 1.0001 1.0001 0 1 0 24 12 L 19.414062 12 L 25.707031 5.7070312 A 1.0001 1.0001 0 0 0 24.980469 3.9902344 z M 12.980469 15.990234 A 1.0001 1.0001 0 0 0 12.869141 16 L 6 16 A 1.0001 1.0001 0 1 0 6 18 L 10.585938 18 L 4.2929688 24.292969 A 1.0001 1.0001 0 1 0 5.7070312 25.707031 L 12 19.414062 L 12 24 A 1.0001 1.0001 0 1 0 14 24 L 14 17.126953 A 1.0001 1.0001 0 0 0 12.980469 15.990234 z"/></svg>