<svg xmlns="http://www.w3.org/2000/svg"  viewBox="0 0 30 30" width="100px" height="100px"><path d="M 25.974609 2.9980469 A 1.0001 1.0001 0 0 0 25.806641 3.0195312 C 25.806641 3.0195312 23.177212 3.5314336 20.519531 4.9902344 C 20.272305 5.1259369 20.02953 5.3214567 19.78125 5.4765625 C 18.109497 4.6248336 16.228939 4 14 4 C 10.242415 4 7.4327028 5.3884214 5.6269531 7.3476562 C 3.8212035 9.3068911 3 11.782208 3 14 C 3 15.90142 3.4965851 17.584029 4.6582031 19.351562 C 5.4667015 20.581785 6.6046519 21.895154 8.1113281 23.474609 L 6.2929688 25.292969 C 5.9019687 25.683969 5.9019688 26.317031 6.2929688 26.707031 C 6.4879687 26.902031 6.744 27 7 27 L 12 27 C 12.552 27 13 26.552 13 26 L 13 21 C 13 20.744 12.902031 20.487969 12.707031 20.292969 C 12.316031 19.901969 11.682969 19.901969 11.292969 20.292969 L 9.5273438 22.058594 C 8.0802199 20.535021 7.021151 19.303499 6.3300781 18.251953 C 5.3286961 16.728237 5 15.58558 5 14 C 5 12.284792 5.6621559 10.26064 7.0976562 8.703125 C 8.5331566 7.1456099 10.722585 6 14 6 C 15.550516 6 16.886954 6.2995033 18.076172 6.75 C 16.375286 8.2482775 15 10.268813 15 13 C 15 16.816993 17.570934 19 20 19 C 22.449235 19 25 16.768071 25 13 C 25 10.514931 23.805043 8.2502128 21.806641 6.6074219 C 24.027936 5.4630367 26.193359 4.9804688 26.193359 4.9804688 A 1.0001 1.0001 0 0 0 25.974609 2.9980469 z M 20.083984 7.8496094 C 21.91193 9.166223 23 11.007659 23 13 C 23 15.909929 21.252765 17 20 17 C 18.727066 17 17 15.973007 17 13 C 17 10.643231 18.411814 9.0906245 20.083984 7.8496094 z"/></svg>