<svg xmlns="http://www.w3.org/2000/svg"  viewBox="0 0 30 30" width="100px" height="100px"><path d="M 9.4296875 7.7910156 C 6.634668 7.7976074 4.7050781 10.021484 4.7050781 10.021484 L 0 14.835938 C 0 14.835938 2.5723438 17.461906 3.7773438 18.628906 C 5.3213437 17.033906 8.038375 14.225422 8.734375 13.482422 C 9.595375 12.561422 11.651484 10.990797 13.896484 10.966797 C 14.341484 10.961797 14.826062 11.029813 15.164062 11.132812 C 13.094812 8.5824375 11.106699 7.7870605 9.4296875 7.7910156 z M 26.132812 10.511719 L 24.066406 12.564453 C 21.886406 14.760453 19.910906 14.405219 19.253906 14.199219 C 19.910906 14.944219 20.541922 15.607375 20.544922 15.609375 C 20.544922 15.609375 24.400703 19.3305 27.720703 16.4375 C 28.613703 15.6615 29.367953 14.978578 30.001953 14.392578 L 26.132812 10.511719 z M 13.960938 12.888672 C 13.944937 12.888672 13.926156 12.889625 13.910156 12.890625 C 12.052156 12.913625 10.265078 14.246219 9.5800781 14.949219 C 9.3660781 15.169219 8.9560781 15.580078 8.4550781 16.080078 C 9.3980781 15.736078 11.509234 15.434625 14.115234 18.015625 C 15.469234 19.306625 16.923828 20.630859 16.923828 20.630859 C 16.923828 20.630859 21.185797 25.096875 26.966797 18.796875 C 24.073797 19.999875 21.090906 18.285813 19.753906 17.007812 C 19.753906 17.007812 18.36225 15.605547 16.90625 14.185547 C 16.02425 13.325547 15.033938 12.888672 13.960938 12.888672 z"/></svg>