<?xml version="1.0"?><svg xmlns="http://www.w3.org/2000/svg"  viewBox="0 0 30 30" width="100px" height="100px">    <path d="M 14 2 L 14 10.140625 C 15.722 10.586625 17 12.138 17 14 C 17 14.631 16.841078 15.220953 16.580078 15.751953 L 19.195312 18.03125 C 19.293312 18.01025 19.395 18 19.5 18 C 20.328 18 21 18.672 21 19.5 C 21 20.328 20.328 21 19.5 21 C 18.725 21 18.093625 20.409297 18.015625 19.654297 L 15.285156 17.275391 C 14.376156 17.911391 13.198266 18.188281 11.947266 17.863281 C 10.548266 17.501281 9.4274219 16.345547 9.1074219 14.935547 C 8.5934219 12.675547 9.996 10.660625 12 10.140625 L 12 2.1894531 C 6.881 3.1314531 3 7.609 3 13 C 3 17.026 5.2514219 19.796594 6.7324219 21.183594 C 7.5424219 21.941594 8 22.994516 8 24.103516 L 8 28 L 18 28 L 18 26.441406 C 18 25.580406 18.550187 24.816922 19.367188 24.544922 L 21.949219 23.685547 C 23.174219 23.275547 24 22.128891 24 20.837891 L 24 17.744141 L 26.267578 16.962891 A 1 1 0 0 0 27 16 A 1 1 0 0 0 26.773438 15.369141 L 26.746094 15.335938 A 1 1 0 0 0 26.716797 15.302734 L 23.960938 11.998047 C 23.553506 6.3931348 19.736854 2 14 2 z M 13 12 A 2 2 0 0 0 11 14 A 2 2 0 0 0 13 16 A 2 2 0 0 0 15 14 A 2 2 0 0 0 13 12 z"/></svg>