<svg xmlns="http://www.w3.org/2000/svg"  viewBox="0 0 30 30" width="100px" height="100px"><path d="M 0 11.005859 L 0.001953125 15.996094 L 4.4238281 15.996094 C 5.9448281 15.996094 7.4271406 16.076281 8.3691406 15.488281 C 9.8771406 14.547281 9.6903125 12.118281 8.0703125 11.363281 C 7.1333125 10.926281 5.6271406 11.005859 4.2441406 11.005859 L 0 11.005859 z M 12.833984 11.005859 L 9.8320312 15.996094 L 12.923828 15.996094 L 15.195312 12.320312 L 16.539062 14.650391 L 14.806641 14.650391 L 14.029297 15.996094 L 20.365234 15.996094 L 17.466797 11.005859 L 12.833984 11.005859 z M 21.482422 11.005859 L 21.482422 15.996094 L 24.769531 15.996094 L 24.769531 14.710938 L 29.939453 14.710938 L 29.939453 13.365234 L 24.769531 13.365234 L 24.769531 12.470703 L 30 12.470703 L 30 11.005859 L 21.482422 11.005859 z M 3.2441406 12.359375 L 4.8710938 12.359375 C 5.5230938 12.359375 6.0527344 12.889016 6.0527344 13.541016 C 6.0527344 14.193016 5.5230937 14.720703 4.8710938 14.720703 L 3.2441406 14.720703 L 3.2441406 12.359375 z M 0.03125 18 C -0.00475 18.005 -4.6875e-05 18.048797 0.001953125 18.091797 L 0.001953125 20 L 30 20 L 30 18 L 0.03125 18 z"/></svg>