<svg xmlns="http://www.w3.org/2000/svg"  viewBox="0 0 30 30" width="100px" height="100px"><path d="M 6.75 3 C 4.6907323 3 3 4.6907323 3 6.75 L 3 23.25 C 3 25.309268 4.6907323 27 6.75 27 L 23.25 27 C 25.309268 27 27 25.309268 27 23.25 L 27 6.75 C 27 4.6907323 25.309268 3 23.25 3 L 6.75 3 z M 6.75 5 L 23.25 5 C 24.228732 5 25 5.7712677 25 6.75 L 25 23.25 C 25 23.580983 24.906557 23.884758 24.751953 24.146484 C 23.619836 22.229339 21.88182 20.97039 21 20.423828 L 21 15 C 21 10.813 18.589 8 15 8 C 11.414 8 9.004 10.540219 9 14.324219 L 9 14.328125 L 9 14.333984 L 9 21.220703 C 7.7788624 21.906413 6.3968478 22.926646 5.3867188 24.345703 C 5.1473984 24.046722 5 23.669823 5 23.25 L 5 6.75 C 5 5.7712677 5.7712677 5 6.75 5 z M 13.318359 11.013672 C 15.806359 11.013672 16 13.762469 16 14.605469 L 16 25 L 7.4101562 25 C 9.2594269 22.86626 12.242467 21.972248 12.277344 21.962891 L 13 21.751953 L 13 19.40625 L 12.478516 19.121094 C 11.565516 18.623094 11 17.571 11 16.375 L 11 14.333984 L 11 14.332031 C 11.001 13.099031 11.489359 11.013672 13.318359 11.013672 z"/></svg>