<?xml version="1.0"?><svg xmlns="http://www.w3.org/2000/svg"  viewBox="0 0 30 30" width="100px" height="100px">    <path d="M 6 4 C 4.895 4 4 4.895 4 6 L 4 24 C 4 25.105 4.895 26 6 26 L 24 26 C 25.105 26 26 25.105 26 24 L 26 6 C 26 4.895 25.105 4 24 4 L 6 4 z M 7 6 C 7.552 6 8 6.448 8 7 C 8 7.552 7.552 8 7 8 C 6.448 8 6 7.552 6 7 C 6 6.448 6.448 6 7 6 z M 11 6 C 11.552 6 12 6.448 12 7 C 12 7.552 11.552 8 11 8 C 10.448 8 10 7.552 10 7 C 10 6.448 10.448 6 11 6 z M 6 10 L 24 10 L 24 24 L 6 24 L 6 10 z M 12.726562 13 C 11.220562 13 10 14.220563 10 15.726562 C 10 18.368562 14.507812 21.986328 14.507812 21.986328 C 14.647813 22.091328 14.812 22.166016 15 22.166016 C 15.188 22.166016 15.353187 22.091328 15.492188 21.986328 C 15.492188 21.986328 20 18.368563 20 15.726562 C 20 14.220562 18.779437 13 17.273438 13 C 15.833438 13 15 14.25 15 14.25 C 15 14.25 14.166563 13 12.726562 13 z"/></svg>