<svg xmlns="http://www.w3.org/2000/svg"  viewBox="0 0 30 30" width="100px" height="100px"><path d="M 6 4 A 1.0001 1.0001 0 1 0 6 6 L 7.5859375 6 L 10.292969 8.7070312 A 1.0001 1.0001 0 0 0 11 9 L 13.585938 9 L 16.292969 11.707031 A 1.0001 1.0001 0 0 0 17 12 L 19.697266 12 L 22.445312 13.832031 A 1.0001 1.0001 0 0 0 23 14 L 25 14 L 25 16 L 28 13 L 25 10 L 25 12 L 23.302734 12 L 20.554688 10.167969 A 1.0001 1.0001 0 0 0 20 10 L 17.414062 10 L 14.707031 7.2929688 A 1.0001 1.0001 0 0 0 14 7 L 11.414062 7 L 8.7070312 4.2929688 A 1.0001 1.0001 0 0 0 8 4 L 6 4 z M 6 10 C 5.448 10 5 10.448 5 11 L 5 26 L 9 26 L 9 11 C 9 10.448 8.552 10 8 10 L 6 10 z M 12 13 C 11.448 13 11 13.448 11 14 L 11 26 L 15 26 L 15 14 C 15 13.448 14.552 13 14 13 L 12 13 z M 18 16 C 17.448 16 17 16.448 17 17 L 17 26 L 21 26 L 21 17 C 21 16.448 20.552 16 20 16 L 18 16 z M 24 19 C 23.448 19 23 19.448 23 20 L 23 26 L 27 26 L 27 20 C 27 19.448 26.552 19 26 19 L 24 19 z"/></svg>