<svg xmlns="http://www.w3.org/2000/svg"  viewBox="0 0 30 30" width="100px" height="100px"><path d="M 6 4 C 4.895 4 4 4.895 4 6 L 4 24 C 4 25.105 4.895 26 6 26 L 24 26 C 25.105 26 26 25.105 26 24 L 26 6 C 26 4.895 25.105 4 24 4 L 6 4 z M 15 7 C 15.17425 7 15.348406 7.0457188 15.503906 7.1367188 L 21.503906 10.636719 C 21.811906 10.815719 22 11.145 22 11.5 L 22 18.5 C 22 18.855 21.811906 19.184281 21.503906 19.363281 L 15.503906 22.863281 C 15.348906 22.954281 15.174 23 15 23 C 14.826 23 14.651094 22.954281 14.496094 22.863281 L 8.4960938 19.363281 C 8.1880938 19.184281 8 18.855 8 18.5 L 8 11.5 C 8 11.145 8.1880938 10.815719 8.4960938 10.636719 L 14.496094 7.1367188 C 14.651594 7.0457187 14.82575 7 15 7 z M 15 9.1582031 L 10 12.074219 L 10 17.925781 L 15 20.841797 L 20 17.925781 L 20 12.074219 L 15 9.1582031 z"/></svg>