<?xml version="1.0"?><svg xmlns="http://www.w3.org/2000/svg"  viewBox="0 0 30 30" width="100px" height="100px">    <path d="M 4 5 C 2.895 5 2 5.895 2 7 L 2 23 C 2 24.105 2.895 25 4 25 L 26 25 C 27.105 25 28 24.105 28 23 L 28 7 C 28 5.895 27.105 5 26 5 L 4 5 z M 14 8 L 16 8 C 19.866 8 23 11.134 23 15 C 23 18.866 19.866 22 16 22 L 14 22 C 10.134 22 7 18.866 7 15 C 7 11.134 10.134 8 14 8 z M 14 10 C 11.239 10 9 12.239 9 15 C 9 17.761 11.239 20 14 20 C 16.761 20 19 17.761 19 15 C 19 12.239 16.761 10 14 10 z M 13 12.183594 L 13 17.816406 C 11.837162 17.403316 11 16.304625 11 15 C 11 13.695375 11.837162 12.596684 13 12.183594 z M 15 12.183594 C 16.162838 12.596684 17 13.695375 17 15 C 17 16.304625 16.162838 17.403316 15 17.816406 L 15 12.183594 z"/></svg>