<?xml version="1.0"?><svg xmlns="http://www.w3.org/2000/svg"  viewBox="0 0 30 30" width="100px" height="100px">    <path d="M 15 3 C 13.895 3 13 3.895 13 5 L 13 5.2617188 C 9.5517488 6.1512979 7 9.2740449 7 13 L 7 15.394531 C 7 16.984531 6.6734531 18.547 6.0644531 20 L 23.935547 20 C 23.326547 18.548 23 16.984531 23 15.394531 L 23 13 C 23 9.2740449 20.448251 6.1512979 17 5.2617188 L 17 5 C 17 3.895 16.105 3 15 3 z M 5 22 A 1.0001 1.0001 0 1 0 5 24 L 12.175781 24 A 3 3 0 0 0 12 25 A 3 3 0 0 0 15 28 A 3 3 0 0 0 18 25 A 3 3 0 0 0 17.826172 24 L 25 24 A 1.0001 1.0001 0 1 0 25 22 L 15 22 L 5 22 z"/></svg>