<?xml version="1.0"?><svg xmlns="http://www.w3.org/2000/svg"  viewBox="0 0 30 30" width="100px" height="100px">    <path d="M 15 4 C 8.2181837 4 2.5490692 8.836696 1.2714844 15.255859 A 1.0006907 1.0006907 0 0 0 3.234375 15.646484 C 4.3287901 10.147648 9.1678163 6 15 6 C 20.832184 6 25.67121 10.147648 26.765625 15.646484 A 1.0006909 1.0006909 0 1 0 28.728516 15.255859 C 27.450931 8.836696 21.781816 4 15 4 z M 15 8 C 10.159118 8 6.1059734 11.453761 5.1933594 16.039062 A 1.0006908 1.0006908 0 1 0 7.15625 16.429688 C 7.885636 12.764989 11.108882 10 15 10 C 18.891118 10 22.114364 12.764989 22.84375 16.429688 A 1.000691 1.000691 0 1 0 24.806641 16.039062 C 23.894027 11.453762 19.840882 8 15 8 z M 15 12 A 6 6 0 0 0 9 18 A 6 6 0 0 0 15 24 A 6 6 0 0 0 21 18 A 6 6 0 0 0 15 12 z"/></svg>