<svg xmlns="http://www.w3.org/2000/svg"  viewBox="0 0 30 30" width="100px" height="100px"><path d="M 15.980469 3.9902344 A 1.0001 1.0001 0 0 0 15.292969 4.2929688 L 5.2929688 14.292969 A 1.0001 1.0001 0 0 0 5.2929688 15.707031 L 15.292969 25.707031 A 1.0001 1.0001 0 1 0 16.707031 24.292969 L 7.4140625 15 L 16.707031 5.7070312 A 1.0001 1.0001 0 0 0 15.980469 3.9902344 z M 22.980469 3.9902344 A 1.0001 1.0001 0 0 0 22.292969 4.2929688 L 12.292969 14.292969 A 1.0001 1.0001 0 0 0 12.292969 15.707031 L 22.292969 25.707031 A 1.0001 1.0001 0 1 0 23.707031 24.292969 L 14.414062 15 L 23.707031 5.7070312 A 1.0001 1.0001 0 0 0 22.980469 3.9902344 z"/></svg>