<svg xmlns="http://www.w3.org/2000/svg"  viewBox="0 0 30 30" width="100px" height="100px"><path d="M 24.990234 5.9863281 A 1.0001 1.0001 0 0 0 24.292969 6.2929688 L 15 15.585938 L 5.7070312 6.2929688 A 1.0001 1.0001 0 0 0 4.9902344 5.9902344 A 1.0001 1.0001 0 0 0 4.2929688 7.7070312 L 14.292969 17.707031 A 1.0001 1.0001 0 0 0 15.707031 17.707031 L 25.707031 7.7070312 A 1.0001 1.0001 0 0 0 24.990234 5.9863281 z M 24.990234 12.986328 A 1.0001 1.0001 0 0 0 24.292969 13.292969 L 15 22.585938 L 5.7070312 13.292969 A 1.0001 1.0001 0 0 0 4.9902344 12.990234 A 1.0001 1.0001 0 0 0 4.2929688 14.707031 L 14.292969 24.707031 A 1.0001 1.0001 0 0 0 15.707031 24.707031 L 25.707031 14.707031 A 1.0001 1.0001 0 0 0 24.990234 12.986328 z"/></svg>