<svg xmlns="http://www.w3.org/2000/svg"  viewBox="0 0 30 30" width="100px" height="100px"><path d="M 21.980469 7.9902344 A 1.0001 1.0001 0 0 0 21.292969 8.2929688 L 12 17.585938 L 8.7070312 14.292969 C 8.5260312 14.111969 8.276 14 8 14 C 7.448 14 7 14.448 7 15 C 7 15.276 7.1119687 15.526031 7.2929688 15.707031 L 10.585938 19 L 9 20.585938 L 2.7070312 14.292969 A 1.0001 1.0001 0 1 0 1.2929688 15.707031 L 8.2929688 22.707031 A 1.0001 1.0001 0 0 0 9.7070312 22.707031 L 22.707031 9.7070312 A 1.0001 1.0001 0 0 0 21.980469 7.9902344 z M 28 8 C 27.724 8 27.473969 8.1119687 27.292969 8.2929688 L 15 20.585938 L 14.707031 20.292969 L 13.292969 21.707031 L 14.292969 22.707031 A 1.0001 1.0001 0 0 0 15.707031 22.707031 L 28.707031 9.7070312 C 28.888031 9.5260312 29 9.276 29 9 C 29 8.448 28.552 8 28 8 z"/></svg>