<svg xmlns="http://www.w3.org/2000/svg"  viewBox="0 0 30 30" width="100px" height="100px"><path d="M 14.984375 0.98632812 A 1.0001 1.0001 0 0 0 14 2 L 14 25.585938 L 10.707031 22.292969 A 1.0001 1.0001 0 0 0 9.9902344 21.990234 A 1.0001 1.0001 0 0 0 9.2929688 23.707031 L 14.205078 28.619141 A 1.0001 1.0001 0 0 0 15.792969 28.623047 A 1.0001 1.0001 0 0 0 15.796875 28.617188 L 20.707031 23.707031 A 1.0001 1.0001 0 1 0 19.292969 22.292969 L 16 25.585938 L 16 2 A 1.0001 1.0001 0 0 0 14.984375 0.98632812 z"/></svg>