<svg xmlns="http://www.w3.org/2000/svg"  viewBox="0 0 30 30" width="100px" height="100px"><path d="M 7.6171875 4 C 6.8617583 4 6.1653033 4.43107 5.828125 5.1074219 L 4 8.7636719 L 4 9 L 4 12 L 4 24 C 4 25.105 4.895 26 6 26 L 24 26 C 25.105 26 26 25.105 26 24 L 26 12 L 26 9 L 26 8.7636719 L 24.169922 5.1054688 C 23.832265 4.4305882 23.137291 4 22.382812 4 L 7.6171875 4 z M 7.6191406 6 L 22.380859 6 L 23.880859 9 L 6.1191406 9 L 7.6191406 6 z M 15 12 C 15.553 12 16 12.448 16 13 L 16 19.585938 L 17.292969 18.292969 C 17.683969 17.901969 18.316031 17.901969 18.707031 18.292969 C 19.098031 18.683969 19.098031 19.316031 18.707031 19.707031 L 15.707031 22.707031 C 15.512031 22.902031 15.256 23 15 23 C 14.744 23 14.487969 22.902031 14.292969 22.707031 L 11.292969 19.707031 C 10.901969 19.316031 10.901969 18.683969 11.292969 18.292969 C 11.683969 17.901969 12.316031 17.901969 12.707031 18.292969 L 14 19.585938 L 14 13 C 14 12.448 14.447 12 15 12 z"/></svg>