<svg xmlns="http://www.w3.org/2000/svg"  viewBox="0 0 30 30" width="100px" height="100px"><path d="M 14.984375 2.9863281 A 1.0001 1.0001 0 0 0 14.207031 3.3769531 A 1.0001 1.0001 0 0 0 14.203125 3.3828125 L 11.292969 6.2929688 A 1.0001 1.0001 0 1 0 12.707031 7.7070312 L 14 6.4140625 L 14 14 L 6.4140625 14 L 7.7070312 12.707031 A 1.0001 1.0001 0 0 0 6.9804688 10.990234 A 1.0001 1.0001 0 0 0 6.2929688 11.292969 L 3.3808594 14.205078 A 1.0001 1.0001 0 0 0 3.3769531 15.792969 A 1.0001 1.0001 0 0 0 3.3828125 15.796875 L 6.2929688 18.707031 A 1.0001 1.0001 0 1 0 7.7070312 17.292969 L 6.4140625 16 L 14 16 L 14 23.585938 L 12.707031 22.292969 A 1.0001 1.0001 0 0 0 11.990234 21.990234 A 1.0001 1.0001 0 0 0 11.292969 23.707031 L 14.205078 26.619141 A 1.0001 1.0001 0 0 0 15.792969 26.623047 A 1.0001 1.0001 0 0 0 15.796875 26.617188 L 18.707031 23.707031 A 1.0001 1.0001 0 1 0 17.292969 22.292969 L 16 23.585938 L 16 16 L 23.585938 16 L 22.292969 17.292969 A 1.0001 1.0001 0 1 0 23.707031 18.707031 L 26.619141 15.794922 A 1.0001 1.0001 0 0 0 26.623047 14.207031 A 1.0001 1.0001 0 0 0 26.617188 14.203125 L 23.707031 11.292969 A 1.0001 1.0001 0 0 0 22.990234 10.990234 A 1.0001 1.0001 0 0 0 22.292969 12.707031 L 23.585938 14 L 16 14 L 16 6.4140625 L 17.292969 7.7070312 A 1.0001 1.0001 0 1 0 18.707031 6.2929688 L 15.791016 3.3769531 A 1.0001 1.0001 0 0 0 14.984375 2.9863281 z"/></svg>