<?xml version="1.0"?><svg xmlns="http://www.w3.org/2000/svg"  viewBox="0 0 30 30" width="100px" height="100px">    <path d="M 20.056641 3.0019531 C 19.950016 3.0079531 19.844313 3.0443281 19.757812 3.1113281 L 14.982422 6.8066406 L 22.519531 10.955078 L 26.792969 7.6855469 C 27.062969 7.4795469 27.038141 7.0861563 26.744141 6.9101562 L 20.365234 3.0761719 C 20.271234 3.0191719 20.163266 2.9959531 20.056641 3.0019531 z M 22.519531 10.955078 L 14.982422 15.451172 L 19.552734 18.796875 C 19.898734 19.049875 20.377094 19.069656 20.746094 18.847656 L 26.763672 15.222656 C 27.051672 15.049656 27.080266 14.665078 26.822266 14.455078 L 22.519531 10.955078 z M 10.152344 3.0078125 C 10.043219 3.0008125 9.9324375 3.0269375 9.8359375 3.0859375 L 3.2324219 7.125 C 2.9344219 7.307 2.920125 7.7072031 3.203125 7.9082031 L 7.8125 11.185547 L 3.2070312 14.460938 C 2.9230313 14.663937 2.9402344 15.066094 3.2402344 15.246094 L 9.2167969 18.845703 C 9.5857969 19.067703 10.064156 19.047922 10.410156 18.794922 L 14.980469 15.451172 L 7.8164062 11.185547 L 14.980469 6.8066406 L 10.455078 3.1269531 C 10.368078 3.0559531 10.261469 3.0148125 10.152344 3.0078125 z M 14.982422 17.929688 L 11.591797 20.410156 C 11.070797 20.790156 10.425391 21 9.7753906 21 C 9.2133906 21 8.6625938 20.848547 8.1835938 20.560547 L 7 19.845703 L 7 21.332031 C 7 21.666031 7.1673125 21.978062 7.4453125 22.164062 L 14.445312 26.832031 C 14.613312 26.944031 14.807 27 15 27 C 15.189 27 15.378922 26.946844 15.544922 26.839844 L 22.544922 22.289062 C 22.828922 22.104063 23 21.788219 23 21.449219 L 23 19.824219 L 21.779297 20.560547 C 21.301297 20.848547 20.751453 21 20.189453 21 C 19.538453 21 18.893047 20.790156 18.373047 20.410156 L 14.982422 17.929688 z"/></svg>