<?xml version="1.0"?><svg xmlns="http://www.w3.org/2000/svg"  viewBox="0 0 30 30" width="100px" height="100px">    <path d="M 7.5605469 9.6738281 L 7.5878906 17.646484 C 7.5878906 17.646484 7.5784844 18.575453 7.5214844 19.189453 L 8.9902344 19.189453 L 9.0527344 18.292969 C 9.0527344 18.292969 9.7382344 19.419922 11.740234 19.419922 C 13.742234 19.419922 15.323234 18.186391 15.365234 15.900391 C 15.406234 13.613391 13.657484 12.338125 11.771484 12.328125 C 9.8854844 12.317125 9.0722656 13.445312 9.0722656 13.445312 L 9.0722656 9.6738281 L 7.5605469 9.6738281 z M 18.632812 12.298828 C 17.739563 12.327844 15.922687 12.603453 15.679688 14.345703 L 17.277344 14.345703 C 17.277344 14.345703 17.401484 13.2825 19.021484 13.3125 C 20.554484 13.3415 20.833219 14.092578 20.824219 15.017578 C 20.824219 15.017578 19.511266 15.021437 19.072266 15.023438 C 18.282266 15.027437 15.515812 15.116781 15.257812 16.800781 C 14.950812 18.803781 16.738719 19.427922 18.136719 19.419922 C 19.535719 19.411922 20.333781 18.992188 20.925781 18.242188 L 20.990234 19.175781 L 22.380859 19.167969 C 22.381859 19.167969 22.345609 18.645281 22.349609 17.613281 C 22.353609 16.582281 22.383609 15.661719 22.349609 15.011719 C 22.309609 14.258719 22.382953 12.440641 19.126953 12.306641 C 19.126953 12.306641 18.930563 12.289156 18.632812 12.298828 z M 3.8789062 12.328125 C 0.12790625 12.327125 -0.017046875 15.248859 0.001953125 16.005859 C 0.001953125 16.005859 -0.18289063 19.419922 3.7871094 19.419922 C 7.1981094 19.419922 7.3652344 17.277344 7.3652344 17.277344 L 5.796875 17.28125 C 5.796875 17.28125 5.4929219 18.461688 3.7949219 18.429688 C 1.6129219 18.388687 1.5273437 16.273438 1.5273438 16.273438 L 7.5722656 16.273438 C 7.5722656 16.274437 8.0309063 12.329125 3.8789062 12.328125 z M 21.523438 12.582031 L 25.005859 19.167969 L 23.662109 21.701172 L 25.357422 21.701172 L 30 12.582031 L 28.414062 12.582031 L 25.84375 17.697266 L 23.277344 12.582031 L 21.523438 12.582031 z M 3.8417969 13.328125 C 5.9917969 13.327125 5.9921875 15.240234 5.9921875 15.240234 L 1.5761719 15.240234 C 1.5761719 15.240234 1.6837969 13.328125 3.8417969 13.328125 z M 11.419922 13.351562 C 13.845922 13.288562 13.767578 15.927734 13.767578 15.927734 C 13.767578 15.927734 13.805828 18.369391 11.423828 18.400391 C 9.0418281 18.430391 9.0800781 15.875 9.0800781 15.875 C 9.0800781 15.875 8.9939219 13.414563 11.419922 13.351562 z M 20.841797 16.03125 C 20.840797 16.03125 21.116437 18.491078 18.398438 18.455078 C 18.398438 18.455078 16.882922 18.457094 16.794922 17.246094 C 16.699922 15.954094 19.126953 16.033203 19.126953 16.033203 L 20.841797 16.03125 z"/></svg>