<?xml version="1.0"?><svg xmlns="http://www.w3.org/2000/svg"  viewBox="0 0 30 30" width="100px" height="100px">    <path d="M 15 3 C 8.373 3 3 8.373 3 15 C 3 21.627 8.373 27 15 27 C 21.627 27 27 21.627 27 15 C 27 8.373 21.627 3 15 3 z M 15 5 C 20.514 5 25 9.486 25 15 L 25 16.5 C 25 18.43 23.43 20 21.5 20 C 20.294 20 19.228609 19.387078 18.599609 18.455078 C 17.688609 19.403078 16.415 20 15 20 C 12.243 20 10 17.757 10 15 C 10 12.243 12.243 10 15 10 C 17.757 10 20 12.243 20 15 L 20 16.5 C 20 17.327 20.673 18 21.5 18 C 22.327 18 23 17.327 23 16.5 L 23 15 C 23 10.589 19.411 7 15 7 C 10.589 7 7 10.589 7 15 C 7 19.411 10.589 23 15 23 C 15.553 23 16 23.448 16 24 C 16 24.552 15.553 25 15 25 C 9.486 25 5 20.514 5 15 C 5 9.486 9.486 5 15 5 z M 15 12 A 3 3 0 0 0 12 15 A 3 3 0 0 0 15 18 A 3 3 0 0 0 18 15 A 3 3 0 0 0 15 12 z"/></svg>