<svg xmlns="http://www.w3.org/2000/svg"  viewBox="0 0 30 30" width="100px" height="100px"><path d="M 24.980469 3.9902344 A 1.0001 1.0001 0 0 0 24.869141 4 L 18 4 A 1.0001 1.0001 0 1 0 18 6 L 22.585938 6 L 6 22.585938 L 6 18 A 1.0001 1.0001 0 0 0 4.984375 16.986328 A 1.0001 1.0001 0 0 0 4 18 L 4 24.847656 A 1.0001 1.0001 0 0 0 5.1523438 26 L 12 26 A 1.0001 1.0001 0 1 0 12 24 L 7.4140625 24 L 24 7.4140625 L 24 12 A 1.0001 1.0001 0 1 0 26 12 L 26 5.1269531 A 1.0001 1.0001 0 0 0 24.980469 3.9902344 z"/></svg>