<?xml version="1.0"?><svg xmlns="http://www.w3.org/2000/svg"  viewBox="0 0 30 30" width="100px" height="100px">    <path d="M 8 3 C 6.897 3 6 3.897 6 5 L 6 14 L 14.585938 14 L 12.292969 11.707031 C 11.901969 11.316031 11.901969 10.683969 12.292969 10.292969 C 12.683969 9.9019687 13.316031 9.9019687 13.707031 10.292969 L 17.707031 14.292969 C 18.098031 14.683969 18.098031 15.316031 17.707031 15.707031 L 13.707031 19.707031 C 13.512031 19.902031 13.256 20 13 20 C 12.744 20 12.487969 19.902031 12.292969 19.707031 C 11.901969 19.316031 11.901969 18.683969 12.292969 18.292969 L 14.585938 16 L 6 16 L 6 25 C 6 26.103 6.897 27 8 27 L 22 27 C 23.103 27 24 26.103 24 25 L 24 5 C 24 3.897 23.103 3 22 3 L 8 3 z M 6 16 L 6 14 L 1 14 C 0.448 14 0 14.448 0 15 C 0 15.552 0.448 16 1 16 L 6 16 z"/></svg>