<svg xmlns="http://www.w3.org/2000/svg"  viewBox="0 0 30 30" width="100px" height="100px"><path d="M22,4H8C5.791,4,4,5.791,4,8v14c0,2.209,1.791,4,4,4h14c2.209,0,4-1.791,4-4V8C26,5.791,24.209,4,22,4z M6.293,10.293l4-4	c0.391-0.391,1.023-0.391,1.414,0s0.391,1.023,0,1.414l-4,4C7.512,11.902,7.256,12,7,12s-0.512-0.098-0.707-0.293	C5.902,11.316,5.902,10.684,6.293,10.293z M6.293,16.293l10-10c0.391-0.391,1.023-0.391,1.414,0s0.391,1.023,0,1.414l-10,10	C7.512,17.902,7.256,18,7,18s-0.512-0.098-0.707-0.293C5.902,17.316,5.902,16.684,6.293,16.293z M22,24c-1.105,0-2-0.895-2-2	c0-1.105,0.895-2,2-2s2,0.895,2,2C24,23.105,23.105,24,22,24z M23.707,13.707l-10,10C13.512,23.902,13.256,24,13,24	s-0.512-0.098-0.707-0.293c-0.391-0.391-0.391-1.023,0-1.414l10-10c0.391-0.391,1.023-0.391,1.414,0S24.098,13.316,23.707,13.707z M23.707,7.707l-16,16C7.512,23.902,7.256,24,7,24s-0.512-0.098-0.707-0.293c-0.391-0.391-0.391-1.023,0-1.414l16-16	c0.391-0.391,1.023-0.391,1.414,0S24.098,7.316,23.707,7.707z"/></svg>