<svg xmlns="http://www.w3.org/2000/svg"  viewBox="0 0 30 30" width="100px" height="100px"><path d="M25.067 11.996H5.522c-.287 0-.529.216-.56.501L3.577 25.374c-.017.16.033.319.14.439C3.824 25.932 3.978 26 4.138 26h19.545c.284 0 .524-.211.56-.493l.623-4.872c.02-.16-.029-.322-.136-.444C24.623 20.07 24.469 20 24.307 20H12.727l.233-2.003h11.547c.284 0 .523-.211.56-.492l.56-4.873c.02-.161-.029-.322-.136-.444C25.384 12.066 25.229 11.996 25.067 11.996zM26.306 4.185c-.107-.12-.26-.188-.421-.188H6.341c-.287 0-.528.215-.559.501L5.221 9.37c-.018.16.033.319.139.439.107.12.26.188.421.188h19.545c.286 0 .528-.215.559-.501l.56-4.873C26.464 4.464 26.414 4.304 26.306 4.185z"/></svg>