<?xml version="1.0"?><svg xmlns="http://www.w3.org/2000/svg"  viewBox="0 0 30 30" width="100px" height="100px">    <path d="M 7 0 C 3.1458514 0 0 3.1458514 0 7 C 0 10.854149 3.1458514 14 7 14 C 7.1702542 14 7.3366265 13.986677 7.5039062 13.974609 L 2.3007812 22.947266 L 2.3007812 22.949219 A 2 2 0 0 0 2 24 A 2 2 0 0 0 4 26 A 2 2 0 0 0 4.140625 25.994141 L 4.1445312 26 L 15 26 L 25.855469 26 L 25.859375 25.992188 A 2 2 0 0 0 26 26 A 2 2 0 0 0 28 24 A 2 2 0 0 0 27.699219 22.947266 L 27.683594 22.919922 A 2 2 0 0 1 27.681641 22.917969 L 16.845703 4.2285156 C 16.543937 3.5067238 15.831568 3 15 3 C 14.275066 3 13.645669 3.3878466 13.294922 3.9648438 C 12.159691 1.6249016 9.7663052 0 7 0 z M 7 2 C 9.7732684 2 12 4.2267316 12 7 C 12 9.7732684 9.7732684 12 7 12 C 4.2267316 12 2 9.7732684 2 7 C 2 4.2267316 4.2267316 2 7 2 z M 6.984375 2.9863281 A 1.0001 1.0001 0 0 0 6 4 L 6 6.5859375 L 4.7929688 7.7929688 A 1.0001 1.0001 0 1 0 6.2070312 9.2070312 L 8 7.4140625 L 8 4 A 1.0001 1.0001 0 0 0 6.984375 2.9863281 z M 13.787109 11.359375 L 16.212891 11.359375 L 16.011719 17.832031 L 13.988281 17.832031 L 13.787109 11.359375 z M 15.003906 19.810547 C 15.825906 19.810547 16.318359 20.252813 16.318359 21.007812 C 16.318359 21.748812 15.825906 22.189453 15.003906 22.189453 C 14.175906 22.189453 13.679688 21.748813 13.679688 21.007812 C 13.679688 20.252813 14.174906 19.810547 15.003906 19.810547 z"/></svg>