<svg xmlns="http://www.w3.org/2000/svg"  viewBox="0 0 30 30" width="100px" height="100px"><path d="M 15 3 C 8.373 3 3 8.373 3 15 C 3 21.627 8.373 27 15 27 C 21.627 27 27 21.627 27 15 C 27 8.373 21.627 3 15 3 z M 15 5 C 15.25575 5 15.511531 5.0974687 15.707031 5.2929688 L 19.707031 9.2929688 C 20.098031 9.6839687 20.098031 10.316031 19.707031 10.707031 C 19.512031 10.902031 19.256 11 19 11 C 18.744 11 18.487969 10.902031 18.292969 10.707031 L 16 8.4140625 L 16 18 C 16 18.552 15.552 19 15 19 C 14.448 19 14 18.552 14 18 L 14 8.4140625 L 11.707031 10.707031 C 11.316031 11.098031 10.683969 11.098031 10.292969 10.707031 C 9.9019687 10.316031 9.9019687 9.6839687 10.292969 9.2929688 L 14.292969 5.2929688 C 14.488469 5.0974687 14.74425 5 15 5 z"/></svg>