<svg xmlns="http://www.w3.org/2000/svg"  viewBox="0 0 30 30" width="100px" height="100px"><path d="M24,4H6C4.895,4,4,4.895,4,6v18c0,1.105,0.895,2,2,2h18c1.105,0,2-0.895,2-2V6C26,4.895,25.105,4,24,4z M18,17.5	c0,1.381-1.119,2.5-2.5,2.5h-6C8.119,20,7,18.881,7,17.5v-5C7,11.119,8.119,10,9.5,10h6c1.381,0,2.5,1.119,2.5,2.5V17.5z M23,18	c0,0.393-0.229,0.749-0.587,0.911C22.281,18.971,22.14,19,22,19c-0.238,0-0.473-0.085-0.659-0.248l-2-1.75	C19.125,16.812,19,16.539,19,16.25v-2.5c0-0.289,0.125-0.562,0.341-0.752l2-1.75c0.296-0.258,0.715-0.32,1.072-0.158	C22.771,11.251,23,11.607,23,12V18z"/></svg>