<svg xmlns="http://www.w3.org/2000/svg"  viewBox="0 0 32 32" width="100px" height="100px"><path d="M22.5,5h-13C7.01,5,5,7.01,5,9.5v13C5,24.99,7.01,27,9.5,27h13c2.49,0,4.5-2.01,4.5-4.5v-13C27,7.01,24.99,5,22.5,5z M21.5,11.42c0-0.51,0.41-0.92,0.92-0.92c0.5,0,0.91,0.41,0.91,0.92v2.75c0,0.5-0.41,0.91-0.91,0.91c-0.51,0-0.92-0.41-0.92-0.91 V11.42z M10.5,14.17c0,0.5-0.41,0.91-0.92,0.91c-0.5,0-0.91-0.41-0.91-0.91v-2.75c0-0.51,0.41-0.92,0.91-0.92 c0.51,0,0.92,0.41,0.92,0.92V14.17z M13.25,17.38c0-0.51,0.41-0.92,0.92-0.92h2.06l-1.58-7.14c-0.11-0.49,0.2-0.98,0.69-1.09 c0.5-0.11,0.99,0.2,1.1,0.7l1.83,8.25c0.06,0.27-0.01,0.55-0.18,0.77c-0.17,0.22-0.44,0.34-0.71,0.34h-3.21 C13.66,18.29,13.25,17.88,13.25,17.38z M23.34,18.5c0,0.16-0.01,0.38-0.05,0.64c-0.08,0.53-0.27,1.23-0.74,1.94 c-0.95,1.48-2.89,2.71-6.55,2.71c-0.51,0-0.92-0.41-0.92-0.91c0-0.51,0.41-0.92,0.92-0.92c3.22,0,4.49-1.06,5.02-1.88 c0.28-0.43,0.4-0.87,0.45-1.21c0.03-0.16,0.04-0.3,0.04-0.39c0-0.04,0-0.07-0.01-0.09v-0.02c-0.04-0.5,0.32-0.94,0.83-0.99 c0.5-0.05,0.95,0.32,1,0.82v0.04c0,0.01,0,0.03,0.01,0.06V18.5z"/></svg>