<svg xmlns="http://www.w3.org/2000/svg"  viewBox="0 0 30 30" width="100px" height="100px"><path d="M 13 2 C 12.448 2 12 2.448 12 3 L 12 7.5527344 L 9.84375 11.466797 A 1.0001 1.0001 0 0 0 9 11 L 3 11 A 1.0001 1.0001 0 0 0 2.0019531 12.070312 L 3.0019531 26.070312 A 1.0001 1.0001 0 0 0 4 27 L 9 27 A 1.0001 1.0001 0 0 0 10 26 L 11.648438 26 C 12.003438 26.605 12.637516 27 13.353516 27 L 23 27 C 24.105 27 25 26.105 25 25 C 25 24.625 24.890937 24.278516 24.710938 23.978516 C 25.991938 23.869516 27 22.809 27 21.5 C 27 20.86 26.752422 20.281844 26.357422 19.839844 C 27.314422 19.488844 28 18.579 28 17.5 C 28 16.678 27.597328 15.956 26.986328 15.5 C 27.598328 15.044 28 14.322 28 13.5 C 28 12.119 26.881 11 25.5 11 L 16.515625 11 C 16.774625 9.838 17 8.588 17 8 C 17 5.709 15.186078 2 13.955078 2 L 13 2 z M 4.0742188 13 L 8 13 L 8 25 L 4.9316406 25 L 4.0742188 13 z"/></svg>