<svg xmlns="http://www.w3.org/2000/svg"  viewBox="0 0 32 32" width="100px" height="100px"><path d="M9.583,5h12.833C24.948,5,27,7.052,27,9.583v12.833C27,24.948,24.948,27,22.417,27H9.583C7.052,27,5,24.948,5,22.417V9.583	C5,7.052,7.052,5,9.583,5z M21.999,18.437c-0.265,0-0.52,0.105-0.707,0.293s-0.293,0.442-0.293,0.707	c0,0.265,0.105,0.52,0.293,0.707s0.442,0.293,0.707,0.293s0.519-0.105,0.707-0.293c0.188-0.188,0.293-0.442,0.293-0.707	c0-0.265-0.105-0.519-0.293-0.707C22.518,18.542,22.264,18.437,21.999,18.437z M19.482,20.954c-0.265,0-0.52,0.105-0.707,0.293	c-0.188,0.187-0.293,0.442-0.293,0.707s0.105,0.52,0.293,0.707c0.188,0.188,0.442,0.293,0.707,0.293s0.52-0.105,0.707-0.293	c0.187-0.188,0.293-0.442,0.293-0.707s-0.105-0.52-0.293-0.707C20.001,21.059,19.747,20.954,19.482,20.954z M16.044,21.874	c-0.265,0-0.52,0.105-0.707,0.293c-0.188,0.188-0.293,0.442-0.293,0.707c0,0.265,0.105,0.52,0.293,0.707	c0.188,0.188,0.442,0.293,0.707,0.293s0.52-0.105,0.707-0.293c0.187-0.188,0.293-0.442,0.293-0.707c0-0.265-0.105-0.519-0.293-0.707	C16.564,21.98,16.309,21.874,16.044,21.874z M10.001,13.563c0.265,0,0.52-0.105,0.707-0.293s0.293-0.442,0.293-0.707	c0-0.265-0.105-0.52-0.293-0.707s-0.442-0.293-0.707-0.293s-0.519,0.105-0.707,0.293c-0.188,0.188-0.293,0.442-0.293,0.707	c0,0.265,0.105,0.519,0.293,0.707C9.482,13.458,9.736,13.563,10.001,13.563z M12.518,11.046c0.265,0,0.52-0.105,0.707-0.293	c0.188-0.187,0.293-0.442,0.293-0.707c0-0.265-0.105-0.52-0.293-0.707c-0.188-0.188-0.442-0.293-0.707-0.293	s-0.52,0.105-0.707,0.293c-0.187,0.188-0.293,0.442-0.293,0.707c0,0.265,0.105,0.52,0.293,0.707	C11.999,10.941,12.253,11.046,12.518,11.046z M15.956,10.126c0.265,0,0.52-0.105,0.707-0.293c0.188-0.188,0.293-0.442,0.293-0.707	c0-0.265-0.105-0.52-0.293-0.707c-0.188-0.188-0.442-0.293-0.707-0.293s-0.52,0.105-0.707,0.293	c-0.187,0.188-0.293,0.442-0.293,0.707c0,0.265,0.105,0.519,0.293,0.707C15.436,10.02,15.691,10.126,15.956,10.126z M21.559,10.261	l1.248-1.248c0.149-0.149,0.149-0.391,0-0.54c-0.074-0.075-0.172-0.112-0.27-0.112H19.1c-0.203,0-0.397,0.08-0.54,0.224	c-0.143,0.143-0.224,0.338-0.224,0.54v3.438c0,0.098,0.038,0.195,0.112,0.27c0.149,0.149,0.391,0.149,0.54,0l1.159-1.159	C21.316,12.797,22,14.36,22,16c0,0.552,0.447,1,1,1s1-0.448,1-1C24,13.827,23.099,11.758,21.559,10.261z M13.012,19.168	l-1.159,1.159C10.684,19.203,10,17.64,10,16c0-0.552-0.447-1-1-1s-1,0.448-1,1c0,2.173,0.901,4.242,2.441,5.739l-1.248,1.248	c-0.149,0.149-0.149,0.391,0,0.54c0.074,0.075,0.172,0.112,0.27,0.112H12.9c0.203,0,0.397-0.08,0.54-0.224	c0.143-0.143,0.224-0.338,0.224-0.54v-3.438c0-0.098-0.038-0.195-0.112-0.27C13.403,19.019,13.161,19.019,13.012,19.168z"/></svg>