<svg xmlns="http://www.w3.org/2000/svg"  viewBox="0 0 30 30" width="100px" height="100px"><path d="M24.414,13.914L12.245,1.745C11.786,1.286,11,1.611,11,2.261V12L7.21,8.21C6.763,7.763,6,8.079,6,8.711v10.961	c0,0.53,0.211,1.039,0.586,1.414l5.328,5.328C12.289,26.789,12.798,27,13.328,27h4.299c0.556,0,1.087-0.232,1.466-0.639l5.372-5.785	C24.809,20.206,25,19.719,25,19.215v-3.886C25,14.798,24.789,14.289,24.414,13.914z M20.5,18.086c0,0.265-0.105,0.52-0.293,0.707	l-4,4c-0.391,0.391-1.024,0.391-1.414,0l-4-4c-0.188-0.188-0.293-0.442-0.293-0.707v-1.172c0-0.265,0.105-0.52,0.293-0.707l1.5-1.5	c0.391-0.391,1.024-0.391,1.414,0L15.5,16.5l1.793-1.793c0.391-0.391,1.024-0.391,1.414,0l1.5,1.5	c0.188,0.188,0.293,0.442,0.293,0.707V18.086z"/></svg>