<?xml version="1.0"?><svg xmlns="http://www.w3.org/2000/svg"  viewBox="0 0 30 30" width="100px" height="100px">    <path d="M 11 3 C 9.895 3 9 3.895 9 5 L 9 14 C 9 15.105 9.895 16 11 16 L 25 16 C 26.105 16 27 15.105 27 14 L 27 5 C 27 3.895 26.105 3 25 3 L 11 3 z M 17.138672 6 L 18.861328 6 L 21.292969 13 L 19.705078 13 L 19.175781 11.332031 L 16.716797 11.332031 L 16.177734 13 L 14.707031 13 L 17.138672 6 z M 17.910156 7.4550781 L 17.03125 10.201172 L 18.865234 10.201172 L 17.996094 7.4550781 L 17.910156 7.4550781 z M 5 14 C 3.895 14 3 14.895 3 16 L 3 25 C 3 26.105 3.895 27 5 27 L 19 27 C 20.105 27 21 26.105 21 25 L 21 18 L 14.542969 18 C 15.057969 18.626 15.351563 19.487828 15.351562 20.548828 C 15.351562 21.799828 14.960859 22.800297 14.255859 23.404297 L 15.119141 24.71875 L 13.710938 24.71875 L 13.226562 24.033203 C 12.859562 24.153203 12.444859 24.216797 12.005859 24.216797 C 9.9428594 24.216797 8.6464844 22.825828 8.6464844 20.548828 C 8.6464844 19.344828 9.0275938 18.395719 9.6835938 17.761719 C 8.1255938 17.214719 7 15.745 7 14 L 5 14 z M 12.005859 18.167969 C 10.875859 18.167969 10.140625 19.089828 10.140625 20.548828 C 10.140625 22.017828 10.868766 22.935547 12.009766 22.935547 C 12.183766 22.935547 12.348672 22.911047 12.513672 22.873047 L 11.720703 21.712891 L 13.044922 21.712891 L 13.367188 22.103516 C 13.686188 21.760516 13.865234 21.220828 13.865234 20.548828 C 13.865234 19.090828 13.131859 18.167969 12.005859 18.167969 z"/></svg>