<svg xmlns="http://www.w3.org/2000/svg"  viewBox="0 0 30 30" width="100px" height="100px"><path d="M 2.0097656 8.0136719 C 0.90476563 8.0136719 0.009765625 8.9096719 0.009765625 10.013672 L 0.009765625 16.662109 C 0.009765625 17.766109 0.90476563 18.662109 2.0097656 18.662109 L 3.6855469 18.662109 C 4.2125469 18.662109 4.6918281 18.459953 5.0488281 18.126953 C 5.7858281 18.701953 6.6800469 19.013672 7.6230469 19.013672 C 8.3920469 19.013672 9.1077031 18.831953 9.7207031 18.501953 C 10.284703 18.830953 10.916406 19.013672 11.566406 19.013672 C 12.106386 19.013672 12.543254 18.891157 12.919922 18.716797 L 16.964844 18.636719 L 20.996094 18.636719 L 21.009766 16.013672 L 17.009766 16.013672 L 17.009766 14.013672 L 21.009766 14.013672 L 21.009766 12.013672 L 17.009766 12.013672 L 16.964844 10.375 L 20.496094 10.375 C 20.773094 10.375 20.996094 10.151 20.996094 9.875 L 20.996094 8.5136719 C 20.996094 8.2376719 20.772094 8.0136719 20.496094 8.0136719 L 16.964844 8.0136719 L 14.681641 8.0136719 L 14.681641 8.0410156 C 14.593075 8.0290389 14.505925 8.0136719 14.414062 8.0136719 L 12.738281 8.0136719 C 11.633281 8.0136719 10.738281 8.9096719 10.738281 10.013672 L 10.738281 10.212891 C 10.299281 10.318891 9.881 10.507719 9.5 10.761719 C 8.959 10.465719 8.3492656 10.301063 7.6972656 10.289062 L 7.6972656 10.013672 C 7.6972656 8.9096719 6.8022656 8.0136719 5.6972656 8.0136719 L 2.0097656 8.0136719 z M 21.009766 12.013672 L 23.822266 15.324219 L 21.009766 18.636719 L 24.154297 18.636719 C 24.301297 18.636719 24.440156 18.572938 24.535156 18.460938 L 25.128906 17.759766 C 25.328906 17.524766 25.691625 17.524766 25.890625 17.759766 L 26.484375 18.460938 C 26.579375 18.572937 26.718234 18.636719 26.865234 18.636719 L 28.929688 18.636719 C 29.355687 18.636719 29.586547 18.1375 29.310547 17.8125 L 27.472656 15.648438 C 27.313656 15.461438 27.313656 15.187953 27.472656 15.001953 L 29.310547 12.837891 C 29.586547 12.513891 29.355688 12.013672 28.929688 12.013672 L 26.865234 12.013672 C 26.718234 12.013672 26.579375 12.077453 26.484375 12.189453 L 25.890625 12.890625 C 25.690625 13.125625 25.327906 13.125625 25.128906 12.890625 L 24.535156 12.189453 C 24.440156 12.077453 24.301297 12.013672 24.154297 12.013672 L 21.009766 12.013672 z M 2.0097656 10.013672 L 5.6972656 10.013672 L 5.6972656 11.414062 L 3.6855469 11.414062 L 3.6855469 12.464844 L 5.6972656 12.464844 L 5.6972656 13.419922 C 6.0952656 12.739922 6.811 12.289063 7.625 12.289062 C 8.613 12.289062 9.2808437 12.948281 9.5898438 13.863281 C 9.5988438 13.893281 9.6023281 13.923125 9.6113281 13.953125 C 9.8173281 12.893125 10.705359 12.113281 11.568359 12.113281 C 12.011359 12.113281 12.421281 12.323828 12.738281 12.673828 L 12.738281 10.013672 L 14.414062 10.013672 L 14.414062 16.664062 L 12.738281 16.664062 L 12.738281 16.314453 C 12.304281 16.889453 12.008406 17.013672 11.566406 17.013672 C 10.810406 17.013672 10.049609 16.411875 9.7246094 15.546875 C 9.4916094 16.350875 8.7660469 17.013672 7.6230469 17.013672 C 6.9970469 17.013672 6.4344375 16.748359 6.0234375 16.318359 C 6.0104375 16.303359 5.9965156 16.284531 5.9785156 16.269531 C 5.5985156 15.849531 5.3613281 15.279297 5.3613281 14.654297 C 5.3613281 14.374297 5.4111875 14.108281 5.4921875 13.863281 L 3.6855469 13.863281 L 3.6855469 16.664062 L 2.0097656 16.664062 L 2.0097656 10.013672 z M 9.7246094 15.546875 L 9.7324219 15.513672 L 9.7128906 15.513672 L 9.7246094 15.546875 z M 9.7128906 15.513672 C 9.6448906 15.324672 9.5972187 15.124063 9.5742188 14.914062 L 6.7929688 14.914062 C 6.7839687 15.079062 6.8556719 15.794922 7.6386719 15.794922 C 7.9416719 15.794922 8.1139531 15.663672 8.2519531 15.513672 L 9.7128906 15.513672 z M 7.5488281 13.154297 C 7.2138281 13.154297 6.9219688 13.443281 6.7929688 13.863281 L 8.3085938 13.863281 C 8.1745937 13.443281 7.8838281 13.154297 7.5488281 13.154297 z M 11.898438 13.164062 C 11.438437 13.164062 11.0625 13.713672 11.0625 14.388672 C 11.0625 15.063672 11.437437 15.613281 11.898438 15.613281 C 12.363437 15.613281 12.738281 15.063672 12.738281 14.388672 C 12.738281 13.713672 12.363437 13.164062 11.898438 13.164062 z"/></svg>