<svg xmlns="http://www.w3.org/2000/svg"  viewBox="0 0 30 30" width="100px" height="100px"><path d="M 13 3 C 7.4886661 3 3 7.4886661 3 13 L 1.7597656 13 C 1.1537656 13 0.79290625 13.675688 1.1289062 14.179688 L 3.3691406 17.539062 C 3.6691406 17.989062 4.3308594 17.989062 4.6308594 17.539062 L 6.8710938 14.179688 C 7.2070937 13.675688 6.8462344 13 6.2402344 13 L 5 13 C 5 8.5693339 8.5693339 5 13 5 C 15.131137 5 17.056195 5.8266018 18.490234 7.1796875 A 1.0001 1.0001 0 1 0 19.861328 5.7265625 C 18.071368 4.0376482 15.650863 3 13 3 z M 22 8.1230469 C 21.7595 8.1230469 21.519141 8.2359375 21.369141 8.4609375 L 19.128906 11.820312 C 18.792906 12.324312 19.153766 13 19.759766 13 L 21 13 C 21 17.430666 17.430666 21 13 21 C 10.868863 21 8.9438052 20.173398 7.5097656 18.820312 A 1.0001 1.0001 0 1 0 6.1386719 20.273438 C 7.9286323 21.962352 10.349137 23 13 23 C 15.396652 23 17.59741 22.148942 19.322266 20.736328 L 25.292969 26.707031 A 1.0001 1.0001 0 1 0 26.707031 25.292969 L 20.736328 19.322266 C 22.148942 17.59741 23 15.396652 23 13 L 24.240234 13 C 24.846234 13 25.207094 12.324312 24.871094 11.820312 L 22.630859 8.4609375 C 22.480859 8.2359375 22.2405 8.1230469 22 8.1230469 z"/></svg>