<?xml version="1.0"?><svg xmlns="http://www.w3.org/2000/svg"  viewBox="0 0 30 30" width="100px" height="100px">    <path d="M 5 4 C 3.895 4 3 4.895 3 6 L 3 8 C 3 9.105 3.895 10 5 10 L 7 10 C 8.105 10 9 9.105 9 8 L 13 8 C 13 9.105 13.895 10 15 10 L 17 10 C 18.105 10 19 9.105 19 8 L 20 8 C 21.668484 8 23 9.3315161 23 11 L 23 12 C 21.895 12 21 12.895 21 14 L 21 16 C 21 17.105 21.895 18 23 18 L 23 19 C 23 20.668484 21.668484 22 20 22 L 19 22 C 19 20.895 18.105 20 17 20 L 15 20 C 13.895 20 13 20.895 13 22 L 9 22 C 9 20.895 8.105 20 7 20 L 5 20 C 3.895 20 3 20.895 3 22 L 3 24 C 3 25.105 3.895 26 5 26 L 7 26 C 8.105 26 9 25.105 9 24 L 13 24 C 13 25.105 13.895 26 15 26 L 17 26 C 18.105 26 19 25.105 19 24 L 20 24 C 22.749516 24 25 21.749516 25 19 L 25 18 C 26.105 18 27 17.105 27 16 L 27 14 C 27 12.895 26.105 12 25 12 L 25 11 C 25 8.2504839 22.749516 6 20 6 L 19 6 C 19 4.895 18.105 4 17 4 L 15 4 C 13.895 4 13 4.895 13 6 L 9 6 C 9 4.895 8.105 4 7 4 L 5 4 z"/></svg>