<svg xmlns="http://www.w3.org/2000/svg"  viewBox="0 0 30 30" width="100px" height="100px"><path d="M 9 4 C 6.2504839 4 4 6.2504839 4 9 L 4 21 C 4 23.749516 6.2504839 26 9 26 L 21 26 C 23.749516 26 26 23.749516 26 21 L 26 9 C 26 6.2504839 23.749516 4 21 4 L 9 4 z M 9 6 L 21 6 C 22.668484 6 24 7.3315161 24 9 L 24 19.462891 C 23.422397 19.19481 22.74465 19 21.900391 19 L 15.443359 19 C 15.443975 18.771229 15.438445 18.541675 15.451172 18.316406 C 15.475172 17.963406 15.511797 17.610297 15.591797 17.279297 C 15.643503 17.067891 15.722565 16.863172 15.822266 16.707031 C 16.402566 17.025298 17.589355 17.343826 18.787109 16.771484 C 20.255109 16.069484 20.744141 13.902344 20.744141 13.902344 C 19.619141 14.799344 18.658031 14.521656 17.582031 14.472656 C 16.57182 14.426695 15.635036 14.941623 15.521484 16.242188 C 15.292058 16.447009 15.169866 16.700497 15.066406 16.945312 C 15.052622 16.901592 15.044403 16.858175 15.029297 16.814453 C 14.951297 16.607453 14.869234 16.402219 14.740234 16.199219 C 14.673066 16.087455 14.583637 15.978627 14.476562 15.878906 C 14.396265 14.685814 13.887666 14.094893 13.070312 13.679688 C 12.131312 13.202687 10.615141 12.957391 9.2441406 13.275391 C 10.240141 13.582391 10.573516 15.238672 11.353516 15.888672 C 12.046089 16.465817 13.095666 16.600402 14.103516 16.490234 C 14.195189 16.642551 14.273053 16.832984 14.326172 17.033203 C 14.420172 17.385203 14.468906 17.764531 14.503906 18.144531 C 14.562906 18.906531 14.556 19.701937 14.5 20.460938 L 14.503906 20.460938 C 14.503632 20.473462 14.502202 20.485507 14.501953 20.498047 L 14.5 20.5 L 14.5 21 L 13 21 L 13 19 L 8.0996094 19 C 7.1853 19 6.4998782 19.216403 6 19.447266 L 6 9 C 6 7.3315161 7.3315161 6 9 6 z"/></svg>