<?xml version="1.0"?><svg xmlns="http://www.w3.org/2000/svg"  viewBox="0 0 30 30" width="100px" height="100px">    <path d="M 6.4433594 4 C 5.0933594 4 4 5.0933594 4 6.4433594 L 4 23.554688 C 4 24.904688 5.0933594 26 6.4433594 26 L 23.554688 26 C 24.905687 26 26 24.905641 26 23.556641 L 26 6.4433594 C 26 5.0933594 24.906641 4 23.556641 4 L 6.4433594 4 z M 10 6 L 12 6 L 17.832031 6 L 20.259766 6 L 19.816406 8.2773438 L 22.943359 8.2773438 L 22.332031 11.945312 L 22.923828 20.542969 L 17 20.0625 L 17 21.417969 L 17 23.066406 L 15.382812 23.380859 L 12.382812 23.964844 L 10 24.425781 L 10 22 L 10 20.839844 L 7.0566406 21.722656 L 7.6679688 12.554688 L 7.0566406 8.2773438 L 10 8.2773438 L 10 8 L 10 6 z M 12 8 L 12 22 L 15 21.417969 L 15 16 L 17 16 L 17 13 L 15 13 L 15 11 L 17.25 11 L 17.832031 8 L 12 8 z"/></svg>