<svg xmlns="http://www.w3.org/2000/svg"  viewBox="0 0 30 30" width="100px" height="100px"><path d="M 6 4 C 4.895 4 4 4.895 4 6 L 4 24 C 4 25.105 4.895 26 6 26 L 24 26 C 25.105 26 26 25.105 26 24 L 26 6 C 26 5.972 25.993188 5.9459687 25.992188 5.9179688 L 21.382812 10.527344 C 21.133812 10.776344 21 11.140766 21 11.384766 C 21 12.307766 22.109594 12 22.933594 12 C 23.590594 12 24 12.319 24 13 C 24 16.26 19.841797 14.070016 19.841797 18.666016 C 19.841797 20.369016 19.002 24 14 24 C 9.648 24 6 19.477203 6 15.908203 C 6 13.150203 8.1332031 10.538344 11.783203 10.527344 C 16.726203 10.512344 14.041391 6.0664063 17.650391 6.0664062 C 18.218391 6.0664062 18.570313 6.2563281 18.570312 6.9863281 C 18.570312 7.7163281 18.273437 8.0409219 18.273438 8.4199219 C 18.273438 8.7979219 18.543906 9.1484375 19.003906 9.1484375 C 19.463906 9.1484375 19.664062 8.8105469 19.664062 8.8105469 L 24.427734 4.0488281 C 24.289734 4.0188281 24.147 4 24 4 L 6 4 z M 17.402344 10.570312 L 16.322266 11.650391 L 18.320312 13.650391 L 16.507812 15.462891 L 14.404297 13.359375 L 13.335938 14.429688 L 15.601562 16.695312 C 15.903362 16.997112 16.068998 17.331385 16.205078 17.658203 C 16.168562 17.68782 16.129282 17.713692 16.099609 17.753906 A 0.50005 0.50005 0 0 0 16.207031 18.462891 C 15.828394 19.287442 15.293071 20.091164 14.892578 21.039062 C 14.862428 21.110412 14.817608 21.205017 14.775391 21.3125 C 14.733171 21.419983 14.681641 21.531288 14.681641 21.726562 C 14.681641 21.981361 14.770042 22.160237 14.976562 22.328125 C 15.183086 22.496013 15.55031 22.543775 15.830078 22.417969 A 0.50005 0.50005 0 0 0 15.789062 21.484375 C 15.798163 21.463385 15.805133 21.449784 15.814453 21.427734 C 16.154661 20.622517 16.674296 19.835312 17.091797 18.939453 C 17.206488 18.977988 17.341119 19 17.5 19 C 18.713 19 18.133625 17.024797 18.890625 15.591797 C 19.371625 14.681797 19.717422 14.113406 19.857422 13.816406 C 19.985422 13.545406 20.105375 13.136625 19.609375 12.640625 C 19.148375 12.177625 17.402344 10.570312 17.402344 10.570312 z M 11.796875 12.677734 C 11.574084 12.665776 11.401794 12.749761 11.300781 12.792969 C 10.300231 13.224516 9.4502507 13.814594 8.5722656 14.185547 C 8.5504936 14.194747 8.536373 14.199954 8.515625 14.208984 A 0.50005 0.50005 0 0 0 7.5820312 14.169922 C 7.4562294 14.44969 7.503987 14.816913 7.671875 15.023438 C 7.8397631 15.229961 8.0186386 15.318359 8.2734375 15.318359 C 8.4687126 15.318359 8.5800172 15.266829 8.6875 15.224609 C 8.7949828 15.182399 8.889592 15.137579 8.9609375 15.107422 C 9.9088374 14.706929 10.712558 14.171606 11.537109 13.792969 A 0.50005 0.50005 0 0 0 12.246094 13.900391 C 12.491242 13.719505 12.531012 13.388493 12.46875 13.1875 C 12.40649 12.986507 12.277478 12.813395 12.035156 12.726562 C 11.950152 12.696103 11.871139 12.68172 11.796875 12.677734 z M 10.992188 15.917969 A 0.750075 0.750075 0 0 0 10.46875 17.207031 L 12.792969 19.53125 A 0.75061078 0.75061078 0 1 0 13.853516 18.46875 L 11.53125 16.146484 A 0.750075 0.750075 0 0 0 10.992188 15.917969 z"/></svg>