<svg xmlns="http://www.w3.org/2000/svg"  viewBox="0 0 30 30" width="100px" height="100px"><path d="M 21.847656 4.1523438 C 23.201656 6.0943438 24 8.453 24 11 C 24 17.627 18.627 23 12 23 C 9.453 23 7.0943437 22.201656 5.1523438 20.847656 C 7.3203438 23.959656 10.92 26 15 26 C 21.627 26 27 20.627 27 14 C 27 9.92 24.959656 6.3203438 21.847656 4.1523438 z M 5.7597656 6 C 4.6607656 7.37 4 9.107 4 11 C 4 13.98 5.6328281 16.574172 8.0488281 17.951172 C 7.3848281 16.785172 7 15.438 7 14 C 7 11.936 7.7892656 10.059625 9.0722656 8.640625 C 9.0272656 8.433625 9 8.221 9 8 L 9 6 L 5.7597656 6 z M 15 6 L 15 8 C 15 9.657 13.657 11 12 11 C 12 12.657 13.343 14 15 14 C 16.657 14 18 12.657 18 11 L 18 9 L 20.769531 9 C 20.522531 7.913 20.084422 6.898 19.482422 6 L 15 6 z"/></svg>