<svg xmlns="http://www.w3.org/2000/svg"  viewBox="0 0 30 30" width="100px" height="100px"><path d="M10.944 7.256c-.085.167-.265.282-.455.282C9.547 7.559 6.838 7.747 5.696 8.311 5.293 8.51 5.241 8.645 5.241 8.645c.011.063.233.272.455.386.222.105.328.345.275.585-.053.23-.265.397-.519.397-.074 0-1.894-.011-2.878-.972C1.886 8.353 1.886 7.726 2.013 7.319c.614-1.995 5.682-3.092 6.688-3.29.212-.053.423.042.54.219l1.682 2.476C11.029 6.88 11.04 7.089 10.944 7.256zM19.074 7.256c.084.167.263.282.452.282.935.021 3.626.209 4.761.773.399.198.452.334.452.334-.011.063-.231.272-.452.386-.221.105-.326.345-.273.585.053.23.263.397.515.397.074 0 1.881-.011 2.859-.972.683-.689.683-1.316.557-1.724-.61-1.995-5.644-3.092-6.643-3.291-.21-.053-.42.042-.536.219l-1.671 2.476C18.99 6.88 18.98 7.089 19.074 7.256zM23.01 19.931c0 .264-.208.472-.472.472-1.067 0-1.398.331-1.417.501v3.749c0 .123-.047.246-.142.331-.076.085-2.068 2.03-5.997 2.03-3.721 0-8.972-2.786-8.972-8.972 0-5.922 4.836-8.028 8.972-8.028 2.654 0 4.677.793 5.159.944h.869c.264 0 .472.208.472.472v4.722c0 .264-.208.472-.472.472h-.944c-.227 0-.416-.16-.463-.378-.038-.18-.333-4.345-3.676-4.345-1.247 0-2.238.406-2.947 1.209-1.766 1.993-1.313 5.78-1.303 5.818 0 3.627 1.709 5.251 3.306 5.251h1.417v-3.306c0-.283-.841-.472-1.417-.472-.264 0-.472-.208-.472-.472 0-.255.198-.463.453-.472h7.574C22.802 19.458 23.01 19.666 23.01 19.931zM12.471 5.476c1.438 0 2.077 1.505 2.077 2.077 0 .255.207.462.462.462s.462-.207.462-.462c0-.572.639-2.077 2.077-2.077.255 0 .462-.207.462-.462 0-.255-.207-.462-.462-.462-1.438 0-2.077-1.505-2.077-2.077 0-.255-.207-.462-.462-.462s-.462.207-.462.462c0 .572-.639 2.077-2.077 2.077-.255 0-.462.207-.462.462C12.01 5.269 12.216 5.476 12.471 5.476z"/></svg>