<svg xmlns="http://www.w3.org/2000/svg"  viewBox="0 0 30 30" width="100px" height="100px"><path d="M15.01,3.004c-0.19,0-0.38,0-0.57,0.01c-6.62,0.31-11.73,5.92-11.43,12.54c0.3,6.43,5.61,11.45,11.98,11.45 c0.19,0,0.37-0.01,0.56-0.02c6.62-0.3,11.74-5.92,11.44-12.54C26.69,8.014,21.38,3.004,15.01,3.004z M12.93,18.494 c0,0.45-0.07,1-0.33,1.44c-0.24,0.4-0.65,0.71-1.1,0.88c-0.62,0.24-1.26,0.28-1.92,0.26c-0.08-0.01-0.09-0.06-0.09-0.12 c0-0.16,0.01-0.33,0-0.49c0-0.09,0.04-0.12,0.12-0.13c0.3-0.02,0.59-0.07,0.87-0.16c1.34-0.3,1.15-1.42,1.16-1.68 c0-0.27,0.01-0.96,0-1.61c-0.28,0.5-0.9,0.94-1.56,1.1c-0.47,0.11-1.28,0.09-1.83-0.19c-0.74-0.37-1.1-1.17-1.25-1.95 c-0.08-0.39-0.11-0.76-0.12-1.08c-0.02-0.51,0.04-1.03,0.25-1.5c0.21-0.51,0.54-0.95,1.05-1.29c0.85-0.65,2.12-0.57,2.66-0.57 c0.07,0,0.13,0.05,0.13,0.13c0,0.23-0.01,0.4,0,0.63c0,0.05-0.07,0.07-0.13,0.06c-0.09-0.01-0.51-0.08-1.03,0.06 c-0.22,0.07-1.23,0.43-1.43,1.83c-0.01,0.04-0.02,0.09-0.02,0.15c-0.06,0.56-0.02,1.47,0.28,2.06c0.28,0.48,0.56,0.78,1.28,0.74 c0.93-0.04,1.64-1.17,1.71-1.5v-0.35c0-0.93,0-2.76,0.02-3.67c0-0.12,0.03-0.14,0.14-0.14c0.34,0.01,0.67,0.01,1.01,0 c0.1,0,0.13,0.02,0.13,0.14V18.494z M15.59,18.054c0,0.07-0.05,0.13-0.12,0.13h-1.02c-0.07,0-0.12-0.06-0.12-0.13v-8.11h-0.96 c-0.07,0-0.12-0.06-0.12-0.13v-0.76c0-0.07,0.05-0.12,0.12-0.12h2.1c0.07,0,0.12,0.05,0.12,0.12V18.054z M19.93,18.044 c-1.76,0-3.2-1.48-3.2-3.32c0-1.83,1.44-3.32,3.2-3.32s3.19,1.49,3.19,3.32C23.12,16.564,21.69,18.044,19.93,18.044z M19.93,12.554 c-1.08,0-1.95,0.98-1.95,2.17c0,1.2,0.87,2.17,1.95,2.17c1.08,0,1.95-0.97,1.95-2.17C21.88,13.534,21.01,12.554,19.93,12.554z"/></svg>