<svg xmlns="http://www.w3.org/2000/svg"  viewBox="0 0 30 30" width="100px" height="100px"><path d="M 15.019531 1 A 1.0001 1.0001 0 0 0 14 2 L 14 6 L 9 6 A 1.0001 1.0001 0 0 0 8.2480469 6.3417969 L 1.2480469 14.341797 A 1.0001 1.0001 0 0 0 2 16 L 6 16 L 6 21 A 1.0001 1.0001 0 0 0 6.3417969 21.751953 L 14.341797 28.751953 A 1.0001 1.0001 0 0 0 16 28 L 16 24 L 21 24 A 1.0001 1.0001 0 0 0 21.751953 23.658203 L 28.751953 15.658203 A 1.0001 1.0001 0 0 0 28 14 L 24 14 L 24 9 A 1.0001 1.0001 0 0 0 23.658203 8.2480469 L 15.658203 1.2480469 A 1.0001 1.0001 0 0 0 15.019531 1 z M 16 4.203125 L 21.886719 9.3535156 L 17.404297 13.027344 C 16.550246 12.295545 16 11.221315 16 10 L 16 7 L 16 4.203125 z M 9.3535156 8.1132812 L 13.027344 12.595703 C 12.295545 13.449754 11.221315 14 10 14 L 4.203125 14 L 9.3535156 8.1132812 z M 15 13.304688 C 15.44624 13.976464 16.023536 14.55376 16.695312 15 C 16.023536 15.44624 15.44624 16.023536 15 16.695312 C 14.55376 16.023536 13.976464 15.44624 13.304688 15 C 13.976464 14.55376 14.55376 13.976464 15 13.304688 z M 20 16 L 25.796875 16 L 20.646484 21.886719 L 16.972656 17.404297 C 17.704455 16.550246 18.778685 16 20 16 z M 12.595703 16.972656 C 13.449754 17.704455 14 18.778685 14 20 L 14 23 L 14 25.796875 L 8.1132812 20.646484 L 12.595703 16.972656 z"/></svg>