<?xml version="1.0"?><svg xmlns="http://www.w3.org/2000/svg"  viewBox="0 0 30 30" width="100px" height="100px">    <path d="M 4 4 L 4 24 C 4 25.1 4.9 26 6 26 L 18 26 L 20 24 L 24 20 L 26 18 L 26 4 L 25 4 L 23 5 L 21.019531 4 L 19 5 L 16.972656 4 L 15 5 L 13.039062 4 L 11 5 L 9.0214844 4 L 7 5 L 4.9726562 4 L 4 4 z M 9.0117188 6.2363281 L 10.097656 6.7851562 L 10.986328 7.234375 L 11.880859 6.796875 L 13.021484 6.2363281 L 14.091797 6.78125 L 14.996094 7.2441406 L 15.904297 6.7832031 L 16.984375 6.2363281 L 18.115234 6.7949219 L 19.001953 7.2304688 L 19.886719 6.7929688 L 21.011719 6.2363281 L 22.097656 6.7851562 L 22.994141 7.2382812 L 23.894531 6.7890625 L 24 6.7363281 L 24 18 L 20 18 L 16 18 L 16 19 L 18 19 L 18 20 L 16 20 L 16 21 L 18 21 L 18 24 L 6 24 L 6 6.7363281 L 6.1152344 6.7949219 L 7.0019531 7.2304688 L 7.8867188 6.7929688 L 9.0117188 6.2363281 z M 8 9 L 8 11 L 22 11 L 22 9 L 8 9 z M 8 12 L 8 19 L 15 19 L 15 12 L 8 12 z M 16 12 L 16 13 L 22 13 L 22 12 L 16 12 z M 10 13 L 10 14 L 11 13 L 13 13 L 14 14 L 12 14 L 12 16 L 13 15 L 14 15 L 14 16 L 14 17 L 13 18 L 10 18 L 9 17 L 9 14 L 10 13 z M 12 16 L 11 17 L 13 17 L 13 16 L 12 16 z M 11 17 L 11 14 L 10 14 L 10 17 L 11 17 z M 16 14 L 16 15 L 22 15 L 22 14 L 16 14 z M 16 16 L 16 17 L 22 17 L 22 16 L 16 16 z M 8 20 L 8 21 L 15 21 L 15 20 L 8 20 z"/></svg>