<svg xmlns="http://www.w3.org/2000/svg"  viewBox="0 0 30 30" width="100px" height="100px"><path d="M 8 2 C 7.448 2 7 2.448 7 3 L 7 27 C 7 27.552 7.448 28 8 28 L 22 28 C 22.552 28 23 27.552 23 27 L 23 3 C 23 2.448 22.552 2 22 2 L 8 2 z M 9.5 4 L 20.5 4 C 20.776 4 21 4.224 21 4.5 L 21 16.5 C 21 16.776 20.776 17 20.5 17 L 9.5 17 C 9.224 17 9 16.776 9 16.5 L 9 4.5 C 9 4.224 9.224 4 9.5 4 z M 15 19 C 15.552 19 16 19.448 16 20 C 16 20.552 15.552 21 15 21 C 14.448 21 14 20.552 14 20 C 14 19.448 14.448 19 15 19 z M 10.5 23 L 12 23 L 12 24 L 9.0917969 24 C 9.2984868 23.41875 9.8481216 23 10.5 23 z M 13 23 L 17 23 L 17 24 L 13 24 L 13 23 z M 18 23 L 19.5 23 C 20.151878 23 20.701513 23.41875 20.908203 24 L 18 24 L 18 23 z M 9.0917969 25 L 12 25 L 12 26 L 10.5 26 C 9.8481216 26 9.2984868 25.58125 9.0917969 25 z M 13 25 L 17 25 L 17 26 L 13 26 L 13 25 z M 18 25 L 20.908203 25 C 20.701513 25.58125 20.151878 26 19.5 26 L 18 26 L 18 25 z"/></svg>