<?xml version="1.0"?><svg xmlns="http://www.w3.org/2000/svg"  viewBox="0 0 30 30" width="100px" height="100px">    <path d="M 20.169922 4 C 20.169922 4 21.13075 8.2348594 21.46875 12.255859 C 23.25075 15.596859 25.204078 20.398641 25.580078 25.931641 L 25.585938 25.994141 C 25.607937 25.941141 27 22.4965 27 15.0625 C 27 9.2465 25.552734 4 25.552734 4 L 20.169922 4 z M 12.193359 8 C 12.193359 8 18.712297 18.003 19.154297 26 L 24.583984 26 C 23.890984 15.822 17.576172 8 17.576172 8 L 12.193359 8 z M 11.179688 8.2753906 C 11.136688 9.0593906 10.972656 11.440172 10.472656 14.201172 C 11.508656 15.954172 12.719781 18.486906 13.550781 21.753906 L 13.605469 21.96875 C 14.109469 20.90275 15.080984 18.145406 15.458984 16.316406 C 13.572984 11.991406 11.392469 8.603875 11.355469 8.546875 L 11.179688 8.2753906 z M 2 12 C 2 12 5.8231719 16.928 6.9511719 22 L 12.582031 22 C 10.930031 15.51 7.703125 12 7.703125 12 L 2 12 z"/></svg>