<?xml version="1.0"?><svg xmlns="http://www.w3.org/2000/svg"  viewBox="0 0 30 30" width="100px" height="100px">    <path d="M 23.5 3 A 2.5 2.5 0 0 0 21.041016 5.0605469 C 15.332519 3.3128646 12.953059 9.7934728 11.183594 11.15625 C 9.5774247 12.395609 4.9027684 12.165642 4.3417969 15 C 4.3415067 15.001466 4.3401318 15.002438 4.3398438 15.003906 C 3.6258432 17.023344 5.7061751 19.710836 10.003906 22.458984 C 10.003741 22.472995 10 22.48595 10 22.5 C 10 24.433 11.566953 26 13.501953 26 C 14.26387 26 14.962638 25.749691 15.537109 25.335938 C 17.98551 26.337785 20.373499 27 21.826172 27 C 23.030172 27 24.224609 26.455781 24.599609 25.800781 C 26.575609 23.684781 24.306141 19.924531 24.369141 17.894531 C 24.427632 15.949682 27.175405 10.995968 24.845703 7.6054688 A 2.5 2.5 0 0 0 26 5.5 A 2.5 2.5 0 0 0 23.5 3 z M 7.3554688 15.949219 C 8.9194688 15.949219 11.892875 16.696969 15.546875 18.792969 C 20.051875 21.377969 22.277031 23.804266 22.707031 24.822266 C 22.492031 24.912266 22.174172 25 21.826172 25 C 20.812557 25 18.899851 24.505713 16.78125 23.679688 C 16.914294 23.309627 17 22.915912 17 22.5 C 17 20.567 15.433953 19 13.501953 19 C 12.318072 19 11.276353 19.59019 10.642578 20.488281 C 7.6397814 18.493592 6.456749 16.919681 6.2382812 16.105469 C 6.5252812 16.022469 6.9304687 15.949219 7.3554688 15.949219 z"/></svg>