<?xml version="1.0"?><svg xmlns="http://www.w3.org/2000/svg"  viewBox="0 0 30 30" width="100px" height="100px">    <path d="M 3.5625 7 C 2.1906147 7 0.98427329 7.942729 0.65234375 9.2734375 L 0.029296875 11.757812 A 1.0004597 1.0004597 0 0 0 0.095703125 12.423828 C 0.039871877 12.607625 0 12.798176 0 13 L 0 16 C 0 16.556 0.22870313 17.058875 0.59570312 17.421875 L 0.80859375 19.332031 C 0.97759375 20.851031 2.2600625 22 3.7890625 22 L 10.210938 22 C 11.739937 22 13.023406 20.850078 13.191406 19.330078 L 13.771484 14.097656 C 13.841484 13.472656 14.371 13 15 13 C 15.629 13 16.157563 13.472656 16.226562 14.097656 L 16.808594 19.330078 C 16.977594 20.850078 18.260062 22 19.789062 22 L 26.210938 22 C 27.739937 22 29.023406 20.850078 29.191406 19.330078 L 29.986328 12.154297 A 1.0004596 1.0004596 0 0 0 29.970703 11.757812 L 29.347656 9.2734375 L 29.347656 9.2714844 C 29.015133 7.9416565 27.80881 7 26.4375 7 L 18 7 A 1.0001 1.0001 0 1 0 18 9 L 26.4375 9 C 26.901615 9 27.296133 9.308521 27.408203 9.7578125 L 27.71875 11 L 15 11 L 2.3632812 11 L 2.28125 11 L 2.5917969 9.7578125 C 2.7038673 9.308521 3.0983853 9 3.5625 9 L 12 9 A 1.0001 1.0001 0 1 0 12 7 L 3.5625 7 z M 2 13 L 9 13 L 9 16 L 2 16 L 2 13 z"/></svg>