<?xml version="1.0"?><svg xmlns="http://www.w3.org/2000/svg"  viewBox="0 0 30 30" width="100px" height="100px">    <path d="M 11.011719 4 C 10.279719 4 9.6068594 4.4009688 9.2558594 5.0429688 L 2.5585938 17.318359 C 2.2445937 17.893359 2.2323906 18.584922 2.5253906 19.169922 L 5.3886719 24.894531 C 5.7276719 25.572531 6.4207344 26 7.1777344 26 L 21.693359 26 C 22.362359 26 22.986422 25.666375 23.357422 25.109375 L 27.269531 19.240234 C 27.682531 18.622234 27.717328 17.826828 27.361328 17.173828 L 20.744141 5.0429688 C 20.394141 4.4009688 19.720281 4 18.988281 4 L 11.011719 4 z M 11.400391 6 L 12.599609 6 L 17.400391 14 L 24.599609 16.599609 L 25.800781 17.800781 L 15 18 L 7.8007812 23.800781 L 6.5996094 23.800781 L 12.599609 14 L 11.400391 6 z M 15 13 L 12.599609 16.599609 L 17.400391 16.599609 L 15 13 z"/></svg>