<svg xmlns="http://www.w3.org/2000/svg"  viewBox="0 0 30 30" width="100px" height="100px"><path d="M 4.984375 3.9863281 A 1.0001 1.0001 0 0 0 4 5 L 4 24 C 4 25.093063 4.9069372 26 6 26 L 25 26 A 1.0001 1.0001 0 1 0 25 24 L 6 24 L 6 5 A 1.0001 1.0001 0 0 0 4.984375 3.9863281 z M 10 4 A 1 1 0 0 0 9 5 A 1 1 0 0 0 10 6 A 1 1 0 0 0 11 5 A 1 1 0 0 0 10 4 z M 15 4 A 1 1 0 0 0 14 5 A 1 1 0 0 0 15 6 A 1 1 0 0 0 16 5 A 1 1 0 0 0 15 4 z M 20 4 A 1 1 0 0 0 19 5 A 1 1 0 0 0 20 6 A 1 1 0 0 0 21 5 A 1 1 0 0 0 20 4 z M 25 4 A 1 1 0 0 0 24 5 A 1 1 0 0 0 25 6 A 1 1 0 0 0 26 5 A 1 1 0 0 0 25 4 z M 24.980469 8.9902344 A 1.0001 1.0001 0 0 0 24.292969 9.2929688 L 20 13.585938 L 15.707031 9.2929688 A 1.0001 1.0001 0 0 0 14.292969 9.2929688 L 7.2929688 16.292969 A 1.0001 1.0001 0 1 0 8.7070312 17.707031 L 15 11.414062 L 19.292969 15.707031 A 1.0001 1.0001 0 0 0 20.707031 15.707031 L 25.707031 10.707031 A 1.0001 1.0001 0 0 0 24.980469 8.9902344 z M 10 9 A 1 1 0 0 0 9 10 A 1 1 0 0 0 10 11 A 1 1 0 0 0 11 10 A 1 1 0 0 0 10 9 z M 20 9 A 1 1 0 0 0 19 10 A 1 1 0 0 0 20 11 A 1 1 0 0 0 21 10 A 1 1 0 0 0 20 9 z M 15 14 A 1 1 0 0 0 14 15 A 1 1 0 0 0 15 16 A 1 1 0 0 0 16 15 A 1 1 0 0 0 15 14 z M 25 14 A 1 1 0 0 0 24 15 A 1 1 0 0 0 25 16 A 1 1 0 0 0 26 15 A 1 1 0 0 0 25 14 z M 10 19 A 1 1 0 0 0 9 20 A 1 1 0 0 0 10 21 A 1 1 0 0 0 11 20 A 1 1 0 0 0 10 19 z M 15 19 A 1 1 0 0 0 14 20 A 1 1 0 0 0 15 21 A 1 1 0 0 0 16 20 A 1 1 0 0 0 15 19 z M 20 19 A 1 1 0 0 0 19 20 A 1 1 0 0 0 20 21 A 1 1 0 0 0 21 20 A 1 1 0 0 0 20 19 z M 25 19 A 1 1 0 0 0 24 20 A 1 1 0 0 0 25 21 A 1 1 0 0 0 26 20 A 1 1 0 0 0 25 19 z"/></svg>