<svg xmlns="http://www.w3.org/2000/svg"  viewBox="0 0 30 30" width="100px" height="100px"><path d="M 14.851562 1.9921875 C 14.601562 2.0321875 14.372656 2.1730469 14.222656 2.3730469 L 11.302734 5.2832031 C 11.022734 5.5732031 10.931797 6.0030469 11.091797 6.3730469 C 11.241797 6.7530469 11.611719 6.9921875 12.011719 6.9921875 L 14.011719 6.9921875 L 14.011719 26.992188 C 14.001719 27.542188 14.441953 28.003906 15.001953 28.003906 C 15.551953 28.013906 16.001719 27.573437 16.011719 27.023438 L 16.011719 6.9921875 L 18.011719 6.9921875 C 18.411719 6.9921875 18.781641 6.7530469 18.931641 6.3730469 C 19.091641 6.0030469 19.002656 5.5732031 18.722656 5.2832031 L 15.802734 2.3730469 C 15.652734 2.1730469 15.431641 2.0321875 15.181641 1.9921875 L 14.851562 1.9921875 z M 7.8515625 8.9921875 C 7.6015625 9.0321875 7.3726562 9.1730469 7.2226562 9.3730469 L 4.3027344 12.283203 C 4.0227344 12.573203 3.9317969 13.003047 4.0917969 13.373047 C 4.2417969 13.753047 4.6117187 13.992187 5.0117188 13.992188 L 7.0117188 13.992188 L 7.0117188 20.992188 L 7.0117188 22.992188 C 7.0117188 23.114187 6.9667188 25.992188 3.0117188 25.992188 C 2.4597187 25.992188 2.0117187 26.439188 2.0117188 26.992188 C 2.0117188 27.545188 2.4597187 27.992187 3.0117188 27.992188 C 7.7577187 27.992188 9.0117188 24.722188 9.0117188 22.992188 L 9.0117188 21.023438 L 9.0117188 20.992188 L 9.0117188 13.992188 L 11.011719 13.992188 C 11.411719 13.992188 11.781641 13.753047 11.931641 13.373047 C 12.091641 13.003047 12.002656 12.573203 11.722656 12.283203 L 8.8027344 9.3730469 C 8.6527344 9.1730469 8.4316406 9.0321875 8.1816406 8.9921875 L 7.8515625 8.9921875 z M 21.851562 8.9921875 C 21.601562 9.0321875 21.372656 9.1730469 21.222656 9.3730469 L 18.302734 12.283203 C 18.022734 12.573203 17.931797 13.003047 18.091797 13.373047 C 18.241797 13.753047 18.611719 13.992187 19.011719 13.992188 L 21.011719 13.992188 L 21.011719 20.992188 L 21.011719 22.992188 C 21.011719 24.721187 22.265719 27.992188 27.011719 27.992188 C 27.563719 27.992188 28.011719 27.545187 28.011719 26.992188 C 28.011719 26.439187 27.563719 25.992188 27.011719 25.992188 C 23.177719 25.992188 23.016719 23.291187 23.011719 22.992188 L 23.011719 21.023438 L 23.011719 20.992188 L 23.011719 13.992188 L 25.011719 13.992188 C 25.411719 13.992188 25.781641 13.753047 25.931641 13.373047 C 26.091641 13.003047 26.002656 12.573203 25.722656 12.283203 L 22.802734 9.3730469 C 22.652734 9.1730469 22.431641 9.0321875 22.181641 8.9921875 L 21.851562 8.9921875 z"/></svg>