<svg xmlns="http://www.w3.org/2000/svg"  viewBox="0 0 30 30" width="100px" height="100px"><path d="M 15 3 C 11.134 3 8 6.134 8 10 C 8 13.525296 10.609364 16.433226 14 16.919922 L 14 26 A 1.0001 1.0001 0 0 0 15.208984 26.990234 C 15.210042 26.990228 15.21183 26.990241 15.212891 26.990234 C 16.344911 26.983475 19.146001 26.853999 22 24 C 25 21 25 17 25 17 C 25 17 21 17 18 20 C 17.063393 20.936607 16.443077 21.963964 16 22.943359 L 16 16.919922 C 19.390636 16.433226 22 13.525296 22 10 C 22 6.134 18.866 3 15 3 z M 14.533203 5 L 15.466797 5 L 15.466797 5.8320312 C 17.070797 5.9910312 18.153594 6.9401563 18.183594 8.2851562 L 16.3125 8.2851562 C 16.2685 7.7211562 15.732531 7.3300781 15.019531 7.3300781 C 14.306531 7.3300781 13.837891 7.6672656 13.837891 8.1972656 C 13.837891 8.6332656 14.190297 8.8877344 15.029297 9.0527344 L 16.058594 9.2519531 C 17.632594 9.5559531 18.339844 10.268203 18.339844 11.533203 C 18.339844 13.059203 17.258797 14.021922 15.466797 14.169922 L 15.466797 15 L 15.154297 15 A 1.0001 1.0001 0 0 0 14.984375 14.986328 A 1.0001 1.0001 0 0 0 14.839844 15 L 14.533203 15 L 14.533203 14.173828 C 12.783203 14.039828 11.693109 13.130844 11.662109 11.714844 L 13.595703 11.714844 C 13.644703 12.294844 14.225453 12.664062 15.064453 12.664062 C 15.821453 12.664062 16.339844 12.299391 16.339844 11.775391 C 16.339844 11.334391 15.991078 11.096063 15.080078 10.914062 L 14.03125 10.703125 C 12.57325 10.427125 11.822266 9.6329062 11.822266 8.3789062 C 11.822266 6.9509063 12.879203 5.9830781 14.533203 5.8300781 L 14.533203 5 z M 5 17 C 5 17 5 21 8 24 C 9.281 25.281 10.743 26.013594 12 26.433594 L 12 20 C 9 17 5 17 5 17 z"/></svg>