<svg xmlns="http://www.w3.org/2000/svg"  viewBox="0 0 30 30" width="100px" height="100px"><path d="M12.338 22.492l-.103-.172-.175.097c-.462.256-.982.392-1.506.392-1.234 0-2.306-.739-2.805-1.794l-2.208 5.287 3.876-.339L12 29l2.141-5.126C13.396 23.661 12.751 23.182 12.338 22.492zM19.446 22.81c-.523 0-1.044-.135-1.506-.392l-.175-.097-.103.172c-.414.689-1.059 1.169-1.804 1.381L18 29l2.583-3.036 3.876.339-2.208-5.287C21.752 22.071 20.68 22.81 19.446 22.81zM24.464 11.052l-.699-.42c-.298-.179-.499-.473-.59-.808-.002-.006-.003-.013-.005-.019-.093-.338-.065-.698.105-1.004l.396-.713c.405-.729-.113-1.627-.948-1.641L21.9 6.433c-.349-.006-.672-.161-.918-.407-.003-.003-.005-.005-.008-.008-.247-.246-.401-.57-.407-.918l-.014-.823c-.014-.834-.912-1.352-1.641-.948l-.713.396c-.307.17-.666.198-1.004.105-.006-.002-.013-.003-.019-.005-.335-.091-.629-.293-.808-.59l-.42-.699c-.429-.715-1.466-.715-1.895 0l-.417.696c-.18.3-.477.503-.814.595-.004.001-.007.002-.011.003-.341.094-.703.066-1.012-.106L11.09 3.33c-.729-.405-1.627.113-1.641.948L9.434 5.101C9.428 5.449 9.273 5.772 9.027 6.019 9.024 6.021 9.021 6.024 9.019 6.027c-.246.247-.57.401-.918.407L7.278 6.448C6.444 6.462 5.926 7.359 6.331 8.089l.396.713c.17.307.198.666.105 1.004C6.829 9.812 6.828 9.819 6.826 9.825c-.091.335-.293.629-.59.808l-.699.42c-.715.429-.715 1.466 0 1.895l.699.42c.298.179.499.473.59.808.002.006.003.012.005.019.093.338.065.698-.105 1.004L6.33 15.912c-.405.729.113 1.627.948 1.641l.823.014c.349.006.672.161.918.407.003.003.005.005.008.008.247.246.401.57.407.918l.014.823c.014.834.912 1.352 1.641.948l.713-.396c.307-.17.666-.198 1.004-.105.006.002.013.003.019.005.335.091.629.292.808.59l.42.699c.429.715 1.466.715 1.895 0l.42-.699c.179-.298.473-.499.808-.59.006-.002.013-.003.019-.005.338-.093.698-.065 1.004.105l.713.396c.729.405 1.627-.113 1.641-.948l.014-.823c.006-.349.161-.672.407-.918.003-.003.005-.005.008-.008.246-.247.57-.401.918-.407l.823-.014c.834-.014 1.352-.912.948-1.641l-.396-.713c-.17-.307-.198-.666-.105-1.004.002-.006.003-.013.005-.019.091-.335.292-.629.59-.808l.699-.42C25.179 12.518 25.179 11.482 24.464 11.052zM19.707 10.707l-4.56 4.56c-.188.188-.442.293-.707.293s-.52-.105-.707-.293l-2.453-2.453c-.391-.391-.391-1.023 0-1.414s1.023-.391 1.414 0l1.746 1.746 3.853-3.853c.391-.391 1.023-.391 1.414 0S20.098 10.316 19.707 10.707z"/></svg>