<svg xmlns="http://www.w3.org/2000/svg"  viewBox="0 0 30 30" width="100px" height="100px"><path d="M 2 5 L 2.015625 17 L 3.6054688 17 L 12.380859 26.175781 A 2 2 0 0 0 12.382812 26.177734 A 2 2 0 0 0 12.738281 26.548828 A 2 2 0 0 0 12.742188 26.552734 A 2 2 0 0 0 14 27 A 2 2 0 0 0 15.978516 24.71875 A 2 2 0 0 0 17 25 A 2 2 0 0 0 18.978516 22.71875 A 2 2 0 0 0 20 23 A 2 2 0 0 0 21.978516 20.71875 A 2 2 0 0 0 23 21 A 2 2 0 0 0 24.421875 17.597656 L 24.423828 17.595703 L 24.396484 17.572266 A 2 2 0 0 0 24.287109 17.472656 L 18.357422 12.123047 C 18.357422 12.123047 14.695922 12.703781 13.294922 12.925781 C 11.893922 13.147781 8 12.682 8 8 C 8 6.542 9.0748125 6.21875 9.7578125 5.96875 C 10.439812 5.71775 12.5 5 12.5 5 L 2 5 z M 19 5 A 2 2 0 0 0 18.488281 5.0683594 L 18.478516 5.0683594 L 18.441406 5.0820312 A 2 2 0 0 0 18.220703 5.1582031 L 10 8 L 10 8.5 C 10 9.881 11.119 11 12.5 11 C 12.583663 11 12.662591 10.982633 12.744141 10.974609 L 12.753906 10.986328 L 12.960938 10.953125 C 12.980441 10.949481 13.000191 10.947453 13.019531 10.943359 L 19 9.9960938 C 19 9.9960938 24.250969 14.694328 25.167969 15.611328 C 26.047969 16.491328 26.917328 17.155 26.986328 19 L 29 19 L 29 7 L 25 8 L 20.03125 5.2871094 A 2 2 0 0 0 19 5 z"/></svg>