<svg xmlns="http://www.w3.org/2000/svg"  viewBox="0 0 30 30" width="100px" height="100px"><path d="M 8.5 2 C 5.468 2 3 4.468 3 7.5 C 3 9.204 3.779 10.728281 5 11.738281 L 5 7.5 C 5 5.57 6.57 4 8.5 4 C 10.43 4 12 5.57 12 7.5 L 12 7.8320312 A 1.0001 1.0001 0 0 0 12 8.1582031 L 12 11.738281 C 12.847558 11.037189 13.474314 10.08501 13.783203 9 L 22 9 L 22 11 C 22 11.256 22.097969 11.512031 22.292969 11.707031 C 22.682969 12.098031 23.317031 12.098031 23.707031 11.707031 L 26.707031 8.7070312 C 27.098031 8.3170312 27.098031 7.6839688 26.707031 7.2929688 L 23.707031 4.2929688 C 23.317031 3.9019687 22.683969 3.9019687 22.292969 4.2929688 C 22.097969 4.4879688 22 4.744 22 5 L 22 7 L 13.974609 7 C 13.720378 4.20198 11.362982 2 8.5 2 z M 8.5 6 C 7.672 6 7 6.672 7 7.5 L 7 14 L 7 16 L 7 18 L 5.8945312 19.470703 C 4.7585312 20.985703 4.7009531 23.052906 5.7519531 24.628906 L 6.515625 25.773438 C 7.443625 27.164437 9.0047813 28 10.675781 28 L 17 28 C 19.209 28 21 26.209 21 24 L 21 17.738281 C 21 16.187281 19.816484 14.891953 18.271484 14.751953 L 10 14 L 10 7.5 C 10 6.672 9.328 6 8.5 6 z"/></svg>