<svg xmlns="http://www.w3.org/2000/svg"  viewBox="0 0 30 30" width="100px" height="100px"><path d="M 12 4 C 10.895 4 10 4.895 10 6 L 10 8 C 10 9.105 10.895 10 12 10 L 14 10 L 14 14 L 6 14 A 1.0001 1.0001 0 0 0 5 15 L 5 20 C 3.895 20 3 20.895 3 22 L 3 24 C 3 25.105 3.895 26 5 26 L 7 26 C 8.105 26 9 25.105 9 24 L 9 22 C 9 20.895 8.105 20 7 20 L 7 16 L 14 16 L 14 20 C 12.895 20 12 20.895 12 22 L 12 24 C 12 25.105 12.895 26 14 26 L 16 26 C 17.105 26 18 25.105 18 24 L 18 22 C 18 20.895 17.105 20 16 20 L 16 16 L 23 16 L 23 20 C 21.895 20 21 20.895 21 22 L 21 24 C 21 25.105 21.895 26 23 26 L 25 26 C 26.105 26 27 25.105 27 24 L 27 22 C 27 20.895 26.105 20 25 20 L 25 15 A 1.0001 1.0001 0 0 0 24 14 L 16 14 L 16 10 L 18 10 C 19.105 10 20 9.105 20 8 L 20 6 C 20 4.895 19.105 4 18 4 L 12 4 z"/></svg>