<svg xmlns="http://www.w3.org/2000/svg"  viewBox="0 0 30 30" width="100px" height="100px"><path d="M 15 2 A 1 1 0 0 0 15 4 A 1 1 0 0 0 15 2 z M 10 3 A 1 1 0 0 0 10 5 A 1 1 0 0 0 10 3 z M 20 3 A 1 1 0 0 0 20 5 A 1 1 0 0 0 20 3 z M 5 7 C 3.895 7 3 7.895 3 9 L 3 12.585938 L 1.2929688 14.292969 C 0.90196875 14.683969 0.90196875 15.316031 1.2929688 15.707031 L 3 17.414062 L 3 21 C 3 22.105 3.895 23 5 23 L 25 23 C 26.105 23 27 22.105 27 21 L 27 9 C 27 7.895 26.104 7 25 7 L 5 7 z M 8 12 L 22 12 C 22.553 12 23 12.448 23 13 C 23 13.552 22.553 14 22 14 L 8 14 C 7.447 14 7 13.552 7 13 C 7 12.448 7.447 12 8 12 z M 8 16 L 16 16 C 16.553 16 17 16.448 17 17 C 17 17.552 16.553 18 16 18 L 8 18 C 7.447 18 7 17.552 7 17 C 7 16.448 7.447 16 8 16 z M 10 25 A 1 1 0 0 0 10 27 A 1 1 0 0 0 10 25 z M 20 25 A 1 1 0 0 0 20 27 A 1 1 0 0 0 20 25 z M 15 26 A 1 1 0 0 0 15 28 A 1 1 0 0 0 15 26 z"/></svg>