<?xml version="1.0"?><svg xmlns="http://www.w3.org/2000/svg"  viewBox="0 0 30 30" width="100px" height="100px">    <path d="M 14 1 L 9.6289062 2.7480469 C 9.2489062 2.8990469 9 3.2687344 9 3.6777344 L 9 7.8769531 L 14 6.9667969 L 14 1 z M 16 1 L 16 6.9667969 L 21 7.8769531 L 21 3.6777344 C 21 3.2687344 20.751094 2.8990469 20.371094 2.7480469 L 16 1 z M 14 9 L 8.8203125 9.9414062 C 8.3453125 10.027406 8 10.441781 8 10.925781 L 8 19.134766 C 8 19.500766 8.2004844 19.835719 8.5214844 20.011719 L 14 23 L 14 9 z M 16 9 L 16 23 L 21.478516 20.011719 C 21.799516 19.835719 22 19.500766 22 19.134766 L 22 10.925781 C 22 10.441781 21.654688 10.027406 21.179688 9.9414062 L 16 9 z M 6 10.455078 L 3.8203125 10.849609 C 3.3453125 10.936609 3 11.350984 3 11.833984 L 3 16.40625 C 3 16.77225 3.2004844 17.109156 3.5214844 17.285156 L 6 18.636719 L 6 10.455078 z M 24 10.455078 L 24 18.636719 L 26.478516 17.285156 C 26.799516 17.109156 27 16.77225 27 16.40625 L 27 11.833984 C 27 11.350984 26.654688 10.936609 26.179688 10.849609 L 24 10.455078 z M 9 22.550781 L 9 25.433594 C 9 25.784594 9.1843281 26.111016 9.4863281 26.291016 L 14 29 L 14 25.277344 L 9 22.550781 z M 21 22.550781 L 16 25.277344 L 16 29 L 20.513672 26.291016 C 20.815672 26.111016 21 25.784594 21 25.433594 L 21 22.550781 z"/></svg>