<svg xmlns="http://www.w3.org/2000/svg"  viewBox="0 0 30 30" width="100px" height="100px"><path d="M 15 3 C 8.33 3 2.9003906 8.4296094 2.9003906 15.099609 C 2.9003906 18.439609 4.2592188 21.460391 6.4492188 23.650391 L 7.859375 22.240234 C 6.029375 20.410234 4.9003906 17.879609 4.9003906 15.099609 C 4.9003906 9.5296094 9.43 5 15 5 C 20.57 5 25.099609 9.5296094 25.099609 15.099609 C 25.099609 17.879609 23.970625 20.410234 22.140625 22.240234 L 23.550781 23.650391 C 25.740781 21.460391 27.099609 18.439609 27.099609 15.099609 C 27.099609 8.4296094 21.67 3 15 3 z M 15 6.9707031 C 10.51 6.9707031 6.859375 10.619609 6.859375 15.099609 C 6.859375 17.339609 7.77 19.379609 9.25 20.849609 L 10.660156 19.439453 C 9.5501563 18.329453 8.859375 16.799609 8.859375 15.099609 C 8.859375 11.719609 11.62 8.9707031 15 8.9707031 C 18.38 8.9707031 21.140625 11.719609 21.140625 15.099609 C 21.140625 16.799609 20.449844 18.329453 19.339844 19.439453 L 20.75 20.849609 C 22.23 19.379609 23.140625 17.339609 23.140625 15.099609 C 23.140625 10.619609 19.49 6.9707031 15 6.9707031 z M 15 11.929688 C 13.25 11.929688 11.830078 13.349609 11.830078 15.099609 C 11.830078 15.979609 12.179766 16.769844 12.759766 17.339844 L 12.759766 17.349609 C 13.329766 17.919609 14.12 18.279297 15 18.279297 C 15.88 18.279297 16.670234 17.919609 17.240234 17.349609 L 17.240234 17.339844 C 17.820234 16.769844 18.169922 15.979609 18.169922 15.099609 C 18.169922 13.349609 16.75 11.929687 15 11.929688 z"/></svg>