<svg xmlns="http://www.w3.org/2000/svg"  viewBox="0 0 30 30" width="100px" height="100px"><path d="M 9.5 4 C 6.4744232 4 4 6.4744232 4 9.5 L 4 20.5 C 4 23.525577 6.4744232 26 9.5 26 L 20.5 26 C 23.525577 26 26 23.525577 26 20.5 L 26 9.5 C 26 6.4744232 23.525577 4 20.5 4 L 9.5 4 z M 9.5 6 L 20.5 6 C 22.444423 6 24 7.5555768 24 9.5 L 24 20.5 C 24 22.444423 22.444423 24 20.5 24 L 9.5 24 C 7.5555768 24 6 22.444423 6 20.5 L 6 9.5 C 6 7.5555768 7.5555768 6 9.5 6 z M 12.261719 8.0839844 C 11.074719 8.0839844 10.089281 8.8965469 9.8632812 10.060547 C 9.8472812 10.146547 9.8177969 10.20625 9.7167969 10.28125 C 9.0107969 10.79325 8.6480156 11.516234 8.6660156 12.365234 C 8.6660156 12.522234 8.6375625 12.568328 8.6015625 12.611328 C 8.1105625 13.213328 7.9717812 13.948562 8.1757812 14.851562 C 8.2457813 15.176562 8.3690156 15.506844 8.5410156 15.839844 C 8.9830156 17.001844 9.6671719 18.164828 10.576172 19.298828 C 11.400172 20.320828 12.495078 21.088031 13.830078 21.582031 C 14.430078 21.806031 15.06575 21.919922 15.71875 21.919922 C 18.05975 21.919922 20.265031 20.466687 21.207031 18.304688 C 21.824031 16.891687 22.035516 15.326531 21.853516 13.519531 C 21.783516 12.853531 21.672141 12.350625 21.494141 11.890625 C 21.110141 10.886625 20.266016 10.263672 19.291016 10.263672 C 18.756016 10.263672 18.232672 10.450641 17.763672 10.806641 L 17.470703 10.396484 C 17.303703 10.160484 17.135844 9.925125 16.964844 9.703125 C 16.603844 9.218125 16.152094 8.8214375 15.621094 8.5234375 C 14.892094 8.1204375 14.330219 8.0325625 13.449219 8.3515625 C 13.412219 8.3515625 13.363734 8.3375469 13.302734 8.3105469 C 12.972734 8.1605469 12.623719 8.0839844 12.261719 8.0839844 z M 12.253906 9.7441406 C 12.420531 9.7485156 12.583703 9.8124531 12.720703 9.9394531 C 12.834703 10.043453 12.924672 10.184594 13.013672 10.308594 C 13.744672 11.357594 14.466266 12.405219 15.197266 13.449219 C 15.291266 13.583219 15.350844 13.773672 15.589844 13.763672 C 15.703844 13.579672 15.555562 13.445547 15.476562 13.310547 C 15.054562 12.574547 14.621359 11.843422 14.193359 11.107422 C 14.114359 10.973422 14.03375 10.833453 13.96875 10.689453 C 13.82475 10.356453 13.848109 10.091266 14.037109 9.9472656 C 14.295109 9.7582656 14.545063 9.8492813 14.789062 9.9882812 C 15.023062 10.122281 15.217391 10.306859 15.400391 10.505859 C 15.758391 10.883859 16.055844 11.310187 16.339844 11.742188 C 16.722844 12.319187 17.08575 12.910187 17.46875 13.492188 C 17.59275 13.681188 17.707234 13.904531 17.990234 13.894531 C 18.199234 13.795531 18.210766 13.591109 18.259766 13.412109 C 18.344766 13.094109 18.418891 12.770422 18.587891 12.482422 C 18.766891 12.179422 18.994953 11.956328 19.376953 11.986328 C 19.759953 12.016328 19.899516 12.313094 19.978516 12.621094 C 20.198516 13.432094 20.287281 14.262516 20.238281 15.103516 C 20.187281 15.938516 20.018609 16.748062 19.724609 17.539062 C 18.914609 19.707062 15.750937 21.354937 13.210938 19.335938 C 12.688937 18.917938 12.211594 18.4645 11.808594 17.9375 C 11.122594 17.0525 10.546063 16.09375 10.039062 15.09375 C 9.9050625 14.82975 9.8057188 14.541047 9.7617188 14.248047 C 9.7267187 14.000047 9.771 13.762047 10 13.623047 C 10.234 13.479047 10.453344 13.573656 10.652344 13.722656 C 10.806344 13.842656 10.925063 13.986625 11.039062 14.140625 C 11.521062 14.782625 11.999328 15.422594 12.486328 16.058594 C 12.590328 16.197594 12.680453 16.407672 12.939453 16.263672 C 12.929453 16.019672 12.790313 15.900719 12.695312 15.761719 C 12.034313 14.836719 11.374891 13.916094 10.712891 12.996094 C 10.623891 12.866094 10.527125 12.742516 10.453125 12.603516 C 10.269125 12.255516 10.350672 11.882828 10.638672 11.673828 C 10.926672 11.464828 11.31475 11.484281 11.59375 11.738281 C 11.69275 11.832281 11.777328 11.952406 11.861328 12.066406 C 12.443328 12.847406 13.020562 13.638922 13.601562 14.419922 C 13.696563 14.549922 13.764906 14.737359 14.003906 14.693359 C 14.082906 14.489359 13.934609 14.360563 13.849609 14.226562 C 13.178609 13.217562 12.507937 12.206266 11.835938 11.197266 C 11.746937 11.067266 11.652891 10.940781 11.587891 10.800781 C 11.423891 10.467781 11.498484 10.124156 11.771484 9.9101562 C 11.917984 9.7956563 12.087281 9.7397656 12.253906 9.7441406 z"/></svg>