<?xml version="1.0"?><svg xmlns="http://www.w3.org/2000/svg"  viewBox="0 0 30 30" width="100px" height="100px">    <path d="M 5.2226562 4 C 4.5476563 4 4 4.5476562 4 5.2226562 L 4 24.777344 C 4 25.452344 4.5476562 26 5.2226562 26 L 13.777344 26 C 14.452344 26 15 25.452344 15 24.777344 L 15 20.5 L 15 9.5 L 15 5.2226562 C 15 4.5476563 14.452344 4 13.777344 4 L 5.2226562 4 z M 15 9.5 C 15 12.533 17.467 15 20.5 15 C 23.533 15 26 12.533 26 9.5 C 26 6.467 23.533 4 20.5 4 C 17.467 4 15 6.467 15 9.5 z M 20.5 15 C 17.467 15 15 17.467 15 20.5 C 15 23.533 17.467 26 20.5 26 C 23.533 26 26 23.533 26 20.5 C 26 17.467 23.533 15 20.5 15 z"/></svg>