<?xml version="1.0"?><svg xmlns="http://www.w3.org/2000/svg"  viewBox="0 0 30 30" width="100px" height="100px">    <path d="M 15 3 A 1.0001 1.0001 0 1 0 15 5 C 20.534534 5 25 9.4654664 25 15 C 25 20.534534 20.534534 25 15 25 A 1.0001 1.0001 0 1 0 15 27 C 21.615466 27 27 21.615466 27 15 C 27 8.3845336 21.615466 3 15 3 z M 10.796875 3.8378906 A 1 1 0 0 0 10.408203 3.9140625 A 1 1 0 0 0 9.8652344 5.21875 A 1 1 0 0 0 11.171875 5.7617188 A 1 1 0 0 0 11.714844 4.4550781 A 1 1 0 0 0 10.796875 3.8378906 z M 7.2363281 6.2226562 A 1 1 0 0 0 6.515625 6.515625 A 1 1 0 0 0 6.515625 7.9296875 A 1 1 0 0 0 7.9296875 7.9296875 A 1 1 0 0 0 7.9296875 6.515625 A 1 1 0 0 0 7.2363281 6.2226562 z M 4.859375 9.7910156 A 1 1 0 0 0 3.9140625 10.408203 A 1 1 0 0 0 4.4550781 11.714844 A 1 1 0 0 0 5.7617188 11.171875 A 1 1 0 0 0 5.21875 9.8652344 A 1 1 0 0 0 4.859375 9.7910156 z M 20.980469 10.990234 A 1.0001 1.0001 0 0 0 20.292969 11.292969 L 14 17.585938 L 11.707031 15.292969 A 1.0001 1.0001 0 1 0 10.292969 16.707031 L 13.292969 19.707031 A 1.0001 1.0001 0 0 0 14.707031 19.707031 L 21.707031 12.707031 A 1.0001 1.0001 0 0 0 20.980469 10.990234 z M 4 14 A 1 1 0 0 0 3 15 A 1 1 0 0 0 4 16 A 1 1 0 0 0 5 15 A 1 1 0 0 0 4 14 z M 4.84375 18.208984 A 1 1 0 0 0 4.4550781 18.285156 A 1 1 0 0 0 3.9140625 19.591797 A 1 1 0 0 0 5.2207031 20.134766 A 1 1 0 0 0 5.7617188 18.828125 A 1 1 0 0 0 4.84375 18.208984 z M 7.2363281 21.777344 A 1 1 0 0 0 6.515625 22.070312 A 1 1 0 0 0 6.515625 23.484375 A 1 1 0 0 0 7.9296875 23.484375 A 1 1 0 0 0 7.9296875 22.070312 A 1 1 0 0 0 7.2363281 21.777344 z M 10.8125 24.162109 A 1 1 0 0 0 9.8671875 24.779297 A 1 1 0 0 0 10.408203 26.085938 A 1 1 0 0 0 11.714844 25.544922 A 1 1 0 0 0 11.173828 24.238281 A 1 1 0 0 0 10.8125 24.162109 z"/></svg>