<svg xmlns="http://www.w3.org/2000/svg"  viewBox="0 0 30 30" width="100px" height="100px"><path d="M 12.988281 3.1875 A 1.0001 1.0001 0 0 0 12.818359 3.2070312 C 11.131231 3.5176462 9.564159 4.1759965 8.2011719 5.1152344 A 1.0001 1.0001 0 1 0 9.3359375 6.7617188 C 10.46895 5.9809566 11.772769 5.4332134 13.181641 5.1738281 A 1.0001 1.0001 0 0 0 12.988281 3.1875 z M 16.982422 3.1875 A 1.0001 1.0001 0 0 0 16.818359 5.1738281 C 18.227231 5.4332134 19.531264 5.9821493 20.664062 6.7636719 A 1.00038 1.00038 0 0 0 21.800781 5.1171875 C 20.43758 4.17671 18.868769 3.517646 17.181641 3.2070312 A 1.0001 1.0001 0 0 0 16.982422 3.1875 z M 5.9355469 7.7558594 A 1.0001 1.0001 0 0 0 5.1171875 8.2011719 C 4.1770802 9.5649279 3.51766 11.131155 3.2070312 12.818359 A 1.0001 1.0001 0 1 0 5.1738281 13.181641 C 5.4331995 11.772845 5.9817791 10.470181 6.7636719 9.3359375 A 1.0001 1.0001 0 0 0 5.9355469 7.7558594 z M 24.035156 7.7558594 A 1.0001 1.0001 0 0 0 23.238281 9.3359375 C 24.019413 10.470395 24.5668 11.772845 24.826172 13.181641 A 1.0001 1.0001 0 1 0 26.792969 12.818359 C 26.48234 11.131155 25.823634 9.5647141 24.884766 8.2011719 A 1.0001 1.0001 0 0 0 24.035156 7.7558594 z M 4.1894531 15.986328 A 1.0001 1.0001 0 0 0 3.2070312 17.181641 C 3.5176461 18.868769 4.1759965 20.435841 5.1152344 21.798828 A 1.0001 1.0001 0 1 0 6.7617188 20.664062 C 5.9809566 19.53105 5.4332134 18.227231 5.1738281 16.818359 A 1.0001 1.0001 0 0 0 4.1894531 15.986328 z M 25.779297 15.986328 A 1.0001 1.0001 0 0 0 24.826172 16.818359 C 24.566782 18.228167 24.017232 19.530845 23.236328 20.664062 A 1.0001 1.0001 0 1 0 24.882812 21.798828 C 25.82191 20.436047 26.482359 18.869833 26.792969 17.181641 A 1.0001 1.0001 0 0 0 25.779297 15.986328 z M 8.7734375 23.052734 A 1.0001 1.0001 0 0 0 8.2011719 24.882812 C 9.5639534 25.82191 11.130167 26.482359 12.818359 26.792969 A 1.0001 1.0001 0 1 0 13.181641 24.826172 C 11.771833 24.566782 10.469156 24.017232 9.3359375 23.236328 A 1.0001 1.0001 0 0 0 8.7734375 23.052734 z M 21.195312 23.054688 A 1.0001 1.0001 0 0 0 20.664062 23.238281 C 19.53105 24.019043 18.227231 24.566787 16.818359 24.826172 A 1.0001 1.0001 0 1 0 17.181641 26.792969 C 18.868769 26.482354 20.435841 25.824004 21.798828 24.884766 A 1.0001 1.0001 0 0 0 21.195312 23.054688 z"/></svg>