<svg xmlns="http://www.w3.org/2000/svg"  viewBox="0 0 30 30" width="100px" height="100px"><path d="M 15.066406 1 C 7.0704063 1 5.07 8.2936562 5 10.847656 C 4.995 11.018656 4.9970469 11.139297 4.9980469 11.279297 L 5 11.5 C 5 12.546 4.2939688 13.291969 4.2929688 13.292969 C 4.0069688 13.578969 3.9211719 14.008812 4.0761719 14.382812 C 4.2191719 14.726812 4.5392969 14.961094 4.9042969 14.996094 C 4.5922969 16.548094 3.6063594 17.077656 3.5683594 17.097656 C 3.1463594 17.298656 2.9214375 17.765656 3.0234375 18.222656 C 3.1274375 18.676656 3.532 19 4 19 C 4.303 19 4.5933281 18.969875 4.8613281 18.921875 C 4.6583281 19.875875 4.3009687 20.281969 4.2929688 20.292969 C 4.0069688 20.578969 3.9211719 21.008813 4.0761719 21.382812 C 4.2301719 21.755813 4.596 22 5 22 C 5.445 22 5.8377344 21.871875 6.1777344 21.671875 C 6.4927344 23.788875 7.1319687 24.546031 7.2929688 24.707031 C 7.5169688 24.931031 7.8274844 25.037281 8.1464844 24.988281 C 8.3934844 24.951281 8.5959531 24.806187 8.7519531 24.617188 C 8.8979531 24.872187 9.060375 25.091203 9.234375 25.283203 C 9.243375 25.293203 9.2527187 25.3025 9.2617188 25.3125 C 9.4277188 25.4915 9.6021563 25.64525 9.7851562 25.78125 C 9.8011563 25.79325 9.8189375 25.806359 9.8359375 25.818359 C 10.016937 25.948359 10.202578 26.060156 10.392578 26.160156 C 10.407578 26.168156 10.420547 26.177547 10.435547 26.185547 C 10.635547 26.288547 10.838063 26.379891 11.039062 26.462891 C 11.208063 26.532891 11.365187 26.589875 11.492188 26.671875 C 11.907187 26.941875 12.21125 27.245406 12.53125 27.566406 C 13.20225 28.238406 13.962 29 15.5 29 C 17.062 29 17.89725 28.21 18.78125 27.375 L 19.064453 27.107422 C 19.436453 26.761422 19.827234 26.498703 20.240234 26.220703 C 20.811234 25.835703 21.410203 25.414062 21.908203 24.789062 C 22.048203 24.894063 22.207719 24.972188 22.386719 24.992188 C 22.727719 25.034188 23.055484 24.896766 23.271484 24.634766 C 23.383484 24.500766 26 21.282 26 18.25 L 26 16.998047 C 26.199 16.998047 26.399266 16.939359 26.572266 16.818359 C 26.971266 16.540359 27.109297 16.015172 26.904297 15.576172 C 26.895297 15.556172 25.966859 13.525406 25.380859 9.4414062 C 24.652859 4.3744062 22.619406 1 15.066406 1 z M 22 7.9804688 L 22 11.697266 C 21.824029 11.6319 21.824962 11.627538 21.623047 11.556641 C 21.254551 11.427253 20.860843 11.296566 20.492188 11.193359 C 20.123532 11.090152 19.825266 11 19.414062 11 L 17 11 A 1.0001 1.0001 0 1 0 17 13 L 19.414062 13 C 19.364863 13 19.652031 13.03485 19.953125 13.119141 C 20.254219 13.203431 20.617432 13.322747 20.960938 13.443359 C 21.514006 13.637555 21.826344 13.765158 22 13.833984 L 22 16 C 22.347 16 22.668563 16.180609 22.851562 16.474609 C 23.033563 16.769609 23.049531 17.137266 22.894531 17.447266 L 22.394531 18.447266 C 22.224531 18.786266 21.879 19 21.5 19 L 21.353516 19 C 21.155516 19.558 21 20.235 21 21 C 21 21.534932 20.958175 21.963776 20.884766 22.328125 C 20.598406 22.182547 20.424767 22.087873 19.910156 21.845703 C 19.500327 21.652842 19.067853 21.458945 18.675781 21.304688 C 18.283709 21.15043 18.05625 21 17.5 21 C 17.135417 21 17.050288 21.0856 16.9375 21.138672 C 16.824712 21.191752 16.732385 21.245816 16.636719 21.304688 C 16.445386 21.422431 16.251892 21.557928 16.068359 21.691406 C 16.022599 21.724686 16.026352 21.725212 15.982422 21.757812 C 15.914332 21.710763 15.918212 21.705233 15.845703 21.658203 C 15.412329 21.377091 15.018622 21 14.164062 21 C 13.839588 21 13.849962 21.03205 13.701172 21.0625 C 13.552382 21.09295 13.372773 21.13365 13.166016 21.181641 C 12.7525 21.277621 12.237584 21.403619 11.732422 21.529297 C 10.870476 21.743737 10.267427 21.898832 10.041016 21.957031 C 10.014521 21.672891 10 21.356198 10 21 C 10 20.06 9.8076094 19.481 9.5996094 19 L 9.5 19 C 9.121 19 8.7754687 18.786266 8.6054688 18.447266 L 8.1054688 17.447266 C 7.9504687 17.137266 7.9654375 16.769609 8.1484375 16.474609 C 8.3314375 16.180609 8.653 16 9 16 C 9.423846 16 9.7771209 15.934835 10.095703 15.851562 C 10.039607 16.059629 10 16.274175 10 16.5 C 10 17.881 11.119 19 12.5 19 C 13.881 19 15 17.881 15 16.5 C 15 15.894549 14.775913 15.34658 14.417969 14.914062 A 1.0001 1.0001 0 0 0 14 13 L 12.375 13 C 11.259722 13 10.512284 13.437446 10.164062 13.679688 C 9.8158426 13.921927 9.8333333 14 9 14 L 9 11.820312 C 10.039 11.524313 11.990953 10.905125 14.001953 9.953125 C 13.992953 10.142125 14.037625 10.335813 14.140625 10.507812 C 14.378625 10.910813 14.862547 11.094219 15.310547 10.949219 C 15.499547 10.887219 19.542 9.5644687 22 7.9804688 z M 18.5 14 C 17.119 14 16 15.119 16 16.5 C 16 17.881 17.119 19 18.5 19 C 19.881 19 21 17.881 21 16.5 C 21 15.119 19.881 14 18.5 14 z M 11 16.5 L 11.75 16.5 L 12 16.5 A 0.5 0.5 0 0 0 12.5 17 A 0.5 0.5 0 0 0 13 16.5 L 14 16.5 C 14 17.328 13.328 18 12.5 18 C 11.672 18 11 17.328 11 16.5 z M 17 16.5 L 18 16.5 A 0.5 0.5 0 0 0 18.5 17 A 0.5 0.5 0 0 0 19 16.5 L 20 16.5 C 20 17.328 19.328 18 18.5 18 C 17.672 18 17 17.328 17 16.5 z M 14.103516 23.023438 C 14.159936 23.067885 14.507495 23.174836 14.755859 23.335938 C 15.090232 23.552827 15.331437 23.744047 15.335938 23.748047 A 1.0001 1.0001 0 0 0 16.625 23.78125 C 16.625 23.78125 16.923706 23.541637 17.244141 23.308594 C 17.383658 23.207127 17.517196 23.117076 17.626953 23.046875 C 17.663173 23.065315 17.714583 23.073285 17.945312 23.164062 C 18.268085 23.291055 18.671548 23.472158 19.058594 23.654297 C 19.25816 23.748207 19.259991 23.755762 19.439453 23.84375 C 18.759214 24.713813 17.59913 26 16 26 C 13.836004 26 12.657919 25.164806 11.917969 24.333984 C 11.601928 23.979132 11.658647 23.926855 11.509766 23.648438 C 11.816592 23.570628 11.856323 23.559898 12.214844 23.470703 C 12.714557 23.346381 13.222859 23.222383 13.617188 23.130859 C 13.814352 23.085099 13.985075 23.047678 14.103516 23.023438 z"/></svg>