<?xml version="1.0"?><svg xmlns="http://www.w3.org/2000/svg"  viewBox="0 0 30 30" width="100px" height="100px">    <path d="M 7 3.0019531 C 5.895 3.0019531 5 3.8969531 5 5.0019531 L 5 25.003906 C 5 26.108906 5.8910938 26.998047 6.9960938 26.998047 C 8.6537611 26.997693 10.13408 26.999663 12.65625 27 L 12.65625 27.001953 L 14.414062 28.757812 C 14.738062 29.080813 15.261938 29.080813 15.585938 28.757812 L 17.34375 27.001953 L 17.34375 27 C 19.378535 27.00044 23 27.001953 23 27.001953 C 24.105 27.001953 25 26.106953 25 25.001953 L 25 5.0019531 C 25 3.8969531 24.105 3.0019531 23 3.0019531 L 7 3.0019531 z M 15 8.5 C 15.828 8.5 16.5 9.172 16.5 10 C 16.5 10.828 15.828 11.5 15 11.5 C 14.172 11.5 13.5 10.828 13.5 10 C 13.5 9.172 14.172 8.5 15 8.5 z M 14 14 L 16 14 L 16 21 L 14 21 L 14 14 z"/></svg>