<svg xmlns="http://www.w3.org/2000/svg"  viewBox="0 0 30 30" width="100px" height="100px"><path d="M26.293,6.22c-0.197-1.166-1.347-2.316-2.513-2.513c-5.854-0.942-11.707-0.942-17.561,0C5.053,3.903,3.903,5.054,3.707,6.22	c-0.942,5.854-0.942,11.707,0,17.561c0.197,1.166,1.347,2.316,2.513,2.513c5.854,0.942,11.707,0.942,17.561,0	c1.166-0.196,2.316-1.347,2.513-2.513C27.236,17.927,27.236,12.073,26.293,6.22z M9.5,22C8.672,22,8,21.328,8,20.5S8.672,19,9.5,19	s1.5,0.672,1.5,1.5S10.328,22,9.5,22z M15.5,22c-0.828,0-1.5-0.672-1.5-1.5s0.672-1.5,1.5-1.5s1.5,0.672,1.5,1.5S16.328,22,15.5,22z M15.5,16c-0.828,0-1.5-0.672-1.5-1.5s0.672-1.5,1.5-1.5s1.5,0.672,1.5,1.5S16.328,16,15.5,16z M15.5,10h-6C8.672,10,8,9.328,8,8.5	S8.672,7,9.5,7h6C16.328,7,17,7.672,17,8.5S16.328,10,15.5,10z M21.5,22c-0.828,0-1.5-0.672-1.5-1.5s0.672-1.5,1.5-1.5	s1.5,0.672,1.5,1.5S22.328,22,21.5,22z M21.5,16c-0.828,0-1.5-0.672-1.5-1.5s0.672-1.5,1.5-1.5s1.5,0.672,1.5,1.5S22.328,16,21.5,16	z M21.5,10C20.672,10,20,9.328,20,8.5S20.672,7,21.5,7S23,7.672,23,8.5S22.328,10,21.5,10z"/></svg>