<svg xmlns="http://www.w3.org/2000/svg"  viewBox="0 0 30 30" width="100px" height="100px"><path d="M 14.724609 1 C 14.405609 1 14.138516 1.2406406 14.103516 1.5566406 L 14.050781 2.03125 C 13.991781 2.56025 13.602938 2.986375 13.085938 3.109375 C 12.956938 3.140375 12.827172 3.1739375 12.701172 3.2109375 C 12.193172 3.3589375 11.648938 3.1828594 11.335938 2.7558594 L 11.054688 2.3730469 C 10.865687 2.1170469 10.514281 2.0421719 10.238281 2.2011719 L 9.7597656 2.4785156 C 9.4837656 2.6375156 9.372 2.9804844 9.5 3.2714844 L 9.6933594 3.7128906 C 9.9063594 4.1978906 9.7853437 4.7580469 9.4023438 5.1230469 C 9.3073437 5.2130469 9.2140469 5.3073438 9.1230469 5.4023438 C 8.7560469 5.7863438 8.1969375 5.9093125 7.7109375 5.6953125 L 7.2695312 5.5019531 C 6.9785312 5.3739531 6.6345625 5.4857187 6.4765625 5.7617188 L 6.1992188 6.2402344 C 6.0402188 6.5162344 6.1150938 6.8676406 6.3710938 7.0566406 L 6.7539062 7.3378906 C 7.1809062 7.6508906 7.3540312 8.195125 7.2070312 8.703125 C 7.1710313 8.829125 7.1384219 8.9588906 7.1074219 9.0878906 C 6.9854219 9.6058906 6.5582969 9.9937344 6.0292969 10.052734 L 5.5546875 10.105469 C 5.2396875 10.138469 5 10.405609 5 10.724609 L 5 11.275391 C 5 11.594391 5.2406406 11.861484 5.5566406 11.896484 L 6.0292969 11.949219 C 6.5582969 12.008219 6.9854219 12.396062 7.1074219 12.914062 C 7.1384219 13.043062 7.1700312 13.172828 7.2070312 13.298828 C 7.3550312 13.806828 7.1809063 14.352063 6.7539062 14.664062 L 6.3710938 14.945312 C 6.1150937 15.134313 6.0402188 15.485719 6.1992188 15.761719 L 6.4765625 16.240234 C 6.6355625 16.516234 6.9775312 16.628 7.2695312 16.5 L 7.7109375 16.306641 C 8.1959375 16.094641 8.7560937 16.215609 9.1210938 16.599609 C 9.2110937 16.694609 9.3053906 16.787906 9.4003906 16.878906 C 9.7843906 17.244906 9.9054063 17.803062 9.6914062 18.289062 L 9.5 18.730469 C 9.372 19.021469 9.4837656 19.363437 9.7597656 19.523438 L 10.238281 19.798828 C 10.514281 19.957828 10.866688 19.884906 11.054688 19.628906 L 11.335938 19.244141 C 11.648938 18.818141 12.193172 18.644016 12.701172 18.791016 C 12.827172 18.827016 12.956937 18.861578 13.085938 18.892578 C 13.602937 19.014578 13.991781 19.441703 14.050781 19.970703 L 14.101562 20.443359 C 14.137562 20.759359 14.405609 21 14.724609 21 L 15.275391 21 C 15.594391 21 15.861484 20.759359 15.896484 20.443359 L 15.949219 19.970703 C 16.008219 19.441703 16.397062 19.015578 16.914062 18.892578 C 17.043063 18.861578 17.172828 18.827016 17.298828 18.791016 C 17.806828 18.643016 18.349109 18.817141 18.662109 19.244141 L 18.943359 19.628906 C 19.132359 19.884906 19.483766 19.957828 19.759766 19.798828 L 20.238281 19.523438 C 20.514281 19.364438 20.626047 19.021469 20.498047 18.730469 L 20.304688 18.289062 C 20.091687 17.804063 20.214656 17.243953 20.597656 16.876953 C 20.692656 16.786953 20.785953 16.692656 20.876953 16.597656 C 21.242953 16.213656 21.802109 16.092641 22.287109 16.306641 L 22.728516 16.5 C 23.019516 16.628 23.361484 16.516234 23.521484 16.240234 L 23.796875 15.761719 C 23.955875 15.485719 23.882953 15.133313 23.626953 14.945312 L 23.242188 14.664062 C 22.816188 14.351062 22.642063 13.806828 22.789062 13.298828 C 22.825063 13.172828 22.859625 13.043062 22.890625 12.914062 C 23.012625 12.396062 23.438797 12.008219 23.966797 11.949219 L 24.441406 11.898438 C 24.759406 11.862438 25 11.594391 25 11.275391 L 25 10.724609 C 25 10.405609 24.759359 10.137562 24.443359 10.101562 L 23.96875 10.050781 C 23.43975 9.9917813 23.013625 9.6029375 22.890625 9.0859375 C 22.859625 8.9569375 22.826063 8.8281719 22.789062 8.7011719 C 22.642063 8.1931719 22.818141 7.6489375 23.244141 7.3359375 L 23.626953 7.0546875 C 23.882953 6.8656875 23.957828 6.5142813 23.798828 6.2382812 L 23.521484 5.7597656 C 23.362484 5.4837656 23.019516 5.372 22.728516 5.5 L 22.287109 5.6933594 C 21.802109 5.9063594 21.242953 5.7853438 20.876953 5.4023438 C 20.786953 5.3073438 20.692656 5.2140469 20.597656 5.1230469 C 20.213656 4.7570469 20.090688 4.1978906 20.304688 3.7128906 L 20.498047 3.2714844 C 20.626047 2.9804844 20.514281 2.6385156 20.238281 2.4785156 L 19.759766 2.203125 C 19.483766 2.044125 19.131359 2.1170469 18.943359 2.3730469 L 18.662109 2.7578125 C 18.349109 3.1838125 17.806828 3.3579375 17.298828 3.2109375 C 17.172828 3.1749375 17.043063 3.140375 16.914062 3.109375 C 16.397063 2.987375 16.008219 2.56025 15.949219 2.03125 L 15.896484 1.5585938 C 15.861484 1.2405937 15.594391 1 15.275391 1 L 14.724609 1 z M 15 7 C 15.552 7 16 7.448 16 8 L 16 12 L 16.925781 12 C 17.403781 12 17.644641 12.578969 17.306641 12.917969 L 15.380859 14.84375 C 15.170859 15.05375 14.829141 15.05375 14.619141 14.84375 L 12.693359 12.917969 C 12.355359 12.578969 12.596219 12 13.074219 12 L 14 12 L 14 8 C 14 7.448 14.448 7 15 7 z M 3.984375 17.986328 A 1.0001 1.0001 0 0 0 3 19 L 3 25 C 3 26.093063 3.9069372 27 5 27 L 25 27 C 26.093063 27 27 26.093063 27 25 L 27 19 A 1.0001 1.0001 0 1 0 25 19 L 25 25 L 5 25 L 5 19 A 1.0001 1.0001 0 0 0 3.984375 17.986328 z"/></svg>