<svg xmlns="http://www.w3.org/2000/svg"  viewBox="0 0 30 30" width="100px" height="100px"><path d="M18.821 10.177c.028.005.058.008.086.008 1.202 0 4.489-2.992 4.489-5.278 0-1.785-1.81-2.89-3.486-2.89-1.81 0-2.89 1.08-2.89 2.89C17.021 6.864 17.827 10.005 18.821 10.177zM24.74 8.595c-1.682 0-4.102 2.46-4.102 3.298 0 .948 2.371 1.876 4.141 1.876 1.426 0 2.211-.781 2.211-2.201C26.99 9.983 25.938 8.595 24.74 8.595zM15.183 10.021c-4.019 0-9.734 11.621-10.19 16.371-.013.14.036.278.135.377.088.089.209.139.334.139.014 0 .028-.001.041-.002 5.243-.461 15.622-6.965 15.622-10.575C21.126 13.406 17.529 10.021 15.183 10.021z"/></svg>