<svg xmlns="http://www.w3.org/2000/svg"  viewBox="0 0 30 30" width="100px" height="100px"><path d="M 15 3 C 8.373 3 3 8.373 3 15 C 3 21.627 8.373 27 15 27 C 21.627 27 27 21.627 27 15 C 27 8.373 21.627 3 15 3 z M 15 5 C 15.552 5 16 5.448 16 6 L 16 15.585938 L 18.292969 13.292969 C 18.683969 12.901969 19.316031 12.901969 19.707031 13.292969 C 20.098031 13.683969 20.098031 14.316031 19.707031 14.707031 L 15.707031 18.707031 C 15.512031 18.902031 15.256 19 15 19 C 14.744 19 14.487969 18.902031 14.292969 18.707031 L 10.292969 14.707031 C 9.9019687 14.316031 9.9019688 13.683969 10.292969 13.292969 C 10.683969 12.901969 11.316031 12.901969 11.707031 13.292969 L 14 15.585938 L 14 6 C 14 5.448 14.448 5 15 5 z"/></svg>