<?xml version="1.0"?><svg xmlns="http://www.w3.org/2000/svg"  viewBox="0 0 30 30" width="100px" height="100px">    <path d="M26.701,7.812c2.444-6.242-2.303-5.805-2.303-5.805c-3.047,0-6.855,2.73-6.855,2.73S13,3.533,8.457,6.236 c-4.95,3.105-4.787,8.619-4.787,8.619c4.026-5.673,9.629-7.976,9.629-7.976v0.375C5.029,12.818,3.071,20.958,2.581,22.618 S2.417,28,5.899,28s7.018-2.76,7.018-2.76s0.761,0.161,2.829,0.161c8.706,0,10.772-7.549,10.772-7.549h-7.726 c0,0-0.542,2.464-3.317,2.464c-3.809,0-3.591-3.91-3.591-3.91h14.743c0.709-10.064-8.214-11.509-8.214-11.509 s3.153-2.194,5.875-2.194c4.315,0,2.275,4.974,2.275,4.974L26.701,7.812z M12.486,25.128c0,0-5.313,3.173-7.699,0.975 c-1.277-2.2,0.799-5.313,0.799-5.313S7.342,23.997,12.486,25.128z M18.876,12.982h-7.013c0,0-0.089-3.363,3.594-3.363 C19.017,9.619,18.876,12.982,18.876,12.982z"/></svg>