<?xml version="1.0"?><svg xmlns="http://www.w3.org/2000/svg"  viewBox="0 0 30 30" width="100px" height="100px">    <path d="M 6 4 C 4.895 4 4 4.895 4 6 L 4 24 C 4 25.105 4.895 26 6 26 L 24 26 C 25.105 26 26 25.105 26 24 L 26 6 C 26 4.895 25.105 4 24 4 L 6 4 z M 18.277344 9.203125 C 21.301344 9.203125 22.214844 11.999875 22.214844 14.921875 C 22.214844 17.751875 21.390516 20.796875 18.228516 20.796875 C 15.128516 20.796875 14.25 17.930047 14.25 14.998047 C 14.25 12.092047 15.209344 9.203125 18.277344 9.203125 z M 10.507812 9.3613281 L 11.748047 9.3613281 L 11.748047 20.591797 L 10.046875 20.591797 L 10.046875 11.382812 C 9.499875 11.753813 8.3941563 12.166625 7.7851562 12.265625 L 7.7851562 10.941406 C 8.6851562 10.717406 9.7648125 10.086328 10.507812 9.3613281 z M 18.289062 10.599609 C 16.433062 10.599609 16.007813 12.542141 16.007812 14.994141 C 16.007812 17.108141 16.350141 19.400391 18.244141 19.400391 C 20.143141 19.400391 20.462891 17.226688 20.462891 14.929688 C 20.461891 12.772687 20.112062 10.599609 18.289062 10.599609 z"/></svg>