<?xml version="1.0"?><svg xmlns="http://www.w3.org/2000/svg"  viewBox="0 0 30 30" width="100px" height="100px">    <path d="M 10 4 L 10 6 L 14 6 L 14 4 L 10 4 z M 16 4 L 16 6 L 20 6 L 20 4 L 16 4 z M 8 4.1015625 C 6.044 4.5005625 4.5005625 6.044 4.1015625 8 L 6.1835938 8 C 6.4855937 7.153 7.153 6.4855938 8 6.1835938 L 8 4.1015625 z M 22 4.1015625 L 22 6.1835938 C 22.847 6.4855937 23.514406 7.153 23.816406 8 L 25.898438 8 C 25.499437 6.044 23.956 4.5005625 22 4.1015625 z M 4 10 L 4 14 L 6 14 L 6 10 L 4 10 z M 24 10 L 24 14 L 26 14 L 26 10 L 24 10 z M 4 16 L 4 20 L 6 20 L 6 16 L 4 16 z M 24 16 L 24 20 L 26 20 L 26 16 L 24 16 z M 4.1015625 22 C 4.5005625 23.956 6.044 25.499437 8 25.898438 L 8 23.816406 C 7.153 23.514406 6.4855938 22.847 6.1835938 22 L 4.1015625 22 z M 23.816406 22 C 23.514406 22.847 22.847 23.514406 22 23.816406 L 22 25.898438 C 23.956 25.499437 25.499437 23.956 25.898438 22 L 23.816406 22 z M 10 24 L 10 26 L 14 26 L 14 24 L 10 24 z M 16 24 L 16 26 L 20 26 L 20 24 L 16 24 z"/></svg>