<svg xmlns="http://www.w3.org/2000/svg"  viewBox="0 0 30 30" width="100px" height="100px"><path d="M 9.3769531 4.4804688 C 9.2480469 4.4964844 9.1195 4.5381719 9 4.6074219 C 8.521 4.8834219 8.3587656 5.4966094 8.6347656 5.9746094 L 10.634766 9.4375 C 10.819766 9.7585 11.155953 9.9375 11.501953 9.9375 C 11.670953 9.9375 11.843 9.8956875 12 9.8046875 C 12.478 9.5286875 12.641234 8.9155 12.365234 8.4375 L 10.365234 4.9746094 C 10.158234 4.6161094 9.7636719 4.4324219 9.3769531 4.4804688 z M 5.5976562 8.5078125 C 5.2110312 8.4597656 4.8151719 8.6415 4.6074219 9 C 4.3314219 9.478 4.4966094 10.089234 4.9746094 10.365234 L 8.4375 12.365234 C 8.5945 12.456234 8.7685 12.5 8.9375 12.5 C 9.2835 12.5 9.6196875 12.321 9.8046875 12 C 10.080687 11.522 9.9165 10.910766 9.4375 10.634766 L 5.9746094 8.6347656 C 5.8548594 8.5655156 5.7265313 8.5238281 5.5976562 8.5078125 z M 24.402344 8.5078125 C 24.273484 8.5238281 24.146594 8.5655156 24.027344 8.6347656 L 20.5625 10.634766 C 20.0845 10.910766 19.919313 11.521 20.195312 12 C 20.380312 12.321 20.7165 12.5 21.0625 12.5 C 21.2315 12.5 21.4045 12.456234 21.5625 12.365234 L 25.027344 10.365234 C 25.505344 10.089234 25.668578 9.478 25.392578 9 C 25.185578 8.6415 24.788922 8.4597656 24.402344 8.5078125 z M 4 14 C 3.448 14 3 14.448 3 15 C 3 15.552 3.448 16 4 16 L 8 16 C 8.552 16 9 15.552 9 15 C 9 14.448 8.552 14 8 14 L 4 14 z M 22 14 C 21.447 14 21 14.448 21 15 C 21 15.552 21.447 16 22 16 L 26 16 C 26.553 16 27 15.552 27 15 C 27 14.448 26.553 14 26 14 L 22 14 z M 8.8144531 17.507812 C 8.6856719 17.523906 8.55675 17.565516 8.4375 17.634766 L 4.9746094 19.634766 C 4.4966094 19.910766 4.3314219 20.521 4.6074219 21 C 4.7924219 21.321 5.1286094 21.5 5.4746094 21.5 C 5.6446094 21.5 5.8176094 21.456234 5.9746094 21.365234 L 9.4375 19.365234 C 9.9155 19.089234 10.080687 18.479 9.8046875 18 C 9.5969375 17.64075 9.2007969 17.459531 8.8144531 17.507812 z M 21.185547 17.507812 C 20.799203 17.459906 20.403063 17.6415 20.195312 18 C 19.918312 18.478 20.081547 19.089234 20.560547 19.365234 L 24.025391 21.365234 C 24.182391 21.456234 24.355391 21.5 24.525391 21.5 C 24.871391 21.5 25.207578 21.32 25.392578 21 C 25.669578 20.522 25.504391 19.910766 25.025391 19.634766 L 21.560547 17.634766 C 21.441297 17.565766 21.314328 17.523781 21.185547 17.507812 z M 11.623047 20.068359 C 11.236187 20.020172 10.841766 20.202047 10.634766 20.560547 L 8.6347656 24.025391 C 8.3587656 24.503391 8.522 25.116578 9 25.392578 C 9.158 25.483578 9.3290469 25.525391 9.4980469 25.525391 C 9.8440469 25.525391 10.180234 25.346391 10.365234 25.025391 L 12.365234 21.560547 C 12.641234 21.082547 12.478 20.471312 12 20.195312 C 11.88025 20.125813 11.752 20.084422 11.623047 20.068359 z M 18.375 20.068359 C 18.246219 20.084375 18.11925 20.126062 18 20.195312 C 17.522 20.471312 17.358766 21.081547 17.634766 21.560547 L 19.634766 25.025391 C 19.819766 25.345391 20.155953 25.525391 20.501953 25.525391 C 20.671953 25.525391 20.843 25.483578 21 25.392578 C 21.478 25.116578 21.641234 24.504391 21.365234 24.025391 L 19.365234 20.560547 C 19.157484 20.202047 18.761344 20.020312 18.375 20.068359 z M 15 21 C 14.448 21 14 21.447 14 22 L 14 26 C 14 26.553 14.448 27 15 27 C 15.552 27 16 26.553 16 26 L 16 22 C 16 21.447 15.552 21 15 21 z"/></svg>