<?xml version="1.0"?><svg xmlns="http://www.w3.org/2000/svg"  viewBox="0 0 30 30" width="100px" height="100px">    <path d="M 7 5 C 5.895 5 5 5.895 5 7 L 5 23 C 5 24.105 5.895 25 7 25 L 23 25 C 24.105 25 25 24.105 25 23 L 25 7 C 25 5.895 24.105 5 23 5 L 7 5 z M 15 7 C 16.782 7 18.273016 8.17225 18.791016 9.78125 C 20.482016 9.77625 22.058375 10.832344 22.609375 12.527344 C 23.160375 14.222344 22.505766 16.002188 21.134766 16.992188 C 21.661766 18.598188 21.143172 20.425656 19.701172 21.472656 C 18.260172 22.519656 16.365 22.447219 15 21.449219 C 13.635 22.447219 11.739828 22.519656 10.298828 21.472656 C 8.8578281 20.425656 8.3382344 18.598187 8.8652344 16.992188 C 7.4942344 16.002188 6.840625 14.221344 7.390625 12.527344 C 7.940625 10.833344 9.5179844 9.77625 11.208984 9.78125 C 11.726984 8.17225 13.218 7 15 7 z M 15 12 A 3 3 0 0 0 12 15 A 3 3 0 0 0 15 18 A 3 3 0 0 0 18 15 A 3 3 0 0 0 15 12 z"/></svg>