<?xml version="1.0"?><svg xmlns="http://www.w3.org/2000/svg"  viewBox="0 0 30 30" width="100px" height="100px">    <path d="M 10.166016 6.9335938 C 9.874125 6.9056562 9.5785313 7.0081563 9.3632812 7.2226562 L 2.2929688 14.292969 C 1.9019687 14.683969 1.9019687 15.316031 2.2929688 15.707031 L 9.3632812 22.777344 C 9.5542813 22.968344 9.8103125 23.070312 10.070312 23.070312 C 10.199312 23.070312 10.329125 23.047094 10.453125 22.996094 C 10.827125 22.842094 11.070312 22.476266 11.070312 22.072266 L 11.070312 18 L 26.070312 18 C 27.175313 18 28.070312 17.105 28.070312 16 L 28.070312 14 C 28.070312 12.895 27.175313 12 26.070312 12 L 11.070312 12 L 11.070312 7.9296875 C 11.070312 7.5256875 10.827125 7.1598594 10.453125 7.0058594 C 10.359625 6.9668594 10.263312 6.9429063 10.166016 6.9335938 z"/></svg>