<?xml version="1.0"?><svg xmlns="http://www.w3.org/2000/svg"  viewBox="0 0 30 30" width="100px" height="100px">    <path d="M 15 3 C 12.408734 3 10.016245 3.8298159 8.0546875 5.2265625 L 7.9296875 5.1015625 C 7.5396875 4.7105625 6.906625 4.7105625 6.515625 5.1015625 L 5.1015625 6.515625 C 4.7105625 6.905625 4.7105625 7.5386875 5.1015625 7.9296875 L 5.2265625 8.0546875 C 3.8298159 10.016245 3 12.408734 3 15 C 3 17.590845 3.8282756 19.983931 5.2246094 21.945312 L 5.0996094 22.070312 C 4.7086094 22.460313 4.7086094 23.093375 5.0996094 23.484375 L 6.5136719 24.898438 C 6.9036719 25.289437 7.5367344 25.289437 7.9277344 24.898438 L 8.0527344 24.773438 C 10.014527 26.170736 12.408173 27 15 27 C 17.591266 27 19.983755 26.170184 21.945312 24.773438 L 22.070312 24.898438 C 22.460313 25.289437 23.093375 25.289437 23.484375 24.898438 L 24.898438 23.484375 C 25.289437 23.094375 25.289437 22.461313 24.898438 22.070312 L 24.773438 21.945312 C 26.170184 19.983755 27 17.591266 27 15 C 27 12.408734 26.170184 10.016245 24.773438 8.0546875 L 24.898438 7.9296875 C 25.289437 7.5396875 25.289437 6.906625 24.898438 6.515625 L 23.484375 5.1015625 C 23.094375 4.7105625 22.461313 4.7105625 22.070312 5.1015625 L 21.945312 5.2265625 C 19.983755 3.8298159 17.591266 3 15 3 z M 15 5 C 17.034909 5 18.928674 5.6139848 20.509766 6.6621094 L 18.328125 8.84375 C 17.337623 8.3061341 16.204073 8 15 8 C 13.795927 8 12.662377 8.3061341 11.671875 8.84375 L 9.4902344 6.6621094 C 11.071326 5.6139848 12.965091 5 15 5 z M 6.6621094 9.4902344 L 8.84375 11.671875 C 8.3061341 12.662377 8 13.795927 8 15 C 8 16.204073 8.3061341 17.337623 8.84375 18.328125 L 6.6621094 20.507812 C 5.6145469 18.927 5 17.034314 5 15 C 5 12.965091 5.6139848 11.071326 6.6621094 9.4902344 z M 23.337891 9.4902344 C 24.386015 11.071326 25 12.965091 25 15 C 25 17.034909 24.386015 18.928674 23.337891 20.509766 L 21.15625 18.328125 C 21.693866 17.337623 22 16.204073 22 15 C 22 13.795927 21.693866 12.662377 21.15625 11.671875 L 23.337891 9.4902344 z M 15 10 C 17.761 10 20 12.239 20 15 C 20 17.761 17.761 20 15 20 C 12.239 20 10 17.761 10 15 C 10 13.6195 10.559969 12.369719 11.464844 11.464844 C 12.369719 10.559969 13.6195 10 15 10 z M 11.671875 21.15625 C 12.662377 21.693866 13.795927 22 15 22 C 16.204073 22 17.337623 21.693866 18.328125 21.15625 L 20.509766 23.337891 C 18.928674 24.386015 17.034909 25 15 25 C 12.964729 25 11.071495 24.384404 9.4902344 23.335938 L 11.671875 21.15625 z"/></svg>