<svg xmlns="http://www.w3.org/2000/svg"  viewBox="0 0 30 30" width="100px" height="100px"><path d="M 5 4 C 4.448 4 4 4.448 4 5 L 4 9 C 4 9.552 4.448 10 5 10 L 10 10 C 10.552 10 11 9.552 11 9 L 11 5 C 11 4.448 10.552 4 10 4 L 5 4 z M 15 6 A 1.0001 1.0001 0 1 0 15 8 L 25 8 A 1.0001 1.0001 0 1 0 25 6 L 15 6 z M 5 12 C 4.448 12 4 12.448 4 13 L 4 17 C 4 17.552 4.448 18 5 18 L 10 18 C 10.552 18 11 17.552 11 17 L 11 13 C 11 12.448 10.552 12 10 12 L 5 12 z M 15 14 A 1.0001 1.0001 0 1 0 15 16 L 25 16 A 1.0001 1.0001 0 1 0 25 14 L 15 14 z M 5 20 C 4.448 20 4 20.448 4 21 L 4 25 C 4 25.552 4.448 26 5 26 L 10 26 C 10.552 26 11 25.552 11 25 L 11 21 C 11 20.448 10.552 20 10 20 L 5 20 z M 15 22 A 1.0001 1.0001 0 1 0 15 24 L 25 24 A 1.0001 1.0001 0 1 0 25 22 L 15 22 z"/></svg>