<svg xmlns="http://www.w3.org/2000/svg"  viewBox="0 0 30 30" width="100px" height="100px"><path d="M 15 3 C 8.3845336 3 3 8.3845336 3 15 C 3 21.615466 8.3845336 27 15 27 C 17.968602 27 20.69718 25.916562 22.792969 24.125 A 1.0001 1.0001 0 1 0 21.494141 22.605469 C 19.74593 24.099907 17.483398 25 15 25 C 9.4654664 25 5 20.534534 5 15 C 5 9.4654664 9.4654664 5 15 5 C 20.19656 5 24.450989 8.9379267 24.951172 14 L 22 14 L 26 20 L 30 14 L 26.949219 14 C 26.437925 7.8516588 21.277839 3 15 3 z M 15 8 C 12.802666 8 11 9.8026661 11 12 L 11 14 C 10.448 14 10 14.448 10 15 L 10 20 C 10 20.552 10.448 21 11 21 L 19 21 C 19.552 21 20 20.552 20 20 L 20 15 C 20 14.448 19.552 14 19 14 L 13 14 L 13 12 C 13 10.883334 13.883334 10 15 10 C 15.876086 10 16.596624 10.555583 16.873047 11.333984 A 1.0001 1.0001 0 1 0 18.757812 10.666016 C 18.208235 9.1184164 16.731914 8 15 8 z"/></svg>