<svg xmlns="http://www.w3.org/2000/svg"  viewBox="0 0 30 30" width="100px" height="100px"><path d="M 15 3 C 8.3845336 3 3 8.3845336 3 15 C 3 21.615466 8.3845336 27 15 27 C 19.653841 27 23.692297 24.337143 25.679688 20.455078 A 1.0001 1.0001 0 1 0 23.900391 19.544922 C 22.243781 22.780857 18.892159 25 15 25 C 9.4654664 25 5 20.534534 5 15 C 5 9.4654664 9.4654664 5 15 5 C 18.892159 5 22.243781 7.2191429 23.900391 10.455078 A 1.0001 1.0001 0 1 0 25.679688 9.5449219 C 23.692297 5.6628572 19.653841 3 15 3 z M 15.980469 9.9902344 A 1.0001 1.0001 0 0 0 15.292969 10.292969 L 11.380859 14.205078 A 1.0001 1.0001 0 0 0 11.382812 15.796875 L 15.292969 19.707031 A 1.0001 1.0001 0 1 0 16.707031 18.292969 L 14.414062 16 L 26 16 A 1.0001 1.0001 0 1 0 26 14 L 14.414062 14 L 16.707031 11.707031 A 1.0001 1.0001 0 0 0 15.980469 9.9902344 z"/></svg>