<svg xmlns="http://www.w3.org/2000/svg"  viewBox="0 0 30 30" width="100px" height="100px"><path d="M 14.984375 1.9863281 A 1.0001 1.0001 0 0 0 14.203125 2.3828125 L 10.292969 6.2929688 A 1.0001 1.0001 0 1 0 11.707031 7.7070312 L 14 5.4140625 L 14 16 A 1.0001 1.0001 0 1 0 16 16 L 16 5.4140625 L 18.292969 7.7070312 A 1.0001 1.0001 0 1 0 19.707031 6.2929688 L 15.791016 2.3769531 A 1.0001 1.0001 0 0 0 14.984375 1.9863281 z M 6.0058594 7.7109375 A 1.0001 1.0001 0 0 0 5.1816406 8.1464844 C 3.8185753 10.0833 3 12.445077 3 15 C 3 21.615466 8.3845336 27 15 27 C 21.615466 27 27 21.615466 27 15 C 27 12.445077 26.181425 10.0833 24.818359 8.1464844 A 1.0002805 1.0002805 0 0 0 23.181641 9.296875 C 24.322575 10.918059 25 12.870923 25 15 C 25 20.534534 20.534534 25 15 25 C 9.4654664 25 5 20.534534 5 15 C 5 12.870923 5.6774247 10.918059 6.8183594 9.296875 A 1.0001 1.0001 0 0 0 6.0058594 7.7109375 z"/></svg>