<svg xmlns="http://www.w3.org/2000/svg"  viewBox="0 0 30 30" width="100px" height="100px"><path d="M 21.982422 3 C 20.522235 3 19.168651 4.0525528 19.015625 5.5820312 C 18.904619 6.6940763 19.485527 7.6687881 20.349609 8.2363281 L 10.585938 18 L 7 18 C 6.735 18 6.4799688 18.104969 6.2929688 18.292969 L 3.2929688 21.292969 C 3.0069687 21.578969 2.9211719 22.008813 3.0761719 22.382812 C 3.2311719 22.756812 3.596 23 4 23 L 5.5859375 23 L 4.2929688 24.292969 A 1.0001 1.0001 0 1 0 5.7070312 25.707031 L 7 24.414062 L 7 26 C 7 26.404 7.2441875 26.769828 7.6171875 26.923828 C 7.7411875 26.975828 7.871 27 8 27 C 8.26 27 8.5160312 26.898031 8.7070312 26.707031 L 11.707031 23.707031 C 11.895031 23.520031 12 23.266 12 23 L 12 19.414062 L 21.818359 9.5957031 C 21.897189 9.7198646 21.90514 9.8529085 22.007812 9.9707031 A 1.0001 1.0001 0 0 0 22.007812 9.9726562 C 22.516823 10.554795 23.268648 11.016866 24.177734 11 C 25.730765 10.971043 27 9.6835052 27 8.125 L 27 4.78125 C 27 3.8091265 26.190873 3 25.21875 3 L 21.982422 3 z M 21.982422 5 L 25 5 L 25 8.125 C 25 8.6144948 24.625594 8.9909574 24.140625 9 C 23.972116 9.0031263 23.716404 8.8850276 23.515625 8.65625 C 23.13669 8.2215086 23.209634 8.2131317 23.277344 7.9238281 A 1.0001 1.0001 0 0 0 22.072266 6.7226562 C 21.992911 6.7416323 21.928405 6.75 21.875 6.75 C 21.349855 6.75 20.950685 6.3339833 21.005859 5.78125 C 21.047751 5.3597425 21.481204 5 21.982422 5 z"/></svg>