<svg xmlns="http://www.w3.org/2000/svg"  viewBox="0 0 30 30" width="100px" height="100px"><path d="M 15.080078 1.3789062 C 14.181078 1.3979062 13.279047 1.6004063 12.498047 2.0664062 L 13.525391 3.7832031 C 13.985391 3.5072031 14.513969 3.3499062 15.042969 3.3789062 C 15.553969 3.3879062 16.053328 3.5347344 16.486328 3.8027344 L 17.537109 2.1015625 C 16.799109 1.6455625 15.949078 1.3949062 15.080078 1.3789062 z M 10.208984 4.8574219 L 7.9902344 8.6835938 L 9.7207031 9.6875 L 11.939453 5.8613281 L 10.208984 4.8574219 z M 19.876953 4.9824219 L 18.146484 5.9863281 L 20.365234 9.8125 L 20.367188 9.8125 L 20.605469 10.222656 L 22.332031 9.2167969 L 22.095703 8.8085938 L 22.097656 8.8085938 L 19.876953 4.9824219 z M 15.011719 6.1035156 C 14.371719 6.1035156 13.822031 6.4827344 13.582031 7.0527344 L 5.2421875 21.613281 C 5.0921875 21.863281 5.0117188 22.143594 5.0117188 22.433594 C 5.0117188 23.293594 5.6929687 23.992188 6.5429688 23.992188 C 6.5829688 23.992188 6.6223437 23.992422 6.6523438 23.982422 L 6.6523438 23.992188 L 23.361328 23.992188 L 23.371094 23.982422 C 23.401094 23.992422 23.442422 23.992187 23.482422 23.992188 C 24.322422 23.992188 25.011719 23.293594 25.011719 22.433594 C 25.011719 22.143594 24.93125 21.863281 24.78125 21.613281 L 24.761719 21.59375 L 16.431641 7.0527344 C 16.201641 6.4827344 15.651719 6.1035156 15.011719 6.1035156 z M 6.7128906 10.880859 L 4.3984375 14.871094 L 6.1289062 15.875 L 8.4433594 11.886719 L 6.7128906 10.880859 z M 23.373047 11.005859 L 21.642578 12.009766 L 23.957031 16 L 25.689453 14.996094 L 23.373047 11.005859 z M 14.011719 11.992188 L 16.011719 11.992188 L 15.841797 17.992188 L 14.181641 17.992188 L 14.011719 11.992188 z M 3.2929688 16.777344 L 1.2285156 20.544922 L 2.9824219 21.505859 L 5.046875 17.738281 L 3.2929688 16.777344 z M 26.792969 16.902344 L 25.039062 17.863281 L 27.103516 21.628906 L 28.857422 20.667969 L 26.792969 16.902344 z M 15.011719 19.992188 C 15.631719 19.992188 16.011719 20.362188 16.011719 20.992188 C 16.011719 21.622187 15.631719 21.992188 15.011719 21.992188 C 14.381719 21.992188 14.011719 21.622187 14.011719 20.992188 C 14.011719 20.362188 14.381719 19.992188 15.011719 19.992188 z M 3.0117188 23.984375 L 2.0117188 23.992188 L 1.0117188 23.992188 C 1.0117188 25.600188 2.0767188 27.992188 5.0117188 27.992188 L 5.0117188 25.992188 C 3.1857188 25.992188 3.0197187 24.456375 3.0117188 23.984375 z M 27.011719 23.992188 C 27.011719 24.326187 26.914719 25.992188 25.011719 25.992188 L 25.011719 27.992188 C 27.946719 27.992188 29.011719 25.599187 29.011719 23.992188 L 27.011719 23.992188 z M 7.0117188 25.992188 L 7.0117188 27.992188 L 11.011719 27.992188 L 11.011719 25.992188 L 7.0117188 25.992188 z M 13.011719 25.992188 L 13.011719 27.992188 L 17.011719 27.992188 L 17.011719 25.992188 L 13.011719 25.992188 z M 19.011719 25.992188 L 19.011719 27.992188 L 23.011719 27.992188 L 23.011719 25.992188 L 19.011719 25.992188 z"/></svg>