<svg xmlns="http://www.w3.org/2000/svg"  viewBox="0 0 30 30" width="100px" height="100px"><path d="M15.002,2.927c-0.83,0-1.55,0.51-1.85,1.23l-10.85,18.72c-0.2,0.31-0.3,0.68-0.3,1.05c0,1.1,0.89,2,2,2 c0.05,0,0.09,0,0.14-0.01v0.01h21.71l0.01-0.01c0.04,0.01,0.09,0.01,0.14,0.01c1.1,0,2-0.9,2-2c0-0.37-0.11-0.74-0.3-1.05 l-0.02-0.03l-10.84-18.69C16.542,3.437,15.832,2.927,15.002,2.927z M15.012,21.998c-0.63,0-1-0.37-1-1s0.37-1,1-1 c0.62,0,1,0.37,1,1S15.632,21.998,15.012,21.998z M15.842,17.998h-1.66l-0.17-6h2L15.842,17.998z"/></svg>