<?xml version="1.0"?><svg xmlns="http://www.w3.org/2000/svg"  viewBox="0 0 30 30" width="100px" height="100px">    <path d="M27.483,13.752L16.248,2.517c-0.689-0.689-1.807-0.689-2.497,0L2.517,13.752c-0.689,0.689-0.689,1.807,0,2.497 l11.235,11.235c0.689,0.689,1.807,0.689,2.497,0l11.235-11.235C28.172,15.559,28.172,14.441,27.483,13.752z M15,16.5 c-0.828,0-1.5-0.672-1.5-1.5c0-0.828,0.672-1.5,1.5-1.5s1.5,0.672,1.5,1.5C16.5,15.828,15.828,16.5,15,16.5z M21,16.5 c-0.828,0-1.5-0.672-1.5-1.5c0-0.828,0.672-1.5,1.5-1.5s1.5,0.672,1.5,1.5C22.5,15.828,21.828,16.5,21,16.5z M9,16.5 c-0.828,0-1.5-0.672-1.5-1.5c0-0.828,0.672-1.5,1.5-1.5s1.5,0.672,1.5,1.5C10.5,15.828,9.828,16.5,9,16.5z"/></svg>