<svg xmlns="http://www.w3.org/2000/svg"  viewBox="0 0 30 30" width="100px" height="100px"><path d="M 12.984375 2.9863281 A 1.0001 1.0001 0 0 0 12 4 L 12 14.841797 A 1.0001 1.0001 0 0 0 11.623047 14.208984 L 8.7070312 11.292969 C 8.4210312 11.006969 7.9911875 10.921172 7.6171875 11.076172 C 7.2441875 11.231172 7 11.596 7 12 L 7 14 L 3 14 A 1.0001 1.0001 0 1 0 3 16 L 7 16 L 7 18 C 7 18.404 7.2441875 18.768828 7.6171875 18.923828 C 7.9911875 19.078828 8.4210313 18.993031 8.7070312 18.707031 L 11.619141 15.794922 A 1.0001 1.0001 0 0 0 12 15.167969 L 12 26 A 1.0001 1.0001 0 1 0 14 26 L 14 4 A 1.0001 1.0001 0 0 0 12.984375 2.9863281 z M 16.984375 2.9863281 A 1.0001 1.0001 0 0 0 16 4 L 16 26 A 1.0001 1.0001 0 1 0 18 26 L 18 15.158203 A 1.0001 1.0001 0 0 0 18.376953 15.791016 L 21.292969 18.707031 C 21.578969 18.993031 22.008813 19.078828 22.382812 18.923828 C 22.755813 18.768828 23 18.404 23 18 L 23 16 L 27 16 A 1.0001 1.0001 0 1 0 27 14 L 23 14 L 23 12 C 23 11.596 22.755813 11.231172 22.382812 11.076172 C 22.008813 10.921172 21.578969 11.006969 21.292969 11.292969 L 18.380859 14.205078 A 1.0001 1.0001 0 0 0 18 14.832031 L 18 4 A 1.0001 1.0001 0 0 0 16.984375 2.9863281 z"/></svg>