<svg xmlns="http://www.w3.org/2000/svg"  viewBox="0 0 30 30" width="100px" height="100px"><path d="M 14.984375 1.9863281 A 1.0001 1.0001 0 0 0 14 3 L 14 7 L 12 7 C 11.596 7 11.231172 7.2441875 11.076172 7.6171875 C 10.921172 7.9911875 11.006969 8.4210313 11.292969 8.7070312 L 14.205078 11.619141 A 1.0001 1.0001 0 0 0 14.832031 12 L 4 12 A 1.0001 1.0001 0 1 0 4 14 L 26 14 A 1.0001 1.0001 0 1 0 26 12 L 15.158203 12 A 1.0001 1.0001 0 0 0 15.791016 11.623047 L 18.707031 8.7070312 C 18.993031 8.4210312 19.078828 7.9911875 18.923828 7.6171875 C 18.768828 7.2441875 18.404 7 18 7 L 16 7 L 16 3 A 1.0001 1.0001 0 0 0 14.984375 1.9863281 z M 4 16 A 1.0001 1.0001 0 1 0 4 18 L 14.841797 18 A 1.0001 1.0001 0 0 0 14.208984 18.376953 L 11.292969 21.292969 C 11.006969 21.578969 10.921172 22.008813 11.076172 22.382812 C 11.231172 22.755813 11.596 23 12 23 L 14 23 L 14 27 A 1.0001 1.0001 0 1 0 16 27 L 16 23 L 18 23 C 18.404 23 18.768828 22.755813 18.923828 22.382812 C 19.078828 22.008813 18.993031 21.578969 18.707031 21.292969 L 15.794922 18.380859 A 1.0001 1.0001 0 0 0 15.167969 18 L 26 18 A 1.0001 1.0001 0 1 0 26 16 L 4 16 z"/></svg>