<?xml version="1.0"?><svg xmlns="http://www.w3.org/2000/svg"  viewBox="0 0 30 30" width="100px" height="100px">    <path d="M28.707,10.793C26.984,9.07,21.732,8,15,8S3.016,9.07,1.293,10.793C1.105,10.98,1,11.235,1,11.5v3.106 C1,18.777,3.287,23,7.658,23h1.644c2.088,0,2.986-1.08,3.642-1.869C13.53,20.426,13.885,20,15,20s1.47,0.426,2.057,1.131 C17.712,21.92,18.61,23,20.698,23h1.644C26.713,23,29,18.777,29,14.606V11.5C29,11.235,28.895,10.98,28.707,10.793z M17,13h-4 c-0.553,0-1-0.448-1-1s0.447-1,1-1h4c0.553,0,1,0.448,1,1S17.553,13,17,13z"/></svg>