<svg xmlns="http://www.w3.org/2000/svg"  viewBox="0 0 30 30" width="100px" height="100px"><path d="M 17 2 C 15.343 2 14 3.343 14 5 C 14 6.0211384 14.51177 6.9210748 15.291016 7.4628906 L 14.052734 12.005859 C 14.034722 12.00562 14.018069 12 14 12 C 13.081264 12 12.245662 12.322921 11.570312 12.84375 L 7.8359375 9.9394531 C 7.9343526 9.6424771 8 9.3300159 8 9 C 8 7.343 6.657 6 5 6 C 3.343 6 2 7.343 2 9 C 2 10.657 3.343 12 5 12 C 5.5960757 12 6.1483281 11.82117 6.6152344 11.521484 L 10.332031 14.412109 C 10.120639 14.899479 10 15.434951 10 16 C 10 16.825259 10.251342 17.591527 10.679688 18.228516 L 7.1289062 22.224609 C 6.7800361 22.082616 6.3999175 22 6 22 C 4.343 22 3 23.343 3 25 C 3 26.657 4.343 28 6 28 C 7.657 28 9 26.657 9 25 C 9 24.475473 8.8536992 23.989505 8.6171875 23.560547 L 12.185547 19.546875 C 12.732325 19.827417 13.343242 20 14 20 C 14.656758 20 15.267675 19.827417 15.814453 19.546875 L 19.382812 23.560547 C 19.146301 23.989505 19 24.475473 19 25 C 19 26.657 20.343 28 22 28 C 23.657 28 25 26.657 25 25 C 25 23.343 23.657 22 22 22 C 21.600082 22 21.219964 22.082616 20.871094 22.224609 L 17.320312 18.230469 C 17.749241 17.5932 18 16.825871 18 16 C 18 15.981931 17.99438 15.965278 17.994141 15.947266 L 22.537109 14.708984 C 23.078925 15.48823 23.978862 16 25 16 C 26.657 16 28 14.657 28 13 C 28 11.343 26.657 10 25 10 C 23.41987 10 22.140151 11.225154 22.023438 12.775391 L 17.455078 14.021484 C 17.101377 13.405436 16.594564 12.898623 15.978516 12.544922 L 17.224609 7.9765625 C 18.774846 7.8598488 20 6.5801302 20 5 C 20 3.343 18.657 2 17 2 z"/></svg>