<svg xmlns="http://www.w3.org/2000/svg"  viewBox="0 0 30 30" width="100px" height="100px"><path d="M 9 1 C 7.89 1 7 1.89 7 3 L 7 27 C 7 28.1 7.89 29 9 29 L 21 29 C 22.1 29 23 28.1 23 27 L 23 3 C 23 1.89 22.1 1 21 1 L 9 1 z M 9 4 L 21 4 L 21 24 L 9 24 L 9 11.939453 L 9 7.0605469 L 9 4 z M 11.5 8 C 10.67 8 10 8.67 10 9.5 C 10 10.15 10.42 10.710156 11 10.910156 C 11.16 10.970156 11.32 11 11.5 11 C 12.33 11 13 10.33 13 9.5 C 13 9.32 12.970156 9.16 12.910156 9 C 12.710156 8.42 12.15 8 11.5 8 z M 14.960938 9 C 14.990937 9.16 15 9.33 15 9.5 C 15 10.04 14.880391 10.55 14.650391 11 L 17 11 L 17 14 L 13 14 L 13 12.650391 C 12.55 12.880391 12.04 13 11.5 13 C 11.33 13 11.16 12.990937 11 12.960938 L 11 16 L 19 16 L 19 9 L 14.960938 9 z M 15 25 C 15.55 25 16 25.45 16 26 C 16 26.55 15.55 27 15 27 C 14.45 27 14 26.55 14 26 C 14 25.45 14.45 25 15 25 z"/></svg>