<?xml version="1.0"?><svg xmlns="http://www.w3.org/2000/svg"  viewBox="0 0 30 30" width="100px" height="100px">    <path d="M26,5H4C2.895,5,2,5.895,2,7v16c0,1.105,0.895,2,2,2h22c1.105,0,2-0.895,2-2V7C28,5.895,27.105,5,26,5z M5,21 c-0.552,0-1-0.448-1-1c0-0.552,0.448-1,1-1s1,0.448,1,1C6,20.552,5.552,21,5,21z M5,16c-0.552,0-1-0.448-1-1c0-0.552,0.448-1,1-1 s1,0.448,1,1C6,15.552,5.552,16,5,16z M5,11c-0.552,0-1-0.448-1-1c0-0.552,0.448-1,1-1s1,0.448,1,1C6,10.552,5.552,11,5,11z M12,21 H9c-0.553,0-1-0.447-1-1s0.447-1,1-1h3c0.553,0,1,0.447,1,1S12.553,21,12,21z M12,16H9c-0.553,0-1-0.447-1-1s0.447-1,1-1h3 c0.553,0,1,0.447,1,1S12.553,16,12,16z M12,11H9c-0.553,0-1-0.447-1-1s0.447-1,1-1h3c0.553,0,1,0.447,1,1S12.553,11,12,11z M18,21 c-0.552,0-1-0.448-1-1c0-0.552,0.448-1,1-1s1,0.448,1,1C19,20.552,18.552,21,18,21z M18,16c-0.552,0-1-0.448-1-1 c0-0.552,0.448-1,1-1s1,0.448,1,1C19,15.552,18.552,16,18,16z M18,11c-0.552,0-1-0.448-1-1c0-0.552,0.448-1,1-1s1,0.448,1,1 C19,10.552,18.552,11,18,11z M25,21h-3c-0.553,0-1-0.447-1-1s0.447-1,1-1h3c0.553,0,1,0.447,1,1S25.553,21,25,21z M25,16h-3 c-0.553,0-1-0.447-1-1s0.447-1,1-1h3c0.553,0,1,0.447,1,1S25.553,16,25,16z M25,11h-3c-0.553,0-1-0.447-1-1s0.447-1,1-1h3 c0.553,0,1,0.447,1,1S25.553,11,25,11z"/></svg>