<svg xmlns="http://www.w3.org/2000/svg"  viewBox="0 0 30 30" width="100px" height="100px"><path d="M22 8h4V5c-1.854 0-3.898 0-4 0-.552 0-1-.448-1-1v0h-5v8c0 1.105.895 2 2 2h8v-4h-4c-.552 0-1-.448-1-1C21 8.448 21.448 8 22 8zM8 22H4v3c1.854 0 3.898 0 4 0 .552 0 1 .448 1 1v0h5v-8c0-1.105-.895-2-2-2H4v4h4c.552 0 1 .448 1 1C9 21.552 8.552 22 8 22zM8 8H4V5c1.854 0 3.898 0 4 0 .552 0 1-.448 1-1v0h5v8c0 1.105-.895 2-2 2H4v-4h4c.552 0 1-.448 1-1C9 8.448 8.552 8 8 8zM22 22h4v3c-1.854 0-3.898 0-4 0-.552 0-1 .448-1 1v0h-5v-8c0-1.105.895-2 2-2h8v4h-4c-.552 0-1 .448-1 1C21 21.552 21.448 22 22 22z"/></svg>