<svg xmlns="http://www.w3.org/2000/svg"  viewBox="0 0 30 30" width="100px" height="100px"><path d="M 21 4 A 3 3 0 0 0 21 10 A 3 3 0 0 0 21 4 z M 13.5 5 A 2.5 2.5 0 0 0 13.5 10 A 2.5 2.5 0 0 0 13.5 5 z M 7 6 A 2 2 0 0 0 7 10 A 2 2 0 0 0 7 6 z M 7 12 C 5.343 12 4 13.343 4 15 L 4 21 C 4 21.552 4.448 22 5 22 L 9 22 L 9 23 C 9 23.552 9.448 24 10 24 L 16 24 L 16 25 C 16 25.552 16.448 26 17 26 L 25 26 C 25.552 26 26 25.552 26 25 L 26 18 C 26 15.239 23.761 13 21 13 C 19.628491 13 18.387814 13.554712 17.484375 14.449219 C 16.736665 13.000631 15.242317 12 13.5 12 C 11.963889 12 10.610816 12.772284 9.7988281 13.947266 C 9.371478 12.811692 8.2850923 12 7 12 z"/></svg>