<svg xmlns="http://www.w3.org/2000/svg"  viewBox="0 0 30 30" width="100px" height="100px"><path d="M 4 4 C 2.9069372 4 2 4.9069372 2 6 L 2 18 L 2 19 L 2 26 L 28 26 L 28 19 L 28 18 L 28 6 C 28 4.9069372 27.093063 4 26 4 L 4 4 z M 4 6 L 26 6 L 26 18 L 4 18 L 4 6 z M 5 21 C 5.552 21 6 21.448 6 22 C 6 22.552 5.552 23 5 23 C 4.448 23 4 22.552 4 22 C 4 21.448 4.448 21 5 21 z M 9 21 C 9.552 21 10 21.448 10 22 C 10 22.552 9.552 23 9 23 C 8.448 23 8 22.552 8 22 C 8 21.448 8.448 21 9 21 z M 12 21 L 26 21 L 26 23 L 12 23 L 12 21 z"/></svg>