<svg xmlns="http://www.w3.org/2000/svg"  viewBox="0 0 30 30" width="100px" height="100px"><path d="M 24 3 L 24 5 L 5 5 A 1.0001 1.0001 0 1 0 5 7 L 24 7 L 24 9 L 27 6 L 24 3 z M 5 11 C 4.448 11 4 11.448 4 12 L 4 26 L 8 26 L 8 12 C 8 11.448 7.552 11 7 11 L 5 11 z M 11 11 C 10.448 11 10 11.448 10 12 L 10 26 L 14 26 L 14 12 C 14 11.448 13.552 11 13 11 L 11 11 z M 17 11 C 16.448 11 16 11.448 16 12 L 16 26 L 20 26 L 20 12 C 20 11.448 19.552 11 19 11 L 17 11 z M 23 11 C 22.448 11 22 11.448 22 12 L 22 26 L 26 26 L 26 12 C 26 11.448 25.552 11 25 11 L 23 11 z"/></svg>