<?xml version="1.0"?><svg xmlns="http://www.w3.org/2000/svg"  viewBox="0 0 30 30" width="100px" height="100px">    <path d="M24,4H6C4.895,4,4,4.895,4,6v18c0,1.105,0.895,2,2,2h18c1.105,0,2-0.895,2-2V6C26,4.895,25.105,4,24,4z M17,20H9 c-0.552,0-1-0.448-1-1c0-0.552,0.448-1,1-1h8c0.552,0,1,0.448,1,1C18,19.552,17.552,20,17,20z M21,16H9c-0.552,0-1-0.448-1-1 c0-0.552,0.448-1,1-1h12c0.552,0,1,0.448,1,1C22,15.552,21.552,16,21,16z M21,12H9c-0.552,0-1-0.448-1-1c0-0.552,0.448-1,1-1h12 c0.552,0,1,0.448,1,1C22,11.552,21.552,12,21,12z"/></svg>