<svg xmlns="http://www.w3.org/2000/svg"  viewBox="0 0 30 30" width="100px" height="100px"><path d="M 1.7070312 0.29296875 L 0.29296875 1.7070312 L 4 5.4140625 L 4 11 L 9.5859375 11 L 28.292969 29.707031 L 29.707031 28.292969 L 1.7070312 0.29296875 z M 15 3 A 1.0001 1.0001 0 0 0 14.900391 3.0039062 C 12.762943 3.021705 10.69543 3.6064992 8.8945312 4.671875 L 10.373047 6.1503906 C 11.787047 5.4113906 13.367 5 15 5 C 20.534534 5 25 9.4654664 25 15 A 1.0001 1.0001 0 1 0 27 15 C 27 8.3845336 21.615466 3 15 3 z M 4 14 A 1 1 0 0 0 4 16 A 1 1 0 0 0 4 14 z M 4.8378906 18.210938 A 1 1 0 0 0 4.8378906 20.210938 A 1 1 0 0 0 4.8378906 18.210938 z M 25.162109 18.210938 A 1 1 0 0 0 25.162109 20.210938 A 1 1 0 0 0 25.162109 18.210938 z M 7.2226562 21.777344 A 1 1 0 0 0 7.2226562 23.777344 A 1 1 0 0 0 7.2226562 21.777344 z M 10.789062 24.162109 A 1 1 0 0 0 10.789062 26.162109 A 1 1 0 0 0 10.789062 24.162109 z M 19.210938 24.162109 A 1 1 0 0 0 19.210938 26.162109 A 1 1 0 0 0 19.210938 24.162109 z M 15 25 A 1 1 0 0 0 15 27 A 1 1 0 0 0 15 25 z"/></svg>