<?xml version="1.0"?><svg xmlns="http://www.w3.org/2000/svg"  viewBox="0 0 30 30" width="100px" height="100px">    <path d="M 14.984375 1.9863281 A 1.0001 1.0001 0 0 0 14 3 L 14 8 L 7 8 C 5.343 8 4 9.343 4 11 L 4 20 C 4 21.657 5.343 23 7 23 L 23 23 C 24.657 23 26 21.657 26 20 L 26 11 C 26 9.343 24.657 8 23 8 L 16 8 L 16 3 A 1.0001 1.0001 0 0 0 14.984375 1.9863281 z M 0.984375 9.9863281 A 1.0001 1.0001 0 0 0 0 11 L 0 20 A 1.0001 1.0001 0 1 0 2 20 L 2 11 A 1.0001 1.0001 0 0 0 0.984375 9.9863281 z M 28.984375 9.9863281 A 1.0001 1.0001 0 0 0 28 11 L 28 20 A 1.0001 1.0001 0 1 0 30 20 L 30 11 A 1.0001 1.0001 0 0 0 28.984375 9.9863281 z"/></svg>