<svg xmlns="http://www.w3.org/2000/svg"  viewBox="0 0 30 30" width="100px" height="100px"><path d="M 4 4 C 2.89 4 2 4.89 2 6 L 2 26 L 28 26 L 28 6 C 28 4.89 27.1 4 26 4 L 4 4 z M 5 7 C 5.55 7 6 7.45 6 8 C 6 8.55 5.55 9 5 9 C 4.45 9 4 8.55 4 8 C 4 7.45 4.45 7 5 7 z M 9 7 C 9.55 7 10 7.45 10 8 C 10 8.55 9.55 9 9 9 C 8.45 9 8 8.55 8 8 C 8 7.45 8.45 7 9 7 z M 12 7 L 26 7 L 26 9 L 12 9 L 12 7 z M 4 12 L 26 12 L 26 24 L 4 24 L 4 12 z M 12.169922 14 C 10.859922 14 10 14.790234 10 15.990234 C 10 17.190234 10.869922 17.980469 12.169922 17.980469 C 13.479922 17.980469 14.330078 17.190234 14.330078 15.990234 C 14.330078 14.790234 13.479922 14 12.169922 14 z M 16.882812 14.189453 L 14.457031 17.853516 L 11.142578 21.894531 L 13.183594 21.894531 L 15.542969 18.251953 L 18.917969 14.189453 L 16.882812 14.189453 z M 12.169922 15.150391 C 12.549922 15.150391 12.759766 15.450469 12.759766 15.980469 C 12.759766 16.510469 12.529922 16.820312 12.169922 16.820312 C 11.789922 16.820312 11.570312 16.510469 11.570312 15.980469 C 11.570312 15.450469 11.789922 15.150391 12.169922 15.150391 z M 17.839844 18.099609 C 16.529844 18.099609 15.679687 18.879844 15.679688 20.089844 C 15.679688 21.299844 16.529844 22.080078 17.839844 22.080078 C 19.139844 22.080078 20 21.299844 20 20.089844 C 20 18.879844 19.139844 18.099609 17.839844 18.099609 z M 17.839844 19.25 C 18.219844 19.25 18.429687 19.549844 18.429688 20.089844 C 18.429688 20.609844 18.209844 20.929687 17.839844 20.929688 C 17.469844 20.929688 17.240234 20.609844 17.240234 20.089844 C 17.240234 19.559844 17.469844 19.25 17.839844 19.25 z"/></svg>