<svg xmlns="http://www.w3.org/2000/svg"  viewBox="0 0 30 30" width="100px" height="100px"><path d="M 15 1.0117188 C 14.17325 1.0117187 13.34625 1.2770469 12.65625 1.8105469 L 2.546875 9.6210938 L 8 13.908203 L 8 9 C 8 7.895 8.895 7 10 7 L 20 7 C 21.105 7 22 7.895 22 9 L 22 13.908203 L 27.453125 9.6210938 L 17.34375 1.8105469 C 16.65375 1.2770469 15.82675 1.0117188 15 1.0117188 z M 15 9 A 1 1 0 0 0 14.193359 9.4101562 A 1 1 0 0 0 14.191406 9.4121094 L 11 13 L 14 13 L 14 18 A 1.0001 1.0001 0 1 0 16 18 L 16 13 L 19 13 L 15.806641 9.4101562 A 1 1 0 0 0 15 9 z M 2 11.736328 L 2 23.585938 L 8.6347656 16.949219 L 2 11.736328 z M 28 11.736328 L 21.365234 16.951172 L 28 23.585938 L 28 11.736328 z M 10.21875 18.193359 L 2.4140625 26 L 27.585938 26 L 19.78125 18.195312 L 17.162109 20.251953 C 16.525109 20.751953 15.763 21.001953 15 21.001953 C 14.237 21.001953 13.473891 20.751953 12.837891 20.251953 L 10.21875 18.193359 z"/></svg>