<svg xmlns="http://www.w3.org/2000/svg"  viewBox="0 0 30 30" width="100px" height="100px"><path d="M 5 4 C 3.895 4 3 4.895 3 6 L 3 24 C 3 25.105 3.895 26 5 26 L 25 26 C 26.105 26 27 25.105 27 24 L 27 6 C 27 4.895 26.105 4 25 4 L 5 4 z M 5 6 L 17 6 L 17 24 L 5 24 L 5 6 z M 10.322266 12.003906 C 10.1035 11.983047 9.8819531 12.059453 9.7207031 12.220703 L 7.4707031 14.470703 C 7.3237031 14.616703 7.25 14.808 7.25 15 C 7.25 15.192 7.3237031 15.383297 7.4707031 15.529297 L 9.7207031 17.779297 C 9.9347031 17.994297 10.256109 18.059359 10.537109 17.943359 C 10.817109 17.827359 11 17.553 11 17.25 L 11 16 L 14 16 A 1.0001 1.0001 0 1 0 14 14 L 11 14 L 11 12.75 C 11 12.447 10.817109 12.172641 10.537109 12.056641 C 10.467109 12.027641 10.395188 12.010859 10.322266 12.003906 z"/></svg>