<?xml version="1.0"?><svg xmlns="http://www.w3.org/2000/svg"  viewBox="0 0 30 30" width="100px" height="100px">    <path d="M26,5H4C2.895,5,2,5.895,2,7v16c0,1.105,0.895,2,2,2h22c1.105,0,2-0.895,2-2V7C28,5.895,27.105,5,26,5z M10.814,19.447 h-2.15v-6.516H8.553l-2.039,1.377v-1.852l2.15-1.465h2.15V19.447z M14.992,18.65c-0.756,0-1.195-0.457-1.195-1.131 s0.439-1.131,1.195-1.131s1.195,0.457,1.195,1.131S15.748,18.65,14.992,18.65z M14.992,14.391c-0.756,0-1.195-0.457-1.195-1.131 s0.439-1.137,1.195-1.137s1.195,0.463,1.195,1.137S15.748,14.391,14.992,14.391z M22.749,19.447h-2.15v-6.516h-0.111l-2.039,1.377 v-1.852l2.15-1.465h2.15V19.447z"/></svg>