<svg xmlns="http://www.w3.org/2000/svg"  viewBox="0 0 30 30" width="100px" height="100px"><path d="M 4 4 C 2.895 4 2 4.895 2 6 L 2 7 L 2 10 L 2 26 L 15.082031 26 C 14.723031 25.381 14.447672 24.71 14.263672 24 L 4 24 L 4 10 L 26 10 L 26 15.082031 C 26.753 15.520031 27.428 16.076563 28 16.726562 L 28 10 L 28 7 L 28 6 C 28 4.895 27.105 4 26 4 L 4 4 z M 9 12 L 9 13.412109 C 7.88 13.700109 7.1894531 14.482406 7.1894531 15.566406 C 7.1894531 16.675406 7.8535781 17.379047 9.1425781 17.623047 L 10.070312 17.808594 C 10.875312 17.969594 11.183594 18.179313 11.183594 18.570312 C 11.183594 19.034313 10.725641 19.357422 10.056641 19.357422 C 9.3146406 19.357422 8.8018125 19.030578 8.7578125 18.517578 L 7.0488281 18.517578 C 7.0728281 19.601578 7.802 20.346469 9 20.605469 L 9 22 L 11 22 L 11 20.597656 C 12.227 20.321656 12.951172 19.527469 12.951172 18.355469 C 12.951172 17.236469 12.327547 16.608844 10.935547 16.339844 L 10.027344 16.162109 C 9.2843437 16.015109 8.9726562 15.79225 8.9726562 15.40625 C 8.9726563 14.93725 9.3875781 14.638672 10.017578 14.638672 C 10.647578 14.638672 11.121156 14.986375 11.160156 15.484375 L 12.814453 15.484375 C 12.791453 14.468375 12.088 13.708922 11 13.419922 L 11 12 L 9 12 z M 22 16 C 18.691 16 16 18.691 16 22 C 16 25.309 18.691 28 22 28 C 23.294 28 24.489703 27.583766 25.470703 26.884766 L 28.292969 29.707031 C 28.487969 29.902031 28.744 30 29 30 C 29.256 30 29.512031 29.902031 29.707031 29.707031 C 30.098031 29.316031 30.098031 28.682969 29.707031 28.292969 L 26.884766 25.470703 C 27.583766 24.489703 28 23.294 28 22 C 28 18.691 25.309 16 22 16 z M 22 18 C 24.206 18 26 19.794 26 22 C 26 24.206 24.206 26 22 26 C 19.794 26 18 24.206 18 22 C 18 19.794 19.794 18 22 18 z"/></svg>