<svg xmlns="http://www.w3.org/2000/svg"  viewBox="0 0 30 30" width="100px" height="100px"><path d="M 7.5 4 C 3.36 4 0 7.36 0 11.5 C 0 15.49 3.1090625 18.750469 7.0390625 18.980469 C 7.0090625 18.370469 7.0303906 17.690469 7.1503906 16.980469 C 4.2803906 16.810469 2 14.41 2 11.5 C 2 8.47 4.47 6 7.5 6 L 13.5 6 C 16.36 6 18.720703 8.2 18.970703 11 L 18.960938 11 C 18.970938 11.04 18.980469 11.079141 18.980469 11.119141 L 18.980469 11.130859 C 18.990469 11.210859 18.990234 11.289375 18.990234 11.359375 C 19.000234 11.439375 19 11.510078 19 11.580078 C 19 11.740078 18.990703 11.900547 18.970703 12.060547 C 18.950703 12.250547 18.920625 12.429375 18.890625 12.609375 C 18.860625 12.739375 18.829062 12.87 18.789062 13 C 18.779062 13.05 18.77 13.090625 18.75 13.140625 C 18.7 13.300625 18.640078 13.459141 18.580078 13.619141 C 18.580078 13.629141 18.580313 13.630625 18.570312 13.640625 C 18.430312 13.950625 18.269844 14.249297 18.089844 14.529297 C 18.079844 14.539297 18.070547 14.550313 18.060547 14.570312 C 17.980547 14.690312 17.900312 14.800391 17.820312 14.900391 C 17.680312 15.070391 17.540156 15.219844 17.410156 15.339844 C 16.430156 16.359844 15.04 17 13.5 17 L 13.380859 17 C 12.980859 17.74 12.920547 18.4 13.060547 19 L 13.5 19 C 16.38 19 18.880859 17.380234 20.130859 14.990234 L 20.119141 14.990234 C 20.129141 14.980234 20.539531 14.2 20.769531 13 C 20.889531 12.42 20.969687 11.74 20.929688 11 C 20.919687 10.6 20.869062 10.189766 20.789062 9.7597656 C 20.789062 9.7397656 20.779531 9.7192187 20.769531 9.6992188 C 19.969531 6.4292188 17.02 4 13.5 4 L 7.5 4 z M 16.5 11 C 13.53 11 10.959766 12.730234 9.7597656 15.240234 C 9.7297656 15.280234 9.7094531 15.330859 9.6894531 15.380859 C 9.4494531 15.890859 9.2703906 16.43 9.1503906 17 C 9.0503906 17.48 9 17.99 9 18.5 C 9 18.67 9.0092969 18.83 9.0292969 19 C 9.0492969 19.47 9.12 19.940859 9.25 20.380859 C 9.28 20.530859 9.319375 20.660781 9.359375 20.800781 C 10.329375 23.820781 13.16 26 16.5 26 L 22.5 26 C 26.64 26 30 22.64 30 18.5 C 30 14.51 26.879453 11.239531 22.939453 11.019531 C 22.969453 11.749531 22.910547 12.419531 22.810547 13.019531 C 25.700547 13.169531 28 15.57 28 18.5 C 28 21.53 25.53 24 22.5 24 L 16.5 24 C 13.66 24 11.309297 21.830547 11.029297 19.060547 L 11.039062 19.060547 L 11.039062 19.050781 C 11.039062 19.040781 11.039297 19.039062 11.029297 19.039062 L 11.029297 19.029297 C 11.039297 19.019297 11.039297 19.02 11.029297 19 L 11.029297 18.990234 C 11.009297 18.800234 10.999766 18.590625 11.009766 18.390625 C 11.009766 18.290625 11.009531 18.189844 11.019531 18.089844 C 11.029531 17.959844 11.030781 17.840938 11.050781 17.710938 C 11.070781 17.610937 11.079375 17.500625 11.109375 17.390625 C 11.129375 17.260625 11.170938 17.13 11.210938 17 C 11.230937 16.92 11.259062 16.839766 11.289062 16.759766 C 12.009062 14.579766 14.08 13 16.5 13 L 16.660156 13 C 16.910156 12.5 17.099453 11.82 16.939453 11 L 16.5 11 z"/></svg>