<?xml version="1.0"?><svg xmlns="http://www.w3.org/2000/svg"  viewBox="0 0 30 30" width="100px" height="100px">    <path d="M 25 0 A 5 5 0 0 0 20 5 A 5 5 0 0 0 20.832031 7.7539062 L 18 10.585938 L 18 8 A 1.0001 1.0001 0 0 0 16.984375 6.9863281 A 1.0001 1.0001 0 0 0 16 8 L 16 12.847656 A 1.0001 1.0001 0 0 0 17.152344 14 L 22 14 A 1.0001 1.0001 0 1 0 22 12 L 19.414062 12 L 22.246094 9.1679688 A 5 5 0 0 0 25 10 A 5 5 0 0 0 30 5 A 5 5 0 0 0 25 0 z M 12.980469 15.990234 A 1.0001 1.0001 0 0 0 12.869141 16 L 8 16 A 1.0001 1.0001 0 1 0 8 18 L 10.585938 18 L 7.7539062 20.832031 A 5 5 0 0 0 5 20 A 5 5 0 0 0 0 25 A 5 5 0 0 0 5 30 A 5 5 0 0 0 10 25 A 5 5 0 0 0 9.1679688 22.246094 L 12 19.414062 L 12 22 A 1.0001 1.0001 0 1 0 14 22 L 14 17.126953 A 1.0001 1.0001 0 0 0 12.980469 15.990234 z"/></svg>