<svg xmlns="http://www.w3.org/2000/svg"  viewBox="0 0 30 30" width="100px" height="100px"><path d="M 5.0117188 3.9921875 C 4.4597188 3.9921875 4.0117188 4.4391875 4.0117188 4.9921875 C 4.0117188 5.5451875 4.4597188 5.9921875 5.0117188 5.9921875 L 24.011719 5.9921875 C 24.100719 5.9921875 24.179719 5.9634062 24.261719 5.9414062 C 24.343719 5.9634063 24.422719 5.9921875 24.511719 5.9921875 C 26.441719 5.9921875 28.011719 7.5621875 28.011719 9.4921875 C 28.011719 11.422187 26.441719 12.992188 24.511719 12.992188 L 23.011719 12.992188 L 22.011719 12.992188 L 22.011719 10.992188 C 22.011719 10.592187 21.772578 10.222266 21.392578 10.072266 C 21.022578 9.9122656 20.592734 10.003203 20.302734 10.283203 L 17.392578 13.203125 C 17.192578 13.353125 17.051719 13.582031 17.011719 13.832031 L 17.011719 14.162109 C 17.051719 14.412109 17.192578 14.633203 17.392578 14.783203 L 20.302734 17.703125 C 20.592734 17.983125 21.022578 18.072109 21.392578 17.912109 C 21.772578 17.762109 22.011719 17.392187 22.011719 16.992188 L 22.011719 14.992188 L 23.011719 14.992188 L 23.042969 14.992188 L 25.011719 14.992188 C 25.149719 14.992188 25.281391 14.965063 25.400391 14.914062 C 28.010391 14.487063 30.011719 12.220187 30.011719 9.4921875 C 30.011719 6.4601875 27.543719 3.9921875 24.511719 3.9921875 C 24.422719 3.9921875 24.343719 4.0219687 24.261719 4.0429688 C 24.179719 4.0219688 24.100719 3.9921875 24.011719 3.9921875 L 5.0117188 3.9921875 z M 8.5117188 12.992188 C 7.4817187 12.992188 6.4774219 13.280266 5.6074219 13.822266 C 5.1384219 14.114266 4.9951094 14.730219 5.2871094 15.199219 C 5.4761094 15.503219 5.8046719 15.671875 6.1386719 15.671875 C 6.3196719 15.671875 6.5010156 15.621531 6.6660156 15.519531 C 7.2190156 15.174531 7.8576719 14.994141 8.5136719 14.994141 C 9.0646719 14.993141 9.5117188 14.545187 9.5117188 13.992188 C 9.5117188 13.439187 9.0637187 12.992188 8.5117188 12.992188 z M 12.011719 12.992188 C 11.459719 12.992188 11.011719 13.439188 11.011719 13.992188 C 11.011719 14.545188 11.459719 14.992188 12.011719 14.992188 L 14.011719 14.992188 C 14.563719 14.992188 15.011719 14.545187 15.011719 13.992188 C 15.011719 13.439187 14.563719 12.992188 14.011719 12.992188 L 12.011719 12.992188 z M 4.0917969 17.183594 C 3.5317969 17.153594 3.0614844 17.563281 3.0214844 18.113281 C 3.0114844 18.233281 3.0117188 18.362188 3.0117188 18.492188 C 3.0117188 20.112188 3.7228906 21.653359 4.9628906 22.693359 C 5.1528906 22.853359 5.3813281 22.933594 5.6113281 22.933594 C 5.8913281 22.933594 6.1710938 22.812266 6.3710938 22.572266 C 6.7310938 22.152266 6.6819531 21.523828 6.2519531 21.173828 C 5.4619531 20.503828 5.0117188 19.522187 5.0117188 18.492188 C 5.0117188 18.412188 5.0114844 18.333906 5.0214844 18.253906 C 5.0614844 17.703906 4.6417969 17.223594 4.0917969 17.183594 z M 9.5917969 21.992188 C 9.0317969 21.992188 8.5917969 22.442188 8.5917969 22.992188 C 8.5917969 23.542188 9.0317969 23.992187 9.5917969 23.992188 L 13.822266 23.992188 C 14.372266 23.992188 14.822266 23.542187 14.822266 22.992188 C 14.822266 22.442187 14.372266 21.992188 13.822266 21.992188 L 9.5917969 21.992188 z M 18.052734 21.992188 C 17.502734 21.992188 17.052734 22.442188 17.052734 22.992188 C 17.052734 23.542188 17.502734 23.992187 18.052734 23.992188 L 22.28125 23.992188 C 22.83125 23.992188 23.28125 23.542187 23.28125 22.992188 C 23.28125 22.442187 22.83125 21.992188 22.28125 21.992188 L 18.052734 21.992188 z M 26.511719 21.992188 C 25.959719 21.992188 25.511719 22.439188 25.511719 22.992188 C 25.511719 23.545188 25.959719 23.992187 26.511719 23.992188 L 29.011719 23.992188 C 29.563719 23.992188 30.011719 23.545187 30.011719 22.992188 C 30.011719 22.439187 29.563719 21.992188 29.011719 21.992188 L 26.511719 21.992188 z"/></svg>