<svg xmlns="http://www.w3.org/2000/svg"  viewBox="0 0 30 30" width="100px" height="100px"><path d="M 7 4 C 5.895 4 5 4.896 5 6 L 5 24 C 5 25.105 5.895 26 7 26 L 12.585938 26 L 14.292969 27.707031 C 14.683969 28.098031 15.316031 28.098031 15.707031 27.707031 L 17.414062 26 L 23 26 C 24.105 26 25 25.105 25 24 L 25 6 C 25 4.896 24.104 4 23 4 L 7 4 z M 10 9 C 10.552 9 11 9.448 11 10 C 11 10.552 10.552 11 10 11 C 9.448 11 9 10.552 9 10 C 9 9.448 9.448 9 10 9 z M 14 9 L 20 9 C 20.553 9 21 9.448 21 10 C 21 10.552 20.553 11 20 11 L 14 11 C 13.447 11 13 10.552 13 10 C 13 9.448 13.447 9 14 9 z M 10 14 C 10.552 14 11 14.448 11 15 C 11 15.552 10.552 16 10 16 C 9.448 16 9 15.552 9 15 C 9 14.448 9.448 14 10 14 z M 14 14 L 20 14 C 20.553 14 21 14.448 21 15 C 21 15.552 20.553 16 20 16 L 14 16 C 13.447 16 13 15.552 13 15 C 13 14.448 13.447 14 14 14 z M 10 19 C 10.552 19 11 19.448 11 20 C 11 20.552 10.552 21 10 21 C 9.448 21 9 20.552 9 20 C 9 19.448 9.448 19 10 19 z M 14 19 L 20 19 C 20.553 19 21 19.448 21 20 C 21 20.552 20.553 21 20 21 L 14 21 C 13.447 21 13 20.552 13 20 C 13 19.448 13.447 19 14 19 z"/></svg>