<svg xmlns="http://www.w3.org/2000/svg"  viewBox="0 0 30 30" width="100px" height="100px"><path d="M 15.101562 3 C 14.667705 2.9964922 14.232906 3.0172969 13.800781 3.0605469 C 13.699781 3.0705469 13.603906 3.0915156 13.503906 3.1035156 C 13.212906 3.1395156 12.922766 3.1783281 12.634766 3.2363281 C 12.506766 3.2623281 12.380906 3.298125 12.253906 3.328125 C 11.996906 3.388125 11.739328 3.4493437 11.486328 3.5273438 C 11.373328 3.5623438 11.26725 3.6045781 11.15625 3.6425781 C 10.89225 3.7315781 10.628141 3.8236406 10.369141 3.9316406 C 10.291141 3.9646406 10.217625 4.0021094 10.140625 4.0371094 C 9.856625 4.1621094 9.5757812 4.2924062 9.3007812 4.4414062 C 9.2607812 4.4634063 9.2235938 4.4897187 9.1835938 4.5117188 C 8.2285937 5.0427187 7.326625 5.7026719 6.515625 6.5136719 C 6.459625 6.5696719 6.4163281 6.6344063 6.3613281 6.6914062 C 6.0813281 6.9824063 5.8174063 7.2884219 5.5664062 7.6074219 C 5.4534063 7.7514219 5.3442813 7.8969219 5.2382812 8.0449219 C 5.0202813 8.3509219 4.8169531 8.6651875 4.6269531 8.9921875 C 4.5729531 9.0861875 4.5090313 9.1774375 4.4570312 9.2734375 C 4.2300312 9.6894375 4.0344219 10.124359 3.8574219 10.568359 C 3.8104219 10.687359 3.7695625 10.807734 3.7265625 10.927734 C 3.5865625 11.312734 3.4671875 11.704422 3.3671875 12.107422 C 3.3481875 12.186422 3.3246406 12.26375 3.3066406 12.34375 C 3.1126406 13.19875 3 14.085047 3 14.998047 C 3 15.134047 3.0164844 15.266344 3.0214844 15.402344 C 3.0224844 15.458344 3.0262969 15.516266 3.0292969 15.572266 C 3.0532969 16.075266 3.1054531 16.569688 3.1894531 17.054688 C 3.1914531 17.067688 3.1933125 17.079797 3.1953125 17.091797 C 4.1903125 22.713797 9.098 26.998047 15 26.998047 C 18.309 26.998047 21.308469 25.653469 23.480469 23.480469 L 23.484375 23.484375 C 23.540375 23.428375 23.584672 23.363641 23.638672 23.306641 C 23.919672 23.014641 24.183594 22.709625 24.433594 22.390625 C 24.546594 22.246625 24.654766 22.101125 24.759766 21.953125 C 24.977766 21.647125 25.182094 21.331859 25.371094 21.005859 C 25.426094 20.910859 25.490969 20.821609 25.542969 20.724609 C 25.769969 20.308609 25.963625 19.873688 26.140625 19.429688 C 26.187625 19.310688 26.230437 19.190313 26.273438 19.070312 C 26.413438 18.685312 26.532812 18.292625 26.632812 17.890625 C 26.651812 17.811625 26.675359 17.734297 26.693359 17.654297 C 26.888359 16.799297 27 15.912047 27 14.998047 L 26.96875 14.998047 C 26.96675 13.763047 26.798922 12.53075 26.419922 11.34375 L 24.298828 11.34375 C 24.815828 12.65575 25.037516 14.052453 24.978516 15.439453 C 24.975516 15.511453 24.971797 15.581344 24.966797 15.652344 C 24.911797 16.520344 24.741938 17.382844 24.460938 18.214844 C 24.425937 18.318844 24.386656 18.419484 24.347656 18.521484 C 24.225656 18.846484 24.084734 19.165516 23.927734 19.478516 C 23.884734 19.562516 23.849687 19.651375 23.804688 19.734375 C 23.616688 20.084375 23.398063 20.422906 23.164062 20.753906 C 23.079062 20.873906 22.990391 20.989469 22.900391 21.105469 C 22.679391 21.390469 22.4435 21.668594 22.1875 21.933594 C 20.3675 23.818594 17.821 24.998047 15 24.998047 C 10.777 24.998047 7.1641719 22.362344 5.7011719 18.652344 C 5.5261719 18.208344 5.3853438 17.754922 5.2773438 17.294922 C 5.2753438 17.287922 5.2724844 17.280438 5.2714844 17.273438 C 5.0624844 16.381438 4.9854375 15.466641 5.0234375 14.556641 C 5.0264375 14.484641 5.0282031 14.41475 5.0332031 14.34375 C 5.0882031 13.47575 5.2600156 12.61325 5.5410156 11.78125 C 5.5760156 11.67725 5.6152969 11.576609 5.6542969 11.474609 C 5.7762969 11.149609 5.9172188 10.828625 6.0742188 10.515625 C 6.1162187 10.431625 6.1522656 10.344719 6.1972656 10.261719 C 6.3852656 9.9107187 6.6048906 9.5721875 6.8378906 9.2421875 C 6.9218906 9.1241875 7.0106094 9.0075781 7.0996094 8.8925781 C 7.3206094 8.6065781 7.5555 8.3285 7.8125 8.0625 C 8.4885 7.3625 9.2631875 6.76125 10.117188 6.28125 C 10.164188 6.25525 10.210813 6.2242187 10.257812 6.1992188 C 10.461813 6.0892187 10.673766 5.9924844 10.884766 5.8964844 C 10.975766 5.8554844 11.062297 5.8094844 11.154297 5.7714844 C 11.331297 5.6974844 11.515266 5.6362656 11.697266 5.5722656 C 11.829266 5.5262656 11.958797 5.4735937 12.091797 5.4335938 C 12.243797 5.3875937 12.401641 5.3534531 12.556641 5.3144531 C 12.721641 5.2734531 12.885734 5.2263594 13.052734 5.1933594 C 13.191734 5.1653594 13.335562 5.1509062 13.476562 5.1289062 C 13.659562 5.1009063 13.842344 5.0658281 14.027344 5.0488281 C 14.181344 5.0338281 14.337187 5.0333906 14.492188 5.0253906 C 17.218187 4.8883906 19.989313 5.8477344 22.070312 7.9277344 L 20.65625 9.3417969 L 24.900391 9.3417969 L 24.900391 5.0996094 L 23.486328 6.5136719 C 21.167578 4.1949219 18.138564 3.0245547 15.101562 3 z M 15 9.1699219 C 12.79 9.1699219 11 10.930078 11 13.080078 L 11 14.060547 C 10.82 14.060547 10.649766 14.109453 10.509766 14.189453 C 10.209766 14.359453 10 14.669063 10 15.039062 L 10 18.949219 C 10 19.489219 10.45 19.919922 11 19.919922 L 19 19.919922 C 19.55 19.919922 20 19.489219 20 18.949219 L 20 15.039062 C 20 15.019063 20.000234 15.000234 19.990234 14.990234 L 19.990234 14.910156 C 19.930234 14.430156 19.51 14.060547 19 14.060547 L 19 13.080078 C 19 12.420078 18.829297 11.8 18.529297 11.25 C 18.199297 10.63 17.680312 10.110234 17.070312 9.7402344 C 16.470312 9.3802344 15.76 9.1699219 15 9.1699219 z M 15 11.130859 C 16.11 11.130859 17 12.010078 17 13.080078 L 17 14.060547 L 13 14.060547 L 13 13.080078 C 13 12.010078 13.9 11.130859 15 11.130859 z"/></svg>