<?xml version="1.0"?><svg xmlns="http://www.w3.org/2000/svg"  viewBox="0 0 30 30" width="100px" height="100px">    <path d="M24,4H6C4.895,4,4,4.895,4,6v18c0,1.105,0.895,2,2,2h18c1.105,0,2-0.895,2-2V6C26,4.895,25.105,4,24,4z M19.707,14.707 c-0.391,0.391-1.023,0.391-1.414,0L16,12.414V20c0,0.553-0.447,1-1,1s-1-0.447-1-1v-7.586l-2.293,2.293 c-0.391,0.391-1.023,0.391-1.414,0s-0.391-1.023,0-1.414l3.999-3.999c0.092-0.093,0.203-0.166,0.327-0.217 c0.244-0.101,0.519-0.101,0.764,0c0.123,0.051,0.234,0.125,0.326,0.217l3.999,3.999C19.902,13.488,20,13.744,20,14 S19.902,14.512,19.707,14.707z"/></svg>