<?xml version="1.0"?><svg xmlns="http://www.w3.org/2000/svg"  viewBox="0 0 30 30" width="100px" height="100px">    <path d="M 6 4 C 4.895 4 4 4.895 4 6 L 4 24 C 4 25.105 4.895 26 6 26 L 24 26 C 25.105 26 26 25.105 26 24 L 26 6 C 26 4.895 25.105 4 24 4 L 6 4 z M 15 9 C 20.016 9 22.816406 14.455078 22.816406 14.455078 C 22.923406 14.614078 23 14.794 23 15 C 23 15.207 22.921453 15.387875 22.814453 15.546875 C 22.814453 15.546875 20.024 21 15 21 C 9.976 21 7.1835938 15.544922 7.1835938 15.544922 C 7.0775938 15.386922 7 15.206 7 15 C 7 14.795 7.0766406 14.615031 7.1816406 14.457031 C 7.1816406 14.457031 9.984 9 15 9 z M 15 11 C 12.791 11 11 12.791 11 15 C 11 17.209 12.791 19 15 19 C 17.209 19 19 17.209 19 15 C 19 12.791 17.209 11 15 11 z M 15 13 C 16.105 13 17 13.895 17 15 C 17 16.104 16.105 17 15 17 C 13.896 17 13 16.104 13 15 C 13 13.895 13.896 13 15 13 z"/></svg>