<?xml version="1.0"?><svg xmlns="http://www.w3.org/2000/svg"  viewBox="0 0 30 30" width="100px" height="100px">    <path d="M 15 3 C 8.373 3 3 8.373 3 15 C 3 21.627 8.373 27 15 27 C 21.627 27 27 21.627 27 15 C 27 8.373 21.627 3 15 3 z M 16 6 C 16.552 6 17 6.448 17 7 L 17 13.5 A 0.5 0.5 0 0 0 17.5 14 A 0.5 0.5 0 0 0 18 13.5 L 18 9 C 18 8.448 18.448 8 19 8 C 19.552 8 20 8.448 20 9 L 20 13.5 L 20 15 L 20 17.087891 L 21.925781 15.318359 L 21.931641 15.326172 C 22.152641 15.128172 22.436859 15 22.755859 15 C 23.442859 15 24 15.557141 24 16.244141 C 24 16.612141 23.834078 16.932156 23.580078 17.160156 L 23.587891 17.169922 L 18.71875 21.644531 C 17.90375 22.479531 16.768766 23 15.509766 23 L 14 23 C 11.239 23 9 20.761 9 18 L 9 17 L 9 13.5 L 9 10 C 9 9.448 9.448 9 10 9 C 10.552 9 11 9.448 11 10 L 11 13.5 A 0.5 0.5 0 0 0 11.5 14 A 0.5 0.5 0 0 0 12 13.5 L 12 8 C 12 7.448 12.448 7 13 7 C 13.552 7 14 7.448 14 8 L 14 13.5 A 0.5 0.5 0 0 0 14.5 14 A 0.5 0.5 0 0 0 15 13.5 L 15 7 C 15 6.448 15.448 6 16 6 z"/></svg>