<svg xmlns="http://www.w3.org/2000/svg"  viewBox="0 0 30 30" width="100px" height="100px"><path d="M 15 2 C 11.145666 2 8 5.1456661 8 9 L 8 11 L 6 11 C 4.895 11 4 11.895 4 13 L 4 25 C 4 26.105 4.895 27 6 27 L 24 27 C 25.105 27 26 26.105 26 25 L 26 13 C 26 11.895 25.105 11 24 11 L 22 11 L 22 9 C 22 5.2715823 19.036581 2.2685653 15.355469 2.0722656 A 1.0001 1.0001 0 0 0 15 2 z M 15 4 C 17.773666 4 20 6.2263339 20 9 L 20 11 L 10 11 L 10 9 C 10 6.2263339 12.226334 4 15 4 z M 15 14 C 17.761 14 20 16.239 20 19 C 20 21.761 17.761 24 15 24 C 12.239 24 10 21.761 10 19 C 10 16.239 12.239 14 15 14 z M 15 16 C 13.343 16 12 17.343 12 19 C 12 20.657 13.343 22 15 22 C 16.657 22 18 20.657 18 19 C 18 18.537 17.886219 18.104891 17.699219 17.712891 C 17.519219 17.889891 17.273 18 17 18 C 16.448 18 16 17.552 16 17 C 16 16.727 16.110109 16.480781 16.287109 16.300781 C 15.895109 16.113781 15.463 16 15 16 z"/></svg>