<svg xmlns="http://www.w3.org/2000/svg"  viewBox="0 0 30 30" width="100px" height="100px"><path d="M 15 3 C 14.635386 3 14.290031 3.0226513 13.962891 3.0507812 A 1.0006836 1.0006836 0 1 0 14.132812 5.0449219 C 14.433673 5.019052 14.722614 5 15 5 C 17.512991 5 19.792536 5.9279518 21.546875 7.453125 L 19 10 L 25 10 L 25 4 L 22.960938 6.0390625 C 20.842057 4.1552098 18.053677 3 15 3 z M 4 5 L 6.0390625 7.0390625 C 4.1552098 9.1579435 3 11.946323 3 15 C 3 15.364614 3.0226513 15.709969 3.0507812 16.037109 A 1.0006837 1.0006837 0 1 0 5.0449219 15.867188 C 5.0190518 15.566327 5 15.277386 5 15 C 5 12.487009 5.9279518 10.207465 7.453125 8.453125 L 10 11 L 10 5 L 4 5 z M 25.949219 13.033203 A 1.0001 1.0001 0 0 0 24.955078 14.132812 C 24.980948 14.433672 25 14.722614 25 15 C 25 17.512991 24.072049 19.792536 22.546875 21.546875 L 20 19 L 20 25 L 26 25 L 23.960938 22.960938 C 25.84479 20.842057 27 18.053677 27 15 C 27 14.635386 26.977349 14.290031 26.949219 13.962891 A 1.0001 1.0001 0 0 0 25.949219 13.033203 z M 5 20 L 5 26 L 7.0390625 23.960938 C 9.1579435 25.84479 11.946323 27 15 27 C 15.364614 27 15.709969 26.977349 16.037109 26.949219 A 1.0006842 1.0006842 0 1 0 15.867188 24.955078 C 15.566327 24.980948 15.277386 25 15 25 C 12.487009 25 10.207465 24.072049 8.453125 22.546875 L 11 20 L 5 20 z"/></svg>