<svg xmlns="http://www.w3.org/2000/svg"  viewBox="0 0 30 30" width="100px" height="100px"><path d="M 8.03125 3.28125 C 7.65125 3.24125 7.3423438 3.4402344 7.1523438 3.7402344 C 6.9623438 4.0302344 6.9415625 4.4107031 7.1015625 4.7207031 L 7.5429688 5.6113281 C 4.7729688 7.8113281 3.0019531 11.201953 3.0019531 15.001953 C 3.0019531 16.021953 3.1410938 17.001641 3.3710938 17.931641 C 3.4910938 18.471641 4.0322656 18.811406 4.5722656 18.691406 C 5.1122656 18.571406 5.4520313 18.030234 5.3320312 17.490234 C 5.3220313 17.480234 5.3225 17.461406 5.3125 17.441406 C 5.1125 16.651406 5.0019531 15.841953 5.0019531 15.001953 C 5.0019531 11.981953 6.3428906 9.2811719 8.4628906 7.4511719 L 8.7324219 8.0019531 C 8.7924219 8.1319531 8.8921875 8.2403125 8.9921875 8.3203125 C 9.1421875 8.4503125 9.33125 8.5307813 9.53125 8.5507812 C 9.56125 8.5607813 9.5910938 8.5605469 9.6210938 8.5605469 C 9.9310938 8.5605469 10.231875 8.4101562 10.421875 8.1601562 L 11.501953 6.7304688 L 12.722656 5.1210938 C 13.112656 4.7310937 13.102891 4.1009375 12.712891 3.7109375 C 12.532891 3.5309375 12.292969 3.431875 12.042969 3.421875 L 12.03125 3.421875 L 8.03125 3.28125 z M 17.972656 3.421875 C 17.422656 3.431875 16.982187 3.8816406 16.992188 4.4316406 C 16.992188 4.8816406 17.292656 5.270625 17.722656 5.390625 C 21.322656 6.410625 24.1025 9.3815625 24.8125 13.101562 L 24.191406 13.070312 C 24.051406 13.060313 23.922734 13.080859 23.802734 13.130859 C 23.612734 13.200859 23.442266 13.310234 23.322266 13.490234 C 23.122266 13.770234 23.082891 14.131172 23.212891 14.451172 L 23.921875 16.130859 L 24.671875 17.910156 C 24.771875 18.450156 25.301797 18.801406 25.841797 18.691406 C 26.121797 18.641406 26.361953 18.470469 26.501953 18.230469 L 26.511719 18.220703 L 26.521484 18.201172 L 28.632812 14.820312 C 28.822813 14.520313 28.841641 14.151797 28.681641 13.841797 C 28.511641 13.521797 28.201563 13.320781 27.851562 13.300781 L 26.861328 13.230469 C 26.171328 8.5404688 22.761484 4.7309375 18.271484 3.4609375 C 18.181484 3.4309375 18.082656 3.421875 17.972656 3.421875 z M 15.001953 7.9902344 C 13.511953 7.9902344 12.131953 8.4519531 11.001953 9.2519531 C 10.391953 9.6719531 9.8521094 10.191016 9.4121094 10.791016 C 8.7121094 11.711016 8.2420313 12.800234 8.0820312 13.990234 C 8.0220312 14.310234 8.0019531 14.650234 8.0019531 14.990234 C 8.0019531 18.860234 11.131953 21.990234 15.001953 21.990234 C 18.871953 21.990234 22.001953 18.860234 22.001953 14.990234 C 22.001953 11.460234 19.392187 8.5403125 15.992188 8.0703125 C 15.672187 8.0103125 15.341953 7.9902344 15.001953 7.9902344 z M 15.001953 10.990234 C 15.171953 10.990234 15.342422 11.031094 15.482422 11.121094 C 15.792422 11.281094 16.001953 11.610234 16.001953 11.990234 L 16.001953 13.990234 L 18.001953 13.990234 C 18.551953 13.990234 19.001953 14.440234 19.001953 14.990234 C 19.001953 15.540234 18.551953 15.990234 18.001953 15.990234 L 16.001953 15.990234 L 16.001953 17.990234 C 16.001953 18.540234 15.551953 18.990234 15.001953 18.990234 C 14.451953 18.990234 14.001953 18.540234 14.001953 17.990234 L 14.001953 15.990234 L 12.001953 15.990234 C 11.451953 15.990234 11.001953 15.540234 11.001953 14.990234 C 11.001953 14.440234 11.451953 13.990234 12.001953 13.990234 L 14.001953 13.990234 L 14.001953 11.990234 C 14.001953 11.440234 14.451953 10.990234 15.001953 10.990234 z M 22.699219 21.878906 C 22.442969 21.871406 22.182422 21.960391 21.982422 22.150391 C 21.972422 22.150391 21.972891 22.161875 21.962891 22.171875 C 20.162891 23.921875 17.711953 25.001953 15.001953 25.001953 C 13.851953 25.001953 12.762422 24.801406 11.732422 24.441406 L 12.072266 23.931641 C 12.152266 23.821641 12.192656 23.690547 12.222656 23.560547 C 12.252656 23.360547 12.242344 23.150938 12.152344 22.960938 C 12.012344 22.650937 11.711094 22.430625 11.371094 22.390625 L 9.5625 22.160156 L 7.6113281 21.910156 L 7.6015625 21.910156 C 7.5115625 21.890156 7.4125 21.870859 7.3125 21.880859 C 6.7625 21.890859 6.3220313 22.340625 6.3320312 22.890625 C 6.3320313 23.050625 6.3711719 23.211562 6.4511719 23.351562 L 6.4511719 23.361328 L 8.3320312 26.900391 C 8.5020313 27.210391 8.811875 27.411641 9.171875 27.431641 L 9.2226562 27.431641 C 9.5526562 27.431641 9.8627344 27.260469 10.052734 26.980469 L 10.601562 26.150391 C 11.961563 26.690391 13.441953 27.001953 15.001953 27.001953 C 18.241953 27.001953 21.201563 25.701563 23.351562 23.601562 C 23.761563 23.221562 23.772578 22.591406 23.392578 22.191406 C 23.207578 21.991406 22.955469 21.886406 22.699219 21.878906 z"/></svg>