<?xml version="1.0"?><svg xmlns="http://www.w3.org/2000/svg"  viewBox="0 0 30 30" width="100px" height="100px">    <path d="M 6 4 C 4.895 4 4 4.895 4 6 L 4 24 C 4 25.105 4.895 26 6 26 L 7.5566406 26 C 7.2126406 25.409 7 24.732 7 24 L 7 6 C 7 5.268 7.2126406 4.591 7.5566406 4 L 6 4 z M 11 4 C 9.895 4 9 4.895 9 6 L 9 24 C 9 25.105 9.895 26 11 26 L 24 26 C 25.105 26 26 25.105 26 24 L 26 6 C 26 4.895 25.105 4 24 4 L 11 4 z M 17.5 8 C 19.706 8 21.5 9.794 21.5 12 C 21.5 13.715 20.429359 14.704 19.568359 15.5 C 18.906359 16.111 18.5 16.512 18.5 17 L 16.5 17 C 16.5 15.611 17.448938 14.734297 18.210938 14.029297 C 19.009938 13.291297 19.5 12.799 19.5 12 C 19.5 10.897 18.603 10 17.5 10 C 16.397 10 15.5 10.897 15.5 12 L 13.5 12 C 13.5 9.794 15.294 8 17.5 8 z M 17.503906 19.648438 C 18.437906 19.648438 19 20.149813 19 21.007812 C 19 21.850812 18.437906 22.351563 17.503906 22.351562 C 16.561906 22.351562 16 21.850812 16 21.007812 C 16 20.149812 16.561906 19.648438 17.503906 19.648438 z"/></svg>