<svg xmlns="http://www.w3.org/2000/svg"  viewBox="0 0 30 30" width="100px" height="100px"><path d="M 8 6 A 1 1 0 0 0 7.2695312 6.3183594 L 2.3808594 11.205078 A 1.0001 1.0001 0 0 0 2.3828125 12.796875 L 7.2695312 17.681641 L 7.2714844 17.683594 A 1 1 0 0 0 8 18 A 1 1 0 0 0 9 17 L 9 13.414062 L 13.271484 17.683594 A 1 1 0 0 0 14 18 A 1 1 0 0 0 15 17 L 15 13 L 21 13 C 23.773666 13 26 15.226334 26 18 C 26 20.773666 23.773666 23 21 23 L 18 23 A 1.0001 1.0001 0 1 0 18 25 L 21 25 C 24.71951 25 27.714334 22.049648 27.923828 18.380859 A 1.0001 1.0001 0 0 0 28 18 C 28 14.145666 24.854334 11 21 11 L 15 11 L 15 7 A 1 1 0 0 0 14 6 A 1 1 0 0 0 13.269531 6.3183594 L 9 10.585938 L 9 7 A 1 1 0 0 0 8 6 z"/></svg>