<svg xmlns="http://www.w3.org/2000/svg"  viewBox="0 0 30 30" width="100px" height="100px"><path d="M 15 3 A 1 1 0 0 0 15 5 A 1 1 0 0 0 15 3 z M 10.753906 3.8339844 A 1.0001 1.0001 0 0 0 10.394531 3.9160156 C 6.0495899 5.7234067 3 10.012722 3 15 C 3 17.542908 3.7955788 19.908507 5.1484375 21.851562 L 4 23 L 8 23 L 8 19 L 6.59375 20.40625 C 5.5888567 18.847558 5 16.997483 5 15 C 5 10.827278 7.5450513 7.2663278 11.162109 5.7617188 A 1.0001 1.0001 0 0 0 10.753906 3.8339844 z M 19.210938 3.8378906 A 1 1 0 0 0 19.210938 5.8378906 A 1 1 0 0 0 19.210938 3.8378906 z M 22 7 L 22 11 L 23.40625 9.59375 C 24.411143 11.152441 25 13.002517 25 15 C 25 19.172722 22.454949 22.733672 18.837891 24.238281 A 1.0001 1.0001 0 1 0 19.605469 26.083984 C 23.95041 24.276593 27 19.987278 27 15 C 27 12.457092 26.204421 10.091493 24.851562 8.1484375 L 26 7 L 22 7 z M 10.789062 24.162109 A 1 1 0 0 0 10.789062 26.162109 A 1 1 0 0 0 10.789062 24.162109 z M 15 25 A 1 1 0 0 0 15 27 A 1 1 0 0 0 15 25 z"/></svg>