<svg xmlns="http://www.w3.org/2000/svg"  viewBox="0 0 30 30" width="100px" height="100px"><path d="M 6.9804688 8.9902344 A 1.0001 1.0001 0 0 0 6.2929688 9.2929688 L 1.3808594 14.205078 A 1.0001 1.0001 0 0 0 1.3769531 15.792969 A 1.0001 1.0001 0 0 0 1.3828125 15.796875 L 6.2929688 20.707031 A 1.0001 1.0001 0 1 0 7.7070312 19.292969 L 4.4140625 16 L 25.585938 16 L 22.292969 19.292969 A 1.0001 1.0001 0 1 0 23.707031 20.707031 L 28.619141 15.794922 A 1.0001 1.0001 0 0 0 28.617188 14.203125 L 23.707031 9.2929688 A 1.0001 1.0001 0 0 0 22.990234 8.9902344 A 1.0001 1.0001 0 0 0 22.292969 10.707031 L 25.585938 14 L 4.4140625 14 L 7.7070312 10.707031 A 1.0001 1.0001 0 0 0 6.9804688 8.9902344 z"/></svg>