<svg xmlns="http://www.w3.org/2000/svg"  viewBox="0 0 30 30" width="100px" height="100px"><path d="M 14.984375 2.9863281 A 1.0001 1.0001 0 0 0 14.207031 3.3769531 A 1.0001 1.0001 0 0 0 14.203125 3.3828125 L 9.2929688 8.2929688 A 1.0001 1.0001 0 1 0 10.707031 9.7070312 L 14 6.4140625 L 14 23.585938 L 10.707031 20.292969 A 1.0001 1.0001 0 0 0 9.9902344 19.990234 A 1.0001 1.0001 0 0 0 9.2929688 21.707031 L 14.205078 26.619141 A 1.0001 1.0001 0 0 0 15.796875 26.617188 L 20.707031 21.707031 A 1.0001 1.0001 0 1 0 19.292969 20.292969 L 16 23.585938 L 16 6.4140625 L 19.292969 9.7070312 A 1.0001 1.0001 0 1 0 20.707031 8.2929688 L 15.791016 3.3769531 A 1.0001 1.0001 0 0 0 14.984375 2.9863281 z"/></svg>