<?xml version="1.0"?><svg xmlns="http://www.w3.org/2000/svg"  viewBox="0 0 30 30" width="100px" height="100px">    <path d="M 6 4 C 4.895 4 4 4.895 4 6 L 4 24 C 4 25.105 4.895 26 6 26 L 24 26 C 25.105 26 26 25.105 26 24 L 26 6 C 26 4.895 25.105 4 24 4 L 6 4 z M 13 8 L 21 8 C 21.553 8 22 8.448 22 9 L 22 17 C 22 17.552 21.553 18 21 18 L 18 18 L 18 21 C 18 21.552 17.553 22 17 22 L 9 22 C 8.447 22 8 21.552 8 21 L 8 13 C 8 12.448 8.447 12 9 12 L 12 12 L 12 9 C 12 8.448 12.447 8 13 8 z M 14 11 L 14 16 L 20 16 L 20 11 L 14 11 z M 10 15 L 10 20 L 16 20 L 16 18 L 13 18 C 12.447 18 12 17.552 12 17 L 12 15 L 10 15 z"/></svg>