<svg xmlns="http://www.w3.org/2000/svg"  viewBox="0 0 30 30" width="100px" height="100px"><path d="M 6.9804688 2.9902344 A 1.0001 1.0001 0 0 0 6.2929688 3.2929688 L 2.3808594 7.2050781 A 1.0001 1.0001 0 0 0 2.3828125 8.796875 L 6.2929688 12.707031 A 1.0001 1.0001 0 1 0 7.7070312 11.292969 L 5.4140625 9 L 19 9 C 22.877484 9 26 12.122516 26 16 C 26 19.877484 22.877484 23 19 23 L 15 23 A 1.0001 1.0001 0 1 0 15 25 L 19 25 C 23.604108 25 27.275261 21.467568 27.796875 17 L 28 17 L 28 16 C 28 11.041484 23.958516 7 19 7 L 5.4140625 7 L 7.7070312 4.7070312 A 1.0001 1.0001 0 0 0 6.9804688 2.9902344 z M 3 23 A 1 1 0 0 0 2 24 A 1 1 0 0 0 3 25 A 1 1 0 0 0 4 24 A 1 1 0 0 0 3 23 z M 7 23 A 1 1 0 0 0 6 24 A 1 1 0 0 0 7 25 A 1 1 0 0 0 8 24 A 1 1 0 0 0 7 23 z M 11 23 A 1 1 0 0 0 10 24 A 1 1 0 0 0 11 25 A 1 1 0 0 0 12 24 A 1 1 0 0 0 11 23 z"/></svg>