<svg xmlns="http://www.w3.org/2000/svg"  viewBox="0 0 30 30" width="100px" height="100px"><path d="M 4 4 C 2.9069372 4 2 4.9069372 2 6 L 2 26 L 18 26 L 28 26 L 28 6 C 28 4.895 27.105 4 26 4 L 19 4 L 18 4 L 4 4 z M 4 6 L 18 6 L 18 24 L 4 24 L 4 6 z M 21 7 C 21.552 7 22 7.448 22 8 C 22 8.552 21.552 9 21 9 C 20.448 9 20 8.552 20 8 C 20 7.448 20.448 7 21 7 z M 25 7 C 25.552 7 26 7.448 26 8 C 26 8.552 25.552 9 25 9 C 24.448 9 24 8.552 24 8 C 24 7.448 24.448 7 25 7 z M 20 11 L 26 11 L 26 13 L 20 13 L 20 11 z"/></svg>