<svg xmlns="http://www.w3.org/2000/svg"  viewBox="0 0 30 30" width="100px" height="100px"><path d="M 15 3 C 8.3845336 3 3 8.3845336 3 15 A 1.0001 1.0001 0 1 0 5 15 C 5 9.4654664 9.4654664 5 15 5 C 17.511974 5 19.790481 5.9310235 21.544922 7.4550781 L 19 10 L 25 10 L 25 4 L 22.960938 6.0390625 C 20.840494 4.1553732 18.053851 3 15 3 z M 26 14 A 1 1 0 0 0 26 16 A 1 1 0 0 0 26 14 z M 4.8378906 18.210938 A 1 1 0 0 0 4.8378906 20.210938 A 1 1 0 0 0 4.8378906 18.210938 z M 25.162109 18.210938 A 1 1 0 0 0 25.162109 20.210938 A 1 1 0 0 0 25.162109 18.210938 z M 7.2226562 21.777344 A 1 1 0 0 0 7.2226562 23.777344 A 1 1 0 0 0 7.2226562 21.777344 z M 22.777344 21.777344 A 1 1 0 0 0 22.777344 23.777344 A 1 1 0 0 0 22.777344 21.777344 z M 10.789062 24.162109 A 1 1 0 0 0 10.789062 26.162109 A 1 1 0 0 0 10.789062 24.162109 z M 19.210938 24.162109 A 1 1 0 0 0 19.210938 26.162109 A 1 1 0 0 0 19.210938 24.162109 z M 15 25 A 1 1 0 0 0 15 27 A 1 1 0 0 0 15 25 z"/></svg>