<svg xmlns="http://www.w3.org/2000/svg"  viewBox="0 0 30 30" width="100px" height="100px"><path d="M 15 3 C 10.726 3 7.1454219 5.998 6.2324219 10 L 8.2949219 10 C 9.1579219 7.112 11.835 5 15 5 C 16.883916 5 18.585449 5.7575808 19.84375 6.9726562 L 18.423828 8.0605469 L 23.320312 10 L 22.957031 4.5820312 L 21.435547 5.7480469 C 19.801714 4.0619919 17.528761 3 15 3 z M 5 12 C 3.895 12 3 12.895 3 14 L 3 24 C 3 25.105 3.895 26 5 26 L 25 26 C 26.105 26 27 25.105 27 24 L 27 14 C 27 12.895 26.105 12 25 12 L 5 12 z M 5 14 L 25 14 L 25 24 L 5 24 L 5 22 L 5.4140625 21.585938 C 5.7890625 21.210938 6 20.701875 6 20.171875 L 6 17.830078 C 6 17.300078 5.7900156 16.792969 5.4160156 16.417969 L 5 16 L 5 14 z"/></svg>