<svg xmlns="http://www.w3.org/2000/svg"  viewBox="0 0 30 30" width="100px" height="100px"><path d="M 15 3 C 11.946149 3 9.1595062 4.1553732 7.0390625 6.0390625 L 5 4 L 5 10 L 11 10 L 8.4550781 7.4550781 C 10.209519 5.9310235 12.488026 5 15 5 C 20.534534 5 25 9.4654664 25 15 A 1.0001 1.0001 0 1 0 27 15 C 27 8.3845336 21.615466 3 15 3 z M 4 14 A 1 1 0 0 0 4 16 A 1 1 0 0 0 4 14 z M 4.8378906 18.210938 A 1 1 0 0 0 4.8378906 20.210938 A 1 1 0 0 0 4.8378906 18.210938 z M 25.162109 18.210938 A 1 1 0 0 0 25.162109 20.210938 A 1 1 0 0 0 25.162109 18.210938 z M 7.2226562 21.777344 A 1 1 0 0 0 7.2226562 23.777344 A 1 1 0 0 0 7.2226562 21.777344 z M 22.777344 21.777344 A 1 1 0 0 0 22.777344 23.777344 A 1 1 0 0 0 22.777344 21.777344 z M 10.789062 24.162109 A 1 1 0 0 0 10.789062 26.162109 A 1 1 0 0 0 10.789062 24.162109 z M 19.210938 24.162109 A 1 1 0 0 0 19.210938 26.162109 A 1 1 0 0 0 19.210938 24.162109 z M 15 25 A 1 1 0 0 0 15 27 A 1 1 0 0 0 15 25 z"/></svg>