<?xml version="1.0"?><svg xmlns="http://www.w3.org/2000/svg"  viewBox="0 0 30 30" width="100px" height="100px">    <path d="M 9 3 C 7.895 3 7 3.895 7 5 L 7 21 C 7 22.105 7.895 23 9 23 L 25 23 C 26.105 23 27 22.105 27 21 L 27 7 L 23 3 L 21 3 L 21 7 C 21 7.552 20.552 8 20 8 L 13 8 C 12.448 8 12 7.552 12 7 L 12 3 L 9 3 z M 17 3 L 17 6 L 19 6 L 19 3 L 17 3 z M 5 7 C 3.895 7 3 7.895 3 9 L 3 25 C 3 26.105 3.895 27 5 27 L 21 27 C 22.105 27 23 26.105 23 25 L 9 25 C 6.791 25 5 23.209 5 21 L 5 7 z M 13 13 L 21 13 C 22.105 13 23 13.895 23 15 L 23 21 L 11 21 L 11 15 C 11 13.895 11.895 13 13 13 z"/></svg>