<?xml version="1.0"?><svg xmlns="http://www.w3.org/2000/svg"  viewBox="0 0 30 30" width="100px" height="100px">    <path d="M 6 4 C 4.895 4 4 4.895 4 6 L 4 24 C 4 25.105 4.895 26 6 26 L 14.523438 26 C 14.297438 25.362 14.135594 24.695 14.058594 24 L 8 24 L 8 18 C 8 16.895 8.895 16 10 16 L 17.349609 16 C 18.894609 14.751 20.859 14 23 14 C 24.054 14 25.06 14.190437 26 14.523438 L 26 8 L 22 4 L 20 4 L 20 10 C 20 10.552 19.552 11 19 11 L 10 11 C 9.448 11 9 10.552 9 10 L 9 4 L 6 4 z M 16 4 L 16 9 L 18 9 L 18 4 L 16 4 z M 23 16 C 19.134 16 16 19.134 16 23 C 16 26.866 19.134 30 23 30 C 26.866 30 30 26.866 30 23 C 30 19.134 26.866 16 23 16 z M 21 20 C 21.25575 20 21.511531 20.097469 21.707031 20.292969 L 23 21.585938 L 24.292969 20.292969 C 24.683969 19.901969 25.316031 19.901969 25.707031 20.292969 C 26.098031 20.683969 26.098031 21.316031 25.707031 21.707031 L 24.414062 23 L 25.707031 24.292969 C 26.098031 24.683969 26.098031 25.316031 25.707031 25.707031 C 25.512031 25.902031 25.256 26 25 26 C 24.744 26 24.487969 25.902031 24.292969 25.707031 L 23 24.414062 L 21.707031 25.707031 C 21.512031 25.902031 21.256 26 21 26 C 20.744 26 20.487969 25.902031 20.292969 25.707031 C 19.901969 25.316031 19.901969 24.683969 20.292969 24.292969 L 21.585938 23 L 20.292969 21.707031 C 19.901969 21.316031 19.901969 20.683969 20.292969 20.292969 C 20.488469 20.097469 20.74425 20 21 20 z"/></svg>