<?xml version="1.0"?><svg xmlns="http://www.w3.org/2000/svg"  viewBox="0 0 30 30" width="100px" height="100px">    <path d="M 6 4 C 4.895 4 4 4.895 4 6 L 4 24 C 4 25.105 4.895 26 6 26 L 20.671875 26 L 18.671875 24 L 8 24 L 8 18 C 8 16.895 8.895 16 10 16 L 20 16 C 20.909 16 21.667156 16.609453 21.910156 17.439453 L 22.291016 17.501953 C 22.707016 17.568953 23.090672 17.7645 23.388672 18.0625 L 26 20.671875 L 26 8 L 22 4 L 20 4 L 20 10 C 20 10.552 19.552 11 19 11 L 10 11 C 9.448 11 9 10.552 9 10 L 9 4 L 6 4 z M 16 4 L 16 9 L 18 9 L 18 4 L 16 4 z M 19 19 L 19.474609 21.976562 L 25.042969 27.542969 L 27.542969 25.042969 L 21.974609 19.476562 L 19 19 z M 28.957031 26.457031 L 26.457031 28.957031 L 26.982422 29.482422 C 27.672422 30.172422 28.792422 30.172422 29.482422 29.482422 C 30.172422 28.792422 30.172422 27.672422 29.482422 26.982422 L 28.957031 26.457031 z"/></svg>