<svg xmlns="http://www.w3.org/2000/svg"  viewBox="0 0 30 30" width="100px" height="100px"><path d="M 2 7 C 0.895 7 0 7.895 0 9 L 0 21 C 0 22.105 0.895 23 2 23 L 28 23 C 29.105 23 30 22.105 30 21 L 30 9 C 30 7.895 29.104 7 28 7 L 2 7 z M 21 9 C 23.757 9 26 11.243 26 14 C 26 15.017 25.691969 15.962906 25.167969 16.753906 L 27.707031 19.292969 C 28.098031 19.683969 28.098031 20.316031 27.707031 20.707031 C 27.512031 20.902031 27.256 21 27 21 C 26.744 21 26.487969 20.902031 26.292969 20.707031 L 23.753906 18.167969 C 22.962906 18.691969 22.017 19 21 19 C 18.243 19 16 16.757 16 14 C 16 11.243 18.243 9 21 9 z M 21 11 A 3 3 0 0 0 21 17 A 3 3 0 0 0 21 11 z"/></svg>