<svg xmlns="http://www.w3.org/2000/svg"  viewBox="0 0 30 30" width="100px" height="100px"><path d="M 15 3 C 8.3845336 3 3 8.3845336 3 15 C 3 21.615466 8.3845336 27 15 27 L 25 27 C 26.105 27 27 26.105 27 25 L 27 15 C 27 8.3845336 21.615466 3 15 3 z M 15 5 C 20.534534 5 25 9.4654664 25 15 C 25 20.534534 20.534534 25 15 25 C 9.4654664 25 5 20.534534 5 15 C 5 9.4654664 9.4654664 5 15 5 z M 12.121094 11.005859 C 11.952225 11.016377 11.780922 11.039297 11.607422 11.076172 C 10.603422 11.289172 9.7385469 12.001594 9.3105469 12.933594 C 7.8235469 16.172594 12.055109 19.414938 14.037109 20.710938 C 14.623109 21.093938 15.376891 21.093938 15.962891 20.710938 C 17.944891 19.414938 22.177453 16.172594 20.689453 12.933594 C 20.261453 12.001594 19.395578 11.289172 18.392578 11.076172 C 17.003578 10.781172 15.738 11.359562 15 12.351562 C 14.353375 11.483562 13.303178 10.932236 12.121094 11.005859 z"/></svg>