<svg xmlns="http://www.w3.org/2000/svg"  viewBox="0 0 30 30" width="100px" height="100px"><path d="M 6 2 C 4.9 2 4 2.9 4 4 L 3 4 C 2.447 4 2 4.447 2 5 C 2 5.553 2.447 6 3 6 L 4 6 L 4 10 L 3 10 C 2.447 10 2 10.447 2 11 C 2 11.553 2.447 12 3 12 L 4 12 L 4 16 L 3 16 C 2.447 16 2 16.447 2 17 C 2 17.553 2.447 18 3 18 L 4 18 L 4 22 L 3 22 C 2.447 22 2 22.447 2 23 C 2 23.553 2.447 24 3 24 L 4 24 L 4 26 C 4 27.1 4.9 28 6 28 L 15.980469 28 C 14.710469 26.52 13.949219 24.6 13.949219 22.5 C 13.949219 21.99 13.999844 21.49 14.089844 21 L 9.1601562 21 C 8.2101563 21 7.6502344 19.879609 8.2402344 19.099609 C 8.8902344 18.239609 10.649531 17.300781 12.519531 16.800781 C 13.179531 17.380781 14.05 17.740234 15 17.740234 C 15.15 17.740234 15.289687 17.730938 15.429688 17.710938 L 15.439453 17.710938 C 16.289453 16.450937 17.479141 15.429297 18.869141 14.779297 C 19.949141 14.289297 21.179219 14 22.449219 14 C 23.709219 14 24.92 14.279297 26 14.779297 L 26 4 C 26 2.9 25.1 2 24 2 L 6 2 z M 15 6 C 17.11 6 18.820312 7.7501562 18.820312 9.9101562 L 18.820312 10.570312 C 18.820312 12.730313 17.11 14.480469 15 14.480469 C 12.89 14.480469 11.179688 12.730313 11.179688 10.570312 L 11.179688 9.9101562 C 11.179688 7.7501562 12.89 6 15 6 z M 22 16 C 20.7 16 19.489766 16.410859 18.509766 17.130859 C 17.249766 18.020859 16.349844 19.4 16.089844 21 C 16.029844 21.32 16 21.66 16 22 C 16 25.31 18.69 28 22 28 C 23.29 28 24.490703 27.580859 25.470703 26.880859 L 25.679688 27.089844 L 27.730469 29.150391 L 28.289062 29.710938 C 28.489062 29.900938 28.74 30 29 30 C 29.26 30 29.510938 29.900938 29.710938 29.710938 C 30.100938 29.320937 30.100938 28.679062 29.710938 28.289062 L 29.150391 27.730469 L 26.880859 25.470703 C 27.580859 24.490703 28 23.29 28 22 C 28 20.23 27.23 18.629062 26 17.539062 C 24.94 16.579062 23.54 16 22 16 z M 22 18 C 24.21 18 26 19.79 26 22 C 26 24.21 24.21 26 22 26 C 19.79 26 18 24.21 18 22 C 18 21.65 18.040859 21.32 18.130859 21 C 18.470859 19.68 19.450469 18.630937 20.730469 18.210938 C 21.130469 18.070937 21.56 18 22 18 z"/></svg>