<svg xmlns="http://www.w3.org/2000/svg"  viewBox="0 0 30 30" width="100px" height="100px"><path d="M24,4H6C4.895,4,4,4.895,4,6v18c0,1.105,0.895,2,2,2h18c1.105,0,2-0.895,2-2V6C26,4.895,25.105,4,24,4z M15.002,8	c2.209,0,4,1.791,4,4s-1.791,4-4,4c-2.209,0-4-1.791-4-4S12.793,8,15.002,8z M21.67,23H8.331c-1.091,0-1.724-1.252-1.06-2.116	c0.534-0.694,2.148-1.961,4.755-2.557c0.904,0.426,1.91,0.671,2.976,0.671c1.066,0,2.072-0.245,2.976-0.671	c2.606,0.596,4.217,1.863,4.75,2.557C23.393,21.748,22.76,23,21.67,23z"/></svg>