<svg xmlns="http://www.w3.org/2000/svg"  viewBox="0 0 30 30" width="100px" height="100px"><path d="M 14.984375 2.9863281 A 1.0001 1.0001 0 0 0 14 4 L 14 15.585938 L 11.707031 13.292969 A 1.0001 1.0001 0 0 0 10.990234 12.990234 A 1.0001 1.0001 0 0 0 10.292969 14.707031 L 14.292969 18.707031 A 1.0001 1.0001 0 0 0 15.707031 18.707031 L 19.707031 14.707031 A 1.0001 1.0001 0 1 0 18.292969 13.292969 L 16 15.585938 L 16 4 A 1.0001 1.0001 0 0 0 14.984375 2.9863281 z M 18.976562 3.7519531 A 1.0001 1.0001 0 0 0 18.634766 5.6914062 C 22.356532 7.147394 25 10.753415 25 15 C 25 20.534534 20.534534 25 15 25 C 9.4654664 25 5 20.534534 5 15 C 5 10.753415 7.6434683 7.147394 11.365234 5.6914062 A 1.0001 1.0001 0 0 0 10.996094 3.7558594 A 1.0001 1.0001 0 0 0 10.634766 3.8300781 C 6.1665317 5.5780901 3 9.9225846 3 15 C 3 21.615466 8.3845336 27 15 27 C 21.615466 27 27 21.615466 27 15 C 27 9.9225846 23.833468 5.5780904 19.365234 3.8300781 A 1.0001 1.0001 0 0 0 18.976562 3.7519531 z"/></svg>