<svg xmlns="http://www.w3.org/2000/svg"  viewBox="0 0 30 30" width="100px" height="100px"><path d="M23,2H7C5.895,2,5,2.895,5,4v22c0,1.105,0.895,2,2,2h16c1.105,0,2-0.895,2-2V4C25,2.895,24.105,2,23,2z M19,11h-8	c-0.552,0-1-0.448-1-1c0-0.552,0.448-1,1-1h8c0.552,0,1,0.448,1,1C20,10.552,19.552,11,19,11z M19,16h-8c-0.552,0-1-0.448-1-1	c0-0.552,0.448-1,1-1h8c0.552,0,1,0.448,1,1C20,15.552,19.552,16,19,16z M19,21h-8c-0.552,0-1-0.448-1-1c0-0.552,0.448-1,1-1h8	c0.552,0,1,0.448,1,1C20,20.552,19.552,21,19,21z"/></svg>