<?xml version="1.0"?><svg xmlns="http://www.w3.org/2000/svg"  viewBox="0 0 30 30" width="100px" height="100px">    <path d="M 5 4 C 4.448 4 4 4.448 4 5 L 4 9 C 4 9.552 4.448 10 5 10 L 9 10 C 9.552 10 10 9.552 10 9 L 10 5 C 10 4.448 9.552 4 9 4 L 5 4 z M 13 4 C 12.448 4 12 4.448 12 5 L 12 9 C 12 9.552 12.448 10 13 10 L 17 10 C 17.552 10 18 9.552 18 9 L 18 5 C 18 4.448 17.552 4 17 4 L 13 4 z M 21 4 C 20.448 4 20 4.448 20 5 L 20 9 C 20 9.552 20.448 10 21 10 L 25 10 C 25.552 10 26 9.552 26 9 L 26 5 C 26 4.448 25.552 4 25 4 L 21 4 z M 7 6 C 7.552 6 8 6.448 8 7 C 8 7.552 7.552 8 7 8 C 6.448 8 6 7.552 6 7 C 6 6.448 6.448 6 7 6 z M 14 6 L 16 6 L 16 8 L 14 8 L 14 6 z M 23 6 L 24.5 8 L 21.5 8 L 23 6 z M 5 12 C 4.448 12 4 12.448 4 13 L 4 17 C 4 17.552 4.448 18 5 18 L 9 18 C 9.552 18 10 17.552 10 17 L 10 13 C 10 12.448 9.552 12 9 12 L 5 12 z M 13 12 C 12.448 12 12 12.448 12 13 L 12 17 C 12 17.552 12.448 18 13 18 L 17 18 C 17.552 18 18 17.552 18 17 L 18 13 C 18 12.448 17.552 12 17 12 L 13 12 z M 21 12 C 20.448 12 20 12.448 20 13 L 20 17 C 20 17.552 20.448 18 21 18 L 25 18 C 25.552 18 26 17.552 26 17 L 26 13 C 26 12.448 25.552 12 25 12 L 21 12 z M 7 14 L 8.5 16 L 5.5 16 L 7 14 z M 15 14 C 15.552 14 16 14.448 16 15 C 16 15.552 15.552 16 15 16 C 14.448 16 14 15.552 14 15 C 14 14.448 14.448 14 15 14 z M 22 14 L 24 14 L 24 16 L 22 16 L 22 14 z M 5 20 C 4.448 20 4 20.448 4 21 L 4 25 C 4 25.552 4.448 26 5 26 L 9 26 C 9.552 26 10 25.552 10 25 L 10 21 C 10 20.448 9.552 20 9 20 L 5 20 z M 13 20 C 12.448 20 12 20.448 12 21 L 12 25 C 12 25.552 12.448 26 13 26 L 17 26 C 17.552 26 18 25.552 18 25 L 18 21 C 18 20.448 17.552 20 17 20 L 13 20 z M 21 20 C 20.448 20 20 20.448 20 21 L 20 25 C 20 25.552 20.448 26 21 26 L 25 26 C 25.552 26 26 25.552 26 25 L 26 21 C 26 20.448 25.552 20 25 20 L 21 20 z M 6 22 L 8 22 L 8 24 L 6 24 L 6 22 z M 15 22 L 16.5 24 L 13.5 24 L 15 22 z M 23 22 C 23.552 22 24 22.448 24 23 C 24 23.552 23.552 24 23 24 C 22.448 24 22 23.552 22 23 C 22 22.448 22.448 22 23 22 z"/></svg>