<svg xmlns="http://www.w3.org/2000/svg"  viewBox="0 0 30 30" width="100px" height="100px"><path d="M 7.984375 3.9863281 A 1.0001 1.0001 0 0 0 7.203125 4.3828125 L 3.2929688 8.2929688 A 1.0001 1.0001 0 1 0 4.7070312 9.7070312 L 7 7.4140625 L 7 17 A 1.0001 1.0001 0 1 0 9 17 L 9 7.4140625 L 11.292969 9.7070312 A 1.0001 1.0001 0 1 0 12.707031 8.2929688 L 8.7910156 4.3769531 A 1.0001 1.0001 0 0 0 7.984375 3.9863281 z M 22 4 A 1 1 0 0 0 21 5 A 1 1 0 0 0 22 6 A 1 1 0 0 0 23 5 A 1 1 0 0 0 22 4 z M 22 8 A 1 1 0 0 0 21 9 A 1 1 0 0 0 22 10 A 1 1 0 0 0 23 9 A 1 1 0 0 0 22 8 z M 21.984375 11.986328 A 1.0001 1.0001 0 0 0 21 13 L 21 22.585938 L 18.707031 20.292969 A 1.0001 1.0001 0 0 0 17.990234 19.990234 A 1.0001 1.0001 0 0 0 17.292969 21.707031 L 21.205078 25.619141 A 1.0001 1.0001 0 0 0 22.792969 25.623047 A 1.0001 1.0001 0 0 0 22.796875 25.617188 L 26.707031 21.707031 A 1.0001 1.0001 0 1 0 25.292969 20.292969 L 23 22.585938 L 23 13 A 1.0001 1.0001 0 0 0 21.984375 11.986328 z M 8 20 A 1 1 0 0 0 7 21 A 1 1 0 0 0 8 22 A 1 1 0 0 0 9 21 A 1 1 0 0 0 8 20 z M 8 24 A 1 1 0 0 0 7 25 A 1 1 0 0 0 8 26 A 1 1 0 0 0 9 25 A 1 1 0 0 0 8 24 z"/></svg>