<svg xmlns="http://www.w3.org/2000/svg"  viewBox="0 0 30 30" width="100px" height="100px"><path d="M 22.990234 3.9902344 A 1.0001 1.0001 0 0 0 22.292969 5.7070312 L 24.585938 8 L 11 8 A 1.0001 1.0001 0 1 0 11 10 L 24.585938 10 L 22.292969 12.292969 A 1.0001 1.0001 0 1 0 23.707031 13.707031 L 27.619141 9.7949219 A 1.0001 1.0001 0 0 0 27.623047 8.2070312 A 1.0001 1.0001 0 0 0 27.617188 8.203125 L 23.707031 4.2929688 A 1.0001 1.0001 0 0 0 22.990234 3.9902344 z M 3 8 A 1 1 0 0 0 2 9 A 1 1 0 0 0 3 10 A 1 1 0 0 0 4 9 A 1 1 0 0 0 3 8 z M 7 8 A 1 1 0 0 0 6 9 A 1 1 0 0 0 7 10 A 1 1 0 0 0 8 9 A 1 1 0 0 0 7 8 z M 5.9804688 15.990234 A 1.0001 1.0001 0 0 0 5.2929688 16.292969 L 1.3808594 20.205078 A 1.0001 1.0001 0 0 0 1.3828125 21.796875 L 5.2929688 25.707031 A 1.0001 1.0001 0 1 0 6.7070312 24.292969 L 4.4140625 22 L 18 22 A 1.0001 1.0001 0 1 0 18 20 L 4.4140625 20 L 6.7070312 17.707031 A 1.0001 1.0001 0 0 0 5.9804688 15.990234 z M 22 20 A 1 1 0 0 0 21 21 A 1 1 0 0 0 22 22 A 1 1 0 0 0 23 21 A 1 1 0 0 0 22 20 z M 26 20 A 1 1 0 0 0 25 21 A 1 1 0 0 0 26 22 A 1 1 0 0 0 27 21 A 1 1 0 0 0 26 20 z"/></svg>