<?xml version="1.0"?><svg xmlns="http://www.w3.org/2000/svg"  viewBox="0 0 30 30" width="100px" height="100px">    <path d="M 15 3 C 14.74425 3 14.488469 3.0974687 14.292969 3.2929688 L 6.2929688 11.292969 C 6.0069687 11.578969 5.9211719 12.008812 6.0761719 12.382812 C 6.2301719 12.756812 6.596 13 7 13 L 23 13 C 23.404 13 23.769828 12.756813 23.923828 12.382812 C 24.078828 12.008812 23.993031 11.578969 23.707031 11.292969 L 15.707031 3.2929688 C 15.511531 3.0974687 15.25575 3 15 3 z M 7 17 C 6.596 17 6.2301719 17.243187 6.0761719 17.617188 C 5.9211719 17.991187 6.0069688 18.421031 6.2929688 18.707031 L 14.292969 26.707031 C 14.487969 26.902031 14.744 27 15 27 C 15.256 27 15.512031 26.902031 15.707031 26.707031 L 23.707031 18.707031 C 23.993031 18.421031 24.078828 17.991187 23.923828 17.617188 C 23.769828 17.243188 23.404 17 23 17 L 7 17 z"/></svg>