<?xml version="1.0"?><svg xmlns="http://www.w3.org/2000/svg"  viewBox="0 0 30 30" width="100px" height="100px">    <path d="M 28.980469 -0.009765625 A 1.0001 1.0001 0 0 0 28.869141 0 L 24 0 A 1.0001 1.0001 0 1 0 24 2 L 26.585938 2 L 22.753906 5.8320312 A 5 5 0 0 0 20 5 A 5 5 0 0 0 15 10 A 5 5 0 0 0 20 15 A 5 5 0 0 0 25 10 A 5 5 0 0 0 24.167969 7.2460938 L 28 3.4140625 L 28 6 A 1.0001 1.0001 0 1 0 30 6 L 30 1.1269531 A 1.0001 1.0001 0 0 0 28.980469 -0.009765625 z M 10 15 A 5 5 0 0 0 5 20 A 5 5 0 0 0 5.8320312 22.753906 L 2 26.585938 L 2 24 A 1.0001 1.0001 0 0 0 0.984375 22.986328 A 1.0001 1.0001 0 0 0 0 24 L 0 28.847656 A 1.0001 1.0001 0 0 0 1.1523438 30 L 6 30 A 1.0001 1.0001 0 1 0 6 28 L 3.4140625 28 L 7.2460938 24.167969 A 5 5 0 0 0 10 25 A 5 5 0 0 0 15 20 A 5 5 0 0 0 10 15 z"/></svg>