<svg xmlns="http://www.w3.org/2000/svg"  viewBox="0 0 30 30" width="100px" height="100px"><path d="M 17 3 C 13.732669 3 11.061109 5.6437309 11.005859 8.8984375 A 1.0001 1.0001 0 0 0 11 9 A 1.0001 1.0001 0 0 0 11.005859 9.109375 C 11.033709 11.303708 11.868002 12.972332 12.605469 14.447266 C 13.355469 15.947266 14 17.25 14 19 C 14 20.668484 12.668484 22 11 22 C 9.3315161 22 8 20.668484 8 19 C 8 18.166667 8.19796 17.568064 8.4472656 16.828125 C 8.6965712 16.088186 9 15.204629 9 14.064453 A 1.0001 1.0001 0 0 0 8.9980469 14.037109 A 1.0001 1.0001 0 0 0 9 14 C 9 13.98796 8.9962018 13.97686 8.9960938 13.964844 C 8.976489 11.783893 7.1852938 10 5 10 C 2.8761616 10 1.1365181 11.688359 1.0214844 13.785156 A 1.0001 1.0001 0 0 0 1 14 A 1.0001 1.0001 0 0 0 1.0058594 14.107422 C 1.0339182 19.335495 3.0722656 24.371094 3.0722656 24.371094 A 1.0001 1.0001 0 1 0 4.9277344 23.628906 C 4.9277344 23.628906 3 18.733333 3 14 C 3 12.883334 3.8833339 12 5 12 C 6.1166661 12 7 12.883334 7 14 A 1.0001 1.0001 0 0 0 7.0019531 14.027344 A 1.0001 1.0001 0 0 0 7 14.064453 C 7 14.860277 6.8034288 15.445392 6.5527344 16.189453 C 6.3118183 16.904492 6.029939 17.769775 6.0078125 18.871094 A 1.0001 1.0001 0 0 0 6 19 A 1.0001 1.0001 0 0 0 6.0058594 19.111328 C 6.0661429 21.809549 8.2880185 24 11 24 C 13.715265 24 15.939039 21.804281 15.994141 19.101562 A 1.0001 1.0001 0 0 0 16 19 C 16 18.965781 15.996486 18.934356 15.996094 18.900391 A 1.0001 1.0001 0 0 0 15.994141 18.890625 C 15.966291 16.696292 15.131998 15.027668 14.394531 13.552734 C 13.644531 12.052734 13 10.75 13 9 C 13 6.7796254 14.779625 5 17 5 C 19.220375 5 21 6.7796254 21 9 C 21 10.388889 20.760547 12.105274 20.511719 13.722656 C 20.262891 15.340039 20 16.833333 20 18 C 20 18.833333 20.385834 19.549896 20.917969 20.082031 C 21.450104 20.614166 22.166667 21 23 21 L 24 21 L 24 23 C 24 23.404 24.243187 23.768828 24.617188 23.923828 C 24.991187 24.078828 25.421031 23.993031 25.707031 23.707031 L 28.707031 20.707031 C 28.902031 20.512031 29 20.256 29 20 C 29 19.744 28.902031 19.487969 28.707031 19.292969 L 25.707031 16.292969 C 25.421031 16.006969 24.991188 15.921172 24.617188 16.076172 C 24.243188 16.231172 24 16.596 24 17 L 24 19 L 23 19 C 22.833333 19 22.549896 18.885834 22.332031 18.667969 C 22.114166 18.450104 22 18.166667 22 18 C 22 17.166667 22.237109 15.659961 22.488281 14.027344 C 22.735388 12.421151 22.989819 10.670523 22.998047 9.0800781 C 22.998063 9.07689 22.998032 9.0734993 22.998047 9.0703125 A 1.0001 1.0001 0 0 0 23 9 A 1.0001 1.0001 0 0 0 22.994141 8.8867188 C 22.932638 5.6374216 20.263386 3 17 3 z"/></svg>