<svg xmlns="http://www.w3.org/2000/svg"  viewBox="0 0 30 30" width="100px" height="100px"><path d="M 6 4 C 4.895 4 4 4.895 4 6 L 4 24 C 4 25.105 4.895 26 6 26 L 27 26 C 27.552 26 28 25.552 28 25 L 28 21 C 28 20.448 27.552 20 27 20 L 6 20 L 6 6 L 16 6 L 16 18 L 26 18 L 26 6 C 26 4.895 25.105 4 24 4 L 6 4 z M 9 9 A 1.0001 1.0001 0 1 0 9 11 L 13 11 A 1.0001 1.0001 0 1 0 13 9 L 9 9 z M 9 13 A 1.0001 1.0001 0 1 0 9 15 L 13 15 A 1.0001 1.0001 0 1 0 13 13 L 9 13 z M 7 22 C 7.552 22 8 22.448 8 23 C 8 23.552 7.552 24 7 24 C 6.448 24 6 23.552 6 23 C 6 22.448 6.448 22 7 22 z"/></svg>