<?xml version="1.0"?><svg xmlns="http://www.w3.org/2000/svg"  viewBox="0 0 30 30" width="100px" height="100px">    <path d="M 15 3 A 1 1 0 0 0 14 4 A 1 1 0 0 0 15 5 C 20.523 5 25 9.477 25 15 C 25 20.523 20.523 25 15 25 A 1 1 0 0 0 14 26 A 1 1 0 0 0 15 27 A 1 1 0 0 0 15.095703 26.996094 C 21.678141 26.94407 27 21.594699 27 15 C 27 8.4066497 21.680184 3.0600413 15.099609 3.0058594 A 1 1 0 0 0 15 3 z M 10.789062 3.8378906 A 1 1 0 0 0 9.7890625 4.8378906 A 1 1 0 0 0 10.789062 5.8378906 A 1 1 0 0 0 11.789062 4.8378906 A 1 1 0 0 0 10.789062 3.8378906 z M 7.2226562 6.2226562 A 1 1 0 0 0 6.2226562 7.2226562 A 1 1 0 0 0 7.2226562 8.2226562 A 1 1 0 0 0 8.2226562 7.2226562 A 1 1 0 0 0 7.2226562 6.2226562 z M 15 9 C 14.447 9 14 9.448 14 10 L 14 17.585938 L 11.707031 15.292969 C 11.316031 14.901969 10.683969 14.901969 10.292969 15.292969 C 10.097969 15.487969 10 15.744 10 16 C 10 16.256 10.097969 16.512031 10.292969 16.707031 L 14.292969 20.707031 C 14.683969 21.098031 15.316031 21.098031 15.707031 20.707031 L 19.707031 16.707031 C 20.098031 16.316031 20.098031 15.683969 19.707031 15.292969 C 19.316031 14.901969 18.683969 14.901969 18.292969 15.292969 L 16 17.585938 L 16 10 C 16 9.448 15.553 9 15 9 z M 4.8378906 9.7890625 A 1 1 0 0 0 3.8378906 10.789062 A 1 1 0 0 0 4.8378906 11.789062 A 1 1 0 0 0 5.8378906 10.789062 A 1 1 0 0 0 4.8378906 9.7890625 z M 4 14 A 1 1 0 0 0 3 15 A 1 1 0 0 0 4 16 A 1 1 0 0 0 5 15 A 1 1 0 0 0 4 14 z M 4.8378906 18.210938 A 1 1 0 0 0 3.8378906 19.210938 A 1 1 0 0 0 4.8378906 20.210938 A 1 1 0 0 0 5.8378906 19.210938 A 1 1 0 0 0 4.8378906 18.210938 z M 7.2226562 21.777344 A 1 1 0 0 0 6.2226562 22.777344 A 1 1 0 0 0 7.2226562 23.777344 A 1 1 0 0 0 8.2226562 22.777344 A 1 1 0 0 0 7.2226562 21.777344 z M 10.789062 24.162109 A 1 1 0 0 0 9.7890625 25.162109 A 1 1 0 0 0 10.789062 26.162109 A 1 1 0 0 0 11.789062 25.162109 A 1 1 0 0 0 10.789062 24.162109 z"/></svg>