<svg xmlns="http://www.w3.org/2000/svg"  viewBox="0 0 30 30" width="100px" height="100px"><path d="M 6.984375 3.9863281 A 1.0001 1.0001 0 0 0 6.2070312 4.3769531 A 1.0001 1.0001 0 0 0 6.203125 4.3828125 L 3.2929688 7.2929688 C 3.0069687 7.5789688 2.9211719 8.0088125 3.0761719 8.3828125 C 3.2311719 8.7558125 3.596 9 4 9 L 6 9 L 6 21 C 6 23.749516 8.2504839 26 11 26 C 13.749516 26 16 23.749516 16 21 L 16 9 C 16 7.3315161 17.331516 6 19 6 C 20.668484 6 22 7.3315161 22 9 L 22 21 L 20 21 C 19.596 21 19.231172 21.244187 19.076172 21.617188 C 18.921172 21.991187 19.006969 22.421031 19.292969 22.707031 L 22.205078 25.619141 A 1.0001 1.0001 0 0 0 23.792969 25.623047 A 1.0001 1.0001 0 0 0 23.796875 25.617188 L 26.707031 22.707031 C 26.993031 22.421031 27.078828 21.991187 26.923828 21.617188 C 26.768828 21.244187 26.404 21 26 21 L 24 21 L 24 9 C 24 6.2504839 21.749516 4 19 4 C 16.250484 4 14 6.2504839 14 9 L 14 21 C 14 22.668484 12.668484 24 11 24 C 9.3315161 24 8 22.668484 8 21 L 8 9 L 10 9 C 10.404 9 10.768828 8.7558125 10.923828 8.3828125 C 11.078828 8.0088125 10.993031 7.5789687 10.707031 7.2929688 L 7.7910156 4.3769531 A 1.0001 1.0001 0 0 0 6.984375 3.9863281 z"/></svg>