<svg xmlns="http://www.w3.org/2000/svg"  viewBox="0 0 30 30" width="100px" height="100px"><path d="M 14 2 C 13.64 2 13.29 2.0995312 13 2.2695312 C 12.7 2.4495313 12.449531 2.7 12.269531 3 C 12.099531 3.29 12 3.64 12 4 L 12 6 L 12 9 L 12 12 L 12 13 L 12 19.5 C 9.448 18.201 8.289 18 7 18 C 5.504 18 4.0099531 18.577328 4.0019531 20.486328 L 8.5 22.5 L 11.65625 25.65625 C 13.15625 27.15625 15.192453 28 17.314453 28 L 24 28 C 26.209 28 28 26.209 28 24 L 28 14 C 28 12.895 27.104 12 26 12 C 25.2 12 24.515312 12.471391 24.195312 13.150391 C 24.061312 13.060391 24 13 24 13 C 24 11.895 23.104 11 22 11 C 20.896 11 20 11.895 20 13 L 20 12 C 20 10.895 19.104 10 18 10 C 16.896 10 16 10.895 16 12 L 16 4 C 16 2.9 15.1 2 14 2 z M 4.0019531 20.486328 L 4 20.486328 L 4 20.5 C 4 20.495 4.0019531 20.490328 4.0019531 20.486328 z M 3.5 3 A 1.5 1.5 0 0 0 3.5 6 A 1.5 1.5 0 0 0 3.5 3 z M 8.5 3 C 7.67 3 7 3.67 7 4.5 C 7 5.33 7.67 6 8.5 6 L 11 6 L 11 3 L 8.5 3 z"/></svg>