<?xml version="1.0"?><svg xmlns="http://www.w3.org/2000/svg"  viewBox="0 0 30 30" width="100px" height="100px">    <path d="M 21 8.5 A 7 7 0 0 0 14.080078 14.5 L 5.4140625 14.5 L 8.7070312 11.207031 A 1.0001 1.0001 0 0 0 7.9804688 9.4902344 A 1.0001 1.0001 0 0 0 7.2929688 9.7929688 L 2.2929688 14.792969 A 1.0001 1.0001 0 0 0 2.2929688 16.207031 L 7.2929688 21.207031 A 1.0001 1.0001 0 1 0 8.7070312 19.792969 L 5.4140625 16.5 L 14.078125 16.5 A 7 7 0 0 0 21 22.5 A 7 7 0 0 0 28 15.5 A 7 7 0 0 0 21 8.5 z"/></svg>