<svg xmlns="http://www.w3.org/2000/svg"  viewBox="0 0 30 30" width="100px" height="100px"><path d="M 9 8.5 C 5.1 8.5 2 11.6 2 15.5 C 2 19.4 5.1 22.5 9 22.5 C 12.558843 22.5 15.443026 19.915064 15.921875 16.5 L 24.585938 16.5 L 21.292969 19.792969 A 1.0001 1.0001 0 1 0 22.707031 21.207031 L 27.707031 16.207031 A 1.0001 1.0001 0 0 0 27.707031 14.792969 L 22.707031 9.7929688 A 1.0001 1.0001 0 0 0 21.990234 9.4902344 A 1.0001 1.0001 0 0 0 21.292969 11.207031 L 24.585938 14.5 L 15.921875 14.5 C 15.443026 11.084936 12.558843 8.5 9 8.5 z"/></svg>