<svg xmlns="http://www.w3.org/2000/svg"  viewBox="0 0 30 30" width="100px" height="100px"><path d="M 3 7 C 1.3550302 7 0 8.3550302 0 10 L 0 20 C 0 21.64497 1.3550302 23 3 23 L 13 23 L 27 23 C 28.64497 23 30 21.64497 30 20 L 30 10 C 30 8.3550302 28.64497 7 27 7 L 13 7 L 3 7 z M 3 9 L 13 9 C 13.56503 9 14 9.4349698 14 10 L 14 20 C 14 20.56503 13.56503 21 13 21 L 3 21 C 2.4349698 21 2 20.56503 2 20 L 2 10 C 2 9.4349698 2.4349698 9 3 9 z M 15.8125 9 L 27 9 C 27.56503 9 28 9.4349698 28 10 L 28 20 C 28 20.56503 27.56503 21 27 21 L 15.8125 21 C 15.92606 20.685108 16 20.351843 16 20 L 16 10 C 16 9.6481575 15.92606 9.3148915 15.8125 9 z"/></svg>