<svg xmlns="http://www.w3.org/2000/svg"  viewBox="0 0 30 30" width="100px" height="100px"><path d="M 6 4 C 4.9069372 4 4 4.9069372 4 6 L 4 8 C 4 9.0930628 4.9069372 10 6 10 L 24 10 C 25.093063 10 26 9.0930628 26 8 L 26 6 C 26 4.9069372 25.093063 4 24 4 L 6 4 z M 9 6 L 24 6 L 24 8 L 9 8 L 9 6 z M 6 12 C 4.9069372 12 4 12.906937 4 14 L 4 16 C 4 17.093063 4.9069372 18 6 18 L 24 18 C 25.093063 18 26 17.093063 26 16 L 26 14 C 26 12.906937 25.093063 12 24 12 L 6 12 z M 20 14 L 24 14 L 24 16 L 20 16 L 20 14 z M 6 20 C 4.9069372 20 4 20.906937 4 22 L 4 24 C 4 25.093063 4.9069372 26 6 26 L 24 26 C 25.093063 26 26 25.093063 26 24 L 26 22 C 26 20.906937 25.093063 20 24 20 L 6 20 z M 15 22 L 24 22 L 24 24 L 15 24 L 15 22 z"/></svg>