<svg xmlns="http://www.w3.org/2000/svg"  viewBox="0 0 30 30" width="100px" height="100px"><path d="M 15 2 C 10 2 4 6 4 13 L 4 17 L 4 18 C 4 19.517 4.6637969 20.597453 5.3417969 21.189453 C 5.7547969 21.551453 5.9280781 21.556016 6.2050781 21.666016 C 6.5680781 22.605016 8.891 28 15 28 C 15.034 28 15.065609 27.997094 15.099609 27.996094 L 15.107422 27.996094 C 17.397422 27.970094 19.224047 27.129 20.623047 26 L 15 26 C 9.667 26 7.9492188 20.683594 7.9492188 20.683594 L 7.7753906 20.162109 L 7.2421875 20.029297 C 7.2421875 20.029297 6.9802031 19.967547 6.6582031 19.685547 C 6.3362031 19.403547 6 18.983 6 18 L 6 17 L 7 17 C 7 10 17 15 20 8 C 20 8 23 10.76 23 17 L 23 20 L 23.818359 20 C 23.408359 21.167 22.315 22 21 22 L 16.908203 22 C 16.701203 21.419 16.152 21 15.5 21 L 14.5 21 C 13.672 21 13 21.672 13 22.5 C 13 23.328 13.672 24 14.5 24 L 15.5 24 C 15.589 24 15.676719 23.987656 15.761719 23.972656 C 15.839719 23.990656 15.92 24 16 24 L 21 24 C 23.491 24 25.566547 22.149812 25.935547 19.757812 C 26.565547 19.420813 27 18.765 27 18 L 27 17 C 27 16.261 26.596 15.624344 26 15.277344 L 26 13 C 26 9 24 4 20 4 C 20 4 19 2 15 2 z M 9.8496094 15.427734 C 9.3776094 15.427734 8.9902344 15.804156 8.9902344 16.285156 L 8.9902344 18.003906 C 8.9902344 19.411906 10.149406 20.578125 11.566406 20.578125 C 12.974406 20.578125 14.142578 19.411906 14.142578 18.003906 L 14.142578 17.144531 L 15.859375 17.144531 L 15.859375 18.003906 C 15.859375 19.411906 17.018547 20.578125 18.435547 20.578125 C 19.843547 20.578125 21.011719 19.411906 21.011719 18.003906 L 21.011719 16.285156 C 21.011719 15.804156 20.625344 15.427734 20.152344 15.427734 L 9.8496094 15.427734 z"/></svg>