<?xml version="1.0"?><svg xmlns="http://www.w3.org/2000/svg"  viewBox="0 0 30 30" width="100px" height="100px">    <path d="M 14 3 C 9 3 3 7 3 18 L 3 25 C 3 26.105 3.895 27 5 27 L 15 27 C 15 27 9 25 9 19 C 9 10 17 17 20 10 C 20 10 21 11 21 18 L 21 19 C 21 20.105 20.105 21 19 21 L 16.908203 21 C 16.701513 20.41875 16.151878 20 15.5 20 L 14.5 20 C 13.672 20 13 20.672 13 21.5 C 13 22.328 13.672 23 14.5 23 L 15 23 L 15.5 23 L 21 23 C 24.314 23 27 20.314 27 17 L 27 16 C 27 9 24 6 20 6 C 20 6 19 3 14 3 z"/></svg>