<?xml version="1.0"?><svg xmlns="http://www.w3.org/2000/svg"  viewBox="0 0 30 30" width="100px" height="100px">    <path d="M 7 4 C 5.895 4 5 4.895 5 6 L 5 20 C 5 21.105 5.895 22 7 22 L 7 10 C 7 7.794 8.794 6 11 6 L 21 6 C 21 4.895 20.105 4 19 4 L 7 4 z M 11 8 C 9.895 8 9 8.895 9 10 L 9 24 C 9 25.105 9.895 26 11 26 L 23 26 C 24.105 26 25 25.105 25 24 L 25 10 C 25 8.895 24.105 8 23 8 L 11 8 z M 13 12 L 21 12 C 21.552 12 22 12.448 22 13 C 22 13.552 21.552 14 21 14 L 13 14 C 12.448 14 12 13.552 12 13 C 12 12.448 12.448 12 13 12 z M 13 16 L 21 16 C 21.552 16 22 16.448 22 17 C 22 17.552 21.552 18 21 18 L 13 18 C 12.448 18 12 17.552 12 17 C 12 16.448 12.448 16 13 16 z M 13 20 L 21 20 C 21.552 20 22 20.448 22 21 C 22 21.552 21.552 22 21 22 L 13 22 C 12.448 22 12 21.552 12 21 C 12 20.448 12.448 20 13 20 z"/></svg>