<svg xmlns="http://www.w3.org/2000/svg"  viewBox="0 0 30 30" width="100px" height="100px"><path d="M 8.9863281 3.0078125 C 8.3442871 3.0133691 7.7171875 3.3267187 7.3359375 3.9023438 L 5.8847656 6.0878906 C 6.1537656 6.0298906 6.4289375 5.9882813 6.7109375 5.9882812 C 7.0869375 5.9882812 7.4612187 6.0424375 7.8242188 6.1484375 L 17.939453 9.078125 L 19.404297 9.5039062 L 10.107422 3.3398438 C 9.7620469 3.1110938 9.3715527 3.0044785 8.9863281 3.0078125 z M 6.8691406 7.9960938 C 5.941873 7.9212129 5.0585625 8.5052187 4.7890625 9.4335938 L 4.2070312 11.443359 C 4.7490312 11.168359 5.353 11 6 11 L 17.382812 11 L 7.2675781 8.0683594 C 7.1349531 8.0298594 7.0016074 8.006791 6.8691406 7.9960938 z M 6 13 C 4.9069372 13 4 13.906937 4 15 L 4 25 C 4 26.093063 4.9069372 27 6 27 L 24 27 C 25.093063 27 26 26.093063 26 25 L 26 15 C 26 13.906937 25.093063 13 24 13 L 6 13 z M 21 15 L 24 15 L 24 25 L 21 25 L 21 15 z"/></svg>