<?xml version="1.0"?><svg xmlns="http://www.w3.org/2000/svg"  viewBox="0 0 30 30" width="100px" height="100px">    <path d="M 5 4 C 3.895 4 3 4.895 3 6 L 3 9 L 3 25 A 1.0001 1.0001 0 0 0 4 26 L 26 26 A 1.0001 1.0001 0 0 0 27 25 L 27 8 L 27 6 C 27 4.895 26.105 4 25 4 L 5 4 z M 5 9 L 25 9 L 25 24 L 5 24 L 5 9 z M 8 13 C 7.448 13 7 13.448 7 14 L 7 15 C 7 15.552 7.448 16 8 16 L 10 16 C 10.552 16 11 15.552 11 15 L 11 14 C 11 13.448 10.552 13 10 13 L 8 13 z M 14 13 C 13.448 13 13 13.448 13 14 L 13 15 C 13 15.552 13.448 16 14 16 L 16 16 C 16.552 16 17 15.552 17 15 L 17 14 C 17 13.448 16.552 13 16 13 L 14 13 z M 20 13 C 19.448 13 19 13.448 19 14 L 19 15 C 19 15.552 19.448 16 20 16 L 22 16 C 22.552 16 23 15.552 23 15 L 23 14 C 23 13.448 22.552 13 22 13 L 20 13 z M 8 18 C 7.448 18 7 18.448 7 19 L 7 20 C 7 20.552 7.448 21 8 21 L 10 21 C 10.552 21 11 20.552 11 20 L 11 19 C 11 18.448 10.552 18 10 18 L 8 18 z M 14 18 C 13.448 18 13 18.448 13 19 L 13 20 C 13 20.552 13.448 21 14 21 L 16 21 C 16.552 21 17 20.552 17 20 L 17 19 C 17 18.448 16.552 18 16 18 L 14 18 z M 20 18 C 19.448 18 19 18.448 19 19 L 19 20 C 19 20.552 19.448 21 20 21 L 22 21 C 22.552 21 23 20.552 23 20 L 23 19 C 23 18.448 22.552 18 22 18 L 20 18 z"/></svg>