<?xml version="1.0"?><svg xmlns="http://www.w3.org/2000/svg"  viewBox="0 0 30 30" width="100px" height="100px">    <path d="M 3 6 C 2.448 6 2 6.448 2 7 L 2 13 C 2 13.552 2.448 14 3 14 L 9 14 C 9.552 14 10 13.552 10 13 L 10 7 C 10 6.448 9.552 6 9 6 L 3 6 z M 14 7 A 1.0001 1.0001 0 1 0 14 9 L 27 9 A 1.0001 1.0001 0 1 0 27 7 L 14 7 z M 6 8 C 7.105 8 8 8.895 8 10 C 8 11.104 7.105 12 6 12 C 4.895 12 4 11.104 4 10 C 4 8.895 4.895 8 6 8 z M 14 11 A 1.0001 1.0001 0 1 0 14 13 L 23 13 A 1.0001 1.0001 0 1 0 23 11 L 14 11 z M 3 17 C 2.448 17 2 17.448 2 18 L 2 24 C 2 24.552 2.448 25 3 25 L 9 25 C 9.552 25 10 24.552 10 24 L 10 18 C 10 17.448 9.552 17 9 17 L 3 17 z M 14 18 A 1.0001 1.0001 0 1 0 14 20 L 27 20 A 1.0001 1.0001 0 1 0 27 18 L 14 18 z M 4 19 L 8 19 L 8 23 L 4 23 L 4 19 z M 14 22 A 1.0001 1.0001 0 1 0 14 24 L 23 24 A 1.0001 1.0001 0 1 0 23 22 L 14 22 z"/></svg>