<svg xmlns="http://www.w3.org/2000/svg"  viewBox="0 0 30 30" width="100px" height="100px"><path d="M 2.984375 4.9863281 A 1.0001 1.0001 0 0 0 2 6 L 2 7.8320312 A 1.0001 1.0001 0 0 0 2 8.1582031 L 2 10 A 1.0001 1.0001 0 1 0 4 10 L 4 9 L 12 9 L 14 12 L 16 9 L 16 6 C 16 5.448 15.552 5 15 5 L 14 5 L 13 5 C 12.448 5 12 5.448 12 6 L 12 7 L 4 7 L 4 6 A 1.0001 1.0001 0 0 0 2.984375 4.9863281 z M 26.984375 4.9863281 A 1.0001 1.0001 0 0 0 26 6 L 26 10 A 1.0001 1.0001 0 1 0 28 10 L 28 6 A 1.0001 1.0001 0 0 0 26.984375 4.9863281 z M 19 7 A 1 1 0 0 0 18 8 A 1 1 0 0 0 19 9 A 1 1 0 0 0 20 8 A 1 1 0 0 0 19 7 z M 23 7 A 1 1 0 0 0 22 8 A 1 1 0 0 0 23 9 A 1 1 0 0 0 24 8 A 1 1 0 0 0 23 7 z M 4 18 C 2.9069372 18 2 18.906937 2 20 L 2 24 C 2 25.093063 2.9069372 26 4 26 L 6 26 C 7.0930628 26 8 25.093063 8 24 L 8 20 C 8 18.906937 7.0930628 18 6 18 L 4 18 z M 10 18 A 1.0001 1.0001 0 1 0 10 20 L 10 25 A 1.0001 1.0001 0 1 0 12 25 L 12 19 A 1.0001 1.0001 0 0 0 11 18 L 10 18 z M 20 18 C 18.906937 18 18 18.906937 18 20 L 18 24 C 18 25.093063 18.906937 26 20 26 L 22 26 C 23.093063 26 24 25.093063 24 24 L 24 20 C 24 18.906937 23.093063 18 22 18 L 20 18 z M 26 18 A 1.0001 1.0001 0 1 0 26 20 L 26 25 A 1.0001 1.0001 0 1 0 28 25 L 28 19 A 1.0001 1.0001 0 0 0 27 18 L 26 18 z M 4 20 L 6 20 L 6 24 L 4 24 L 4 20 z M 15 20 A 1 1 0 0 0 14 21 A 1 1 0 0 0 15 22 A 1 1 0 0 0 16 21 A 1 1 0 0 0 15 20 z M 20 20 L 22 20 L 22 24 L 20 24 L 20 20 z M 15 23 A 1 1 0 0 0 14 24 A 1 1 0 0 0 15 25 A 1 1 0 0 0 16 24 A 1 1 0 0 0 15 23 z"/></svg>