<svg xmlns="http://www.w3.org/2000/svg"  viewBox="0 0 30 30" width="100px" height="100px"><path d="M 8 7 C 3.593562 7 0 10.593562 0 15 C 0 19.406438 3.593562 23 8 23 L 22 23 C 26.406438 23 30 19.406438 30 15 C 30 10.593562 26.406438 7 22 7 L 8 7 z M 15 9 C 18.325553 9 21 11.674447 21 15 C 21 18.325553 18.325553 21 15 21 C 11.674447 21 9 18.325553 9 15 C 9 11.674447 11.674447 9 15 9 z M 20.271484 9 L 22 9 C 25.325562 9 28 11.674438 28 15 C 28 18.325562 25.325562 21 22 21 L 20.271484 21 C 21.93967 19.532053 23 17.387963 23 15 C 23 12.612037 21.93967 10.467947 20.271484 9 z"/></svg>