<?xml version="1.0"?><svg xmlns="http://www.w3.org/2000/svg"  viewBox="0 0 30 30" width="100px" height="100px">    <path d="M24.995,8.275l-9.047-5.026C15.665,3.095,15.345,3,15,3s-0.665,0.095-0.948,0.249L5.005,8.275C4.407,8.62,4,9.26,4,10v14 c0,1.105,0.895,2,2,2h18c1.105,0,2-0.895,2-2V10C26,9.26,25.593,8.62,24.995,8.275z M21,22H9c-0.552,0-1-0.448-1-1 c0-0.552,0.448-1,1-1h12c0.552,0,1,0.448,1,1C22,21.552,21.552,22,21,22z M21,18H9c-0.552,0-1-0.448-1-1c0-0.552,0.448-1,1-1h12 c0.552,0,1,0.448,1,1C22,17.552,21.552,18,21,18z M21,14H9c-0.552,0-1-0.448-1-1c0-0.552,0.448-1,1-1h12c0.552,0,1,0.448,1,1 C22,13.552,21.552,14,21,14z"/></svg>