<svg xmlns="http://www.w3.org/2000/svg"  viewBox="0 0 30 30" width="100px" height="100px"><path d="M 19 5 A 2 2 0 0 0 17.271484 6 L 4 6 C 3.4 6 3 6.4 3 7 C 3 7.6 3.4 8 4 8 L 17.267578 8 A 2 2 0 0 0 19 9 A 2 2 0 0 0 19 5 z M 22.699219 6 C 22.899219 6.3 23 6.6 23 7 C 23 7.4 22.899219 7.7 22.699219 8 L 26 8 C 26.6 8 27 7.6 27 7 C 27 6.4 26.6 6 26 6 L 22.699219 6 z M 9 13 A 2 2 0 0 0 7.2714844 14 L 4 14 C 3.4 14 3 14.4 3 15 C 3 15.6 3.4 16 4 16 L 7.2675781 16 A 2 2 0 0 0 9 17 A 2 2 0 0 0 9 13 z M 12.699219 14 C 12.899219 14.3 13 14.6 13 15 C 13 15.4 12.899219 15.7 12.699219 16 L 26 16 C 26.6 16 27 15.6 27 15 C 27 14.4 26.6 14 26 14 L 12.699219 14 z M 15 21 A 2 2 0 0 0 13.271484 22 L 4 22 C 3.4 22 3 22.4 3 23 C 3 23.6 3.4 24 4 24 L 13.267578 24 A 2 2 0 0 0 15 25 A 2 2 0 0 0 15 21 z M 18.699219 22 C 18.899219 22.3 19 22.6 19 23 C 19 23.4 18.899219 23.7 18.699219 24 L 26 24 C 26.6 24 27 23.6 27 23 C 27 22.4 26.6 22 26 22 L 18.699219 22 z"/></svg>