<?xml version="1.0"?><svg xmlns="http://www.w3.org/2000/svg"  viewBox="0 0 30 30" width="100px" height="100px">    <path d="M 8 6 C 5.1684037 6 2.5490626 6.9180296 0.41601562 8.4550781 A 1.0001 1.0001 0 1 0 1.5839844 10.078125 C 3.3949374 8.7731736 5.5995963 8 8 8 C 10.400404 8 12.605063 8.7731736 14.416016 10.078125 A 1.0001 1.0001 0 0 0 15.583984 10.078125 C 17.394937 8.7731736 19.599596 8 22 8 C 24.400404 8 26.605063 8.7731736 28.416016 10.078125 A 1.0001 1.0001 0 1 0 29.583984 8.4550781 C 27.450937 6.9180296 24.831596 6 22 6 C 19.402759 6 17.028707 6.8421927 15 8.15625 C 12.971293 6.8421927 10.597241 6 8 6 z M 8 10 C 4.6170551 10 1.6594803 11.874817 0.125 14.644531 A 1.0005954 1.0005954 0 1 0 1.875 15.615234 C 3.0685197 13.460949 5.3549449 12 8 12 C 10.645055 12 12.93148 13.460949 14.125 15.615234 A 1.0001 1.0001 0 0 0 15.875 15.615234 C 17.06852 13.460949 19.354945 12 22 12 C 24.645055 12 26.93148 13.460949 28.125 15.615234 A 1.0005954 1.0005954 0 1 0 29.875 14.644531 C 28.34052 11.874817 25.382945 10 22 10 C 19.144975 10 16.649298 11.381067 15 13.462891 C 13.350702 11.381067 10.855025 10 8 10 z M 8 14 A 5 5 0 0 0 3 19 A 5 5 0 0 0 8 24 A 5 5 0 0 0 13 19 A 5 5 0 0 0 8 14 z M 22 14 A 5 5 0 0 0 17 19 A 5 5 0 0 0 22 24 A 5 5 0 0 0 27 19 A 5 5 0 0 0 22 14 z"/></svg>