<?xml version="1.0"?><svg xmlns="http://www.w3.org/2000/svg"  viewBox="0 0 30 30" width="100px" height="100px">    <path d="M 8 8 C 4.6170551 8 1.6594803 9.8748172 0.125 12.644531 A 1.0005954 1.0005954 0 1 0 1.875 13.615234 C 3.0685197 11.460949 5.3549449 10 8 10 C 10.645055 10 12.93148 11.460949 14.125 13.615234 A 1.0001 1.0001 0 0 0 15.875 13.615234 C 17.06852 11.460949 19.354945 10 22 10 C 24.645055 10 26.93148 11.460949 28.125 13.615234 A 1.0005954 1.0005954 0 1 0 29.875 12.644531 C 28.34052 9.8748172 25.382945 8 22 8 C 19.144975 8 16.649298 9.3810666 15 11.462891 C 13.350702 9.3810666 10.855025 8 8 8 z M 8 12 A 5 5 0 0 0 3 17 A 5 5 0 0 0 8 22 A 5 5 0 0 0 13 17 A 5 5 0 0 0 8 12 z M 22 12 A 5 5 0 0 0 17 17 A 5 5 0 0 0 22 22 A 5 5 0 0 0 27 17 A 5 5 0 0 0 22 12 z"/></svg>