<?xml version="1.0"?><svg xmlns="http://www.w3.org/2000/svg"  viewBox="0 0 30 30" width="100px" height="100px">    <path d="M 20.990234 2.9902344 A 1.0001 1.0001 0 0 0 20.292969 4.7070312 L 22.585938 7 L 14 7 A 1.0001 1.0001 0 0 0 13.894531 7.0039062 A 5 5 0 0 0 9 3 A 5 5 0 0 0 4 8 A 5 5 0 0 0 9 13 A 5 5 0 0 0 13.900391 8.9960938 A 1.0001 1.0001 0 0 0 14 9 L 22.585938 9 L 20.292969 11.292969 A 1.0001 1.0001 0 1 0 21.707031 12.707031 L 25.707031 8.7070312 A 1.0001 1.0001 0 0 0 25.707031 7.2929688 L 21.707031 3.2929688 A 1.0001 1.0001 0 0 0 20.990234 2.9902344 z M 20.990234 16.990234 A 1.0001 1.0001 0 0 0 20.292969 18.707031 L 22.585938 21 L 14 21 A 1.0001 1.0001 0 0 0 13.894531 21.003906 A 5 5 0 0 0 9 17 A 5 5 0 0 0 4 22 A 5 5 0 0 0 9 27 A 5 5 0 0 0 13.900391 22.996094 A 1.0001 1.0001 0 0 0 14 23 L 22.585938 23 L 20.292969 25.292969 A 1.0001 1.0001 0 1 0 21.707031 26.707031 L 25.707031 22.707031 A 1.0001 1.0001 0 0 0 25.707031 21.292969 L 21.707031 17.292969 A 1.0001 1.0001 0 0 0 20.990234 16.990234 z"/></svg>