<?xml version="1.0"?><svg xmlns="http://www.w3.org/2000/svg"  viewBox="0 0 30 30" width="100px" height="100px">    <path d="M 8 4 A 5 5 0 0 0 3 9 A 5 5 0 0 0 7.0058594 13.900391 A 1.0001 1.0001 0 0 0 7 14 L 7 22.585938 L 4.7070312 20.292969 A 1.0001 1.0001 0 0 0 3.9902344 19.990234 A 1.0001 1.0001 0 0 0 3.2929688 21.707031 L 7.2929688 25.707031 A 1.0001 1.0001 0 0 0 8.7070312 25.707031 L 12.707031 21.707031 A 1.0001 1.0001 0 1 0 11.292969 20.292969 L 9 22.585938 L 9 14 A 1.0001 1.0001 0 0 0 8.9960938 13.894531 A 5 5 0 0 0 13 9 A 5 5 0 0 0 8 4 z M 22 4 A 5 5 0 0 0 17 9 A 5 5 0 0 0 21.005859 13.900391 A 1.0001 1.0001 0 0 0 21 14 L 21 22.585938 L 18.707031 20.292969 A 1.0001 1.0001 0 0 0 17.990234 19.990234 A 1.0001 1.0001 0 0 0 17.292969 21.707031 L 21.292969 25.707031 A 1.0001 1.0001 0 0 0 22.707031 25.707031 L 26.707031 21.707031 A 1.0001 1.0001 0 1 0 25.292969 20.292969 L 23 22.585938 L 23 14 A 1.0001 1.0001 0 0 0 22.996094 13.894531 A 5 5 0 0 0 27 9 A 5 5 0 0 0 22 4 z"/></svg>