<?xml version="1.0"?><svg xmlns="http://www.w3.org/2000/svg"  viewBox="0 0 30 30" width="100px" height="100px">    <path d="M 7.984375 4 A 1.0001 1.0001 0 0 0 7.2929688 4.2929688 L 3.2929688 8.2929688 A 1.0001 1.0001 0 1 0 4.7070312 9.7070312 L 7 7.4140625 L 7 16 A 1.0001 1.0001 0 0 0 7.0039062 16.105469 A 5 5 0 0 0 3 21 A 5 5 0 0 0 8 26 A 5 5 0 0 0 13 21 A 5 5 0 0 0 8.9960938 16.099609 A 1.0001 1.0001 0 0 0 9 16 L 9 7.4140625 L 11.292969 9.7070312 A 1.0001 1.0001 0 1 0 12.707031 8.2929688 L 8.7070312 4.2929688 A 1.0001 1.0001 0 0 0 7.984375 4 z M 21.984375 4 A 1.0001 1.0001 0 0 0 21.292969 4.2929688 L 17.292969 8.2929688 A 1.0001 1.0001 0 1 0 18.707031 9.7070312 L 21 7.4140625 L 21 16 A 1.0001 1.0001 0 0 0 21.003906 16.105469 A 5 5 0 0 0 17 21 A 5 5 0 0 0 22 26 A 5 5 0 0 0 27 21 A 5 5 0 0 0 22.996094 16.099609 A 1.0001 1.0001 0 0 0 23 16 L 23 7.4140625 L 25.292969 9.7070312 A 1.0001 1.0001 0 1 0 26.707031 8.2929688 L 22.707031 4.2929688 A 1.0001 1.0001 0 0 0 21.984375 4 z"/></svg>