<svg xmlns="http://www.w3.org/2000/svg"  viewBox="0 0 30 30" width="100px" height="100px"><path d="M23.007 1.9939999999999998A4.003 4.003 0 1023.007 10 4.003 4.003 0 1023.007 1.9939999999999998zM7.007 1.9939999999999998A4.003 4.003 0 107.007 10 4.003 4.003 0 107.007 1.9939999999999998zM23.802 13.373c-.15-.2-.37-.34-.62-.38h-.33c-.25.04-.48.18-.63.38l-2.92 2.91c-.28.29-.37.72-.21 1.09.15.38.52.62.92.62h2v1c0 .001 0 .001 0 .002 0 .136-.056 2.992-3.991 2.997h-7.153c-.365-1.404-1.464-2.5-2.869-2.861v-2.139h2c.4 0 .77-.24.92-.62.16-.37.07-.8-.21-1.09l-2.92-2.91c-.15-.2-.38-.34-.63-.38h-.33c-.25.04-.47.18-.62.38l-2.92 2.91c-.28.29-.37.72-.21 1.09.15.38.52.62.92.62h2v2.144c-1.72.449-2.995 1.999-2.995 3.86C3.004 25.207 4.796 27 7.007 27c1.865 0 3.418-1.281 3.863-3.007h7.14c.001 0 .001 0 .002 0 .003 0 .006 0 .01 0h.99v-.057c3.894-.424 4.984-3.3 4.999-4.907 0-.002.001-.003.001-.005v-.019c0-.004 0-.008 0-.011 0-.001 0-.001 0-.002v-.998h2c.4 0 .77-.24.92-.62.16-.37.07-.8-.21-1.09L23.802 13.373z"/></svg>