<?xml version="1.0"?><svg xmlns="http://www.w3.org/2000/svg"  viewBox="0 0 30 30" width="100px" height="100px">    <path d="M 8.9804688 2.9902344 A 1.0001 1.0001 0 0 0 8.2929688 3.2929688 L 4.2929688 7.2929688 A 1.0001 1.0001 0 0 0 4.2929688 8.7070312 L 8.2929688 12.707031 A 1.0001 1.0001 0 1 0 9.7070312 11.292969 L 7.4140625 9 L 16 9 A 1.0001 1.0001 0 0 0 16.105469 8.9960938 A 5 5 0 0 0 21 13 A 5 5 0 0 0 26 8 A 5 5 0 0 0 21 3 A 5 5 0 0 0 16.099609 7.0039062 A 1.0001 1.0001 0 0 0 16 7 L 7.4140625 7 L 9.7070312 4.7070312 A 1.0001 1.0001 0 0 0 8.9804688 2.9902344 z M 8.9804688 16.990234 A 1.0001 1.0001 0 0 0 8.2929688 17.292969 L 4.2929688 21.292969 A 1.0001 1.0001 0 0 0 4.2929688 22.707031 L 8.2929688 26.707031 A 1.0001 1.0001 0 1 0 9.7070312 25.292969 L 7.4140625 23 L 16 23 A 1.0001 1.0001 0 0 0 16.105469 22.996094 A 5 5 0 0 0 21 27 A 5 5 0 0 0 26 22 A 5 5 0 0 0 21 17 A 5 5 0 0 0 16.099609 21.003906 A 1.0001 1.0001 0 0 0 16 21 L 7.4140625 21 L 9.7070312 18.707031 A 1.0001 1.0001 0 0 0 8.9804688 16.990234 z"/></svg>