<svg xmlns="http://www.w3.org/2000/svg"  viewBox="0 0 30 30" width="100px" height="100px"><path d="M 8.9804688 2.9902344 A 1.0001 1.0001 0 0 0 8.2929688 3.2929688 L 4.3808594 7.2050781 A 1.0001 1.0001 0 0 0 4.3769531 8.7929688 A 1.0001 1.0001 0 0 0 4.3828125 8.796875 L 8.2929688 12.707031 A 1.0001 1.0001 0 1 0 9.7070312 11.292969 L 7.4140625 9 L 17 9 C 20.877484 9 24 12.122516 24 16 C 24 19.877484 20.877484 23 17 23 L 5 23 A 1.0001 1.0001 0 1 0 5 25 L 17 25 C 21.958516 25 26 20.958516 26 16 C 26 11.041484 21.958516 7 17 7 L 7.4140625 7 L 9.7070312 4.7070312 A 1.0001 1.0001 0 0 0 8.9804688 2.9902344 z"/></svg>