<?xml version="1.0"?><svg xmlns="http://www.w3.org/2000/svg"  viewBox="0 0 30 30" width="100px" height="100px">    <path d="M 15 4 C 10.605332 4 7 7.6053321 7 12 L 7 13 L 5 13 A 1 1 0 0 0 4 14 A 1 1 0 0 0 4.1777344 14.568359 L 4.1777344 14.570312 L 8.1386719 20.505859 A 1 1 0 0 0 9 21 A 1 1 0 0 0 9.8554688 20.513672 L 13.822266 14.570312 A 1 1 0 0 0 14 14 A 1 1 0 0 0 13 13 L 11 13 L 11 12 C 11 9.7666679 12.766668 8 15 8 C 17.233332 8 19 9.7666679 19 12 L 19 26 L 23 26 L 23 12 C 23 7.6053321 19.394668 4 15 4 z"/></svg>