<svg xmlns="http://www.w3.org/2000/svg"  viewBox="0 0 30 30" width="100px" height="100px"><path d="M 20.990234 2.9902344 A 1.0001 1.0001 0 0 0 20.292969 4.7070312 L 22.585938 7 L 13 7 C 8.0414839 7 4 11.041484 4 16 C 4 20.958516 8.0414839 25 13 25 L 25 25 A 1.0001 1.0001 0 1 0 25 23 L 13 23 C 9.1225161 23 6 19.877484 6 16 C 6 12.122516 9.1225161 9 13 9 L 22.585938 9 L 20.292969 11.292969 A 1.0001 1.0001 0 1 0 21.707031 12.707031 L 25.619141 8.7949219 A 1.0001 1.0001 0 0 0 25.623047 7.2070312 A 1.0001 1.0001 0 0 0 25.617188 7.203125 L 21.707031 3.2929688 A 1.0001 1.0001 0 0 0 20.990234 2.9902344 z"/></svg>