<svg xmlns="http://www.w3.org/2000/svg"  viewBox="0 0 30 30" width="100px" height="100px"><path d="M 14.724609 1 C 14.405609 1 14.137562 1.2396875 14.101562 1.5546875 L 14.050781 2.0292969 C 13.991781 2.5582969 13.602937 2.9854219 13.085938 3.1074219 C 12.956938 3.1384219 12.827172 3.1710312 12.701172 3.2070312 C 12.193172 3.3540312 11.648938 3.1799063 11.335938 2.7539062 L 11.054688 2.3710938 C 10.866687 2.1150938 10.514281 2.0402188 10.238281 2.1992188 L 9.7597656 2.4765625 C 9.4837656 2.6365625 9.372 2.9785313 9.5 3.2695312 L 9.6933594 3.7109375 C 9.9063594 4.1969375 9.7843906 4.7550938 9.4003906 5.1210938 C 9.3053906 5.2120938 9.2110937 5.3053906 9.1210938 5.4003906 C 8.7560938 5.7843906 8.1959375 5.9053594 7.7109375 5.6933594 L 7.2695312 5.5 C 6.9785312 5.372 6.6355625 5.4837656 6.4765625 5.7597656 L 6.2011719 6.2382812 C 6.0421719 6.5142813 6.1150937 6.8656875 6.3710938 7.0546875 L 6.7539062 7.3359375 C 7.1809063 7.6479375 7.3550312 8.1931719 7.2070312 8.7011719 C 7.1700312 8.8271719 7.1384219 8.9569375 7.1074219 9.0859375 C 6.9854219 9.6039375 6.5582969 9.9917813 6.0292969 10.050781 L 5.5566406 10.103516 C 5.2406406 10.138516 5 10.405609 5 10.724609 L 5 11.275391 C 5 11.594391 5.2406875 11.862484 5.5546875 11.896484 L 6.0273438 11.949219 C 6.5563437 12.008219 6.9834688 12.396062 7.1054688 12.914062 C 7.1364688 13.043062 7.1710313 13.172828 7.2070312 13.298828 C 7.3540313 13.805828 7.1799063 14.349109 6.7539062 14.662109 L 6.3710938 14.943359 C 6.1150938 15.131359 6.0402188 15.483766 6.1992188 15.759766 L 6.4785156 16.238281 C 6.6365156 16.514281 6.9785312 16.626047 7.2695312 16.498047 L 7.7109375 16.304688 C 8.1969375 16.091687 8.7570469 16.213656 9.1230469 16.597656 C 9.2140469 16.692656 9.3073437 16.786953 9.4023438 16.876953 C 9.7853437 17.241953 9.9063594 17.802109 9.6933594 18.287109 L 9.5 18.728516 C 9.372 19.019516 9.4837656 19.362484 9.7597656 19.521484 L 10.240234 19.798828 C 10.516234 19.957828 10.867641 19.882953 11.056641 19.626953 L 11.337891 19.244141 C 11.650891 18.817141 12.193172 18.641063 12.701172 18.789062 C 12.827172 18.826062 12.956938 18.859625 13.085938 18.890625 C 13.602937 19.013625 13.991781 19.43975 14.050781 19.96875 L 14.103516 20.443359 C 14.138516 20.759359 14.405609 21 14.724609 21 L 15.275391 21 C 15.594391 21 15.862438 20.759406 15.898438 20.441406 L 15.949219 19.96875 C 16.008219 19.43975 16.397063 19.012625 16.914062 18.890625 C 17.043062 18.859625 17.172828 18.825063 17.298828 18.789062 C 17.806828 18.642063 18.351063 18.816188 18.664062 19.242188 L 18.945312 19.626953 C 19.133313 19.882953 19.485719 19.955875 19.761719 19.796875 L 20.240234 19.521484 C 20.516234 19.361484 20.628 19.019516 20.5 18.728516 L 20.306641 18.287109 C 20.092641 17.802109 20.213656 17.242953 20.597656 16.876953 C 20.692656 16.785953 20.786953 16.692656 20.876953 16.597656 C 21.242953 16.214656 21.804063 16.093641 22.289062 16.306641 L 22.730469 16.5 C 23.021469 16.628 23.362484 16.516234 23.521484 16.240234 L 23.798828 15.761719 C 23.957828 15.485719 23.882953 15.134313 23.626953 14.945312 L 23.244141 14.664062 C 22.818141 14.351062 22.642063 13.806828 22.789062 13.298828 C 22.826063 13.171828 22.859625 13.043062 22.890625 12.914062 C 23.013625 12.397062 23.43975 12.008219 23.96875 11.949219 L 24.443359 11.898438 C 24.759359 11.862438 25 11.594391 25 11.275391 L 25 10.724609 C 25 10.405609 24.760359 10.137563 24.443359 10.101562 L 23.96875 10.050781 C 23.44075 9.9917813 23.012625 9.6039375 22.890625 9.0859375 C 22.859625 8.9569375 22.825063 8.8271719 22.789062 8.7011719 C 22.642063 8.1931719 22.818141 7.6489375 23.244141 7.3359375 L 23.626953 7.0546875 C 23.882953 6.8666875 23.957828 6.5142812 23.798828 6.2382812 L 23.521484 5.7597656 C 23.361484 5.4837656 23.019516 5.372 22.728516 5.5 L 22.287109 5.6933594 C 21.802109 5.9073594 21.242953 5.7863438 20.876953 5.4023438 C 20.785953 5.3073438 20.692656 5.2130469 20.597656 5.1230469 C 20.214656 4.7560469 20.093641 4.1959375 20.306641 3.7109375 L 20.5 3.2695312 C 20.628 2.9785312 20.516234 2.6355625 20.240234 2.4765625 L 19.761719 2.2011719 C 19.485719 2.0421719 19.134313 2.1150938 18.945312 2.3710938 L 18.664062 2.7558594 C 18.351062 3.1828594 17.806828 3.3569844 17.298828 3.2089844 C 17.172828 3.1729844 17.043063 3.1384219 16.914062 3.1074219 C 16.397062 2.9844219 16.008219 2.5582969 15.949219 2.0292969 L 15.896484 1.5566406 C 15.861484 1.2406406 15.594391 1 15.275391 1 L 14.724609 1 z M 15 7 C 15.1375 7 15.275859 7.05125 15.380859 7.15625 L 17.306641 9.0820312 C 17.644641 9.4210312 17.403781 10 16.925781 10 L 16 10 L 16 14 C 16 14.552 15.552 15 15 15 C 14.448 15 14 14.552 14 14 L 14 10 L 13.074219 10 C 12.596219 10 12.355359 9.4210313 12.693359 9.0820312 L 14.619141 7.15625 C 14.724141 7.05125 14.8625 7 15 7 z M 3.984375 17.986328 A 1.0001 1.0001 0 0 0 3 19 L 3 25 C 3 26.093063 3.9069372 27 5 27 L 25 27 C 26.093063 27 27 26.093063 27 25 L 27 19 A 1.0001 1.0001 0 1 0 25 19 L 25 25 L 5 25 L 5 19 A 1.0001 1.0001 0 0 0 3.984375 17.986328 z"/></svg>