<svg xmlns="http://www.w3.org/2000/svg"  viewBox="0 0 30 30" width="100px" height="100px"><path d="M 6 4 C 4.895 4 4 4.895 4 6 L 4 10 C 4 11.105 4.895 12 6 12 L 7 12 L 7 18 L 6.1992188 18 C 4.9962489 18 4 18.996249 4 20.199219 L 4 23.800781 C 4 25.003751 4.9962489 26 6.1992188 26 L 9.8007812 26 C 11.003751 26 12 25.003751 12 23.800781 L 12 23 L 18 23 L 18 24 C 18 25.105 18.895 26 20 26 L 24 26 C 25.105 26 26 25.105 26 24 L 26 20 C 26 18.895 25.105 18 24 18 L 23 18 L 23 12 L 24 12 C 25.105 12 26 11.105 26 10 L 26 6 C 26 4.895 25.105 4 24 4 L 20 4 C 18.895 4 18 4.895 18 6 L 18 7 L 12 7 L 12 6 C 12 4.895 11.105 4 10 4 L 6 4 z M 12 9 L 18 9 L 18 10 C 18 11.105 18.895 12 20 12 L 21 12 L 21 18 L 20 18 C 18.895 18 18 18.895 18 20 L 18 21 L 12 21 L 12 20.199219 C 12 18.996249 11.003751 18 9.8007812 18 L 9 18 L 9 12 L 10 12 C 11.105 12 12 11.105 12 10 L 12 9 z M 6.1992188 20 L 7.8320312 20 A 1.0001 1.0001 0 0 0 8.1582031 20 L 9.8007812 20 C 9.9238115 20 10 20.076189 10 20.199219 L 10 21.832031 A 1.0001 1.0001 0 0 0 10 22.158203 L 10 23.800781 C 10 23.923811 9.9238114 24 9.8007812 24 L 6.1992188 24 C 6.0761886 24 6 23.923811 6 23.800781 L 6 20.199219 C 6 20.076189 6.0761886 20 6.1992188 20 z"/></svg>