<svg xmlns="http://www.w3.org/2000/svg"  viewBox="0 0 30 30" width="100px" height="100px"><path d="M 15 3 C 8.3845336 3 3 8.3845336 3 15 C 3 21.615466 8.3845336 27 15 27 C 16.035866 27 17.039482 26.858853 18 26.611328 L 18 28 C 18 29.105 18.895 30 20 30 L 28 30 C 29.105 30 30 29.105 30 28 L 30 20 C 30 18.895 29.105 18 28 18 L 20 18 C 18.895 18 18 18.895 18 20 L 18 24.533203 C 17.053772 24.831221 16.049071 25 15 25 C 9.4654664 25 5 20.534534 5 15 C 5 9.4654664 9.4654664 5 15 5 C 16.889619 5 18.646852 5.5282163 20.150391 6.4355469 L 18.292969 8.2929688 A 1.0001 1.0001 0 0 0 19 10 L 24 10 A 1.0001 1.0001 0 0 0 25 9 L 25 4 A 1.0001 1.0001 0 0 0 23.970703 3 A 1.0001 1.0001 0 0 0 23.292969 3.2929688 L 21.59375 4.9921875 C 19.698371 3.7411629 17.435831 3 15 3 z M 21.765625 7.6484375 C 21.888457 7.7616488 22.005957 7.8808204 22.123047 8 L 21.414062 8 L 21.765625 7.6484375 z M 27 21 C 27.25575 21 27.511531 21.097469 27.707031 21.292969 C 28.098031 21.683969 28.098031 22.316031 27.707031 22.707031 L 23.707031 26.707031 C 23.512031 26.902031 23.256 27 23 27 C 22.744 27 22.487969 26.902031 22.292969 26.707031 L 20.292969 24.707031 C 19.901969 24.316031 19.901969 23.683969 20.292969 23.292969 C 20.683969 22.901969 21.316031 22.901969 21.707031 23.292969 L 23 24.585938 L 26.292969 21.292969 C 26.488469 21.097469 26.74425 21 27 21 z"/></svg>