<svg xmlns="http://www.w3.org/2000/svg"  viewBox="0 0 30 30" width="100px" height="100px"><path d="M1 26c0-5 5-4 6-6.707v-1.275c-3.621 0-4.626-1.491-4.626-1.491C4.266 14.953.688 4 7.13 4c0 0 .87-1 1.994-1C17 3 13.446 14.893 15.483 16.565c0 0-.844 1.44-4.483 1.44v1.288C12 22 17 21 17 26H1zM28 21H16.808c.609.503 1.169 1.148 1.572 2H28c.553 0 1-.447 1-1C29 21.447 28.553 21 28 21zM16.678 12.226c.008.243.017.507.028.774H28c.553 0 1-.447 1-1 0-.553-.447-1-1-1H16.628C16.649 11.431 16.665 11.848 16.678 12.226zM28 16H17.947l-.738 1.576C17.148 17.68 17.046 17.829 16.9 18H28c.553 0 1-.447 1-1C29 16.447 28.553 16 28 16z"/></svg>