<?xml version="1.0"?><svg xmlns="http://www.w3.org/2000/svg"  viewBox="0 0 30 30" width="100px" height="100px">    <path d="M 9 3 C 7.8333333 3 6.3298306 3.2645027 5.0546875 3.5195312 C 3.7795444 3.7745599 2.7578125 4.0292969 2.7578125 4.0292969 A 1.0001 1.0001 0 0 0 2 5 L 2 6.2773438 C 1.4043659 6.6236132 1 7.2610536 1 8 L 1 23 C 1 24.105 1.895 25 3 25 L 13.271484 25 A 2 2 0 0 0 15 26 A 2 2 0 0 0 16.730469 25 L 27 25 C 28.105 25 29 24.105 29 23 L 29 8 C 29 7.2610536 28.595634 6.6236132 28 6.2773438 L 28 5 A 1.0001 1.0001 0 0 0 27.242188 4.0292969 C 27.242188 4.0292969 26.220456 3.7745599 24.945312 3.5195312 C 23.67017 3.2645026 22.166667 3 21 3 C 19.833333 3 18.32983 3.2645027 17.054688 3.5195312 C 15.914108 3.7476472 15.185157 3.92894 15 3.9746094 C 14.814843 3.92894 14.085892 3.7476472 12.945312 3.5195312 C 11.67017 3.2645027 10.166667 3 9 3 z M 9 5 C 9.8333333 5 11.32983 5.2354973 12.554688 5.4804688 C 13.358305 5.6411924 13.615313 5.7111089 14 5.8027344 L 14 21.753906 C 13.649307 21.673492 13.530873 21.636643 12.945312 21.519531 C 11.67017 21.264503 10.166667 21 9 21 C 7.8333333 21 6.3298306 21.264503 5.0546875 21.519531 C 4.4691275 21.636643 4.4041788 21.661403 4 21.753906 L 4 5.8027344 C 4.3848219 5.711308 4.6416941 5.6411924 5.4453125 5.4804688 C 6.6701694 5.2354974 8.1666667 5 9 5 z M 21 5 C 21.833333 5 23.32983 5.2354973 24.554688 5.4804688 C 25.358306 5.6411924 25.615178 5.711308 26 5.8027344 L 26 21.753906 C 25.595821 21.661403 25.530872 21.636643 24.945312 21.519531 C 23.67017 21.264503 22.166667 21 21 21 C 19.833333 21 18.32983 21.264503 17.054688 21.519531 C 16.469127 21.636643 16.350693 21.673492 16 21.753906 L 16 5.8027344 C 16.384687 5.7111089 16.641695 5.6411924 17.445312 5.4804688 C 18.67017 5.2354974 20.166667 5 21 5 z M 21 8 A 1 1 0 0 0 20 9 A 1 1 0 0 0 21 10 A 1 1 0 0 0 22 9 A 1 1 0 0 0 21 8 z M 20 11 A 1.0001 1.0001 0 1 0 20 13 L 20 16 A 1.0001 1.0001 0 1 0 20 18 L 20.832031 18 A 1.0001 1.0001 0 0 0 21.158203 18 L 22 18 A 1.0001 1.0001 0 1 0 22 16 L 22 12 A 1.0001 1.0001 0 0 0 21 11 L 20 11 z"/></svg>