<?xml version="1.0"?><svg xmlns="http://www.w3.org/2000/svg"  viewBox="0 0 30 30" width="100px" height="100px">    <path d="M 10 4 C 6.803 4 4.9570312 6.494 4.9570312 9.5 C 4.9570312 10.512 5.4414062 11.529297 5.4414062 11.529297 C 5.2474063 11.641297 4.9278125 11.998906 5.0078125 12.628906 C 5.1578125 13.804906 5.6671875 14.101953 5.9921875 14.126953 C 6.1161875 15.224953 7.587 16.796 8 17 L 8 18.667969 C 7.083 21.417969 1 20 1 26 L 19 26 C 19 20 12.917 21.417969 12 18.667969 L 12 17 C 12.413 16.796 13.883813 15.224953 14.007812 14.126953 C 14.332812 14.101953 14.841188 13.804906 14.992188 12.628906 C 15.073187 11.996906 14.753594 11.641297 14.558594 11.529297 C 14.558594 11.529297 15.042969 10.611 15.042969 9.5 C 15.042969 7.274 14.168969 5.375 12.292969 5.375 C 12.292969 5.375 11.949 4 10 4 z M 16.847656 11 C 16.826656 11.085 16.813016 11.183719 16.791016 11.261719 C 16.971016 11.719719 17.055563 12.263812 16.976562 12.882812 C 16.971563 12.925812 16.958172 12.958 16.951172 13 L 28 13 C 28.553 13 29 12.553 29 12 C 29 11.447 28.553 11 28 11 L 16.847656 11 z M 15.427734 16 C 15.038734 16.725 14.513 17.402969 14 17.917969 L 14 18 L 28 18 C 28.553 18 29 17.553 29 17 C 29 16.447 28.553 16 28 16 L 15.427734 16 z M 19.189453 21 C 19.704453 21.531 20.154562 22.184 20.476562 23 L 28 23 C 28.553 23 29 22.553 29 22 C 29 21.447 28.553 21 28 21 L 19.189453 21 z"/></svg>