<svg xmlns="http://www.w3.org/2000/svg"  viewBox="0 0 30 30" width="100px" height="100px"><path d="M 19 3 C 15.698375 3 13 5.6983746 13 9 L 13 23.585938 L 9.2070312 19.792969 A 1.0001 1.0001 0 0 0 8.4902344 19.490234 A 1.0001 1.0001 0 0 0 7.7929688 21.207031 L 13.205078 26.619141 A 1.0001 1.0001 0 0 0 14.792969 26.623047 A 1.0001 1.0001 0 0 0 14.796875 26.617188 L 20.207031 21.207031 A 1.0001 1.0001 0 1 0 18.792969 19.792969 L 15 23.585938 L 15 9 C 15 6.7796254 16.779625 5 19 5 C 21.220375 5 23 6.7796254 23 9 C 23 11.220375 21.220375 13 19 13 L 18 13 A 1.0001 1.0001 0 1 0 18 15 L 19 15 C 22.301625 15 25 12.301625 25 9 C 25 5.6983746 22.301625 3 19 3 z"/></svg>