<?xml version="1.0"?><svg xmlns="http://www.w3.org/2000/svg"  viewBox="0 0 30 30" width="100px" height="100px">    <path d="M 4 5 C 2.895 5 2 5.895 2 7 L 2 23 C 2 24.105 2.895 25 4 25 L 26 25 C 27.105 25 28 24.105 28 23 L 28 7 C 28 5.895 27.105 5 26 5 L 4 5 z M 4.6699219 11 L 7.0039062 11 L 8.5390625 16.888672 L 8.6445312 16.888672 L 10.134766 11 L 12.330078 11 L 9.8183594 19 L 7.2460938 19 L 4.6699219 11 z M 13.982422 11 L 16.017578 11 L 16.017578 19 L 13.982422 19 L 13.982422 11 z M 18 11 L 21.503906 11 C 23.222906 11 24.386719 12.120844 24.386719 13.839844 C 24.386719 15.541844 23.161812 16.654297 21.382812 16.654297 L 20.035156 16.654297 L 20.035156 19 L 18 19 L 18 11 z M 20.035156 12.5625 L 20.035156 15.119141 L 20.955078 15.119141 C 21.820078 15.119141 22.330078 14.67475 22.330078 13.84375 C 22.330078 13.00075 21.825797 12.5625 20.966797 12.5625 L 20.035156 12.5625 z"/></svg>