<svg xmlns="http://www.w3.org/2000/svg"  viewBox="0 0 30 30" width="100px" height="100px"><path d="M 5 4 A 1.0001 1.0001 0 1 0 5 6 L 25 6 A 1.0001 1.0001 0 1 0 25 4 L 5 4 z M 4 8 C 2.9 8 2 8.9 2 10 L 2 23 C 2 24.1 2.9 25 4 25 L 10 25 C 10.7 25 11.399219 24.6 11.699219 24 L 13.300781 21 C 13.600781 20.4 14.3 20 15 20 C 15.7 20 16.399219 20.4 16.699219 21 L 18.300781 24 C 18.600781 24.6 19.3 25 20 25 L 26 25 C 27.1 25 28 24.1 28 23 L 28 10 C 28 8.9 27.1 8 26 8 L 4 8 z M 9 13 C 10.7 13 12 14.3 12 16 C 12 17.7 10.7 19 9 19 C 7.3 19 6 17.7 6 16 C 6 14.3 7.3 13 9 13 z M 21 13 C 22.7 13 24 14.3 24 16 C 24 17.7 22.7 19 21 19 C 19.3 19 18 17.7 18 16 C 18 14.3 19.3 13 21 13 z"/></svg>