<svg xmlns="http://www.w3.org/2000/svg"  viewBox="0 0 30 30" width="100px" height="100px"><path d="M25,13.278c0-1.485-1.209-2.276-2-2.276c-0.545,0-0.991,0.119-1.364,0.367c-0.358,0.192-0.806-0.146-1.021-0.49	C20.33,10.422,19.84,10,19,10c-0.502,0-0.889,0.143-1.178,0.323c-0.352,0.22-0.803,0.062-1.004-0.301C16.536,9.511,16.003,9,15,9	c-0.62,0-1.065,0.204-1.376,0.449C13.372,9.647,13,9.442,13,9.122V4.107c0-0.997-0.682-1.922-1.666-2.08C10.082,1.825,9,2.786,9,4	v15.543C7.191,18.697,4.908,18,3.207,18C2.207,18,1,18.443,1,19.572V20l5,3l3.906,3.124C10.615,26.691,11.496,27,12.404,27H21	c2.209,0,4-1.791,4-4L25,13.278z M15.923,23.888c-1.958-0.408-3.511-2.035-3.848-4.007c-0.416-2.438,0.935-4.624,2.98-5.488	c0.449-0.19,0.945,0.17,0.945,0.658v0.064c0,0.576-0.151,1.162-0.525,1.6c-0.393,0.461-0.581,1.1-0.414,1.786	c0.176,0.72,0.78,1.301,1.505,1.453C17.86,20.226,19,19.246,19,18c0-0.442-0.145-0.848-0.389-1.177	C18.24,16.323,18,15.738,18,15.115v-0.066c0-0.486,0.492-0.847,0.94-0.658C20.738,15.149,22,16.927,22,19	C22,22.113,19.155,24.562,15.923,23.888z"/></svg>