<svg xmlns="http://www.w3.org/2000/svg"  viewBox="0 0 30 30" width="100px" height="100px"><path d="M 4 5 C 2.9 5 2 5.9 2 7 L 2 24 C 2 25.1 2.9 26 4 26 L 26 26 C 27.1 26 28 25.1 28 24 L 28 7 C 28 5.9 27.1 5 26 5 L 15.019531 5 L 14.980469 5 L 4 5 z M 5 12 L 6.4609375 12 L 7.0097656 13.330078 L 7.5390625 14.640625 L 7.5292969 14.640625 L 8.359375 16.730469 L 9.0195312 15.130859 L 9.2207031 14.640625 L 9.7792969 13.330078 L 10.339844 12 L 11.970703 12 L 9.3105469 18 L 7.4804688 18 L 5 12 z M 13.539062 12 L 16.150391 12 C 17.540391 12 18.369141 12.740469 18.369141 13.980469 C 18.369141 14.440469 18.230703 14.870938 17.970703 15.210938 C 17.830703 15.390937 17.629375 15.549687 17.359375 15.679688 C 17.109375 15.789687 16.800156 15.880625 16.410156 15.890625 C 16.250156 15.910625 16.080625 15.910625 15.890625 15.890625 L 15.060547 15.890625 L 15.060547 15.900391 L 15.050781 15.900391 L 15.050781 18 L 13.539062 18 L 13.539062 12 z M 19.710938 12 L 21.660156 12 L 23.609375 16.369141 L 23.609375 12 L 25.019531 12 L 25.019531 18 L 22.75 18 L 21.099609 14.160156 L 21.099609 18 L 19.710938 18 L 19.710938 12 z M 15.050781 13.150391 L 15.050781 14.820312 L 15.939453 14.820312 C 16.499453 14.820312 16.820313 14.510234 16.820312 13.990234 C 16.820312 13.480234 16.479453 13.150391 15.939453 13.150391 L 15.050781 13.150391 z"/></svg>