<?xml version="1.0"?><svg xmlns="http://www.w3.org/2000/svg"  viewBox="0 0 30 30" width="100px" height="100px">    <path d="M 15.5 3 A 3.5 3.5 0 0 0 12 6.5 A 3.5 3.5 0 0 0 15.5 10 A 3.5 3.5 0 0 0 19 6.5 A 3.5 3.5 0 0 0 15.5 3 z M 7 7 A 3 3 0 0 0 4 10 A 3 3 0 0 0 7 13 A 3 3 0 0 0 10 10 A 3 3 0 0 0 7 7 z M 23 9 A 1 1 0 0 0 22 10 A 1 1 0 0 0 23 11 A 1 1 0 0 0 24 10 A 1 1 0 0 0 23 9 z M 25 13.75 A 1.25 1.25 0 0 0 23.75 15 A 1.25 1.25 0 0 0 25 16.25 A 1.25 1.25 0 0 0 26.25 15 A 1.25 1.25 0 0 0 25 13.75 z M 5.5 15 A 2.5 2.5 0 0 0 3 17.5 A 2.5 2.5 0 0 0 5.5 20 A 2.5 2.5 0 0 0 8 17.5 A 2.5 2.5 0 0 0 5.5 15 z M 23 19 A 2 2 0 0 0 21 21 A 2 2 0 0 0 23 23 A 2 2 0 0 0 25 21 A 2 2 0 0 0 23 19 z M 10 22 A 2 2 0 0 0 8 24 A 2 2 0 0 0 10 26 A 2 2 0 0 0 12 24 A 2 2 0 0 0 10 22 z M 17 23 A 2 2 0 0 0 15 25 A 2 2 0 0 0 17 27 A 2 2 0 0 0 19 25 A 2 2 0 0 0 17 23 z"/></svg>