<?xml version="1.0"?><svg xmlns="http://www.w3.org/2000/svg"  viewBox="0 0 30 30" width="100px" height="100px">    <path d="M 6 4 C 4.897 4 4 4.897 4 6 L 4 9 L 6 9 L 6 6 L 9 6 L 9 4 L 6 4 z M 11 4 L 11 6 L 14 6 L 14 4 L 11 4 z M 16 4 L 16 6 L 19 6 L 19 4 L 16 4 z M 21 4 L 21 6 L 24 6 L 24 9 L 26 9 L 26 6 C 26 4.897 25.103 4 24 4 L 21 4 z M 20 9 C 18.895 9 18 9.895 18 11 C 18 12.105 18.895 13 20 13 C 21.105 13 22 12.105 22 11 C 22 9.895 21.105 9 20 9 z M 4 11 L 4 14 L 6 14 L 6 11 L 4 11 z M 24.001953 11 L 24.001953 14 L 26 14 L 26 11 L 24.001953 11 z M 10 14.009766 C 9.3755 14.009766 8.7518906 14.248109 8.2753906 14.724609 L 8 15 L 8 21 L 22 21 L 22 19 L 18.726562 15.724609 C 17.860563 14.858609 16.509687 14.789094 15.554688 15.496094 L 16.681641 16.621094 C 17.104641 17.044094 17.104641 17.730344 16.681641 18.152344 C 16.259641 18.574344 15.57825 18.57825 15.15625 18.15625 L 11.726562 14.724609 C 11.250062 14.248109 10.6245 14.009766 10 14.009766 z M 4 16 L 4 19 L 6 19 L 6 16 L 4 16 z M 24.001953 16 L 24.001953 19 L 26 19 L 26 16 L 24.001953 16 z M 4 21 L 4 24 C 4 25.103 4.897 26 6 26 L 9 26 L 9 24 L 6 24 L 6 21 L 4 21 z M 24.001953 21 L 24.001953 24 L 21 24 L 21 26 L 24 26 C 25.103 26 26 25.103 26 24 L 26 21 L 24.001953 21 z M 11 24 L 11 26 L 14 26 L 14 24 L 11 24 z M 16 24 L 16 26 L 19 26 L 19 24 L 16 24 z"/></svg>