<?xml version="1.0"?><svg xmlns="http://www.w3.org/2000/svg"  viewBox="0 0 30 30" width="100px" height="100px">    <path d="M 4 4 C 2.895 4 2 4.895 2 6 L 2 11 L 2 12 L 2 26 L 28 26 L 28 12 L 28 11 L 28 6 C 28 4.895 27.105 4 26 4 L 4 4 z M 5 7 C 5.552 7 6 7.448 6 8 C 6 8.552 5.552 9 5 9 C 4.448 9 4 8.552 4 8 C 4 7.448 4.448 7 5 7 z M 9 7 C 9.552 7 10 7.448 10 8 C 10 8.552 9.552 9 9 9 C 8.448 9 8 8.552 8 8 C 8 7.448 8.448 7 9 7 z M 12 7 L 26 7 L 26 9 L 12 9 L 12 7 z M 4 12 L 26 12 L 26 24 L 4 24 L 4 12 z M 15 14 C 13.465 14 11.599609 14.615234 11.599609 14.615234 C 11.253609 14.725234 11 15.046687 11 15.429688 L 11 17 C 11 20.429 14.675781 21.935547 14.675781 21.935547 C 14.775781 21.977547 14.885 22 15 22 C 15.115 22 15.224219 21.977547 15.324219 21.935547 C 15.324219 21.935547 19 20.428 19 17 L 19 15.429688 C 19 15.046687 18.746391 14.725234 18.400391 14.615234 C 18.400391 14.615234 16.535 14 15 14 z"/></svg>