<svg xmlns="http://www.w3.org/2000/svg"  viewBox="0 0 30 30" width="100px" height="100px"><path d="M 4 4 C 2.895 4 2 4.895 2 6 L 2 11 L 2 12 L 2 22.171875 L 4 20.171875 L 4 12 L 26 12 L 26 24 L 7.828125 24 L 5.828125 26 L 28 26 L 28 12 L 28 11 L 28 6 C 28 4.895 27.105 4 26 4 L 4 4 z M 5 7 C 5.552 7 6 7.448 6 8 C 6 8.552 5.552 9 5 9 C 4.448 9 4 8.552 4 8 C 4 7.448 4.448 7 5 7 z M 9 7 C 9.552 7 10 7.448 10 8 C 10 8.552 9.552 9 9 9 C 8.448 9 8 8.552 8 8 C 8 7.448 8.448 7 9 7 z M 12 7 L 26 7 L 26 9 L 12 9 L 12 7 z M 22 14 A 2 2 0 0 0 20.005859 16.126953 L 16.884766 18.207031 A 2 2 0 0 0 16 18 A 2 2 0 0 0 14.675781 18.503906 L 11.957031 17.597656 A 2 2 0 0 0 10 16 A 2 2 0 0 0 8.0703125 18.515625 L 2.2929688 24.292969 A 1.0001 1.0001 0 1 0 3.7070312 25.707031 L 9.484375 19.929688 A 2 2 0 0 0 10 20 A 2 2 0 0 0 11.324219 19.496094 L 14.042969 20.402344 A 2 2 0 0 0 16 22 A 2 2 0 0 0 17.994141 19.873047 L 21.115234 17.792969 A 2 2 0 0 0 22 18 A 2 2 0 0 0 22 14 z"/></svg>