<?xml version="1.0"?><svg xmlns="http://www.w3.org/2000/svg"  viewBox="0 0 30 30" width="100px" height="100px">    <path d="M 5 4 C 3.895 4 3 4.895 3 6 L 3 9 L 3 25 A 1.0001 1.0001 0 0 0 4 26 L 26 26 A 1.0001 1.0001 0 0 0 27 25 L 27 8 L 27 6 C 27 4.895 26.105 4 25 4 L 5 4 z M 5 9 L 25 9 L 25 24 L 5 24 L 5 9 z M 8 12 A 1.0001 1.0001 0 1 0 8 14 L 12 14 A 1.0001 1.0001 0 1 0 12 12 L 8 12 z M 16 12 C 15.448 12 15 12.448 15 13 L 15 21 C 15 21.552 15.448 22 16 22 L 22 22 C 22.552 22 23 21.552 23 21 L 23 13 C 23 12.448 22.552 12 22 12 L 16 12 z M 8 16 A 1.0001 1.0001 0 1 0 8 18 L 12 18 A 1.0001 1.0001 0 1 0 12 16 L 8 16 z M 8 20 A 1.0001 1.0001 0 1 0 8 22 L 12 22 A 1.0001 1.0001 0 1 0 12 20 L 8 20 z"/></svg>