<?xml version="1.0"?><svg xmlns="http://www.w3.org/2000/svg"  viewBox="0 0 30 30" width="100px" height="100px">    <path d="M 5 4 C 3.895 4 3 4.895 3 6 L 3 9 L 3 27 L 16 27 C 16 26.615 16.072938 26.242531 16.210938 25.894531 C 15.648937 25.741531 15.158297 25.421 14.779297 25 L 5 25 L 5 9 L 25 9 L 25 14.779297 C 25.421 15.158297 25.741531 15.646984 25.894531 16.208984 C 26.241531 16.071984 26.614047 16 26.998047 16 L 27 16 L 27 8 L 27 6 C 27 4.895 26.105 4 25 4 L 5 4 z M 22.984375 15.986328 A 1.0001 1.0001 0 0 0 22 17 L 22 18.042969 C 21.652951 18.08085 21.314023 18.15103 20.986328 18.263672 A 2 2 0 0 0 20 18 A 2 2 0 0 0 18 20 A 2 2 0 0 0 18.261719 20.988281 C 18.149688 21.314842 18.082758 21.654257 18.044922 22 L 17 22 A 1.0001 1.0001 0 1 0 17 24 L 18.232422 24 C 18.395782 24.556018 18.637833 25.098348 18.986328 25.599609 L 18.292969 26.292969 A 1.0001 1.0001 0 1 0 19.707031 27.707031 L 20.417969 26.996094 C 20.912161 27.312033 21.449893 27.533075 22 27.685547 L 22 29 A 1.0001 1.0001 0 1 0 24 29 L 24 27.990234 C 24.457906 28.008278 24.887924 27.99746 25.251953 27.972656 C 25.753953 27.938656 25.977094 27.326703 25.621094 26.970703 L 22.675781 24.025391 C 22.302781 23.652391 22.302781 23.047781 22.675781 22.675781 C 23.048781 22.303781 23.651437 22.302781 24.023438 22.675781 L 26.970703 25.621094 C 27.326703 25.977094 27.938656 25.754953 27.972656 25.251953 C 27.997498 24.88737 28.008398 24.458701 27.990234 24 L 29 24 A 1.0001 1.0001 0 1 0 29 22 L 27.683594 22 C 27.531126 21.450534 27.311692 20.911595 26.996094 20.417969 L 27.707031 19.707031 A 1.0001 1.0001 0 0 0 26.978516 17.990234 A 1.0001 1.0001 0 0 0 26.291016 18.292969 L 25.599609 18.986328 C 25.098472 18.637537 24.555999 18.395875 24 18.232422 L 24 17 A 1.0001 1.0001 0 0 0 22.984375 15.986328 z"/></svg>