<svg xmlns="http://www.w3.org/2000/svg"  viewBox="0 0 30 30" width="100px" height="100px"><path d="M 27.886719 1.6367188 C 27.499219 1.6242188 27.100781 1.75 26.800781 2 L 18.925781 8.9023438 A 1.0001 1.0001 0 0 0 18.884766 8.9003906 A 1.0001 1.0001 0 0 0 18.695312 8.921875 C 17.254233 9.2221 16.07713 10.047526 15.417969 11.205078 C 14.951369 12.024473 14.75524 12.988439 14.822266 14 L 8 14 A 1.0001 1.0001 0 1 0 8 16 L 15.966797 16 C 15.978366 16.000373 15.988459 15.999648 16 16 A 1.0001 1.0001 0 0 0 16.003906 16 C 17.627972 16.049237 18.974604 15.891019 20.052734 15.244141 C 21.139425 14.592126 21.778921 13.393186 21.896484 11.982422 A 1.0001 1.0001 0 0 0 21.896484 11.976562 L 28.800781 4.0996094 C 29.300781 3.4996094 29.400391 2.6996094 28.900391 2.0996094 C 28.650391 1.7996094 28.274219 1.6492187 27.886719 1.6367188 z M 5 5 C 3.9 5 3 5.9 3 7 L 3 20 C 3 21.1 3.9 22 5 22 L 25 22 C 26.1 22 27 21.1 27 20 L 27 9.1992188 L 25 11.5 L 25 18 L 5 18 L 5 7 L 18 7 L 20.300781 5 L 5 5 z M 18.617188 11.078125 L 19.78125 12.320312 C 19.654439 12.904439 19.438604 13.280196 19.023438 13.529297 C 18.636336 13.761558 17.734705 13.809831 16.873047 13.867188 C 16.833897 13.225048 16.901917 12.641941 17.15625 12.195312 C 17.447671 11.683548 17.9578 11.321123 18.617188 11.078125 z M 15 19 C 15.6 19 16 19.4 16 20 C 16 20.6 15.6 21 15 21 C 14.4 21 14 20.6 14 20 C 14 19.4 14.4 19 15 19 z M 10 24 A 1.0001 1.0001 0 1 0 10 26 L 20 26 A 1.0001 1.0001 0 1 0 20 24 L 10 24 z"/></svg>