<?xml version="1.0"?><svg xmlns="http://www.w3.org/2000/svg"  viewBox="0 0 30 30" width="100px" height="100px">    <path d="M 7 3 C 5.895 3 5 3.895 5 5 L 5 25 C 5 26.105 5.895 27 7 27 L 17.736328 27 C 17.069328 26.069 16.533141 25.065 16.244141 24 L 14 24 C 13.448 24 13 23.552 13 23 C 13 22.448 13.448 22 14 22 L 16.027344 22 C 16.064344 21.285 16.240156 20.612 16.535156 20 L 14 20 C 13.448 20 13 19.552 13 19 C 13 18.448 13.448 18 14 18 L 18.207031 18 C 19.073031 17.377 20.127437 17 21.273438 17 C 22.389437 17 23.301 17.361687 24 17.804688 C 24.293 17.618688 24.632 17.454359 25 17.318359 L 25 5 C 25 3.895 24.105 3 23 3 L 7 3 z M 10 6 C 10.552 6 11 6.448 11 7 C 11 7.552 10.552 8 10 8 C 9.448 8 9 7.552 9 7 C 9 6.448 9.448 6 10 6 z M 14 6 L 20 6 C 20.552 6 21 6.448 21 7 C 21 7.552 20.552 8 20 8 L 14 8 C 13.448 8 13 7.552 13 7 C 13 6.448 13.448 6 14 6 z M 10 10 C 10.552 10 11 10.448 11 11 C 11 11.552 10.552 12 10 12 C 9.448 12 9 11.552 9 11 C 9 10.448 9.448 10 10 10 z M 14 10 L 20 10 C 20.552 10 21 10.448 21 11 C 21 11.552 20.552 12 20 12 L 14 12 C 13.448 12 13 11.552 13 11 C 13 10.448 13.448 10 14 10 z M 10 14 C 10.552 14 11 14.448 11 15 C 11 15.552 10.552 16 10 16 C 9.448 16 9 15.552 9 15 C 9 14.448 9.448 14 10 14 z M 14 14 L 20 14 C 20.552 14 21 14.448 21 15 C 21 15.552 20.552 16 20 16 L 14 16 C 13.448 16 13 15.552 13 15 C 13 14.448 13.448 14 14 14 z M 10 18 C 10.552 18 11 18.448 11 19 C 11 19.552 10.552 20 10 20 C 9.448 20 9 19.552 9 19 C 9 18.448 9.448 18 10 18 z M 21.273438 19 C 19.465437 19 18 20.465438 18 22.273438 C 18 25.41076 21.623679 28.402026 23.333984 29.746094 A 1 1 0 0 0 24 30 A 1 1 0 0 0 24.615234 29.787109 C 24.616705 29.785956 24.61962 29.784359 24.621094 29.783203 A 1 1 0 0 0 24.634766 29.771484 C 26.33406 28.437471 30 25.426559 30 22.273438 C 30 20.465438 28.534563 19 26.726562 19 C 24.999562 19 24 20.5 24 20.5 C 24 20.5 23.000438 19 21.273438 19 z M 10 22 C 10.552 22 11 22.448 11 23 C 11 23.552 10.552 24 10 24 C 9.448 24 9 23.552 9 23 C 9 22.448 9.448 22 10 22 z"/></svg>