<?xml version="1.0"?><svg xmlns="http://www.w3.org/2000/svg"  viewBox="0 0 30 30" width="100px" height="100px">    <path d="M 6 4 C 4.9069372 4 4 4.9069372 4 6 L 4 24 C 4 25.093063 4.9069372 26 6 26 L 24 26 C 25.093063 26 26 25.093063 26 24 L 26 6 C 26 4.9069372 25.093063 4 24 4 L 6 4 z M 6 6 L 24 6 L 24 24 L 6 24 L 6 6 z M 8 8 L 8 22 L 22 22 L 22 8 L 8 8 z M 15 9.6132812 C 16.17 9.6132812 17.149281 10.384406 17.488281 11.441406 C 18.598281 11.438406 19.634094 12.131141 19.996094 13.244141 C 20.358094 14.357141 19.927344 15.525781 19.027344 16.175781 C 19.373344 17.230781 19.033891 18.430187 18.087891 19.117188 C 17.141891 19.805187 15.896 19.756563 15 19.101562 C 14.104 19.756563 12.859109 19.805187 11.912109 19.117188 C 10.966109 18.429188 10.626656 17.230781 10.972656 16.175781 C 10.072656 15.525781 9.6419062 14.357141 10.003906 13.244141 C 10.365906 12.131141 11.401719 11.438406 12.511719 11.441406 C 12.850719 10.384406 13.83 9.6132812 15 9.6132812 z M 15 13 A 2 2 0 0 0 13 15 A 2 2 0 0 0 15 17 A 2 2 0 0 0 17 15 A 2 2 0 0 0 15 13 z"/></svg>