<svg xmlns="http://www.w3.org/2000/svg"  viewBox="0 0 30 30" width="100px" height="100px"><path d="M 13 3 C 7.4886661 3 3 7.4886661 3 13 C 3 18.511334 7.4886661 23 13 23 C 15.396652 23 17.59741 22.148942 19.322266 20.736328 L 25.292969 26.707031 A 1.0001 1.0001 0 1 0 26.707031 25.292969 L 20.736328 19.322266 C 22.148942 17.59741 23 15.396652 23 13 C 23 7.4886661 18.511334 3 13 3 z M 13 5 C 17.430666 5 21 8.5693339 21 13 C 21 17.430666 17.430666 21 13 21 C 8.5693339 21 5 17.430666 5 13 C 5 8.5693339 8.5693339 5 13 5 z M 12.984375 7.9863281 A 1.0001 1.0001 0 0 0 12 9 L 12 12 L 9 12 A 1.0001 1.0001 0 1 0 9 14 L 12 14 L 12 17 A 1.0001 1.0001 0 1 0 14 17 L 14 14 L 17 14 A 1.0001 1.0001 0 1 0 17 12 L 14 12 L 14 9 A 1.0001 1.0001 0 0 0 12.984375 7.9863281 z"/></svg>