<svg xmlns="http://www.w3.org/2000/svg"  viewBox="0 0 30 30" width="100px" height="100px"><path d="M 13 3 C 8.18 3 4.1292188 6.44 3.1992188 11 L 5.25 11 C 6.13 7.55 9.26 5 13 5 C 17.43 5 21 8.57 21 13 C 21 17.43 17.43 21 13 21 C 10.03 21 7.4405469 19.39 6.0605469 17 L 3.8398438 17 C 5.3798438 20.53 8.91 23 13 23 C 15.4 23 17.600312 22.150234 19.320312 20.740234 L 25.289062 26.710938 C 25.679063 27.110937 26.310938 27.120234 26.710938 26.740234 C 27.110937 26.350234 27.120234 25.720312 26.740234 25.320312 L 26.710938 25.289062 L 20.740234 19.320312 C 22.150234 17.600313 23 15.4 23 13 C 23 7.49 18.51 3 13 3 z M 14.060547 10.089844 C 13.940547 10.089844 13.819453 10.110156 13.689453 10.160156 C 13.569453 10.210156 13.460859 10.290859 13.380859 10.380859 C 13.290859 10.470859 13.25 10.569687 13.25 10.679688 C 13.25 10.759688 13.270078 10.839688 13.330078 10.929688 L 14.660156 13.060547 L 13.269531 15.189453 C 13.219531 15.269453 13.199219 15.349922 13.199219 15.419922 C 13.199219 15.529922 13.249844 15.630703 13.339844 15.720703 C 13.429844 15.820703 13.539922 15.889219 13.669922 15.949219 C 13.799922 15.999219 13.919297 16.029297 14.029297 16.029297 C 14.099297 16.029297 14.150937 16.02 14.210938 16 C 14.260938 15.98 14.300078 15.950391 14.330078 15.900391 L 15.5 13.919922 L 16.660156 15.900391 C 16.690156 15.950391 16.729297 15.98 16.779297 16 C 16.839297 16.02 16.900937 16.029297 16.960938 16.029297 C 17.080938 16.029297 17.200078 15.999219 17.330078 15.949219 C 17.460078 15.889219 17.570156 15.820703 17.660156 15.720703 C 17.750156 15.630703 17.789062 15.529922 17.789062 15.419922 C 17.789062 15.349922 17.770703 15.269453 17.720703 15.189453 L 16.339844 13.060547 L 17.660156 10.929688 C 17.720156 10.839688 17.740234 10.759688 17.740234 10.679688 C 17.740234 10.569688 17.699141 10.470859 17.619141 10.380859 C 17.529141 10.290859 17.420781 10.210156 17.300781 10.160156 C 17.170781 10.110156 17.049453 10.089844 16.939453 10.089844 C 16.849453 10.089844 16.780703 10.100625 16.720703 10.140625 C 16.650703 10.170625 16.600547 10.220781 16.560547 10.300781 L 15.5 12.150391 L 14.429688 10.300781 C 14.389688 10.220781 14.339297 10.170625 14.279297 10.140625 C 14.219297 10.100625 14.150547 10.089844 14.060547 10.089844 z M 11.089844 10.140625 C 10.779844 10.140625 10.490703 10.200313 10.220703 10.320312 C 9.9407031 10.440312 9.7090625 10.609844 9.5390625 10.839844 C 9.3690625 11.069844 9.2792969 11.349922 9.2792969 11.669922 C 9.2792969 11.919922 9.3294531 12.089688 9.4394531 12.179688 C 9.5494531 12.279687 9.6798437 12.320313 9.8398438 12.320312 C 10.039844 12.320312 10.200312 12.269687 10.320312 12.179688 C 10.440312 12.089688 10.5 11.979375 10.5 11.859375 C 10.5 11.649375 10.559688 11.490391 10.679688 11.400391 C 10.799687 11.310391 10.939609 11.259766 11.099609 11.259766 C 11.249609 11.259766 11.359219 11.289609 11.449219 11.349609 C 11.539219 11.409609 11.600625 11.480312 11.640625 11.570312 C 11.680625 11.660312 11.699219 11.750078 11.699219 11.830078 C 11.699219 12.000078 11.639531 12.170313 11.519531 12.320312 C 11.399531 12.480313 11.240781 12.629297 11.050781 12.779297 C 10.860781 12.929297 10.659453 13.090234 10.439453 13.240234 C 10.289453 13.350234 10.14 13.460078 10 13.580078 C 9.94 13.630078 9.8800781 13.670703 9.8300781 13.720703 C 9.6400781 13.880703 9.479375 14.050234 9.359375 14.240234 C 9.239375 14.420234 9.1796875 14.620313 9.1796875 14.820312 L 9.1796875 15.359375 L 9.1796875 15.599609 C 9.1796875 15.719609 9.2491406 15.810859 9.3691406 15.880859 C 9.4991406 15.950859 9.6204688 15.980469 9.7304688 15.980469 L 12.580078 15.980469 C 12.680078 15.980469 12.769844 15.930313 12.839844 15.820312 C 12.919844 15.700313 12.949219 15.579687 12.949219 15.429688 C 12.949219 15.289687 12.919844 15.160547 12.839844 15.060547 C 12.769844 14.950547 12.680078 14.900391 12.580078 14.900391 L 10.480469 14.900391 L 10.480469 14.820312 C 10.480469 14.700313 10.540156 14.580937 10.660156 14.460938 C 10.780156 14.350938 10.929141 14.229609 11.119141 14.099609 C 11.309141 13.979609 11.500703 13.839453 11.720703 13.689453 C 11.930703 13.539453 12.120547 13.369453 12.310547 13.189453 C 12.500547 12.999453 12.649531 12.800313 12.769531 12.570312 C 12.889531 12.340312 12.949219 12.079062 12.949219 11.789062 C 12.949219 11.439063 12.859687 11.130625 12.679688 10.890625 C 12.499688 10.640625 12.270469 10.460078 11.980469 10.330078 C 11.690469 10.200078 11.399844 10.140625 11.089844 10.140625 z M 2 13 C 1.45 13 1 13.45 1 14 C 1 14.55 1.45 15 2 15 L 3.1992188 15 L 5.25 15 L 6 15 C 6.55 15 7 14.55 7 14 C 7 13.45 6.55 13 6 13 L 5 13 L 3 13 L 2 13 z"/></svg>