<svg xmlns="http://www.w3.org/2000/svg"  viewBox="0 0 30 30" width="100px" height="100px"><path d="M 13 3 C 7.49 3 3 7.49 3 13 C 3 18.51 7.49 23 13 23 C 15.4 23 17.600312 22.150234 19.320312 20.740234 L 25.289062 26.710938 C 25.679063 27.110937 26.310938 27.120234 26.710938 26.740234 C 27.110937 26.350234 27.120234 25.720312 26.740234 25.320312 L 26.710938 25.289062 L 20.740234 19.320312 C 22.150234 17.600313 23 15.4 23 13 C 23 7.49 18.51 3 13 3 z M 13 5 C 17.43 5 21 8.57 21 13 C 21 17.43 17.43 21 13 21 C 8.57 21 5 17.43 5 13 C 5 8.57 8.57 5 13 5 z M 13 7 C 12.447 7 12 7.447 12 8 L 12 10 L 10 10 C 9.447 10 9 10.447 9 11 C 9 11.553 9.447 12 10 12 L 12 12 L 12 14 C 12 14.553 12.447 15 13 15 C 13.553 15 14 14.553 14 14 L 14 12 L 16 12 C 16.553 12 17 11.553 17 11 C 17 10.447 16.553 10 16 10 L 14 10 L 14 8 C 14 7.447 13.553 7 13 7 z M 11 17 C 10.447 17 10 17.447 10 18 C 10 18.553 10.447 19 11 19 L 15 19 C 15.553 19 16 18.553 16 18 C 16 17.447 15.553 17 15 17 L 11 17 z"/></svg>